M48
; DRILL file {KiCad 9.0.1} date 2025-04-16T23:17:08-0500
; FORMAT={-:-/ absolute / inch / decimal}
; #@! TF.CreationDate,2025-04-16T23:17:08-05:00
; #@! TF.GenerationSoftware,Kicad,Pcbnew,9.0.1
; #@! TF.FileFunction,Plated,1,4,PTH
FMAT,2
INCH
; #@! TA.AperFunction,Plated,PTH,ViaDrill
T1C0.0079
; #@! TA.AperFunction,Plated,PTH,ComponentDrill
T2C0.0079
; #@! TA.AperFunction,Plated,PTH,ComponentDrill
T3C0.0315
; #@! TA.AperFunction,Plated,PTH,ComponentDrill
T4C0.0362
; #@! TA.AperFunction,Plated,PTH,ComponentDrill
T5C0.0906
%
G90
G05
T1
X4.4449Y-4.646
X4.4606Y-3.1732
X4.4675Y-4.9019
X4.4902Y-4.7897
X4.4941Y-4.9334
X4.5138Y-3.1732
X4.5157Y-4.646
X4.5256Y-4.9334
X4.5295Y-4.768
X4.5935Y-2.7628
X4.6142Y-3.315
X4.6161Y-3.2244
X4.6201Y-4.8566
X4.6732Y-3.124
X4.6752Y-3.0827
X4.6988Y-3.2264
X4.7008Y-3.313
X4.7146Y-4.7326
X4.7362Y-4.648
X4.7421Y-4.0669
X4.7618Y-3.1417
X4.8104Y-3.3386
X4.8189Y-3.4232
X4.8228Y-3.1417
X4.8681Y-3.378
X4.876Y-3.4646
X4.9488Y-2.6201
X4.9833Y-2.9744
X5.0Y-4.6791
X5.0157Y-3.248
X5.0472Y-3.2028
X5.2382Y-3.2717
X5.2539Y-3.3189
X5.2925Y-4.646
X5.2972Y-3.3406
X5.3012Y-3.2854
X5.3268Y-3.8307
X5.3346Y-2.8543
X5.3358Y-4.7877
X5.3437Y-4.9137
X5.3494Y-4.9498
X5.3634Y-4.646
X5.3661Y-3.622
X5.3661Y-3.7677
X5.3701Y-4.9291
X5.3713Y-4.7621
X5.4618Y-4.8547
X5.498Y-3.4075
X5.5335Y-3.3366
X5.5344Y-3.2559
X5.5714Y-3.2559
X5.5728Y-3.3346
X5.5787Y-3.9528
X5.5819Y-4.7582
X5.5957Y-4.6539
X5.6378Y-3.4173
X5.7047Y-3.9528
X5.7559Y-3.4173
X5.7874Y-3.9685
X5.8051Y-3.3811
X5.815Y-2.8652
X5.876Y-4.5335
X5.9311Y-3.8268
X6.0039Y-3.2028
X6.0236Y-3.5
X6.0354Y-3.2343
X6.0669Y-3.5335
X6.0906Y-3.5778
X6.1083Y-3.435
X6.124Y-3.7598
X6.1381Y-4.6421
X6.1594Y-3.5157
X6.1873Y-4.7897
X6.1949Y-3.7933
X6.2011Y-4.9295
X6.2116Y-4.9764
X6.2129Y-4.6421
X6.2267Y-4.7602
X6.249Y-4.9439
X6.2638Y-3.612
X6.2954Y-4.8565
X6.3346Y-3.6317
X6.3664Y-4.768
X6.3704Y-4.6499
X6.4055Y-3.8406
X6.4469Y-3.6949
X6.4744Y-2.435
X6.5217Y-3.2894
X6.5217Y-3.3799
X6.5394Y-3.5079
X6.561Y-3.3307
X6.5728Y-3.2697
X6.5906Y-3.6673
X6.6024Y-4.7608
X6.6122Y-3.561
X6.6142Y-2.9163
X6.6772Y-4.3681
X6.7264Y-3.9094
X6.7677Y-3.3642
X6.7894Y-3.2854
X6.8583Y-3.3386
X6.8681Y-3.2559
X6.9055Y-3.8642
X6.9114Y-3.7677
X6.9154Y-3.6752
X6.9281Y-2.9114
X6.9705Y-3.7067
X6.9705Y-3.878
X7.0162Y-4.6388
X7.0635Y-4.7904
X7.0772Y-4.9636
X7.0817Y-4.9163
X7.091Y-4.6388
X7.0925Y-2.4419
X7.1009Y-4.7628
X7.1398Y-4.9606
X7.1496Y-4.814
X7.1526Y-4.2992
X7.1678Y-4.8573
X7.1742Y-3.3327
X7.2721Y-4.753
X7.2761Y-4.6663
X7.313Y-3.562
X7.3317Y-4.1496
X7.3671Y-4.7333
X7.4727Y-3.7549
X7.5023Y-3.8337
X7.5158Y-3.0561
X7.52Y-3.9006
X7.5554Y-3.753
X7.5613Y-3.8179
X7.5719Y-4.499
X7.5849Y-3.8907
X7.6103Y-2.9892
X7.6263Y-3.7746
X7.63Y-3.1191
X7.6428Y-2.9016
X7.6752Y-4.0817
X7.6752Y-4.1152
X7.6752Y-4.1506
X7.6752Y-4.1821
X7.6752Y-4.2156
X7.6772Y-4.0482
X7.7087Y-4.2156
X7.7165Y-4.0482
X7.7237Y-3.7638
X7.7363Y-2.9833
X7.7421Y-4.2156
X7.7539Y-4.0482
X7.7776Y-4.2156
X7.7913Y-4.0482
X7.7943Y-3.0797
X7.8189Y-4.2175
X7.8307Y-4.0482
X7.8307Y-4.0778
X7.8307Y-4.1093
X7.8307Y-4.1447
X7.8307Y-4.1801
X7.8474Y-3.2116
X7.8947Y-3.0502
X7.9075Y-3.5187
X7.9193Y-3.2764
T2
X5.5039Y-3.5472
X5.5039Y-3.5866
X5.5039Y-3.626
X5.5039Y-3.6654
X5.5039Y-3.7047
X5.5039Y-3.7441
X5.5039Y-3.7835
X5.5039Y-3.8228
X5.5433Y-3.5472
X5.5433Y-3.5866
X5.5433Y-3.626
X5.5433Y-3.6654
X5.5433Y-3.7047
X5.5433Y-3.7441
X5.5433Y-3.7835
X5.5433Y-3.8228
X5.5827Y-3.5472
X5.5827Y-3.5866
X5.5827Y-3.626
X5.5827Y-3.6654
X5.5827Y-3.7047
X5.5827Y-3.7441
X5.5827Y-3.7835
X5.5827Y-3.8228
X5.622Y-3.5472
X5.622Y-3.5866
X5.622Y-3.626
X5.622Y-3.6654
X5.622Y-3.7047
X5.622Y-3.7441
X5.622Y-3.7835
X5.622Y-3.8228
X5.6614Y-3.5472
X5.6614Y-3.5866
X5.6614Y-3.626
X5.6614Y-3.6654
X5.6614Y-3.7047
X5.6614Y-3.7441
X5.6614Y-3.7835
X5.6614Y-3.8228
X5.7008Y-3.5472
X5.7008Y-3.5866
X5.7008Y-3.626
X5.7008Y-3.6654
X5.7008Y-3.7047
X5.7008Y-3.7441
X5.7008Y-3.7835
X5.7008Y-3.8228
X5.7402Y-3.5472
X5.7402Y-3.5866
X5.7402Y-3.626
X5.7402Y-3.6654
X5.7402Y-3.7047
X5.7402Y-3.7441
X5.7402Y-3.7835
X5.7402Y-3.8228
X5.7795Y-3.5472
X5.7795Y-3.5866
X5.7795Y-3.626
X5.7795Y-3.6654
X5.7795Y-3.7047
X5.7795Y-3.7441
X5.7795Y-3.7835
X5.7795Y-3.8228
T4
X4.7264Y-5.1579
X4.8248Y-5.1579
X4.9035Y-5.1579
X5.002Y-5.1579
X5.5656Y-5.1579
X5.664Y-5.1579
X5.7352Y-2.5761
X5.7427Y-5.1579
X5.8337Y-2.5761
X5.8411Y-5.1579
X5.9124Y-2.5761
X6.0108Y-2.5761
X6.4047Y-5.1579
X6.5031Y-5.1579
X6.5819Y-5.1579
X6.6803Y-5.1579
X7.2439Y-5.1579
X7.3423Y-5.1579
X7.4211Y-5.1579
X7.5195Y-5.1579
T5
X4.6055Y-5.2646
X5.1228Y-5.2646
X5.4447Y-5.2646
X5.6144Y-2.4694
X5.962Y-5.2646
X6.1317Y-2.4694
X6.2839Y-5.2646
X6.8012Y-5.2646
X7.123Y-5.2646
X7.6404Y-5.2646
T3
G00X7.5953Y-2.6994
M15
G01X7.5953Y-2.8136
M16
G05
G00X7.8413Y-2.6463
M15
G01X7.7272Y-2.6463
M16
G05
G00X7.8413Y-2.8746
M15
G01X7.7272Y-2.8746
M16
G05
M30
