%TF.GenerationSoftware,KiCad,Pcbnew,9.0.1*%
%TF.CreationDate,2025-04-09T10:48:47-05:00*%
%TF.ProjectId,DeskHub,4465736b-4875-4622-9e6b-696361645f70,rev?*%
%TF.SameCoordinates,Original*%
%TF.FileFunction,Legend,Top*%
%TF.FilePolarity,Positive*%
%FSLAX46Y46*%
G04 Gerber Fmt 4.6, Leading zero omitted, Abs format (unit mm)*
G04 Created by KiCad (PCBNEW 9.0.1) date 2025-04-09 10:48:47*
%MOMM*%
%LPD*%
G01*
G04 APERTURE LIST*
G04 Aperture macros list*
%AMRoundRect*
0 Rectangle with rounded corners*
0 $1 Rounding radius*
0 $2 $3 $4 $5 $6 $7 $8 $9 X,Y pos of 4 corners*
0 Add a 4 corners polygon primitive as box body*
4,1,4,$2,$3,$4,$5,$6,$7,$8,$9,$2,$3,0*
0 Add four circle primitives for the rounded corners*
1,1,$1+$1,$2,$3*
1,1,$1+$1,$4,$5*
1,1,$1+$1,$6,$7*
1,1,$1+$1,$8,$9*
0 Add four rect primitives between the rounded corners*
20,1,$1+$1,$2,$3,$4,$5,0*
20,1,$1+$1,$4,$5,$6,$7,0*
20,1,$1+$1,$6,$7,$8,$9,0*
20,1,$1+$1,$8,$9,$2,$3,0*%
G04 Aperture macros list end*
%ADD10C,0.150000*%
%ADD11C,0.200000*%
%ADD12C,0.400000*%
%ADD13C,0.120000*%
%ADD14C,0.152400*%
%ADD15C,0.127000*%
%ADD16O,4.904000X2.204000*%
%ADD17O,2.204000X4.904000*%
%ADD18C,1.632000*%
%ADD19C,3.520000*%
%ADD20R,4.400000X4.400000*%
%ADD21R,1.500000X0.300000*%
%ADD22R,0.300000X1.500000*%
%ADD23RoundRect,0.250000X-0.350000X0.850000X-0.350000X-0.850000X0.350000X-0.850000X0.350000X0.850000X0*%
%ADD24RoundRect,0.249997X-2.650003X2.950003X-2.650003X-2.950003X2.650003X-2.950003X2.650003X2.950003X0*%
%ADD25R,0.431800X1.574800*%
%ADD26R,1.890000X1.570000*%
%ADD27RoundRect,0.250000X-0.650000X0.325000X-0.650000X-0.325000X0.650000X-0.325000X0.650000X0.325000X0*%
%ADD28RoundRect,0.218750X-0.218750X-0.256250X0.218750X-0.256250X0.218750X0.256250X-0.218750X0.256250X0*%
%ADD29RoundRect,0.250000X-0.325000X-0.650000X0.325000X-0.650000X0.325000X0.650000X-0.325000X0.650000X0*%
%ADD30RoundRect,0.250000X0.650000X-0.325000X0.650000X0.325000X-0.650000X0.325000X-0.650000X-0.325000X0*%
%ADD31RoundRect,0.068000X0.559000X0.204000X-0.559000X0.204000X-0.559000X-0.204000X0.559000X-0.204000X0*%
%ADD32RoundRect,0.068000X0.204000X0.559000X-0.204000X0.559000X-0.204000X-0.559000X0.204000X-0.559000X0*%
%ADD33RoundRect,0.102000X1.575000X1.575000X-1.575000X1.575000X-1.575000X-1.575000X1.575000X-1.575000X0*%
%ADD34RoundRect,0.218750X0.218750X0.256250X-0.218750X0.256250X-0.218750X-0.256250X0.218750X-0.256250X0*%
%ADD35RoundRect,0.250000X0.475000X-0.250000X0.475000X0.250000X-0.475000X0.250000X-0.475000X-0.250000X0*%
%ADD36RoundRect,0.250000X0.325000X0.650000X-0.325000X0.650000X-0.325000X-0.650000X0.325000X-0.650000X0*%
%ADD37RoundRect,0.135000X0.135000X0.185000X-0.135000X0.185000X-0.135000X-0.185000X0.135000X-0.185000X0*%
%ADD38RoundRect,0.135000X-0.135000X-0.185000X0.135000X-0.185000X0.135000X0.185000X-0.135000X0.185000X0*%
%ADD39RoundRect,0.135000X0.185000X-0.135000X0.185000X0.135000X-0.185000X0.135000X-0.185000X-0.135000X0*%
%ADD40RoundRect,0.135000X-0.185000X0.135000X-0.185000X-0.135000X0.185000X-0.135000X0.185000X0.135000X0*%
%ADD41RoundRect,0.140000X-0.140000X-0.170000X0.140000X-0.170000X0.140000X0.170000X-0.140000X0.170000X0*%
%ADD42RoundRect,0.140000X0.170000X-0.140000X0.170000X0.140000X-0.170000X0.140000X-0.170000X-0.140000X0*%
G04 APERTURE END LIST*
D10*
X257082319Y-69448333D02*
X257796604Y-69448333D01*
X257796604Y-69448333D02*
X257939461Y-69495952D01*
X257939461Y-69495952D02*
X258034700Y-69591190D01*
X258034700Y-69591190D02*
X258082319Y-69734047D01*
X258082319Y-69734047D02*
X258082319Y-69829285D01*
X257177557Y-69019761D02*
X257129938Y-68972142D01*
X257129938Y-68972142D02*
X257082319Y-68876904D01*
X257082319Y-68876904D02*
X257082319Y-68638809D01*
X257082319Y-68638809D02*
X257129938Y-68543571D01*
X257129938Y-68543571D02*
X257177557Y-68495952D01*
X257177557Y-68495952D02*
X257272795Y-68448333D01*
X257272795Y-68448333D02*
X257368033Y-68448333D01*
X257368033Y-68448333D02*
X257510890Y-68495952D01*
X257510890Y-68495952D02*
X258082319Y-69067380D01*
X258082319Y-69067380D02*
X258082319Y-68448333D01*
X251947319Y-72829285D02*
X251947319Y-73400713D01*
X251947319Y-73114999D02*
X250947319Y-73114999D01*
X250947319Y-73114999D02*
X251090176Y-73210237D01*
X251090176Y-73210237D02*
X251185414Y-73305475D01*
X251185414Y-73305475D02*
X251233033Y-73400713D01*
X251042557Y-67400713D02*
X250994938Y-67353094D01*
X250994938Y-67353094D02*
X250947319Y-67257856D01*
X250947319Y-67257856D02*
X250947319Y-67019761D01*
X250947319Y-67019761D02*
X250994938Y-66924523D01*
X250994938Y-66924523D02*
X251042557Y-66876904D01*
X251042557Y-66876904D02*
X251137795Y-66829285D01*
X251137795Y-66829285D02*
X251233033Y-66829285D01*
X251233033Y-66829285D02*
X251375890Y-66876904D01*
X251375890Y-66876904D02*
X251947319Y-67448332D01*
X251947319Y-67448332D02*
X251947319Y-66829285D01*
X248447319Y-72448332D02*
X248447319Y-71829285D01*
X248447319Y-71829285D02*
X248828271Y-72162618D01*
X248828271Y-72162618D02*
X248828271Y-72019761D01*
X248828271Y-72019761D02*
X248875890Y-71924523D01*
X248875890Y-71924523D02*
X248923509Y-71876904D01*
X248923509Y-71876904D02*
X249018747Y-71829285D01*
X249018747Y-71829285D02*
X249256842Y-71829285D01*
X249256842Y-71829285D02*
X249352080Y-71876904D01*
X249352080Y-71876904D02*
X249399700Y-71924523D01*
X249399700Y-71924523D02*
X249447319Y-72019761D01*
X249447319Y-72019761D02*
X249447319Y-72305475D01*
X249447319Y-72305475D02*
X249399700Y-72400713D01*
X249399700Y-72400713D02*
X249352080Y-72448332D01*
X141119666Y-156568919D02*
X141119666Y-157283204D01*
X141119666Y-157283204D02*
X141072047Y-157426061D01*
X141072047Y-157426061D02*
X140976809Y-157521300D01*
X140976809Y-157521300D02*
X140833952Y-157568919D01*
X140833952Y-157568919D02*
X140738714Y-157568919D01*
X142024428Y-156902252D02*
X142024428Y-157568919D01*
X141786333Y-156521300D02*
X141548238Y-157235585D01*
X141548238Y-157235585D02*
X142167285Y-157235585D01*
X197579666Y-156568919D02*
X197579666Y-157283204D01*
X197579666Y-157283204D02*
X197532047Y-157426061D01*
X197532047Y-157426061D02*
X197436809Y-157521300D01*
X197436809Y-157521300D02*
X197293952Y-157568919D01*
X197293952Y-157568919D02*
X197198714Y-157568919D01*
X198532047Y-156568919D02*
X198055857Y-156568919D01*
X198055857Y-156568919D02*
X198008238Y-157045109D01*
X198008238Y-157045109D02*
X198055857Y-156997490D01*
X198055857Y-156997490D02*
X198151095Y-156949871D01*
X198151095Y-156949871D02*
X198389190Y-156949871D01*
X198389190Y-156949871D02*
X198484428Y-156997490D01*
X198484428Y-156997490D02*
X198532047Y-157045109D01*
X198532047Y-157045109D02*
X198579666Y-157140347D01*
X198579666Y-157140347D02*
X198579666Y-157378442D01*
X198579666Y-157378442D02*
X198532047Y-157473680D01*
X198532047Y-157473680D02*
X198484428Y-157521300D01*
X198484428Y-157521300D02*
X198389190Y-157568919D01*
X198389190Y-157568919D02*
X198151095Y-157568919D01*
X198151095Y-157568919D02*
X198055857Y-157521300D01*
X198055857Y-157521300D02*
X198008238Y-157473680D01*
X254039666Y-156568919D02*
X254039666Y-157283204D01*
X254039666Y-157283204D02*
X253992047Y-157426061D01*
X253992047Y-157426061D02*
X253896809Y-157521300D01*
X253896809Y-157521300D02*
X253753952Y-157568919D01*
X253753952Y-157568919D02*
X253658714Y-157568919D01*
X254944428Y-156568919D02*
X254753952Y-156568919D01*
X254753952Y-156568919D02*
X254658714Y-156616538D01*
X254658714Y-156616538D02*
X254611095Y-156664157D01*
X254611095Y-156664157D02*
X254515857Y-156807014D01*
X254515857Y-156807014D02*
X254468238Y-156997490D01*
X254468238Y-156997490D02*
X254468238Y-157378442D01*
X254468238Y-157378442D02*
X254515857Y-157473680D01*
X254515857Y-157473680D02*
X254563476Y-157521300D01*
X254563476Y-157521300D02*
X254658714Y-157568919D01*
X254658714Y-157568919D02*
X254849190Y-157568919D01*
X254849190Y-157568919D02*
X254944428Y-157521300D01*
X254944428Y-157521300D02*
X254992047Y-157473680D01*
X254992047Y-157473680D02*
X255039666Y-157378442D01*
X255039666Y-157378442D02*
X255039666Y-157140347D01*
X255039666Y-157140347D02*
X254992047Y-157045109D01*
X254992047Y-157045109D02*
X254944428Y-156997490D01*
X254944428Y-156997490D02*
X254849190Y-156949871D01*
X254849190Y-156949871D02*
X254658714Y-156949871D01*
X254658714Y-156949871D02*
X254563476Y-156997490D01*
X254563476Y-156997490D02*
X254515857Y-157045109D01*
X254515857Y-157045109D02*
X254468238Y-157140347D01*
X84659666Y-156568919D02*
X84659666Y-157283204D01*
X84659666Y-157283204D02*
X84612047Y-157426061D01*
X84612047Y-157426061D02*
X84516809Y-157521300D01*
X84516809Y-157521300D02*
X84373952Y-157568919D01*
X84373952Y-157568919D02*
X84278714Y-157568919D01*
X85040619Y-156568919D02*
X85707285Y-156568919D01*
X85707285Y-156568919D02*
X85278714Y-157568919D01*
X142538095Y-100504819D02*
X142538095Y-101314342D01*
X142538095Y-101314342D02*
X142585714Y-101409580D01*
X142585714Y-101409580D02*
X142633333Y-101457200D01*
X142633333Y-101457200D02*
X142728571Y-101504819D01*
X142728571Y-101504819D02*
X142919047Y-101504819D01*
X142919047Y-101504819D02*
X143014285Y-101457200D01*
X143014285Y-101457200D02*
X143061904Y-101409580D01*
X143061904Y-101409580D02*
X143109523Y-101314342D01*
X143109523Y-101314342D02*
X143109523Y-100504819D01*
X144109523Y-101504819D02*
X143538095Y-101504819D01*
X143823809Y-101504819D02*
X143823809Y-100504819D01*
X143823809Y-100504819D02*
X143728571Y-100647676D01*
X143728571Y-100647676D02*
X143633333Y-100742914D01*
X143633333Y-100742914D02*
X143538095Y-100790533D01*
X244124819Y-94001904D02*
X244934342Y-94001904D01*
X244934342Y-94001904D02*
X245029580Y-93954285D01*
X245029580Y-93954285D02*
X245077200Y-93906666D01*
X245077200Y-93906666D02*
X245124819Y-93811428D01*
X245124819Y-93811428D02*
X245124819Y-93620952D01*
X245124819Y-93620952D02*
X245077200Y-93525714D01*
X245077200Y-93525714D02*
X245029580Y-93478095D01*
X245029580Y-93478095D02*
X244934342Y-93430476D01*
X244934342Y-93430476D02*
X244124819Y-93430476D01*
X244220057Y-93001904D02*
X244172438Y-92954285D01*
X244172438Y-92954285D02*
X244124819Y-92859047D01*
X244124819Y-92859047D02*
X244124819Y-92620952D01*
X244124819Y-92620952D02*
X244172438Y-92525714D01*
X244172438Y-92525714D02*
X244220057Y-92478095D01*
X244220057Y-92478095D02*
X244315295Y-92430476D01*
X244315295Y-92430476D02*
X244410533Y-92430476D01*
X244410533Y-92430476D02*
X244553390Y-92478095D01*
X244553390Y-92478095D02*
X245124819Y-93049523D01*
X245124819Y-93049523D02*
X245124819Y-92430476D01*
X63654819Y-147111904D02*
X64464342Y-147111904D01*
X64464342Y-147111904D02*
X64559580Y-147064285D01*
X64559580Y-147064285D02*
X64607200Y-147016666D01*
X64607200Y-147016666D02*
X64654819Y-146921428D01*
X64654819Y-146921428D02*
X64654819Y-146730952D01*
X64654819Y-146730952D02*
X64607200Y-146635714D01*
X64607200Y-146635714D02*
X64559580Y-146588095D01*
X64559580Y-146588095D02*
X64464342Y-146540476D01*
X64464342Y-146540476D02*
X63654819Y-146540476D01*
X63988152Y-145635714D02*
X64654819Y-145635714D01*
X63607200Y-145873809D02*
X64321485Y-146111904D01*
X64321485Y-146111904D02*
X64321485Y-145492857D01*
X63605019Y-149199499D02*
X63843114Y-149199499D01*
X63747876Y-149437594D02*
X63843114Y-149199499D01*
X63843114Y-149199499D02*
X63747876Y-148961404D01*
X64033590Y-149342356D02*
X63843114Y-149199499D01*
X63843114Y-149199499D02*
X64033590Y-149056642D01*
X116154819Y-147111904D02*
X116964342Y-147111904D01*
X116964342Y-147111904D02*
X117059580Y-147064285D01*
X117059580Y-147064285D02*
X117107200Y-147016666D01*
X117107200Y-147016666D02*
X117154819Y-146921428D01*
X117154819Y-146921428D02*
X117154819Y-146730952D01*
X117154819Y-146730952D02*
X117107200Y-146635714D01*
X117107200Y-146635714D02*
X117059580Y-146588095D01*
X117059580Y-146588095D02*
X116964342Y-146540476D01*
X116964342Y-146540476D02*
X116154819Y-146540476D01*
X116154819Y-145588095D02*
X116154819Y-146064285D01*
X116154819Y-146064285D02*
X116631009Y-146111904D01*
X116631009Y-146111904D02*
X116583390Y-146064285D01*
X116583390Y-146064285D02*
X116535771Y-145969047D01*
X116535771Y-145969047D02*
X116535771Y-145730952D01*
X116535771Y-145730952D02*
X116583390Y-145635714D01*
X116583390Y-145635714D02*
X116631009Y-145588095D01*
X116631009Y-145588095D02*
X116726247Y-145540476D01*
X116726247Y-145540476D02*
X116964342Y-145540476D01*
X116964342Y-145540476D02*
X117059580Y-145588095D01*
X117059580Y-145588095D02*
X117107200Y-145635714D01*
X117107200Y-145635714D02*
X117154819Y-145730952D01*
X117154819Y-145730952D02*
X117154819Y-145969047D01*
X117154819Y-145969047D02*
X117107200Y-146064285D01*
X117107200Y-146064285D02*
X117059580Y-146111904D01*
X116105019Y-149199499D02*
X116343114Y-149199499D01*
X116247876Y-149437594D02*
X116343114Y-149199499D01*
X116343114Y-149199499D02*
X116247876Y-148961404D01*
X116533590Y-149342356D02*
X116343114Y-149199499D01*
X116343114Y-149199499D02*
X116533590Y-149056642D01*
X169404819Y-147111904D02*
X170214342Y-147111904D01*
X170214342Y-147111904D02*
X170309580Y-147064285D01*
X170309580Y-147064285D02*
X170357200Y-147016666D01*
X170357200Y-147016666D02*
X170404819Y-146921428D01*
X170404819Y-146921428D02*
X170404819Y-146730952D01*
X170404819Y-146730952D02*
X170357200Y-146635714D01*
X170357200Y-146635714D02*
X170309580Y-146588095D01*
X170309580Y-146588095D02*
X170214342Y-146540476D01*
X170214342Y-146540476D02*
X169404819Y-146540476D01*
X169404819Y-145635714D02*
X169404819Y-145826190D01*
X169404819Y-145826190D02*
X169452438Y-145921428D01*
X169452438Y-145921428D02*
X169500057Y-145969047D01*
X169500057Y-145969047D02*
X169642914Y-146064285D01*
X169642914Y-146064285D02*
X169833390Y-146111904D01*
X169833390Y-146111904D02*
X170214342Y-146111904D01*
X170214342Y-146111904D02*
X170309580Y-146064285D01*
X170309580Y-146064285D02*
X170357200Y-146016666D01*
X170357200Y-146016666D02*
X170404819Y-145921428D01*
X170404819Y-145921428D02*
X170404819Y-145730952D01*
X170404819Y-145730952D02*
X170357200Y-145635714D01*
X170357200Y-145635714D02*
X170309580Y-145588095D01*
X170309580Y-145588095D02*
X170214342Y-145540476D01*
X170214342Y-145540476D02*
X169976247Y-145540476D01*
X169976247Y-145540476D02*
X169881009Y-145588095D01*
X169881009Y-145588095D02*
X169833390Y-145635714D01*
X169833390Y-145635714D02*
X169785771Y-145730952D01*
X169785771Y-145730952D02*
X169785771Y-145921428D01*
X169785771Y-145921428D02*
X169833390Y-146016666D01*
X169833390Y-146016666D02*
X169881009Y-146064285D01*
X169881009Y-146064285D02*
X169976247Y-146111904D01*
X169355019Y-149199499D02*
X169593114Y-149199499D01*
X169497876Y-149437594D02*
X169593114Y-149199499D01*
X169593114Y-149199499D02*
X169497876Y-148961404D01*
X169783590Y-149342356D02*
X169593114Y-149199499D01*
X169593114Y-149199499D02*
X169783590Y-149056642D01*
X222854819Y-147111904D02*
X223664342Y-147111904D01*
X223664342Y-147111904D02*
X223759580Y-147064285D01*
X223759580Y-147064285D02*
X223807200Y-147016666D01*
X223807200Y-147016666D02*
X223854819Y-146921428D01*
X223854819Y-146921428D02*
X223854819Y-146730952D01*
X223854819Y-146730952D02*
X223807200Y-146635714D01*
X223807200Y-146635714D02*
X223759580Y-146588095D01*
X223759580Y-146588095D02*
X223664342Y-146540476D01*
X223664342Y-146540476D02*
X222854819Y-146540476D01*
X222854819Y-146159523D02*
X222854819Y-145492857D01*
X222854819Y-145492857D02*
X223854819Y-145921428D01*
X222805019Y-149199499D02*
X223043114Y-149199499D01*
X222947876Y-149437594D02*
X223043114Y-149199499D01*
X223043114Y-149199499D02*
X222947876Y-148961404D01*
X223233590Y-149342356D02*
X223043114Y-149199499D01*
X223043114Y-149199499D02*
X223233590Y-149056642D01*
X122209580Y-89792857D02*
X122257200Y-89840476D01*
X122257200Y-89840476D02*
X122304819Y-89983333D01*
X122304819Y-89983333D02*
X122304819Y-90078571D01*
X122304819Y-90078571D02*
X122257200Y-90221428D01*
X122257200Y-90221428D02*
X122161961Y-90316666D01*
X122161961Y-90316666D02*
X122066723Y-90364285D01*
X122066723Y-90364285D02*
X121876247Y-90411904D01*
X121876247Y-90411904D02*
X121733390Y-90411904D01*
X121733390Y-90411904D02*
X121542914Y-90364285D01*
X121542914Y-90364285D02*
X121447676Y-90316666D01*
X121447676Y-90316666D02*
X121352438Y-90221428D01*
X121352438Y-90221428D02*
X121304819Y-90078571D01*
X121304819Y-90078571D02*
X121304819Y-89983333D01*
X121304819Y-89983333D02*
X121352438Y-89840476D01*
X121352438Y-89840476D02*
X121400057Y-89792857D01*
X121638152Y-88935714D02*
X122304819Y-88935714D01*
X121257200Y-89173809D02*
X121971485Y-89411904D01*
X121971485Y-89411904D02*
X121971485Y-88792857D01*
X121304819Y-88507142D02*
X121304819Y-87840476D01*
X121304819Y-87840476D02*
X122304819Y-88269047D01*
X230904405Y-88374819D02*
X230904405Y-87374819D01*
X230904405Y-87374819D02*
X231142500Y-87374819D01*
X231142500Y-87374819D02*
X231285357Y-87422438D01*
X231285357Y-87422438D02*
X231380595Y-87517676D01*
X231380595Y-87517676D02*
X231428214Y-87612914D01*
X231428214Y-87612914D02*
X231475833Y-87803390D01*
X231475833Y-87803390D02*
X231475833Y-87946247D01*
X231475833Y-87946247D02*
X231428214Y-88136723D01*
X231428214Y-88136723D02*
X231380595Y-88231961D01*
X231380595Y-88231961D02*
X231285357Y-88327200D01*
X231285357Y-88327200D02*
X231142500Y-88374819D01*
X231142500Y-88374819D02*
X230904405Y-88374819D01*
X231856786Y-87470057D02*
X231904405Y-87422438D01*
X231904405Y-87422438D02*
X231999643Y-87374819D01*
X231999643Y-87374819D02*
X232237738Y-87374819D01*
X232237738Y-87374819D02*
X232332976Y-87422438D01*
X232332976Y-87422438D02*
X232380595Y-87470057D01*
X232380595Y-87470057D02*
X232428214Y-87565295D01*
X232428214Y-87565295D02*
X232428214Y-87660533D01*
X232428214Y-87660533D02*
X232380595Y-87803390D01*
X232380595Y-87803390D02*
X231809167Y-88374819D01*
X231809167Y-88374819D02*
X232428214Y-88374819D01*
X159707141Y-67052777D02*
X159659522Y-67100397D01*
X159659522Y-67100397D02*
X159516665Y-67148016D01*
X159516665Y-67148016D02*
X159421427Y-67148016D01*
X159421427Y-67148016D02*
X159278570Y-67100397D01*
X159278570Y-67100397D02*
X159183332Y-67005158D01*
X159183332Y-67005158D02*
X159135713Y-66909920D01*
X159135713Y-66909920D02*
X159088094Y-66719444D01*
X159088094Y-66719444D02*
X159088094Y-66576587D01*
X159088094Y-66576587D02*
X159135713Y-66386111D01*
X159135713Y-66386111D02*
X159183332Y-66290873D01*
X159183332Y-66290873D02*
X159278570Y-66195635D01*
X159278570Y-66195635D02*
X159421427Y-66148016D01*
X159421427Y-66148016D02*
X159516665Y-66148016D01*
X159516665Y-66148016D02*
X159659522Y-66195635D01*
X159659522Y-66195635D02*
X159707141Y-66243254D01*
X160659522Y-67148016D02*
X160088094Y-67148016D01*
X160373808Y-67148016D02*
X160373808Y-66148016D01*
X160373808Y-66148016D02*
X160278570Y-66290873D01*
X160278570Y-66290873D02*
X160183332Y-66386111D01*
X160183332Y-66386111D02*
X160088094Y-66433730D01*
X161564284Y-66148016D02*
X161088094Y-66148016D01*
X161088094Y-66148016D02*
X161040475Y-66624206D01*
X161040475Y-66624206D02*
X161088094Y-66576587D01*
X161088094Y-66576587D02*
X161183332Y-66528968D01*
X161183332Y-66528968D02*
X161421427Y-66528968D01*
X161421427Y-66528968D02*
X161516665Y-66576587D01*
X161516665Y-66576587D02*
X161564284Y-66624206D01*
X161564284Y-66624206D02*
X161611903Y-66719444D01*
X161611903Y-66719444D02*
X161611903Y-66957539D01*
X161611903Y-66957539D02*
X161564284Y-67052777D01*
X161564284Y-67052777D02*
X161516665Y-67100397D01*
X161516665Y-67100397D02*
X161421427Y-67148016D01*
X161421427Y-67148016D02*
X161183332Y-67148016D01*
X161183332Y-67148016D02*
X161088094Y-67100397D01*
X161088094Y-67100397D02*
X161040475Y-67052777D01*
X235109580Y-78792857D02*
X235157200Y-78840476D01*
X235157200Y-78840476D02*
X235204819Y-78983333D01*
X235204819Y-78983333D02*
X235204819Y-79078571D01*
X235204819Y-79078571D02*
X235157200Y-79221428D01*
X235157200Y-79221428D02*
X235061961Y-79316666D01*
X235061961Y-79316666D02*
X234966723Y-79364285D01*
X234966723Y-79364285D02*
X234776247Y-79411904D01*
X234776247Y-79411904D02*
X234633390Y-79411904D01*
X234633390Y-79411904D02*
X234442914Y-79364285D01*
X234442914Y-79364285D02*
X234347676Y-79316666D01*
X234347676Y-79316666D02*
X234252438Y-79221428D01*
X234252438Y-79221428D02*
X234204819Y-79078571D01*
X234204819Y-79078571D02*
X234204819Y-78983333D01*
X234204819Y-78983333D02*
X234252438Y-78840476D01*
X234252438Y-78840476D02*
X234300057Y-78792857D01*
X234538152Y-77935714D02*
X235204819Y-77935714D01*
X234157200Y-78173809D02*
X234871485Y-78411904D01*
X234871485Y-78411904D02*
X234871485Y-77792857D01*
X234204819Y-76935714D02*
X234204819Y-77411904D01*
X234204819Y-77411904D02*
X234681009Y-77459523D01*
X234681009Y-77459523D02*
X234633390Y-77411904D01*
X234633390Y-77411904D02*
X234585771Y-77316666D01*
X234585771Y-77316666D02*
X234585771Y-77078571D01*
X234585771Y-77078571D02*
X234633390Y-76983333D01*
X234633390Y-76983333D02*
X234681009Y-76935714D01*
X234681009Y-76935714D02*
X234776247Y-76888095D01*
X234776247Y-76888095D02*
X235014342Y-76888095D01*
X235014342Y-76888095D02*
X235109580Y-76935714D01*
X235109580Y-76935714D02*
X235157200Y-76983333D01*
X235157200Y-76983333D02*
X235204819Y-77078571D01*
X235204819Y-77078571D02*
X235204819Y-77316666D01*
X235204819Y-77316666D02*
X235157200Y-77411904D01*
X235157200Y-77411904D02*
X235109580Y-77459523D01*
X117538095Y-78404819D02*
X117538095Y-79214342D01*
X117538095Y-79214342D02*
X117585714Y-79309580D01*
X117585714Y-79309580D02*
X117633333Y-79357200D01*
X117633333Y-79357200D02*
X117728571Y-79404819D01*
X117728571Y-79404819D02*
X117919047Y-79404819D01*
X117919047Y-79404819D02*
X118014285Y-79357200D01*
X118014285Y-79357200D02*
X118061904Y-79309580D01*
X118061904Y-79309580D02*
X118109523Y-79214342D01*
X118109523Y-79214342D02*
X118109523Y-78404819D01*
X118490476Y-78404819D02*
X119109523Y-78404819D01*
X119109523Y-78404819D02*
X118776190Y-78785771D01*
X118776190Y-78785771D02*
X118919047Y-78785771D01*
X118919047Y-78785771D02*
X119014285Y-78833390D01*
X119014285Y-78833390D02*
X119061904Y-78881009D01*
X119061904Y-78881009D02*
X119109523Y-78976247D01*
X119109523Y-78976247D02*
X119109523Y-79214342D01*
X119109523Y-79214342D02*
X119061904Y-79309580D01*
X119061904Y-79309580D02*
X119014285Y-79357200D01*
X119014285Y-79357200D02*
X118919047Y-79404819D01*
X118919047Y-79404819D02*
X118633333Y-79404819D01*
X118633333Y-79404819D02*
X118538095Y-79357200D01*
X118538095Y-79357200D02*
X118490476Y-79309580D01*
X171249404Y-66278016D02*
X171249404Y-65278016D01*
X171249404Y-65278016D02*
X171487499Y-65278016D01*
X171487499Y-65278016D02*
X171630356Y-65325635D01*
X171630356Y-65325635D02*
X171725594Y-65420873D01*
X171725594Y-65420873D02*
X171773213Y-65516111D01*
X171773213Y-65516111D02*
X171820832Y-65706587D01*
X171820832Y-65706587D02*
X171820832Y-65849444D01*
X171820832Y-65849444D02*
X171773213Y-66039920D01*
X171773213Y-66039920D02*
X171725594Y-66135158D01*
X171725594Y-66135158D02*
X171630356Y-66230397D01*
X171630356Y-66230397D02*
X171487499Y-66278016D01*
X171487499Y-66278016D02*
X171249404Y-66278016D01*
X172773213Y-66278016D02*
X172201785Y-66278016D01*
X172487499Y-66278016D02*
X172487499Y-65278016D01*
X172487499Y-65278016D02*
X172392261Y-65420873D01*
X172392261Y-65420873D02*
X172297023Y-65516111D01*
X172297023Y-65516111D02*
X172201785Y-65563730D01*
X238009580Y-79942857D02*
X238057200Y-79990476D01*
X238057200Y-79990476D02*
X238104819Y-80133333D01*
X238104819Y-80133333D02*
X238104819Y-80228571D01*
X238104819Y-80228571D02*
X238057200Y-80371428D01*
X238057200Y-80371428D02*
X237961961Y-80466666D01*
X237961961Y-80466666D02*
X237866723Y-80514285D01*
X237866723Y-80514285D02*
X237676247Y-80561904D01*
X237676247Y-80561904D02*
X237533390Y-80561904D01*
X237533390Y-80561904D02*
X237342914Y-80514285D01*
X237342914Y-80514285D02*
X237247676Y-80466666D01*
X237247676Y-80466666D02*
X237152438Y-80371428D01*
X237152438Y-80371428D02*
X237104819Y-80228571D01*
X237104819Y-80228571D02*
X237104819Y-80133333D01*
X237104819Y-80133333D02*
X237152438Y-79990476D01*
X237152438Y-79990476D02*
X237200057Y-79942857D01*
X237438152Y-79085714D02*
X238104819Y-79085714D01*
X237057200Y-79323809D02*
X237771485Y-79561904D01*
X237771485Y-79561904D02*
X237771485Y-78942857D01*
X237438152Y-78133333D02*
X238104819Y-78133333D01*
X237057200Y-78371428D02*
X237771485Y-78609523D01*
X237771485Y-78609523D02*
X237771485Y-77990476D01*
X245149642Y-82009580D02*
X245102023Y-82057200D01*
X245102023Y-82057200D02*
X244959166Y-82104819D01*
X244959166Y-82104819D02*
X244863928Y-82104819D01*
X244863928Y-82104819D02*
X244721071Y-82057200D01*
X244721071Y-82057200D02*
X244625833Y-81961961D01*
X244625833Y-81961961D02*
X244578214Y-81866723D01*
X244578214Y-81866723D02*
X244530595Y-81676247D01*
X244530595Y-81676247D02*
X244530595Y-81533390D01*
X244530595Y-81533390D02*
X244578214Y-81342914D01*
X244578214Y-81342914D02*
X244625833Y-81247676D01*
X244625833Y-81247676D02*
X244721071Y-81152438D01*
X244721071Y-81152438D02*
X244863928Y-81104819D01*
X244863928Y-81104819D02*
X244959166Y-81104819D01*
X244959166Y-81104819D02*
X245102023Y-81152438D01*
X245102023Y-81152438D02*
X245149642Y-81200057D01*
X246006785Y-81438152D02*
X246006785Y-82104819D01*
X245768690Y-81057200D02*
X245530595Y-81771485D01*
X245530595Y-81771485D02*
X246149642Y-81771485D01*
X246482976Y-81200057D02*
X246530595Y-81152438D01*
X246530595Y-81152438D02*
X246625833Y-81104819D01*
X246625833Y-81104819D02*
X246863928Y-81104819D01*
X246863928Y-81104819D02*
X246959166Y-81152438D01*
X246959166Y-81152438D02*
X247006785Y-81200057D01*
X247006785Y-81200057D02*
X247054404Y-81295295D01*
X247054404Y-81295295D02*
X247054404Y-81390533D01*
X247054404Y-81390533D02*
X247006785Y-81533390D01*
X247006785Y-81533390D02*
X246435357Y-82104819D01*
X246435357Y-82104819D02*
X247054404Y-82104819D01*
X148966666Y-67054819D02*
X148966666Y-67769104D01*
X148966666Y-67769104D02*
X148919047Y-67911961D01*
X148919047Y-67911961D02*
X148823809Y-68007200D01*
X148823809Y-68007200D02*
X148680952Y-68054819D01*
X148680952Y-68054819D02*
X148585714Y-68054819D01*
X149966666Y-68054819D02*
X149395238Y-68054819D01*
X149680952Y-68054819D02*
X149680952Y-67054819D01*
X149680952Y-67054819D02*
X149585714Y-67197676D01*
X149585714Y-67197676D02*
X149490476Y-67292914D01*
X149490476Y-67292914D02*
X149395238Y-67340533D01*
X170007142Y-93454819D02*
X169673809Y-92978628D01*
X169435714Y-93454819D02*
X169435714Y-92454819D01*
X169435714Y-92454819D02*
X169816666Y-92454819D01*
X169816666Y-92454819D02*
X169911904Y-92502438D01*
X169911904Y-92502438D02*
X169959523Y-92550057D01*
X169959523Y-92550057D02*
X170007142Y-92645295D01*
X170007142Y-92645295D02*
X170007142Y-92788152D01*
X170007142Y-92788152D02*
X169959523Y-92883390D01*
X169959523Y-92883390D02*
X169911904Y-92931009D01*
X169911904Y-92931009D02*
X169816666Y-92978628D01*
X169816666Y-92978628D02*
X169435714Y-92978628D01*
X170388095Y-92550057D02*
X170435714Y-92502438D01*
X170435714Y-92502438D02*
X170530952Y-92454819D01*
X170530952Y-92454819D02*
X170769047Y-92454819D01*
X170769047Y-92454819D02*
X170864285Y-92502438D01*
X170864285Y-92502438D02*
X170911904Y-92550057D01*
X170911904Y-92550057D02*
X170959523Y-92645295D01*
X170959523Y-92645295D02*
X170959523Y-92740533D01*
X170959523Y-92740533D02*
X170911904Y-92883390D01*
X170911904Y-92883390D02*
X170340476Y-93454819D01*
X170340476Y-93454819D02*
X170959523Y-93454819D01*
X171292857Y-92454819D02*
X171959523Y-92454819D01*
X171959523Y-92454819D02*
X171530952Y-93454819D01*
X170007142Y-94954819D02*
X169673809Y-94478628D01*
X169435714Y-94954819D02*
X169435714Y-93954819D01*
X169435714Y-93954819D02*
X169816666Y-93954819D01*
X169816666Y-93954819D02*
X169911904Y-94002438D01*
X169911904Y-94002438D02*
X169959523Y-94050057D01*
X169959523Y-94050057D02*
X170007142Y-94145295D01*
X170007142Y-94145295D02*
X170007142Y-94288152D01*
X170007142Y-94288152D02*
X169959523Y-94383390D01*
X169959523Y-94383390D02*
X169911904Y-94431009D01*
X169911904Y-94431009D02*
X169816666Y-94478628D01*
X169816666Y-94478628D02*
X169435714Y-94478628D01*
X170388095Y-94050057D02*
X170435714Y-94002438D01*
X170435714Y-94002438D02*
X170530952Y-93954819D01*
X170530952Y-93954819D02*
X170769047Y-93954819D01*
X170769047Y-93954819D02*
X170864285Y-94002438D01*
X170864285Y-94002438D02*
X170911904Y-94050057D01*
X170911904Y-94050057D02*
X170959523Y-94145295D01*
X170959523Y-94145295D02*
X170959523Y-94240533D01*
X170959523Y-94240533D02*
X170911904Y-94383390D01*
X170911904Y-94383390D02*
X170340476Y-94954819D01*
X170340476Y-94954819D02*
X170959523Y-94954819D01*
X171816666Y-93954819D02*
X171626190Y-93954819D01*
X171626190Y-93954819D02*
X171530952Y-94002438D01*
X171530952Y-94002438D02*
X171483333Y-94050057D01*
X171483333Y-94050057D02*
X171388095Y-94192914D01*
X171388095Y-94192914D02*
X171340476Y-94383390D01*
X171340476Y-94383390D02*
X171340476Y-94764342D01*
X171340476Y-94764342D02*
X171388095Y-94859580D01*
X171388095Y-94859580D02*
X171435714Y-94907200D01*
X171435714Y-94907200D02*
X171530952Y-94954819D01*
X171530952Y-94954819D02*
X171721428Y-94954819D01*
X171721428Y-94954819D02*
X171816666Y-94907200D01*
X171816666Y-94907200D02*
X171864285Y-94859580D01*
X171864285Y-94859580D02*
X171911904Y-94764342D01*
X171911904Y-94764342D02*
X171911904Y-94526247D01*
X171911904Y-94526247D02*
X171864285Y-94431009D01*
X171864285Y-94431009D02*
X171816666Y-94383390D01*
X171816666Y-94383390D02*
X171721428Y-94335771D01*
X171721428Y-94335771D02*
X171530952Y-94335771D01*
X171530952Y-94335771D02*
X171435714Y-94383390D01*
X171435714Y-94383390D02*
X171388095Y-94431009D01*
X171388095Y-94431009D02*
X171340476Y-94526247D01*
X170007142Y-96454819D02*
X169673809Y-95978628D01*
X169435714Y-96454819D02*
X169435714Y-95454819D01*
X169435714Y-95454819D02*
X169816666Y-95454819D01*
X169816666Y-95454819D02*
X169911904Y-95502438D01*
X169911904Y-95502438D02*
X169959523Y-95550057D01*
X169959523Y-95550057D02*
X170007142Y-95645295D01*
X170007142Y-95645295D02*
X170007142Y-95788152D01*
X170007142Y-95788152D02*
X169959523Y-95883390D01*
X169959523Y-95883390D02*
X169911904Y-95931009D01*
X169911904Y-95931009D02*
X169816666Y-95978628D01*
X169816666Y-95978628D02*
X169435714Y-95978628D01*
X170388095Y-95550057D02*
X170435714Y-95502438D01*
X170435714Y-95502438D02*
X170530952Y-95454819D01*
X170530952Y-95454819D02*
X170769047Y-95454819D01*
X170769047Y-95454819D02*
X170864285Y-95502438D01*
X170864285Y-95502438D02*
X170911904Y-95550057D01*
X170911904Y-95550057D02*
X170959523Y-95645295D01*
X170959523Y-95645295D02*
X170959523Y-95740533D01*
X170959523Y-95740533D02*
X170911904Y-95883390D01*
X170911904Y-95883390D02*
X170340476Y-96454819D01*
X170340476Y-96454819D02*
X170959523Y-96454819D01*
X171864285Y-95454819D02*
X171388095Y-95454819D01*
X171388095Y-95454819D02*
X171340476Y-95931009D01*
X171340476Y-95931009D02*
X171388095Y-95883390D01*
X171388095Y-95883390D02*
X171483333Y-95835771D01*
X171483333Y-95835771D02*
X171721428Y-95835771D01*
X171721428Y-95835771D02*
X171816666Y-95883390D01*
X171816666Y-95883390D02*
X171864285Y-95931009D01*
X171864285Y-95931009D02*
X171911904Y-96026247D01*
X171911904Y-96026247D02*
X171911904Y-96264342D01*
X171911904Y-96264342D02*
X171864285Y-96359580D01*
X171864285Y-96359580D02*
X171816666Y-96407200D01*
X171816666Y-96407200D02*
X171721428Y-96454819D01*
X171721428Y-96454819D02*
X171483333Y-96454819D01*
X171483333Y-96454819D02*
X171388095Y-96407200D01*
X171388095Y-96407200D02*
X171340476Y-96359580D01*
X170007142Y-97954819D02*
X169673809Y-97478628D01*
X169435714Y-97954819D02*
X169435714Y-96954819D01*
X169435714Y-96954819D02*
X169816666Y-96954819D01*
X169816666Y-96954819D02*
X169911904Y-97002438D01*
X169911904Y-97002438D02*
X169959523Y-97050057D01*
X169959523Y-97050057D02*
X170007142Y-97145295D01*
X170007142Y-97145295D02*
X170007142Y-97288152D01*
X170007142Y-97288152D02*
X169959523Y-97383390D01*
X169959523Y-97383390D02*
X169911904Y-97431009D01*
X169911904Y-97431009D02*
X169816666Y-97478628D01*
X169816666Y-97478628D02*
X169435714Y-97478628D01*
X170388095Y-97050057D02*
X170435714Y-97002438D01*
X170435714Y-97002438D02*
X170530952Y-96954819D01*
X170530952Y-96954819D02*
X170769047Y-96954819D01*
X170769047Y-96954819D02*
X170864285Y-97002438D01*
X170864285Y-97002438D02*
X170911904Y-97050057D01*
X170911904Y-97050057D02*
X170959523Y-97145295D01*
X170959523Y-97145295D02*
X170959523Y-97240533D01*
X170959523Y-97240533D02*
X170911904Y-97383390D01*
X170911904Y-97383390D02*
X170340476Y-97954819D01*
X170340476Y-97954819D02*
X170959523Y-97954819D01*
X171816666Y-97288152D02*
X171816666Y-97954819D01*
X171578571Y-96907200D02*
X171340476Y-97621485D01*
X171340476Y-97621485D02*
X171959523Y-97621485D01*
X170007142Y-99454819D02*
X169673809Y-98978628D01*
X169435714Y-99454819D02*
X169435714Y-98454819D01*
X169435714Y-98454819D02*
X169816666Y-98454819D01*
X169816666Y-98454819D02*
X169911904Y-98502438D01*
X169911904Y-98502438D02*
X169959523Y-98550057D01*
X169959523Y-98550057D02*
X170007142Y-98645295D01*
X170007142Y-98645295D02*
X170007142Y-98788152D01*
X170007142Y-98788152D02*
X169959523Y-98883390D01*
X169959523Y-98883390D02*
X169911904Y-98931009D01*
X169911904Y-98931009D02*
X169816666Y-98978628D01*
X169816666Y-98978628D02*
X169435714Y-98978628D01*
X170388095Y-98550057D02*
X170435714Y-98502438D01*
X170435714Y-98502438D02*
X170530952Y-98454819D01*
X170530952Y-98454819D02*
X170769047Y-98454819D01*
X170769047Y-98454819D02*
X170864285Y-98502438D01*
X170864285Y-98502438D02*
X170911904Y-98550057D01*
X170911904Y-98550057D02*
X170959523Y-98645295D01*
X170959523Y-98645295D02*
X170959523Y-98740533D01*
X170959523Y-98740533D02*
X170911904Y-98883390D01*
X170911904Y-98883390D02*
X170340476Y-99454819D01*
X170340476Y-99454819D02*
X170959523Y-99454819D01*
X171292857Y-98454819D02*
X171911904Y-98454819D01*
X171911904Y-98454819D02*
X171578571Y-98835771D01*
X171578571Y-98835771D02*
X171721428Y-98835771D01*
X171721428Y-98835771D02*
X171816666Y-98883390D01*
X171816666Y-98883390D02*
X171864285Y-98931009D01*
X171864285Y-98931009D02*
X171911904Y-99026247D01*
X171911904Y-99026247D02*
X171911904Y-99264342D01*
X171911904Y-99264342D02*
X171864285Y-99359580D01*
X171864285Y-99359580D02*
X171816666Y-99407200D01*
X171816666Y-99407200D02*
X171721428Y-99454819D01*
X171721428Y-99454819D02*
X171435714Y-99454819D01*
X171435714Y-99454819D02*
X171340476Y-99407200D01*
X171340476Y-99407200D02*
X171292857Y-99359580D01*
X162157142Y-94404819D02*
X161823809Y-93928628D01*
X161585714Y-94404819D02*
X161585714Y-93404819D01*
X161585714Y-93404819D02*
X161966666Y-93404819D01*
X161966666Y-93404819D02*
X162061904Y-93452438D01*
X162061904Y-93452438D02*
X162109523Y-93500057D01*
X162109523Y-93500057D02*
X162157142Y-93595295D01*
X162157142Y-93595295D02*
X162157142Y-93738152D01*
X162157142Y-93738152D02*
X162109523Y-93833390D01*
X162109523Y-93833390D02*
X162061904Y-93881009D01*
X162061904Y-93881009D02*
X161966666Y-93928628D01*
X161966666Y-93928628D02*
X161585714Y-93928628D01*
X162538095Y-93500057D02*
X162585714Y-93452438D01*
X162585714Y-93452438D02*
X162680952Y-93404819D01*
X162680952Y-93404819D02*
X162919047Y-93404819D01*
X162919047Y-93404819D02*
X163014285Y-93452438D01*
X163014285Y-93452438D02*
X163061904Y-93500057D01*
X163061904Y-93500057D02*
X163109523Y-93595295D01*
X163109523Y-93595295D02*
X163109523Y-93690533D01*
X163109523Y-93690533D02*
X163061904Y-93833390D01*
X163061904Y-93833390D02*
X162490476Y-94404819D01*
X162490476Y-94404819D02*
X163109523Y-94404819D01*
X163490476Y-93500057D02*
X163538095Y-93452438D01*
X163538095Y-93452438D02*
X163633333Y-93404819D01*
X163633333Y-93404819D02*
X163871428Y-93404819D01*
X163871428Y-93404819D02*
X163966666Y-93452438D01*
X163966666Y-93452438D02*
X164014285Y-93500057D01*
X164014285Y-93500057D02*
X164061904Y-93595295D01*
X164061904Y-93595295D02*
X164061904Y-93690533D01*
X164061904Y-93690533D02*
X164014285Y-93833390D01*
X164014285Y-93833390D02*
X163442857Y-94404819D01*
X163442857Y-94404819D02*
X164061904Y-94404819D01*
X162157142Y-93204819D02*
X161823809Y-92728628D01*
X161585714Y-93204819D02*
X161585714Y-92204819D01*
X161585714Y-92204819D02*
X161966666Y-92204819D01*
X161966666Y-92204819D02*
X162061904Y-92252438D01*
X162061904Y-92252438D02*
X162109523Y-92300057D01*
X162109523Y-92300057D02*
X162157142Y-92395295D01*
X162157142Y-92395295D02*
X162157142Y-92538152D01*
X162157142Y-92538152D02*
X162109523Y-92633390D01*
X162109523Y-92633390D02*
X162061904Y-92681009D01*
X162061904Y-92681009D02*
X161966666Y-92728628D01*
X161966666Y-92728628D02*
X161585714Y-92728628D01*
X162538095Y-92300057D02*
X162585714Y-92252438D01*
X162585714Y-92252438D02*
X162680952Y-92204819D01*
X162680952Y-92204819D02*
X162919047Y-92204819D01*
X162919047Y-92204819D02*
X163014285Y-92252438D01*
X163014285Y-92252438D02*
X163061904Y-92300057D01*
X163061904Y-92300057D02*
X163109523Y-92395295D01*
X163109523Y-92395295D02*
X163109523Y-92490533D01*
X163109523Y-92490533D02*
X163061904Y-92633390D01*
X163061904Y-92633390D02*
X162490476Y-93204819D01*
X162490476Y-93204819D02*
X163109523Y-93204819D01*
X164061904Y-93204819D02*
X163490476Y-93204819D01*
X163776190Y-93204819D02*
X163776190Y-92204819D01*
X163776190Y-92204819D02*
X163680952Y-92347676D01*
X163680952Y-92347676D02*
X163585714Y-92442914D01*
X163585714Y-92442914D02*
X163490476Y-92490533D01*
X162157142Y-90754819D02*
X161823809Y-90278628D01*
X161585714Y-90754819D02*
X161585714Y-89754819D01*
X161585714Y-89754819D02*
X161966666Y-89754819D01*
X161966666Y-89754819D02*
X162061904Y-89802438D01*
X162061904Y-89802438D02*
X162109523Y-89850057D01*
X162109523Y-89850057D02*
X162157142Y-89945295D01*
X162157142Y-89945295D02*
X162157142Y-90088152D01*
X162157142Y-90088152D02*
X162109523Y-90183390D01*
X162109523Y-90183390D02*
X162061904Y-90231009D01*
X162061904Y-90231009D02*
X161966666Y-90278628D01*
X161966666Y-90278628D02*
X161585714Y-90278628D01*
X162538095Y-89850057D02*
X162585714Y-89802438D01*
X162585714Y-89802438D02*
X162680952Y-89754819D01*
X162680952Y-89754819D02*
X162919047Y-89754819D01*
X162919047Y-89754819D02*
X163014285Y-89802438D01*
X163014285Y-89802438D02*
X163061904Y-89850057D01*
X163061904Y-89850057D02*
X163109523Y-89945295D01*
X163109523Y-89945295D02*
X163109523Y-90040533D01*
X163109523Y-90040533D02*
X163061904Y-90183390D01*
X163061904Y-90183390D02*
X162490476Y-90754819D01*
X162490476Y-90754819D02*
X163109523Y-90754819D01*
X163728571Y-89754819D02*
X163823809Y-89754819D01*
X163823809Y-89754819D02*
X163919047Y-89802438D01*
X163919047Y-89802438D02*
X163966666Y-89850057D01*
X163966666Y-89850057D02*
X164014285Y-89945295D01*
X164014285Y-89945295D02*
X164061904Y-90135771D01*
X164061904Y-90135771D02*
X164061904Y-90373866D01*
X164061904Y-90373866D02*
X164014285Y-90564342D01*
X164014285Y-90564342D02*
X163966666Y-90659580D01*
X163966666Y-90659580D02*
X163919047Y-90707200D01*
X163919047Y-90707200D02*
X163823809Y-90754819D01*
X163823809Y-90754819D02*
X163728571Y-90754819D01*
X163728571Y-90754819D02*
X163633333Y-90707200D01*
X163633333Y-90707200D02*
X163585714Y-90659580D01*
X163585714Y-90659580D02*
X163538095Y-90564342D01*
X163538095Y-90564342D02*
X163490476Y-90373866D01*
X163490476Y-90373866D02*
X163490476Y-90135771D01*
X163490476Y-90135771D02*
X163538095Y-89945295D01*
X163538095Y-89945295D02*
X163585714Y-89850057D01*
X163585714Y-89850057D02*
X163633333Y-89802438D01*
X163633333Y-89802438D02*
X163728571Y-89754819D01*
X162157142Y-92004819D02*
X161823809Y-91528628D01*
X161585714Y-92004819D02*
X161585714Y-91004819D01*
X161585714Y-91004819D02*
X161966666Y-91004819D01*
X161966666Y-91004819D02*
X162061904Y-91052438D01*
X162061904Y-91052438D02*
X162109523Y-91100057D01*
X162109523Y-91100057D02*
X162157142Y-91195295D01*
X162157142Y-91195295D02*
X162157142Y-91338152D01*
X162157142Y-91338152D02*
X162109523Y-91433390D01*
X162109523Y-91433390D02*
X162061904Y-91481009D01*
X162061904Y-91481009D02*
X161966666Y-91528628D01*
X161966666Y-91528628D02*
X161585714Y-91528628D01*
X163109523Y-92004819D02*
X162538095Y-92004819D01*
X162823809Y-92004819D02*
X162823809Y-91004819D01*
X162823809Y-91004819D02*
X162728571Y-91147676D01*
X162728571Y-91147676D02*
X162633333Y-91242914D01*
X162633333Y-91242914D02*
X162538095Y-91290533D01*
X164014285Y-91004819D02*
X163538095Y-91004819D01*
X163538095Y-91004819D02*
X163490476Y-91481009D01*
X163490476Y-91481009D02*
X163538095Y-91433390D01*
X163538095Y-91433390D02*
X163633333Y-91385771D01*
X163633333Y-91385771D02*
X163871428Y-91385771D01*
X163871428Y-91385771D02*
X163966666Y-91433390D01*
X163966666Y-91433390D02*
X164014285Y-91481009D01*
X164014285Y-91481009D02*
X164061904Y-91576247D01*
X164061904Y-91576247D02*
X164061904Y-91814342D01*
X164061904Y-91814342D02*
X164014285Y-91909580D01*
X164014285Y-91909580D02*
X163966666Y-91957200D01*
X163966666Y-91957200D02*
X163871428Y-92004819D01*
X163871428Y-92004819D02*
X163633333Y-92004819D01*
X163633333Y-92004819D02*
X163538095Y-91957200D01*
X163538095Y-91957200D02*
X163490476Y-91909580D01*
X229504819Y-143142857D02*
X229028628Y-143476190D01*
X229504819Y-143714285D02*
X228504819Y-143714285D01*
X228504819Y-143714285D02*
X228504819Y-143333333D01*
X228504819Y-143333333D02*
X228552438Y-143238095D01*
X228552438Y-143238095D02*
X228600057Y-143190476D01*
X228600057Y-143190476D02*
X228695295Y-143142857D01*
X228695295Y-143142857D02*
X228838152Y-143142857D01*
X228838152Y-143142857D02*
X228933390Y-143190476D01*
X228933390Y-143190476D02*
X228981009Y-143238095D01*
X228981009Y-143238095D02*
X229028628Y-143333333D01*
X229028628Y-143333333D02*
X229028628Y-143714285D01*
X229504819Y-142190476D02*
X229504819Y-142761904D01*
X229504819Y-142476190D02*
X228504819Y-142476190D01*
X228504819Y-142476190D02*
X228647676Y-142571428D01*
X228647676Y-142571428D02*
X228742914Y-142666666D01*
X228742914Y-142666666D02*
X228790533Y-142761904D01*
X228838152Y-141333333D02*
X229504819Y-141333333D01*
X228457200Y-141571428D02*
X229171485Y-141809523D01*
X229171485Y-141809523D02*
X229171485Y-141190476D01*
X175804819Y-143392857D02*
X175328628Y-143726190D01*
X175804819Y-143964285D02*
X174804819Y-143964285D01*
X174804819Y-143964285D02*
X174804819Y-143583333D01*
X174804819Y-143583333D02*
X174852438Y-143488095D01*
X174852438Y-143488095D02*
X174900057Y-143440476D01*
X174900057Y-143440476D02*
X174995295Y-143392857D01*
X174995295Y-143392857D02*
X175138152Y-143392857D01*
X175138152Y-143392857D02*
X175233390Y-143440476D01*
X175233390Y-143440476D02*
X175281009Y-143488095D01*
X175281009Y-143488095D02*
X175328628Y-143583333D01*
X175328628Y-143583333D02*
X175328628Y-143964285D01*
X175804819Y-142440476D02*
X175804819Y-143011904D01*
X175804819Y-142726190D02*
X174804819Y-142726190D01*
X174804819Y-142726190D02*
X174947676Y-142821428D01*
X174947676Y-142821428D02*
X175042914Y-142916666D01*
X175042914Y-142916666D02*
X175090533Y-143011904D01*
X174804819Y-142107142D02*
X174804819Y-141488095D01*
X174804819Y-141488095D02*
X175185771Y-141821428D01*
X175185771Y-141821428D02*
X175185771Y-141678571D01*
X175185771Y-141678571D02*
X175233390Y-141583333D01*
X175233390Y-141583333D02*
X175281009Y-141535714D01*
X175281009Y-141535714D02*
X175376247Y-141488095D01*
X175376247Y-141488095D02*
X175614342Y-141488095D01*
X175614342Y-141488095D02*
X175709580Y-141535714D01*
X175709580Y-141535714D02*
X175757200Y-141583333D01*
X175757200Y-141583333D02*
X175804819Y-141678571D01*
X175804819Y-141678571D02*
X175804819Y-141964285D01*
X175804819Y-141964285D02*
X175757200Y-142059523D01*
X175757200Y-142059523D02*
X175709580Y-142107142D01*
X122584819Y-145942857D02*
X122108628Y-146276190D01*
X122584819Y-146514285D02*
X121584819Y-146514285D01*
X121584819Y-146514285D02*
X121584819Y-146133333D01*
X121584819Y-146133333D02*
X121632438Y-146038095D01*
X121632438Y-146038095D02*
X121680057Y-145990476D01*
X121680057Y-145990476D02*
X121775295Y-145942857D01*
X121775295Y-145942857D02*
X121918152Y-145942857D01*
X121918152Y-145942857D02*
X122013390Y-145990476D01*
X122013390Y-145990476D02*
X122061009Y-146038095D01*
X122061009Y-146038095D02*
X122108628Y-146133333D01*
X122108628Y-146133333D02*
X122108628Y-146514285D01*
X122584819Y-144990476D02*
X122584819Y-145561904D01*
X122584819Y-145276190D02*
X121584819Y-145276190D01*
X121584819Y-145276190D02*
X121727676Y-145371428D01*
X121727676Y-145371428D02*
X121822914Y-145466666D01*
X121822914Y-145466666D02*
X121870533Y-145561904D01*
X121680057Y-144609523D02*
X121632438Y-144561904D01*
X121632438Y-144561904D02*
X121584819Y-144466666D01*
X121584819Y-144466666D02*
X121584819Y-144228571D01*
X121584819Y-144228571D02*
X121632438Y-144133333D01*
X121632438Y-144133333D02*
X121680057Y-144085714D01*
X121680057Y-144085714D02*
X121775295Y-144038095D01*
X121775295Y-144038095D02*
X121870533Y-144038095D01*
X121870533Y-144038095D02*
X122013390Y-144085714D01*
X122013390Y-144085714D02*
X122584819Y-144657142D01*
X122584819Y-144657142D02*
X122584819Y-144038095D01*
X69534819Y-145882857D02*
X69058628Y-146216190D01*
X69534819Y-146454285D02*
X68534819Y-146454285D01*
X68534819Y-146454285D02*
X68534819Y-146073333D01*
X68534819Y-146073333D02*
X68582438Y-145978095D01*
X68582438Y-145978095D02*
X68630057Y-145930476D01*
X68630057Y-145930476D02*
X68725295Y-145882857D01*
X68725295Y-145882857D02*
X68868152Y-145882857D01*
X68868152Y-145882857D02*
X68963390Y-145930476D01*
X68963390Y-145930476D02*
X69011009Y-145978095D01*
X69011009Y-145978095D02*
X69058628Y-146073333D01*
X69058628Y-146073333D02*
X69058628Y-146454285D01*
X69534819Y-144930476D02*
X69534819Y-145501904D01*
X69534819Y-145216190D02*
X68534819Y-145216190D01*
X68534819Y-145216190D02*
X68677676Y-145311428D01*
X68677676Y-145311428D02*
X68772914Y-145406666D01*
X68772914Y-145406666D02*
X68820533Y-145501904D01*
X69534819Y-143978095D02*
X69534819Y-144549523D01*
X69534819Y-144263809D02*
X68534819Y-144263809D01*
X68534819Y-144263809D02*
X68677676Y-144359047D01*
X68677676Y-144359047D02*
X68772914Y-144454285D01*
X68772914Y-144454285D02*
X68820533Y-144549523D01*
X116157142Y-90004819D02*
X115823809Y-89528628D01*
X115585714Y-90004819D02*
X115585714Y-89004819D01*
X115585714Y-89004819D02*
X115966666Y-89004819D01*
X115966666Y-89004819D02*
X116061904Y-89052438D01*
X116061904Y-89052438D02*
X116109523Y-89100057D01*
X116109523Y-89100057D02*
X116157142Y-89195295D01*
X116157142Y-89195295D02*
X116157142Y-89338152D01*
X116157142Y-89338152D02*
X116109523Y-89433390D01*
X116109523Y-89433390D02*
X116061904Y-89481009D01*
X116061904Y-89481009D02*
X115966666Y-89528628D01*
X115966666Y-89528628D02*
X115585714Y-89528628D01*
X117109523Y-90004819D02*
X116538095Y-90004819D01*
X116823809Y-90004819D02*
X116823809Y-89004819D01*
X116823809Y-89004819D02*
X116728571Y-89147676D01*
X116728571Y-89147676D02*
X116633333Y-89242914D01*
X116633333Y-89242914D02*
X116538095Y-89290533D01*
X117728571Y-89004819D02*
X117823809Y-89004819D01*
X117823809Y-89004819D02*
X117919047Y-89052438D01*
X117919047Y-89052438D02*
X117966666Y-89100057D01*
X117966666Y-89100057D02*
X118014285Y-89195295D01*
X118014285Y-89195295D02*
X118061904Y-89385771D01*
X118061904Y-89385771D02*
X118061904Y-89623866D01*
X118061904Y-89623866D02*
X118014285Y-89814342D01*
X118014285Y-89814342D02*
X117966666Y-89909580D01*
X117966666Y-89909580D02*
X117919047Y-89957200D01*
X117919047Y-89957200D02*
X117823809Y-90004819D01*
X117823809Y-90004819D02*
X117728571Y-90004819D01*
X117728571Y-90004819D02*
X117633333Y-89957200D01*
X117633333Y-89957200D02*
X117585714Y-89909580D01*
X117585714Y-89909580D02*
X117538095Y-89814342D01*
X117538095Y-89814342D02*
X117490476Y-89623866D01*
X117490476Y-89623866D02*
X117490476Y-89385771D01*
X117490476Y-89385771D02*
X117538095Y-89195295D01*
X117538095Y-89195295D02*
X117585714Y-89100057D01*
X117585714Y-89100057D02*
X117633333Y-89052438D01*
X117633333Y-89052438D02*
X117728571Y-89004819D01*
X114254819Y-87966666D02*
X113778628Y-88299999D01*
X114254819Y-88538094D02*
X113254819Y-88538094D01*
X113254819Y-88538094D02*
X113254819Y-88157142D01*
X113254819Y-88157142D02*
X113302438Y-88061904D01*
X113302438Y-88061904D02*
X113350057Y-88014285D01*
X113350057Y-88014285D02*
X113445295Y-87966666D01*
X113445295Y-87966666D02*
X113588152Y-87966666D01*
X113588152Y-87966666D02*
X113683390Y-88014285D01*
X113683390Y-88014285D02*
X113731009Y-88061904D01*
X113731009Y-88061904D02*
X113778628Y-88157142D01*
X113778628Y-88157142D02*
X113778628Y-88538094D01*
X114254819Y-87490475D02*
X114254819Y-87299999D01*
X114254819Y-87299999D02*
X114207200Y-87204761D01*
X114207200Y-87204761D02*
X114159580Y-87157142D01*
X114159580Y-87157142D02*
X114016723Y-87061904D01*
X114016723Y-87061904D02*
X113826247Y-87014285D01*
X113826247Y-87014285D02*
X113445295Y-87014285D01*
X113445295Y-87014285D02*
X113350057Y-87061904D01*
X113350057Y-87061904D02*
X113302438Y-87109523D01*
X113302438Y-87109523D02*
X113254819Y-87204761D01*
X113254819Y-87204761D02*
X113254819Y-87395237D01*
X113254819Y-87395237D02*
X113302438Y-87490475D01*
X113302438Y-87490475D02*
X113350057Y-87538094D01*
X113350057Y-87538094D02*
X113445295Y-87585713D01*
X113445295Y-87585713D02*
X113683390Y-87585713D01*
X113683390Y-87585713D02*
X113778628Y-87538094D01*
X113778628Y-87538094D02*
X113826247Y-87490475D01*
X113826247Y-87490475D02*
X113873866Y-87395237D01*
X113873866Y-87395237D02*
X113873866Y-87204761D01*
X113873866Y-87204761D02*
X113826247Y-87109523D01*
X113826247Y-87109523D02*
X113778628Y-87061904D01*
X113778628Y-87061904D02*
X113683390Y-87014285D01*
X114874819Y-85026666D02*
X114398628Y-85359999D01*
X114874819Y-85598094D02*
X113874819Y-85598094D01*
X113874819Y-85598094D02*
X113874819Y-85217142D01*
X113874819Y-85217142D02*
X113922438Y-85121904D01*
X113922438Y-85121904D02*
X113970057Y-85074285D01*
X113970057Y-85074285D02*
X114065295Y-85026666D01*
X114065295Y-85026666D02*
X114208152Y-85026666D01*
X114208152Y-85026666D02*
X114303390Y-85074285D01*
X114303390Y-85074285D02*
X114351009Y-85121904D01*
X114351009Y-85121904D02*
X114398628Y-85217142D01*
X114398628Y-85217142D02*
X114398628Y-85598094D01*
X114303390Y-84455237D02*
X114255771Y-84550475D01*
X114255771Y-84550475D02*
X114208152Y-84598094D01*
X114208152Y-84598094D02*
X114112914Y-84645713D01*
X114112914Y-84645713D02*
X114065295Y-84645713D01*
X114065295Y-84645713D02*
X113970057Y-84598094D01*
X113970057Y-84598094D02*
X113922438Y-84550475D01*
X113922438Y-84550475D02*
X113874819Y-84455237D01*
X113874819Y-84455237D02*
X113874819Y-84264761D01*
X113874819Y-84264761D02*
X113922438Y-84169523D01*
X113922438Y-84169523D02*
X113970057Y-84121904D01*
X113970057Y-84121904D02*
X114065295Y-84074285D01*
X114065295Y-84074285D02*
X114112914Y-84074285D01*
X114112914Y-84074285D02*
X114208152Y-84121904D01*
X114208152Y-84121904D02*
X114255771Y-84169523D01*
X114255771Y-84169523D02*
X114303390Y-84264761D01*
X114303390Y-84264761D02*
X114303390Y-84455237D01*
X114303390Y-84455237D02*
X114351009Y-84550475D01*
X114351009Y-84550475D02*
X114398628Y-84598094D01*
X114398628Y-84598094D02*
X114493866Y-84645713D01*
X114493866Y-84645713D02*
X114684342Y-84645713D01*
X114684342Y-84645713D02*
X114779580Y-84598094D01*
X114779580Y-84598094D02*
X114827200Y-84550475D01*
X114827200Y-84550475D02*
X114874819Y-84455237D01*
X114874819Y-84455237D02*
X114874819Y-84264761D01*
X114874819Y-84264761D02*
X114827200Y-84169523D01*
X114827200Y-84169523D02*
X114779580Y-84121904D01*
X114779580Y-84121904D02*
X114684342Y-84074285D01*
X114684342Y-84074285D02*
X114493866Y-84074285D01*
X114493866Y-84074285D02*
X114398628Y-84121904D01*
X114398628Y-84121904D02*
X114351009Y-84169523D01*
X114351009Y-84169523D02*
X114303390Y-84264761D01*
X228425833Y-90974819D02*
X228092500Y-90498628D01*
X227854405Y-90974819D02*
X227854405Y-89974819D01*
X227854405Y-89974819D02*
X228235357Y-89974819D01*
X228235357Y-89974819D02*
X228330595Y-90022438D01*
X228330595Y-90022438D02*
X228378214Y-90070057D01*
X228378214Y-90070057D02*
X228425833Y-90165295D01*
X228425833Y-90165295D02*
X228425833Y-90308152D01*
X228425833Y-90308152D02*
X228378214Y-90403390D01*
X228378214Y-90403390D02*
X228330595Y-90451009D01*
X228330595Y-90451009D02*
X228235357Y-90498628D01*
X228235357Y-90498628D02*
X227854405Y-90498628D01*
X228759167Y-89974819D02*
X229425833Y-89974819D01*
X229425833Y-89974819D02*
X228997262Y-90974819D01*
X174468332Y-63678016D02*
X174134999Y-63201825D01*
X173896904Y-63678016D02*
X173896904Y-62678016D01*
X173896904Y-62678016D02*
X174277856Y-62678016D01*
X174277856Y-62678016D02*
X174373094Y-62725635D01*
X174373094Y-62725635D02*
X174420713Y-62773254D01*
X174420713Y-62773254D02*
X174468332Y-62868492D01*
X174468332Y-62868492D02*
X174468332Y-63011349D01*
X174468332Y-63011349D02*
X174420713Y-63106587D01*
X174420713Y-63106587D02*
X174373094Y-63154206D01*
X174373094Y-63154206D02*
X174277856Y-63201825D01*
X174277856Y-63201825D02*
X173896904Y-63201825D01*
X175373094Y-62678016D02*
X174896904Y-62678016D01*
X174896904Y-62678016D02*
X174849285Y-63154206D01*
X174849285Y-63154206D02*
X174896904Y-63106587D01*
X174896904Y-63106587D02*
X174992142Y-63058968D01*
X174992142Y-63058968D02*
X175230237Y-63058968D01*
X175230237Y-63058968D02*
X175325475Y-63106587D01*
X175325475Y-63106587D02*
X175373094Y-63154206D01*
X175373094Y-63154206D02*
X175420713Y-63249444D01*
X175420713Y-63249444D02*
X175420713Y-63487539D01*
X175420713Y-63487539D02*
X175373094Y-63582777D01*
X175373094Y-63582777D02*
X175325475Y-63630397D01*
X175325475Y-63630397D02*
X175230237Y-63678016D01*
X175230237Y-63678016D02*
X174992142Y-63678016D01*
X174992142Y-63678016D02*
X174896904Y-63630397D01*
X174896904Y-63630397D02*
X174849285Y-63582777D01*
X152584819Y-81016666D02*
X152108628Y-81349999D01*
X152584819Y-81588094D02*
X151584819Y-81588094D01*
X151584819Y-81588094D02*
X151584819Y-81207142D01*
X151584819Y-81207142D02*
X151632438Y-81111904D01*
X151632438Y-81111904D02*
X151680057Y-81064285D01*
X151680057Y-81064285D02*
X151775295Y-81016666D01*
X151775295Y-81016666D02*
X151918152Y-81016666D01*
X151918152Y-81016666D02*
X152013390Y-81064285D01*
X152013390Y-81064285D02*
X152061009Y-81111904D01*
X152061009Y-81111904D02*
X152108628Y-81207142D01*
X152108628Y-81207142D02*
X152108628Y-81588094D01*
X151918152Y-80159523D02*
X152584819Y-80159523D01*
X151537200Y-80397618D02*
X152251485Y-80635713D01*
X152251485Y-80635713D02*
X152251485Y-80016666D01*
X151683333Y-78584819D02*
X151350000Y-78108628D01*
X151111905Y-78584819D02*
X151111905Y-77584819D01*
X151111905Y-77584819D02*
X151492857Y-77584819D01*
X151492857Y-77584819D02*
X151588095Y-77632438D01*
X151588095Y-77632438D02*
X151635714Y-77680057D01*
X151635714Y-77680057D02*
X151683333Y-77775295D01*
X151683333Y-77775295D02*
X151683333Y-77918152D01*
X151683333Y-77918152D02*
X151635714Y-78013390D01*
X151635714Y-78013390D02*
X151588095Y-78061009D01*
X151588095Y-78061009D02*
X151492857Y-78108628D01*
X151492857Y-78108628D02*
X151111905Y-78108628D01*
X152016667Y-77584819D02*
X152635714Y-77584819D01*
X152635714Y-77584819D02*
X152302381Y-77965771D01*
X152302381Y-77965771D02*
X152445238Y-77965771D01*
X152445238Y-77965771D02*
X152540476Y-78013390D01*
X152540476Y-78013390D02*
X152588095Y-78061009D01*
X152588095Y-78061009D02*
X152635714Y-78156247D01*
X152635714Y-78156247D02*
X152635714Y-78394342D01*
X152635714Y-78394342D02*
X152588095Y-78489580D01*
X152588095Y-78489580D02*
X152540476Y-78537200D01*
X152540476Y-78537200D02*
X152445238Y-78584819D01*
X152445238Y-78584819D02*
X152159524Y-78584819D01*
X152159524Y-78584819D02*
X152064286Y-78537200D01*
X152064286Y-78537200D02*
X152016667Y-78489580D01*
X128533333Y-84174819D02*
X128200000Y-83698628D01*
X127961905Y-84174819D02*
X127961905Y-83174819D01*
X127961905Y-83174819D02*
X128342857Y-83174819D01*
X128342857Y-83174819D02*
X128438095Y-83222438D01*
X128438095Y-83222438D02*
X128485714Y-83270057D01*
X128485714Y-83270057D02*
X128533333Y-83365295D01*
X128533333Y-83365295D02*
X128533333Y-83508152D01*
X128533333Y-83508152D02*
X128485714Y-83603390D01*
X128485714Y-83603390D02*
X128438095Y-83651009D01*
X128438095Y-83651009D02*
X128342857Y-83698628D01*
X128342857Y-83698628D02*
X127961905Y-83698628D01*
X129485714Y-84174819D02*
X128914286Y-84174819D01*
X129200000Y-84174819D02*
X129200000Y-83174819D01*
X129200000Y-83174819D02*
X129104762Y-83317676D01*
X129104762Y-83317676D02*
X129009524Y-83412914D01*
X129009524Y-83412914D02*
X128914286Y-83460533D01*
X228207142Y-150549580D02*
X228159523Y-150597200D01*
X228159523Y-150597200D02*
X228016666Y-150644819D01*
X228016666Y-150644819D02*
X227921428Y-150644819D01*
X227921428Y-150644819D02*
X227778571Y-150597200D01*
X227778571Y-150597200D02*
X227683333Y-150501961D01*
X227683333Y-150501961D02*
X227635714Y-150406723D01*
X227635714Y-150406723D02*
X227588095Y-150216247D01*
X227588095Y-150216247D02*
X227588095Y-150073390D01*
X227588095Y-150073390D02*
X227635714Y-149882914D01*
X227635714Y-149882914D02*
X227683333Y-149787676D01*
X227683333Y-149787676D02*
X227778571Y-149692438D01*
X227778571Y-149692438D02*
X227921428Y-149644819D01*
X227921428Y-149644819D02*
X228016666Y-149644819D01*
X228016666Y-149644819D02*
X228159523Y-149692438D01*
X228159523Y-149692438D02*
X228207142Y-149740057D01*
X229111904Y-149644819D02*
X228635714Y-149644819D01*
X228635714Y-149644819D02*
X228588095Y-150121009D01*
X228588095Y-150121009D02*
X228635714Y-150073390D01*
X228635714Y-150073390D02*
X228730952Y-150025771D01*
X228730952Y-150025771D02*
X228969047Y-150025771D01*
X228969047Y-150025771D02*
X229064285Y-150073390D01*
X229064285Y-150073390D02*
X229111904Y-150121009D01*
X229111904Y-150121009D02*
X229159523Y-150216247D01*
X229159523Y-150216247D02*
X229159523Y-150454342D01*
X229159523Y-150454342D02*
X229111904Y-150549580D01*
X229111904Y-150549580D02*
X229064285Y-150597200D01*
X229064285Y-150597200D02*
X228969047Y-150644819D01*
X228969047Y-150644819D02*
X228730952Y-150644819D01*
X228730952Y-150644819D02*
X228635714Y-150597200D01*
X228635714Y-150597200D02*
X228588095Y-150549580D01*
X229492857Y-149644819D02*
X230159523Y-149644819D01*
X230159523Y-149644819D02*
X229730952Y-150644819D01*
X176557142Y-151609580D02*
X176509523Y-151657200D01*
X176509523Y-151657200D02*
X176366666Y-151704819D01*
X176366666Y-151704819D02*
X176271428Y-151704819D01*
X176271428Y-151704819D02*
X176128571Y-151657200D01*
X176128571Y-151657200D02*
X176033333Y-151561961D01*
X176033333Y-151561961D02*
X175985714Y-151466723D01*
X175985714Y-151466723D02*
X175938095Y-151276247D01*
X175938095Y-151276247D02*
X175938095Y-151133390D01*
X175938095Y-151133390D02*
X175985714Y-150942914D01*
X175985714Y-150942914D02*
X176033333Y-150847676D01*
X176033333Y-150847676D02*
X176128571Y-150752438D01*
X176128571Y-150752438D02*
X176271428Y-150704819D01*
X176271428Y-150704819D02*
X176366666Y-150704819D01*
X176366666Y-150704819D02*
X176509523Y-150752438D01*
X176509523Y-150752438D02*
X176557142Y-150800057D01*
X177461904Y-150704819D02*
X176985714Y-150704819D01*
X176985714Y-150704819D02*
X176938095Y-151181009D01*
X176938095Y-151181009D02*
X176985714Y-151133390D01*
X176985714Y-151133390D02*
X177080952Y-151085771D01*
X177080952Y-151085771D02*
X177319047Y-151085771D01*
X177319047Y-151085771D02*
X177414285Y-151133390D01*
X177414285Y-151133390D02*
X177461904Y-151181009D01*
X177461904Y-151181009D02*
X177509523Y-151276247D01*
X177509523Y-151276247D02*
X177509523Y-151514342D01*
X177509523Y-151514342D02*
X177461904Y-151609580D01*
X177461904Y-151609580D02*
X177414285Y-151657200D01*
X177414285Y-151657200D02*
X177319047Y-151704819D01*
X177319047Y-151704819D02*
X177080952Y-151704819D01*
X177080952Y-151704819D02*
X176985714Y-151657200D01*
X176985714Y-151657200D02*
X176938095Y-151609580D01*
X178366666Y-151038152D02*
X178366666Y-151704819D01*
X178128571Y-150657200D02*
X177890476Y-151371485D01*
X177890476Y-151371485D02*
X178509523Y-151371485D01*
X122957142Y-151359580D02*
X122909523Y-151407200D01*
X122909523Y-151407200D02*
X122766666Y-151454819D01*
X122766666Y-151454819D02*
X122671428Y-151454819D01*
X122671428Y-151454819D02*
X122528571Y-151407200D01*
X122528571Y-151407200D02*
X122433333Y-151311961D01*
X122433333Y-151311961D02*
X122385714Y-151216723D01*
X122385714Y-151216723D02*
X122338095Y-151026247D01*
X122338095Y-151026247D02*
X122338095Y-150883390D01*
X122338095Y-150883390D02*
X122385714Y-150692914D01*
X122385714Y-150692914D02*
X122433333Y-150597676D01*
X122433333Y-150597676D02*
X122528571Y-150502438D01*
X122528571Y-150502438D02*
X122671428Y-150454819D01*
X122671428Y-150454819D02*
X122766666Y-150454819D01*
X122766666Y-150454819D02*
X122909523Y-150502438D01*
X122909523Y-150502438D02*
X122957142Y-150550057D01*
X123861904Y-150454819D02*
X123385714Y-150454819D01*
X123385714Y-150454819D02*
X123338095Y-150931009D01*
X123338095Y-150931009D02*
X123385714Y-150883390D01*
X123385714Y-150883390D02*
X123480952Y-150835771D01*
X123480952Y-150835771D02*
X123719047Y-150835771D01*
X123719047Y-150835771D02*
X123814285Y-150883390D01*
X123814285Y-150883390D02*
X123861904Y-150931009D01*
X123861904Y-150931009D02*
X123909523Y-151026247D01*
X123909523Y-151026247D02*
X123909523Y-151264342D01*
X123909523Y-151264342D02*
X123861904Y-151359580D01*
X123861904Y-151359580D02*
X123814285Y-151407200D01*
X123814285Y-151407200D02*
X123719047Y-151454819D01*
X123719047Y-151454819D02*
X123480952Y-151454819D01*
X123480952Y-151454819D02*
X123385714Y-151407200D01*
X123385714Y-151407200D02*
X123338095Y-151359580D01*
X124861904Y-151454819D02*
X124290476Y-151454819D01*
X124576190Y-151454819D02*
X124576190Y-150454819D01*
X124576190Y-150454819D02*
X124480952Y-150597676D01*
X124480952Y-150597676D02*
X124385714Y-150692914D01*
X124385714Y-150692914D02*
X124290476Y-150740533D01*
X70707142Y-151209580D02*
X70659523Y-151257200D01*
X70659523Y-151257200D02*
X70516666Y-151304819D01*
X70516666Y-151304819D02*
X70421428Y-151304819D01*
X70421428Y-151304819D02*
X70278571Y-151257200D01*
X70278571Y-151257200D02*
X70183333Y-151161961D01*
X70183333Y-151161961D02*
X70135714Y-151066723D01*
X70135714Y-151066723D02*
X70088095Y-150876247D01*
X70088095Y-150876247D02*
X70088095Y-150733390D01*
X70088095Y-150733390D02*
X70135714Y-150542914D01*
X70135714Y-150542914D02*
X70183333Y-150447676D01*
X70183333Y-150447676D02*
X70278571Y-150352438D01*
X70278571Y-150352438D02*
X70421428Y-150304819D01*
X70421428Y-150304819D02*
X70516666Y-150304819D01*
X70516666Y-150304819D02*
X70659523Y-150352438D01*
X70659523Y-150352438D02*
X70707142Y-150400057D01*
X71564285Y-150638152D02*
X71564285Y-151304819D01*
X71326190Y-150257200D02*
X71088095Y-150971485D01*
X71088095Y-150971485D02*
X71707142Y-150971485D01*
X72230952Y-150733390D02*
X72135714Y-150685771D01*
X72135714Y-150685771D02*
X72088095Y-150638152D01*
X72088095Y-150638152D02*
X72040476Y-150542914D01*
X72040476Y-150542914D02*
X72040476Y-150495295D01*
X72040476Y-150495295D02*
X72088095Y-150400057D01*
X72088095Y-150400057D02*
X72135714Y-150352438D01*
X72135714Y-150352438D02*
X72230952Y-150304819D01*
X72230952Y-150304819D02*
X72421428Y-150304819D01*
X72421428Y-150304819D02*
X72516666Y-150352438D01*
X72516666Y-150352438D02*
X72564285Y-150400057D01*
X72564285Y-150400057D02*
X72611904Y-150495295D01*
X72611904Y-150495295D02*
X72611904Y-150542914D01*
X72611904Y-150542914D02*
X72564285Y-150638152D01*
X72564285Y-150638152D02*
X72516666Y-150685771D01*
X72516666Y-150685771D02*
X72421428Y-150733390D01*
X72421428Y-150733390D02*
X72230952Y-150733390D01*
X72230952Y-150733390D02*
X72135714Y-150781009D01*
X72135714Y-150781009D02*
X72088095Y-150828628D01*
X72088095Y-150828628D02*
X72040476Y-150923866D01*
X72040476Y-150923866D02*
X72040476Y-151114342D01*
X72040476Y-151114342D02*
X72088095Y-151209580D01*
X72088095Y-151209580D02*
X72135714Y-151257200D01*
X72135714Y-151257200D02*
X72230952Y-151304819D01*
X72230952Y-151304819D02*
X72421428Y-151304819D01*
X72421428Y-151304819D02*
X72516666Y-151257200D01*
X72516666Y-151257200D02*
X72564285Y-151209580D01*
X72564285Y-151209580D02*
X72611904Y-151114342D01*
X72611904Y-151114342D02*
X72611904Y-150923866D01*
X72611904Y-150923866D02*
X72564285Y-150828628D01*
X72564285Y-150828628D02*
X72516666Y-150781009D01*
X72516666Y-150781009D02*
X72421428Y-150733390D01*
X240942080Y-82542857D02*
X240989700Y-82590476D01*
X240989700Y-82590476D02*
X241037319Y-82733333D01*
X241037319Y-82733333D02*
X241037319Y-82828571D01*
X241037319Y-82828571D02*
X240989700Y-82971428D01*
X240989700Y-82971428D02*
X240894461Y-83066666D01*
X240894461Y-83066666D02*
X240799223Y-83114285D01*
X240799223Y-83114285D02*
X240608747Y-83161904D01*
X240608747Y-83161904D02*
X240465890Y-83161904D01*
X240465890Y-83161904D02*
X240275414Y-83114285D01*
X240275414Y-83114285D02*
X240180176Y-83066666D01*
X240180176Y-83066666D02*
X240084938Y-82971428D01*
X240084938Y-82971428D02*
X240037319Y-82828571D01*
X240037319Y-82828571D02*
X240037319Y-82733333D01*
X240037319Y-82733333D02*
X240084938Y-82590476D01*
X240084938Y-82590476D02*
X240132557Y-82542857D01*
X240370652Y-81685714D02*
X241037319Y-81685714D01*
X239989700Y-81923809D02*
X240703985Y-82161904D01*
X240703985Y-82161904D02*
X240703985Y-81542857D01*
X240037319Y-81257142D02*
X240037319Y-80638095D01*
X240037319Y-80638095D02*
X240418271Y-80971428D01*
X240418271Y-80971428D02*
X240418271Y-80828571D01*
X240418271Y-80828571D02*
X240465890Y-80733333D01*
X240465890Y-80733333D02*
X240513509Y-80685714D01*
X240513509Y-80685714D02*
X240608747Y-80638095D01*
X240608747Y-80638095D02*
X240846842Y-80638095D01*
X240846842Y-80638095D02*
X240942080Y-80685714D01*
X240942080Y-80685714D02*
X240989700Y-80733333D01*
X240989700Y-80733333D02*
X241037319Y-80828571D01*
X241037319Y-80828571D02*
X241037319Y-81114285D01*
X241037319Y-81114285D02*
X240989700Y-81209523D01*
X240989700Y-81209523D02*
X240942080Y-81257142D01*
X151483333Y-88099580D02*
X151435714Y-88147200D01*
X151435714Y-88147200D02*
X151292857Y-88194819D01*
X151292857Y-88194819D02*
X151197619Y-88194819D01*
X151197619Y-88194819D02*
X151054762Y-88147200D01*
X151054762Y-88147200D02*
X150959524Y-88051961D01*
X150959524Y-88051961D02*
X150911905Y-87956723D01*
X150911905Y-87956723D02*
X150864286Y-87766247D01*
X150864286Y-87766247D02*
X150864286Y-87623390D01*
X150864286Y-87623390D02*
X150911905Y-87432914D01*
X150911905Y-87432914D02*
X150959524Y-87337676D01*
X150959524Y-87337676D02*
X151054762Y-87242438D01*
X151054762Y-87242438D02*
X151197619Y-87194819D01*
X151197619Y-87194819D02*
X151292857Y-87194819D01*
X151292857Y-87194819D02*
X151435714Y-87242438D01*
X151435714Y-87242438D02*
X151483333Y-87290057D01*
X152435714Y-88194819D02*
X151864286Y-88194819D01*
X152150000Y-88194819D02*
X152150000Y-87194819D01*
X152150000Y-87194819D02*
X152054762Y-87337676D01*
X152054762Y-87337676D02*
X151959524Y-87432914D01*
X151959524Y-87432914D02*
X151864286Y-87480533D01*
D11*
%TO.C,J2*%
X246892500Y-69115000D02*
X246892500Y-61215000D01*
X246892500Y-75915000D02*
X246892500Y-74615000D01*
X248992500Y-75915000D02*
X246892500Y-75915000D01*
X256092500Y-61215000D02*
X246892500Y-61215000D01*
X256092500Y-75915000D02*
X253992500Y-75915000D01*
X256092500Y-75915000D02*
X256092500Y-61215000D01*
%TO.C,J4*%
X124030000Y-156550000D02*
X124030000Y-158350000D01*
X124030000Y-156550000D02*
X136730000Y-156550000D01*
X124030000Y-162350000D02*
X124030000Y-163650000D01*
X136730000Y-156550000D02*
X136730000Y-158350000D01*
X136730000Y-163650000D02*
X136730000Y-162350000D01*
D12*
X125380000Y-157770000D02*
G75*
G02*
X124980000Y-157770000I-200000J0D01*
G01*
X124980000Y-157770000D02*
G75*
G02*
X125380000Y-157770000I200000J0D01*
G01*
D11*
%TO.C,J5*%
X180490000Y-156550000D02*
X180490000Y-158350000D01*
X180490000Y-156550000D02*
X193190000Y-156550000D01*
X180490000Y-162350000D02*
X180490000Y-163650000D01*
X193190000Y-156550000D02*
X193190000Y-158350000D01*
X193190000Y-163650000D02*
X193190000Y-162350000D01*
D12*
X181840000Y-157770000D02*
G75*
G02*
X181440000Y-157770000I-200000J0D01*
G01*
X181440000Y-157770000D02*
G75*
G02*
X181840000Y-157770000I200000J0D01*
G01*
D11*
%TO.C,J6*%
X236950000Y-156550000D02*
X236950000Y-158350000D01*
X236950000Y-156550000D02*
X249650000Y-156550000D01*
X236950000Y-162350000D02*
X236950000Y-163650000D01*
X249650000Y-156550000D02*
X249650000Y-158350000D01*
X249650000Y-163650000D02*
X249650000Y-162350000D01*
D12*
X238300000Y-157770000D02*
G75*
G02*
X237900000Y-157770000I-200000J0D01*
G01*
X237900000Y-157770000D02*
G75*
G02*
X238300000Y-157770000I200000J0D01*
G01*
D11*
%TO.C,J7*%
X67570000Y-156550000D02*
X67570000Y-158350000D01*
X67570000Y-156550000D02*
X80270000Y-156550000D01*
X67570000Y-162350000D02*
X67570000Y-163650000D01*
X80270000Y-156550000D02*
X80270000Y-158350000D01*
X80270000Y-163650000D02*
X80270000Y-162350000D01*
D12*
X68920000Y-157770000D02*
G75*
G02*
X68520000Y-157770000I-200000J0D01*
G01*
X68520000Y-157770000D02*
G75*
G02*
X68920000Y-157770000I200000J0D01*
G01*
D13*
%TO.C,U1*%
X138125000Y-88425000D02*
X138125000Y-89475000D01*
X138125000Y-88425000D02*
X139175000Y-88425000D01*
X138125000Y-98775000D02*
X138125000Y-97725000D01*
X138125000Y-98775000D02*
X139175000Y-98775000D01*
X148475000Y-88425000D02*
X147425000Y-88425000D01*
X148475000Y-88425000D02*
X148475000Y-89475000D01*
X148475000Y-98775000D02*
X147425000Y-98775000D01*
X148475000Y-98775000D02*
X148475000Y-97825000D01*
X149410000Y-98240000D02*
X148730000Y-98240000D01*
X149070000Y-97770000D01*
X149410000Y-98240000D01*
G36*
X149410000Y-98240000D02*
G01*
X148730000Y-98240000D01*
X149070000Y-97770000D01*
X149410000Y-98240000D01*
G37*
%TO.C,U2*%
X236720000Y-89930000D02*
X236990000Y-89930000D01*
X236720000Y-96350000D02*
X236720000Y-89930000D01*
X243620000Y-89930000D02*
X243350000Y-89930000D01*
X243620000Y-96350000D02*
X243620000Y-89930000D01*
X243780000Y-88540000D02*
X243310000Y-88200000D01*
X243780000Y-87860000D01*
X243780000Y-88540000D01*
G36*
X243780000Y-88540000D02*
G01*
X243310000Y-88200000D01*
X243780000Y-87860000D01*
X243780000Y-88540000D01*
G37*
D14*
%TO.C,U4*%
X65150600Y-145300600D02*
X65150600Y-148399400D01*
X68249400Y-148399400D02*
X68249400Y-145300600D01*
X65150600Y-146545200D02*
G75*
G02*
X65422260Y-146711783I0J-304800D01*
G01*
X65422260Y-146988217D02*
G75*
G02*
X65150600Y-147154800I-271660J138217D01*
G01*
%TO.C,U5*%
X117650600Y-145300600D02*
X117650600Y-148399400D01*
X120749400Y-148399400D02*
X120749400Y-145300600D01*
X117650600Y-146545200D02*
G75*
G02*
X117922260Y-146711783I0J-304800D01*
G01*
X117922260Y-146988217D02*
G75*
G02*
X117650600Y-147154800I-271660J138217D01*
G01*
%TO.C,U6*%
X170900600Y-145300600D02*
X170900600Y-148399400D01*
X173999400Y-148399400D02*
X173999400Y-145300600D01*
X170900600Y-146545200D02*
G75*
G02*
X171172260Y-146711783I0J-304800D01*
G01*
X171172260Y-146988217D02*
G75*
G02*
X170900600Y-147154800I-271660J138217D01*
G01*
%TO.C,U7*%
X224350600Y-145300600D02*
X224350600Y-148399400D01*
X227449400Y-148399400D02*
X227449400Y-145300600D01*
X224350600Y-146545200D02*
G75*
G02*
X224622260Y-146711783I0J-304800D01*
G01*
X224622260Y-146988217D02*
G75*
G02*
X224350600Y-147154800I-271660J138217D01*
G01*
D13*
%TO.C,C47*%
X118940000Y-88463748D02*
X118940000Y-89886252D01*
X120760000Y-88463748D02*
X120760000Y-89886252D01*
%TO.C,D2*%
X230157500Y-88615000D02*
X230157500Y-90085000D01*
X230157500Y-90085000D02*
X232442500Y-90085000D01*
X232442500Y-88615000D02*
X230157500Y-88615000D01*
%TO.C,C15*%
X159638747Y-67633197D02*
X161061251Y-67633197D01*
X159638747Y-69453197D02*
X161061251Y-69453197D01*
%TO.C,C45*%
X233832500Y-82861252D02*
X233832500Y-81438748D01*
X235652500Y-82861252D02*
X235652500Y-81438748D01*
D15*
%TO.C,U3*%
X115800000Y-80550000D02*
X115800000Y-81260000D01*
X115800000Y-80550000D02*
X116510000Y-80550000D01*
X115800000Y-85550000D02*
X115800000Y-84840000D01*
X115800000Y-85550000D02*
X116510000Y-85550000D01*
X120800000Y-80550000D02*
X120090000Y-80550000D01*
X120800000Y-80550000D02*
X120800000Y-81260000D01*
X120800000Y-85550000D02*
X120090000Y-85550000D01*
X120800000Y-85550000D02*
X120800000Y-84840000D01*
D11*
X121885000Y-84350000D02*
G75*
G02*
X121685000Y-84350000I-100000J0D01*
G01*
X121685000Y-84350000D02*
G75*
G02*
X121885000Y-84350000I100000J0D01*
G01*
D13*
%TO.C,D1*%
X171187499Y-65128197D02*
X173472499Y-65128197D01*
X173472499Y-63658197D02*
X171187499Y-63658197D01*
X173472499Y-65128197D02*
X173472499Y-63658197D01*
%TO.C,C44*%
X236907500Y-82961252D02*
X236907500Y-82438748D01*
X238377500Y-82961252D02*
X238377500Y-82438748D01*
%TO.C,C42*%
X246503752Y-78890000D02*
X245081248Y-78890000D01*
X246503752Y-80710000D02*
X245081248Y-80710000D01*
D11*
%TO.C,J1*%
X142824999Y-59443197D02*
X142824999Y-60743197D01*
X142824999Y-66543197D02*
X142824999Y-64743197D01*
X155524999Y-60743197D02*
X155524999Y-59443197D01*
X155524999Y-66543197D02*
X142824999Y-66543197D01*
X155524999Y-66543197D02*
X155524999Y-64743197D01*
D12*
X154574999Y-65323197D02*
G75*
G02*
X154174999Y-65323197I-200000J0D01*
G01*
X154174999Y-65323197D02*
G75*
G02*
X154574999Y-65323197I200000J0D01*
G01*
D13*
%TO.C,R27*%
X173390000Y-92620000D02*
X173390000Y-92620000D01*
X173390000Y-93380000D02*
X173390000Y-93380000D01*
%TO.C,R26*%
X173390000Y-94120000D02*
X173390000Y-94120000D01*
X173390000Y-94880000D02*
X173390000Y-94880000D01*
%TO.C,R25*%
X173390000Y-95620000D02*
X173390000Y-95620000D01*
X173390000Y-96380000D02*
X173390000Y-96380000D01*
%TO.C,R24*%
X173390000Y-97120000D02*
X173390000Y-97120000D01*
X173390000Y-97880000D02*
X173390000Y-97880000D01*
%TO.C,R23*%
X173390000Y-98620000D02*
X173390000Y-98620000D01*
X173390000Y-99380000D02*
X173390000Y-99380000D01*
%TO.C,R22*%
X165500000Y-93370000D02*
X165500000Y-93370000D01*
X165500000Y-94130000D02*
X165500000Y-94130000D01*
%TO.C,R21*%
X165500000Y-92370000D02*
X165500000Y-92370000D01*
X165500000Y-93130000D02*
X165500000Y-93130000D01*
%TO.C,R20*%
X165550000Y-90220000D02*
X165550000Y-90220000D01*
X165550000Y-90980000D02*
X165550000Y-90980000D01*
%TO.C,R15*%
X165500000Y-91370000D02*
X165500000Y-91370000D01*
X165500000Y-92130000D02*
X165500000Y-92130000D01*
%TO.C,R14*%
X228670000Y-145250000D02*
X228670000Y-145250000D01*
X229430000Y-145250000D02*
X229430000Y-145250000D01*
%TO.C,R13*%
X174970000Y-145260000D02*
X174970000Y-145260000D01*
X175730000Y-145260000D02*
X175730000Y-145260000D01*
%TO.C,R12*%
X122920000Y-145300000D02*
X122920000Y-145300000D01*
X123680000Y-145300000D02*
X123680000Y-145300000D01*
%TO.C,R11*%
X69870000Y-145240000D02*
X69870000Y-145240000D01*
X70630000Y-145240000D02*
X70630000Y-145240000D01*
%TO.C,R10*%
X116810000Y-86920000D02*
X116810000Y-86920000D01*
X116810000Y-87680000D02*
X116810000Y-87680000D01*
%TO.C,R9*%
X114720000Y-87800000D02*
X114720000Y-87800000D01*
X115480000Y-87800000D02*
X115480000Y-87800000D01*
%TO.C,R8*%
X112870000Y-84860000D02*
X112870000Y-84860000D01*
X113630000Y-84860000D02*
X113630000Y-84860000D01*
%TO.C,R7*%
X228592500Y-88970000D02*
X228592500Y-88970000D01*
X228592500Y-89730000D02*
X228592500Y-89730000D01*
%TO.C,R5*%
X174634999Y-64013197D02*
X174634999Y-64013197D01*
X174634999Y-64773197D02*
X174634999Y-64773197D01*
%TO.C,R4*%
X152920000Y-80850000D02*
X152920000Y-80850000D01*
X153680000Y-80850000D02*
X153680000Y-80850000D01*
%TO.C,R3*%
X151850000Y-78920000D02*
X151850000Y-78920000D01*
X151850000Y-79680000D02*
X151850000Y-79680000D01*
%TO.C,R1*%
X128700000Y-82170000D02*
X128700000Y-82170000D01*
X128700000Y-82930000D02*
X128700000Y-82930000D01*
%TO.C,C57*%
X228820000Y-150990000D02*
X228880000Y-150990000D01*
X228820000Y-151710000D02*
X228880000Y-151710000D01*
%TO.C,C54*%
X174720000Y-150890000D02*
X174780000Y-150890000D01*
X174720000Y-151610000D02*
X174780000Y-151610000D01*
%TO.C,C51*%
X121170000Y-150640000D02*
X121230000Y-150640000D01*
X121170000Y-151360000D02*
X121230000Y-151360000D01*
%TO.C,C48*%
X68920000Y-150490000D02*
X68980000Y-150490000D01*
X68920000Y-151210000D02*
X68980000Y-151210000D01*
%TO.C,C43*%
X241382500Y-81930000D02*
X241382500Y-81870000D01*
X242102500Y-81930000D02*
X242102500Y-81870000D01*
%TO.C,C1*%
X151620000Y-88540000D02*
X151680000Y-88540000D01*
X151620000Y-89260000D02*
X151680000Y-89260000D01*
%TD*%
%LPC*%
D16*
%TO.C,J2*%
X251492500Y-74915000D03*
X251492500Y-69115000D03*
D17*
X246692500Y-71915000D03*
%TD*%
D18*
%TO.C,J4*%
X126880000Y-157660000D03*
X129380000Y-157660000D03*
X131380000Y-157660000D03*
X133880000Y-157660000D03*
D19*
X123810000Y-160370000D03*
X136950000Y-160370000D03*
%TD*%
D18*
%TO.C,J5*%
X183340000Y-157660000D03*
X185840000Y-157660000D03*
X187840000Y-157660000D03*
X190340000Y-157660000D03*
D19*
X180270000Y-160370000D03*
X193410000Y-160370000D03*
%TD*%
D18*
%TO.C,J6*%
X239800000Y-157660000D03*
X242300000Y-157660000D03*
X244300000Y-157660000D03*
X246800000Y-157660000D03*
D19*
X236730000Y-160370000D03*
X249870000Y-160370000D03*
%TD*%
D18*
%TO.C,J7*%
X70420000Y-157660000D03*
X72920000Y-157660000D03*
X74920000Y-157660000D03*
X77420000Y-157660000D03*
D19*
X67350000Y-160370000D03*
X80490000Y-160370000D03*
%TD*%
D20*
%TO.C,U1*%
X143300000Y-93600000D03*
D21*
X149000000Y-97350000D03*
X149000000Y-96850000D03*
X149000000Y-96350000D03*
X149000000Y-95850000D03*
X149000000Y-95350000D03*
X149000000Y-94850000D03*
X149000000Y-94350000D03*
X149000000Y-93850000D03*
X149000000Y-93350000D03*
X149000000Y-92850000D03*
X149000000Y-92350000D03*
X149000000Y-91850000D03*
X149000000Y-91350000D03*
X149000000Y-90850000D03*
X149000000Y-90350000D03*
X149000000Y-89850000D03*
D22*
X147050000Y-87900000D03*
X146550000Y-87900000D03*
X146050000Y-87900000D03*
X145550000Y-87900000D03*
X145050000Y-87900000D03*
X144550000Y-87900000D03*
X144050000Y-87900000D03*
X143550000Y-87900000D03*
X143050000Y-87900000D03*
X142550000Y-87900000D03*
X142050000Y-87900000D03*
X141550000Y-87900000D03*
X141050000Y-87900000D03*
X140550000Y-87900000D03*
X140050000Y-87900000D03*
X139550000Y-87900000D03*
D21*
X137600000Y-89850000D03*
X137600000Y-90350000D03*
X137600000Y-90850000D03*
X137600000Y-91350000D03*
X137600000Y-91850000D03*
X137600000Y-92350000D03*
X137600000Y-92850000D03*
X137600000Y-93350000D03*
X137600000Y-93850000D03*
X137600000Y-94350000D03*
X137600000Y-94850000D03*
X137600000Y-95350000D03*
X137600000Y-95850000D03*
X137600000Y-96350000D03*
X137600000Y-96850000D03*
X137600000Y-97350000D03*
D22*
X139550000Y-99300000D03*
X140050000Y-99300000D03*
X140550000Y-99300000D03*
X141050000Y-99300000D03*
X141550000Y-99300000D03*
X142050000Y-99300000D03*
X142550000Y-99300000D03*
X143050000Y-99300000D03*
X143550000Y-99300000D03*
X144050000Y-99300000D03*
X144550000Y-99300000D03*
X145050000Y-99300000D03*
X145550000Y-99300000D03*
X146050000Y-99300000D03*
X146550000Y-99300000D03*
X147050000Y-99300000D03*
%TD*%
D23*
%TO.C,U2*%
X242450000Y-88200000D03*
X240170000Y-88200000D03*
D24*
X240170000Y-94500000D03*
D23*
X237890000Y-88200000D03*
%TD*%
D25*
%TO.C,U4*%
X65725001Y-148945500D03*
X66374999Y-148945500D03*
X67025001Y-148945500D03*
X67674999Y-148945500D03*
X67674999Y-144754500D03*
X67025001Y-144754500D03*
X66374999Y-144754500D03*
X65725001Y-144754500D03*
D26*
X66700000Y-146850000D03*
%TD*%
D25*
%TO.C,U5*%
X118225001Y-148945500D03*
X118874999Y-148945500D03*
X119525001Y-148945500D03*
X120174999Y-148945500D03*
X120174999Y-144754500D03*
X119525001Y-144754500D03*
X118874999Y-144754500D03*
X118225001Y-144754500D03*
D26*
X119200000Y-146850000D03*
%TD*%
D25*
%TO.C,U6*%
X171475001Y-148945500D03*
X172124999Y-148945500D03*
X172775001Y-148945500D03*
X173424999Y-148945500D03*
X173424999Y-144754500D03*
X172775001Y-144754500D03*
X172124999Y-144754500D03*
X171475001Y-144754500D03*
D26*
X172450000Y-146850000D03*
%TD*%
D25*
%TO.C,U7*%
X224925001Y-148945500D03*
X225574999Y-148945500D03*
X226225001Y-148945500D03*
X226874999Y-148945500D03*
X226874999Y-144754500D03*
X226225001Y-144754500D03*
X225574999Y-144754500D03*
X224925001Y-144754500D03*
D26*
X225900000Y-146850000D03*
%TD*%
D27*
%TO.C,C47*%
X119850000Y-87700000D03*
X119850000Y-90650000D03*
%TD*%
D28*
%TO.C,D2*%
X230855000Y-89350000D03*
X232430000Y-89350000D03*
%TD*%
D29*
%TO.C,C15*%
X158874999Y-68543197D03*
X161824999Y-68543197D03*
%TD*%
D30*
%TO.C,C45*%
X234742500Y-83625000D03*
X234742500Y-80675000D03*
%TD*%
D31*
%TO.C,U3*%
X120660000Y-84350000D03*
X120660000Y-83700000D03*
X120660000Y-83050000D03*
X120660000Y-82400000D03*
X120660000Y-81750000D03*
D32*
X119600000Y-80690000D03*
X118950000Y-80690000D03*
X118300000Y-80690000D03*
X117650000Y-80690000D03*
X117000000Y-80690000D03*
D31*
X115940000Y-81750000D03*
X115940000Y-82400000D03*
X115940000Y-83050000D03*
X115940000Y-83700000D03*
X115940000Y-84350000D03*
D32*
X117000000Y-85410000D03*
X117650000Y-85410000D03*
X118300000Y-85410000D03*
X118950000Y-85410000D03*
X119600000Y-85410000D03*
D33*
X118300000Y-83050000D03*
%TD*%
D34*
%TO.C,D1*%
X172774999Y-64393197D03*
X171199999Y-64393197D03*
%TD*%
D35*
%TO.C,C44*%
X237642500Y-83650000D03*
X237642500Y-81750000D03*
%TD*%
D36*
%TO.C,C42*%
X247267500Y-79800000D03*
X244317500Y-79800000D03*
%TD*%
D18*
%TO.C,J1*%
X152674999Y-65433197D03*
X150174999Y-65433197D03*
X148174999Y-65433197D03*
X145674999Y-65433197D03*
D19*
X155744999Y-62723197D03*
X142604999Y-62723197D03*
%TD*%
D37*
%TO.C,R27*%
X173900000Y-93000000D03*
X172880000Y-93000000D03*
%TD*%
D38*
%TO.C,R26*%
X172880000Y-94500000D03*
X173900000Y-94500000D03*
%TD*%
%TO.C,R25*%
X172880000Y-96000000D03*
X173900000Y-96000000D03*
%TD*%
%TO.C,R24*%
X172880000Y-97500000D03*
X173900000Y-97500000D03*
%TD*%
%TO.C,R23*%
X172880000Y-99000000D03*
X173900000Y-99000000D03*
%TD*%
%TO.C,R22*%
X164990000Y-93750000D03*
X166010000Y-93750000D03*
%TD*%
%TO.C,R21*%
X164990000Y-92750000D03*
X166010000Y-92750000D03*
%TD*%
%TO.C,R20*%
X165040000Y-90600000D03*
X166060000Y-90600000D03*
%TD*%
%TO.C,R15*%
X164990000Y-91750000D03*
X166010000Y-91750000D03*
%TD*%
D39*
%TO.C,R14*%
X229050000Y-145760000D03*
X229050000Y-144740000D03*
%TD*%
%TO.C,R13*%
X175350000Y-145770000D03*
X175350000Y-144750000D03*
%TD*%
%TO.C,R12*%
X123300000Y-145810000D03*
X123300000Y-144790000D03*
%TD*%
%TO.C,R11*%
X70250000Y-145750000D03*
X70250000Y-144730000D03*
%TD*%
D37*
%TO.C,R10*%
X117320000Y-87300000D03*
X116300000Y-87300000D03*
%TD*%
D40*
%TO.C,R9*%
X115100000Y-87290000D03*
X115100000Y-88310000D03*
%TD*%
%TO.C,R8*%
X113250000Y-84350000D03*
X113250000Y-85370000D03*
%TD*%
D37*
%TO.C,R7*%
X229102500Y-89350000D03*
X228082500Y-89350000D03*
%TD*%
D38*
%TO.C,R5*%
X174124999Y-64393197D03*
X175144999Y-64393197D03*
%TD*%
D39*
%TO.C,R4*%
X153300000Y-81360000D03*
X153300000Y-80340000D03*
%TD*%
D38*
%TO.C,R3*%
X151340000Y-79300000D03*
X152360000Y-79300000D03*
%TD*%
D37*
%TO.C,R1*%
X129210000Y-82550000D03*
X128190000Y-82550000D03*
%TD*%
D41*
%TO.C,C57*%
X228370000Y-151350000D03*
X229330000Y-151350000D03*
%TD*%
%TO.C,C54*%
X174270000Y-151250000D03*
X175230000Y-151250000D03*
%TD*%
%TO.C,C51*%
X120720000Y-151000000D03*
X121680000Y-151000000D03*
%TD*%
%TO.C,C48*%
X68470000Y-150850000D03*
X69430000Y-150850000D03*
%TD*%
D42*
%TO.C,C43*%
X241742500Y-82380000D03*
X241742500Y-81420000D03*
%TD*%
D41*
%TO.C,C1*%
X151170000Y-88900000D03*
X152130000Y-88900000D03*
%TD*%
%LPD*%
M02*
