M48
; DRILL file {KiCad 9.0.1} date 2025-04-09T10:03:17-0700
; FORMAT={-:-/ absolute / inch / decimal}
; #@! TF.CreationDate,2025-04-09T10:03:17-07:00
; #@! TF.GenerationSoftware,Kicad,Pcbnew,9.0.1
; #@! TF.FileFunction,Plated,1,4,PTH
FMAT,2
INCH
; #@! TA.AperFunction,Plated,PTH,ViaDrill
T1C0.0079
; #@! TA.AperFunction,Plated,PTH,ComponentDrill
T2C0.0079
; #@! TA.AperFunction,Plated,PTH,ComponentDrill
T3C0.0315
; #@! TA.AperFunction,Plated,PTH,ComponentDrill
T4C0.0362
; #@! TA.AperFunction,Plated,PTH,ComponentDrill
T5C0.0906
%
G90
G05
T1
X2.565Y-5.6535
X2.5866Y-5.6535
X2.5876Y-5.9094
X2.6102Y-5.7972
X2.6122Y-5.6535
X2.6142Y-5.9409
X2.624Y-5.7756
X2.6358Y-5.6535
X2.6358Y-5.7992
X2.6457Y-5.9409
X2.6496Y-5.7756
X2.7402Y-5.8642
X2.815Y-5.6969
X2.815Y-5.7402
X3.3169Y-6.128
X3.3543Y-6.128
X3.3937Y-6.128
X4.4606Y-3.1732
X4.5138Y-3.1732
X4.6142Y-3.315
X4.6161Y-3.2244
X4.6299Y-5.6535
X4.6535Y-5.6535
X4.6732Y-3.124
X4.6732Y-5.7953
X4.6752Y-3.0827
X4.6772Y-5.6535
X4.6811Y-5.7697
X4.6811Y-5.9213
X4.6811Y-5.9409
X4.6811Y-5.9606
X4.6988Y-3.2264
X4.7008Y-3.313
X4.7008Y-5.6535
X4.7008Y-5.9213
X4.7008Y-5.9409
X4.7008Y-5.9606
X4.7087Y-5.7894
X4.7618Y-3.1417
X4.7992Y-5.8622
X4.8104Y-3.3386
X4.8189Y-3.4232
X4.8228Y-3.1417
X4.8681Y-3.378
X4.876Y-3.4646
X4.8937Y-5.7008
X4.8937Y-5.7402
X5.0157Y-3.248
X5.0472Y-3.2028
X5.2421Y-3.2657
X5.2421Y-3.2874
X5.2421Y-3.3091
X5.2638Y-3.2657
X5.2638Y-3.2874
X5.2638Y-3.3091
X5.2854Y-3.2657
X5.2854Y-3.2874
X5.2854Y-3.3091
X5.3071Y-3.2657
X5.3071Y-3.2874
X5.3071Y-3.3091
X5.3268Y-3.8307
X5.3661Y-3.622
X5.3661Y-3.7677
X5.498Y-3.4075
X5.5335Y-3.3366
X5.5344Y-3.2559
X5.5714Y-3.2559
X5.5728Y-3.3346
X5.5787Y-3.9528
X5.6378Y-3.4173
X5.7047Y-3.9528
X5.7559Y-3.4173
X5.7874Y-3.9685
X5.8051Y-3.3811
X5.9311Y-3.8268
X6.0039Y-3.2028
X6.0236Y-3.5
X6.0354Y-3.2343
X6.0669Y-3.5335
X6.0906Y-3.5778
X6.1083Y-3.435
X6.124Y-3.7598
X6.1594Y-3.5157
X6.1949Y-3.7933
X6.2292Y-3.8327
X6.2638Y-3.612
X6.2995Y-3.9094
X6.3346Y-3.6317
X6.4469Y-3.6949
X6.5256Y-3.2736
X6.5256Y-3.2992
X6.5256Y-3.3268
X6.5394Y-3.5079
X6.5492Y-3.2736
X6.5492Y-3.2992
X6.5492Y-3.3268
X6.5728Y-3.2736
X6.5728Y-3.2992
X6.5728Y-3.3268
X6.5906Y-3.6673
X6.5965Y-3.2736
X6.5965Y-3.2992
X6.5965Y-3.3268
X6.6122Y-3.561
X6.7205Y-5.6496
X6.7454Y-5.6496
X6.7703Y-5.6496
X6.7736Y-3.2638
X6.7736Y-5.7736
X6.7751Y-3.2913
X6.7751Y-3.3189
X6.7776Y-5.7972
X6.7835Y-5.937
X6.7835Y-5.9587
X6.7835Y-5.9803
X6.7953Y-5.6496
X6.7977Y-3.2638
X6.7992Y-3.2913
X6.7992Y-3.3189
X6.8012Y-5.7756
X6.8051Y-5.937
X6.8051Y-5.9587
X6.8051Y-5.9803
X6.8219Y-3.2638
X6.8233Y-3.2913
X6.8233Y-3.3189
X6.846Y-3.2638
X6.8474Y-3.2913
X6.8474Y-3.3189
X6.878Y-5.8642
X6.9114Y-3.6594
X6.9114Y-3.687
X6.9114Y-3.7165
X6.9409Y-3.6594
X6.9409Y-3.687
X6.9409Y-3.7165
X6.9528Y-5.6988
X6.9528Y-5.7402
X6.9705Y-3.6594
X6.9705Y-3.687
X6.9705Y-3.7165
X8.8248Y-5.6476
X8.851Y-5.6476
X8.876Y-5.7972
X8.8773Y-5.6476
X8.8858Y-5.7736
X8.8898Y-5.9508
X8.8898Y-5.9705
X8.9035Y-5.6476
X8.9075Y-5.7972
X8.9094Y-5.9508
X8.9094Y-5.9705
X8.9291Y-5.9508
X8.9291Y-5.9705
X8.9803Y-5.8642
X9.0079Y-5.5748
X9.061Y-5.6988
X9.063Y-5.7382
X9.1299Y-5.7146
X9.2379Y-3.5335
X9.2399Y-3.4902
X9.2418Y-3.4055
X9.2418Y-3.4469
X9.2438Y-3.3602
X9.2832Y-3.3602
X9.2832Y-3.4055
X9.2832Y-3.4469
X9.2832Y-3.4882
X9.2832Y-3.5315
X9.3245Y-3.3602
X9.3245Y-3.4055
X9.3658Y-3.3602
X9.3658Y-3.4055
X9.3836Y-3.6791
X9.3836Y-3.7126
X9.3836Y-3.748
X9.3836Y-3.7795
X9.3836Y-3.813
X9.3855Y-3.6457
X9.417Y-3.813
X9.4249Y-3.6457
X9.4505Y-3.813
X9.4623Y-3.6457
X9.4859Y-3.813
X9.4997Y-3.6457
X9.5273Y-3.815
X9.5391Y-3.6457
X9.5391Y-3.6752
X9.5391Y-3.7067
X9.5391Y-3.7421
X9.5391Y-3.7776
X9.9032Y-3.126
X9.9032Y-3.1654
X9.9032Y-3.2047
X9.9032Y-3.2441
X9.9426Y-3.126
X9.9426Y-3.1654
X9.9426Y-3.2047
X9.9426Y-3.2441
X9.982Y-3.126
X9.982Y-3.1654
X9.982Y-3.2047
X9.982Y-3.2441
X10.0233Y-3.126
X10.0233Y-3.1654
X10.0233Y-3.2047
X10.0233Y-3.2441
T2
X5.5039Y-3.5472
X5.5039Y-3.5866
X5.5039Y-3.626
X5.5039Y-3.6654
X5.5039Y-3.7047
X5.5039Y-3.7441
X5.5039Y-3.7835
X5.5039Y-3.8228
X5.5433Y-3.5472
X5.5433Y-3.5866
X5.5433Y-3.626
X5.5433Y-3.6654
X5.5433Y-3.7047
X5.5433Y-3.7441
X5.5433Y-3.7835
X5.5433Y-3.8228
X5.5827Y-3.5472
X5.5827Y-3.5866
X5.5827Y-3.626
X5.5827Y-3.6654
X5.5827Y-3.7047
X5.5827Y-3.7441
X5.5827Y-3.7835
X5.5827Y-3.8228
X5.622Y-3.5472
X5.622Y-3.5866
X5.622Y-3.626
X5.622Y-3.6654
X5.622Y-3.7047
X5.622Y-3.7441
X5.622Y-3.7835
X5.622Y-3.8228
X5.6614Y-3.5472
X5.6614Y-3.5866
X5.6614Y-3.626
X5.6614Y-3.6654
X5.6614Y-3.7047
X5.6614Y-3.7441
X5.6614Y-3.7835
X5.6614Y-3.8228
X5.7008Y-3.5472
X5.7008Y-3.5866
X5.7008Y-3.626
X5.7008Y-3.6654
X5.7008Y-3.7047
X5.7008Y-3.7441
X5.7008Y-3.7835
X5.7008Y-3.8228
X5.7402Y-3.5472
X5.7402Y-3.5866
X5.7402Y-3.626
X5.7402Y-3.6654
X5.7402Y-3.7047
X5.7402Y-3.7441
X5.7402Y-3.7835
X5.7402Y-3.8228
X5.7795Y-3.5472
X5.7795Y-3.5866
X5.7795Y-3.626
X5.7795Y-3.6654
X5.7795Y-3.7047
X5.7795Y-3.7441
X5.7795Y-3.7835
X5.7795Y-3.8228
T4
X2.7724Y-6.2071
X2.8709Y-6.2071
X2.9496Y-6.2071
X3.048Y-6.2071
X4.9953Y-6.2071
X5.0937Y-6.2071
X5.1724Y-6.2071
X5.2709Y-6.2071
X5.7352Y-2.5761
X5.8337Y-2.5761
X5.9124Y-2.5761
X6.0108Y-2.5761
X7.2181Y-6.2071
X7.3165Y-6.2071
X7.3953Y-6.2071
X7.4937Y-6.2071
X9.4409Y-6.2071
X9.5394Y-6.2071
X9.6181Y-6.2071
X9.7165Y-6.2071
T5
X2.6516Y-6.3138
X3.1689Y-6.3138
X4.8744Y-6.3138
X5.3917Y-6.3138
X5.6144Y-2.4694
X6.1317Y-2.4694
X7.0972Y-6.3138
X7.6146Y-6.3138
X9.3201Y-6.3138
X9.8374Y-6.3138
T3
G00X9.7123Y-2.7742
M15
G01X9.7123Y-2.8884
M16
G05
G00X9.9584Y-2.7211
M15
G01X9.8442Y-2.7211
M16
G05
G00X9.9584Y-2.9494
M15
G01X9.8442Y-2.9494
M16
G05
M30
