%TF.GenerationSoftware,KiCad,Pcbnew,9.0.1*%
%TF.CreationDate,2025-04-16T23:17:08-05:00*%
%TF.ProjectId,DeskHub,4465736b-4875-4622-9e6b-696361645f70,rev?*%
%TF.SameCoordinates,Original*%
%TF.FileFunction,Legend,Top*%
%TF.FilePolarity,Positive*%
%FSLAX46Y46*%
G04 Gerber Fmt 4.6, Leading zero omitted, Abs format (unit mm)*
G04 Created by KiCad (PCBNEW 9.0.1) date 2025-04-16 23:17:08*
%MOMM*%
%LPD*%
G01*
G04 APERTURE LIST*
G04 Aperture macros list*
%AMRoundRect*
0 Rectangle with rounded corners*
0 $1 Rounding radius*
0 $2 $3 $4 $5 $6 $7 $8 $9 X,Y pos of 4 corners*
0 Add a 4 corners polygon primitive as box body*
4,1,4,$2,$3,$4,$5,$6,$7,$8,$9,$2,$3,0*
0 Add four circle primitives for the rounded corners*
1,1,$1+$1,$2,$3*
1,1,$1+$1,$4,$5*
1,1,$1+$1,$6,$7*
1,1,$1+$1,$8,$9*
0 Add four rect primitives between the rounded corners*
20,1,$1+$1,$2,$3,$4,$5,0*
20,1,$1+$1,$4,$5,$6,$7,0*
20,1,$1+$1,$6,$7,$8,$9,0*
20,1,$1+$1,$8,$9,$2,$3,0*%
G04 Aperture macros list end*
%ADD10C,0.150000*%
%ADD11C,0.120000*%
%ADD12C,0.200000*%
%ADD13C,0.152400*%
%ADD14C,0.400000*%
%ADD15C,0.127000*%
%ADD16RoundRect,0.250000X-0.350000X0.850000X-0.350000X-0.850000X0.350000X-0.850000X0.350000X0.850000X0*%
%ADD17RoundRect,0.249997X-2.650003X2.950003X-2.650003X-2.950003X2.650003X-2.950003X2.650003X2.950003X0*%
%ADD18RoundRect,0.135000X0.185000X-0.135000X0.185000X0.135000X-0.185000X0.135000X-0.185000X-0.135000X0*%
%ADD19RoundRect,0.140000X-0.140000X-0.170000X0.140000X-0.170000X0.140000X0.170000X-0.140000X0.170000X0*%
%ADD20RoundRect,0.135000X-0.135000X-0.185000X0.135000X-0.185000X0.135000X0.185000X-0.135000X0.185000X0*%
%ADD21O,4.904000X2.204000*%
%ADD22O,2.204000X4.904000*%
%ADD23RoundRect,0.135000X0.135000X0.185000X-0.135000X0.185000X-0.135000X-0.185000X0.135000X-0.185000X0*%
%ADD24R,0.431800X1.574800*%
%ADD25R,1.890000X1.570000*%
%ADD26RoundRect,0.250000X-0.650000X0.325000X-0.650000X-0.325000X0.650000X-0.325000X0.650000X0.325000X0*%
%ADD27RoundRect,0.140000X0.140000X0.170000X-0.140000X0.170000X-0.140000X-0.170000X0.140000X-0.170000X0*%
%ADD28C,1.632000*%
%ADD29C,3.520000*%
%ADD30RoundRect,0.218750X-0.218750X-0.256250X0.218750X-0.256250X0.218750X0.256250X-0.218750X0.256250X0*%
%ADD31RoundRect,0.135000X-0.185000X0.135000X-0.185000X-0.135000X0.185000X-0.135000X0.185000X0.135000X0*%
%ADD32RoundRect,0.250000X-0.325000X-0.650000X0.325000X-0.650000X0.325000X0.650000X-0.325000X0.650000X0*%
%ADD33RoundRect,0.250000X0.650000X-0.325000X0.650000X0.325000X-0.650000X0.325000X-0.650000X-0.325000X0*%
%ADD34R,4.400000X4.400000*%
%ADD35R,1.500000X0.300000*%
%ADD36R,0.300000X1.500000*%
%ADD37RoundRect,0.068000X0.559000X0.204000X-0.559000X0.204000X-0.559000X-0.204000X0.559000X-0.204000X0*%
%ADD38RoundRect,0.068000X0.204000X0.559000X-0.204000X0.559000X-0.204000X-0.559000X0.204000X-0.559000X0*%
%ADD39RoundRect,0.102000X1.575000X1.575000X-1.575000X1.575000X-1.575000X-1.575000X1.575000X-1.575000X0*%
%ADD40RoundRect,0.218750X0.218750X0.256250X-0.218750X0.256250X-0.218750X-0.256250X0.218750X-0.256250X0*%
%ADD41RoundRect,0.250000X0.475000X-0.250000X0.475000X0.250000X-0.475000X0.250000X-0.475000X-0.250000X0*%
%ADD42RoundRect,0.250000X0.325000X0.650000X-0.325000X0.650000X-0.325000X-0.650000X0.325000X-0.650000X0*%
G04 APERTURE END LIST*
D10*
X179660588Y-93549931D02*
X179089160Y-93549931D01*
X179374874Y-93549931D02*
X179374874Y-92549931D01*
X179374874Y-92549931D02*
X179279636Y-92692788D01*
X179279636Y-92692788D02*
X179184398Y-92788026D01*
X179184398Y-92788026D02*
X179089160Y-92835645D01*
X180279636Y-92549931D02*
X180374874Y-92549931D01*
X180374874Y-92549931D02*
X180470112Y-92597550D01*
X180470112Y-92597550D02*
X180517731Y-92645169D01*
X180517731Y-92645169D02*
X180565350Y-92740407D01*
X180565350Y-92740407D02*
X180612969Y-92930883D01*
X180612969Y-92930883D02*
X180612969Y-93168978D01*
X180612969Y-93168978D02*
X180565350Y-93359454D01*
X180565350Y-93359454D02*
X180517731Y-93454692D01*
X180517731Y-93454692D02*
X180470112Y-93502312D01*
X180470112Y-93502312D02*
X180374874Y-93549931D01*
X180374874Y-93549931D02*
X180279636Y-93549931D01*
X180279636Y-93549931D02*
X180184398Y-93502312D01*
X180184398Y-93502312D02*
X180136779Y-93454692D01*
X180136779Y-93454692D02*
X180089160Y-93359454D01*
X180089160Y-93359454D02*
X180041541Y-93168978D01*
X180041541Y-93168978D02*
X180041541Y-92930883D01*
X180041541Y-92930883D02*
X180089160Y-92740407D01*
X180089160Y-92740407D02*
X180136779Y-92645169D01*
X180136779Y-92645169D02*
X180184398Y-92597550D01*
X180184398Y-92597550D02*
X180279636Y-92549931D01*
X181041541Y-93549931D02*
X181041541Y-92549931D01*
X181612969Y-93549931D02*
X181184398Y-92978502D01*
X181612969Y-92549931D02*
X181041541Y-93121359D01*
X179565350Y-94493208D02*
X179565350Y-95159875D01*
X179327255Y-94112256D02*
X179089160Y-94826541D01*
X179089160Y-94826541D02*
X179708207Y-94826541D01*
X180089160Y-95064636D02*
X180136779Y-95112256D01*
X180136779Y-95112256D02*
X180089160Y-95159875D01*
X180089160Y-95159875D02*
X180041541Y-95112256D01*
X180041541Y-95112256D02*
X180089160Y-95064636D01*
X180089160Y-95064636D02*
X180089160Y-95159875D01*
X180470112Y-94159875D02*
X181136778Y-94159875D01*
X181136778Y-94159875D02*
X180708207Y-95159875D01*
X181517731Y-95159875D02*
X181517731Y-94159875D01*
X182089159Y-95159875D02*
X181660588Y-94588446D01*
X182089159Y-94159875D02*
X181517731Y-94731303D01*
X179136779Y-96674580D02*
X179184398Y-96722200D01*
X179184398Y-96722200D02*
X179136779Y-96769819D01*
X179136779Y-96769819D02*
X179089160Y-96722200D01*
X179089160Y-96722200D02*
X179136779Y-96674580D01*
X179136779Y-96674580D02*
X179136779Y-96769819D01*
X179612969Y-96674580D02*
X179660588Y-96722200D01*
X179660588Y-96722200D02*
X179612969Y-96769819D01*
X179612969Y-96769819D02*
X179565350Y-96722200D01*
X179565350Y-96722200D02*
X179612969Y-96674580D01*
X179612969Y-96674580D02*
X179612969Y-96769819D01*
X180089159Y-96674580D02*
X180136778Y-96722200D01*
X180136778Y-96722200D02*
X180089159Y-96769819D01*
X180089159Y-96769819D02*
X180041540Y-96722200D01*
X180041540Y-96722200D02*
X180089159Y-96674580D01*
X180089159Y-96674580D02*
X180089159Y-96769819D01*
X200732319Y-104226904D02*
X201541842Y-104226904D01*
X201541842Y-104226904D02*
X201637080Y-104179285D01*
X201637080Y-104179285D02*
X201684700Y-104131666D01*
X201684700Y-104131666D02*
X201732319Y-104036428D01*
X201732319Y-104036428D02*
X201732319Y-103845952D01*
X201732319Y-103845952D02*
X201684700Y-103750714D01*
X201684700Y-103750714D02*
X201637080Y-103703095D01*
X201637080Y-103703095D02*
X201541842Y-103655476D01*
X201541842Y-103655476D02*
X200732319Y-103655476D01*
X200827557Y-103226904D02*
X200779938Y-103179285D01*
X200779938Y-103179285D02*
X200732319Y-103084047D01*
X200732319Y-103084047D02*
X200732319Y-102845952D01*
X200732319Y-102845952D02*
X200779938Y-102750714D01*
X200779938Y-102750714D02*
X200827557Y-102703095D01*
X200827557Y-102703095D02*
X200922795Y-102655476D01*
X200922795Y-102655476D02*
X201018033Y-102655476D01*
X201018033Y-102655476D02*
X201160890Y-102703095D01*
X201160890Y-102703095D02*
X201732319Y-103274523D01*
X201732319Y-103274523D02*
X201732319Y-102655476D01*
X117284819Y-120291191D02*
X116808628Y-120624524D01*
X117284819Y-120862619D02*
X116284819Y-120862619D01*
X116284819Y-120862619D02*
X116284819Y-120481667D01*
X116284819Y-120481667D02*
X116332438Y-120386429D01*
X116332438Y-120386429D02*
X116380057Y-120338810D01*
X116380057Y-120338810D02*
X116475295Y-120291191D01*
X116475295Y-120291191D02*
X116618152Y-120291191D01*
X116618152Y-120291191D02*
X116713390Y-120338810D01*
X116713390Y-120338810D02*
X116761009Y-120386429D01*
X116761009Y-120386429D02*
X116808628Y-120481667D01*
X116808628Y-120481667D02*
X116808628Y-120862619D01*
X117284819Y-119338810D02*
X117284819Y-119910238D01*
X117284819Y-119624524D02*
X116284819Y-119624524D01*
X116284819Y-119624524D02*
X116427676Y-119719762D01*
X116427676Y-119719762D02*
X116522914Y-119815000D01*
X116522914Y-119815000D02*
X116570533Y-119910238D01*
X117284819Y-118386429D02*
X117284819Y-118957857D01*
X117284819Y-118672143D02*
X116284819Y-118672143D01*
X116284819Y-118672143D02*
X116427676Y-118767381D01*
X116427676Y-118767381D02*
X116522914Y-118862619D01*
X116522914Y-118862619D02*
X116570533Y-118957857D01*
X151483333Y-88099580D02*
X151435714Y-88147200D01*
X151435714Y-88147200D02*
X151292857Y-88194819D01*
X151292857Y-88194819D02*
X151197619Y-88194819D01*
X151197619Y-88194819D02*
X151054762Y-88147200D01*
X151054762Y-88147200D02*
X150959524Y-88051961D01*
X150959524Y-88051961D02*
X150911905Y-87956723D01*
X150911905Y-87956723D02*
X150864286Y-87766247D01*
X150864286Y-87766247D02*
X150864286Y-87623390D01*
X150864286Y-87623390D02*
X150911905Y-87432914D01*
X150911905Y-87432914D02*
X150959524Y-87337676D01*
X150959524Y-87337676D02*
X151054762Y-87242438D01*
X151054762Y-87242438D02*
X151197619Y-87194819D01*
X151197619Y-87194819D02*
X151292857Y-87194819D01*
X151292857Y-87194819D02*
X151435714Y-87242438D01*
X151435714Y-87242438D02*
X151483333Y-87290057D01*
X152435714Y-88194819D02*
X151864286Y-88194819D01*
X152150000Y-88194819D02*
X152150000Y-87194819D01*
X152150000Y-87194819D02*
X152054762Y-87337676D01*
X152054762Y-87337676D02*
X151959524Y-87432914D01*
X151959524Y-87432914D02*
X151864286Y-87480533D01*
X151683333Y-78584819D02*
X151350000Y-78108628D01*
X151111905Y-78584819D02*
X151111905Y-77584819D01*
X151111905Y-77584819D02*
X151492857Y-77584819D01*
X151492857Y-77584819D02*
X151588095Y-77632438D01*
X151588095Y-77632438D02*
X151635714Y-77680057D01*
X151635714Y-77680057D02*
X151683333Y-77775295D01*
X151683333Y-77775295D02*
X151683333Y-77918152D01*
X151683333Y-77918152D02*
X151635714Y-78013390D01*
X151635714Y-78013390D02*
X151588095Y-78061009D01*
X151588095Y-78061009D02*
X151492857Y-78108628D01*
X151492857Y-78108628D02*
X151111905Y-78108628D01*
X152016667Y-77584819D02*
X152635714Y-77584819D01*
X152635714Y-77584819D02*
X152302381Y-77965771D01*
X152302381Y-77965771D02*
X152445238Y-77965771D01*
X152445238Y-77965771D02*
X152540476Y-78013390D01*
X152540476Y-78013390D02*
X152588095Y-78061009D01*
X152588095Y-78061009D02*
X152635714Y-78156247D01*
X152635714Y-78156247D02*
X152635714Y-78394342D01*
X152635714Y-78394342D02*
X152588095Y-78489580D01*
X152588095Y-78489580D02*
X152540476Y-78537200D01*
X152540476Y-78537200D02*
X152445238Y-78584819D01*
X152445238Y-78584819D02*
X152159524Y-78584819D01*
X152159524Y-78584819D02*
X152064286Y-78537200D01*
X152064286Y-78537200D02*
X152016667Y-78489580D01*
X190054819Y-66108333D02*
X190769104Y-66108333D01*
X190769104Y-66108333D02*
X190911961Y-66155952D01*
X190911961Y-66155952D02*
X191007200Y-66251190D01*
X191007200Y-66251190D02*
X191054819Y-66394047D01*
X191054819Y-66394047D02*
X191054819Y-66489285D01*
X190150057Y-65679761D02*
X190102438Y-65632142D01*
X190102438Y-65632142D02*
X190054819Y-65536904D01*
X190054819Y-65536904D02*
X190054819Y-65298809D01*
X190054819Y-65298809D02*
X190102438Y-65203571D01*
X190102438Y-65203571D02*
X190150057Y-65155952D01*
X190150057Y-65155952D02*
X190245295Y-65108333D01*
X190245295Y-65108333D02*
X190340533Y-65108333D01*
X190340533Y-65108333D02*
X190483390Y-65155952D01*
X190483390Y-65155952D02*
X191054819Y-65727380D01*
X191054819Y-65727380D02*
X191054819Y-65108333D01*
X201285714Y-73479819D02*
X200714286Y-73479819D01*
X201000000Y-73479819D02*
X201000000Y-72479819D01*
X201000000Y-72479819D02*
X200904762Y-72622676D01*
X200904762Y-72622676D02*
X200809524Y-72717914D01*
X200809524Y-72717914D02*
X200714286Y-72765533D01*
X197439286Y-64400057D02*
X197486905Y-64352438D01*
X197486905Y-64352438D02*
X197582143Y-64304819D01*
X197582143Y-64304819D02*
X197820238Y-64304819D01*
X197820238Y-64304819D02*
X197915476Y-64352438D01*
X197915476Y-64352438D02*
X197963095Y-64400057D01*
X197963095Y-64400057D02*
X198010714Y-64495295D01*
X198010714Y-64495295D02*
X198010714Y-64590533D01*
X198010714Y-64590533D02*
X197963095Y-64733390D01*
X197963095Y-64733390D02*
X197391667Y-65304819D01*
X197391667Y-65304819D02*
X198010714Y-65304819D01*
X190029819Y-70308332D02*
X190029819Y-69689285D01*
X190029819Y-69689285D02*
X190410771Y-70022618D01*
X190410771Y-70022618D02*
X190410771Y-69879761D01*
X190410771Y-69879761D02*
X190458390Y-69784523D01*
X190458390Y-69784523D02*
X190506009Y-69736904D01*
X190506009Y-69736904D02*
X190601247Y-69689285D01*
X190601247Y-69689285D02*
X190839342Y-69689285D01*
X190839342Y-69689285D02*
X190934580Y-69736904D01*
X190934580Y-69736904D02*
X190982200Y-69784523D01*
X190982200Y-69784523D02*
X191029819Y-69879761D01*
X191029819Y-69879761D02*
X191029819Y-70165475D01*
X191029819Y-70165475D02*
X190982200Y-70260713D01*
X190982200Y-70260713D02*
X190934580Y-70308332D01*
X170007142Y-99454819D02*
X169673809Y-98978628D01*
X169435714Y-99454819D02*
X169435714Y-98454819D01*
X169435714Y-98454819D02*
X169816666Y-98454819D01*
X169816666Y-98454819D02*
X169911904Y-98502438D01*
X169911904Y-98502438D02*
X169959523Y-98550057D01*
X169959523Y-98550057D02*
X170007142Y-98645295D01*
X170007142Y-98645295D02*
X170007142Y-98788152D01*
X170007142Y-98788152D02*
X169959523Y-98883390D01*
X169959523Y-98883390D02*
X169911904Y-98931009D01*
X169911904Y-98931009D02*
X169816666Y-98978628D01*
X169816666Y-98978628D02*
X169435714Y-98978628D01*
X170388095Y-98550057D02*
X170435714Y-98502438D01*
X170435714Y-98502438D02*
X170530952Y-98454819D01*
X170530952Y-98454819D02*
X170769047Y-98454819D01*
X170769047Y-98454819D02*
X170864285Y-98502438D01*
X170864285Y-98502438D02*
X170911904Y-98550057D01*
X170911904Y-98550057D02*
X170959523Y-98645295D01*
X170959523Y-98645295D02*
X170959523Y-98740533D01*
X170959523Y-98740533D02*
X170911904Y-98883390D01*
X170911904Y-98883390D02*
X170340476Y-99454819D01*
X170340476Y-99454819D02*
X170959523Y-99454819D01*
X171292857Y-98454819D02*
X171911904Y-98454819D01*
X171911904Y-98454819D02*
X171578571Y-98835771D01*
X171578571Y-98835771D02*
X171721428Y-98835771D01*
X171721428Y-98835771D02*
X171816666Y-98883390D01*
X171816666Y-98883390D02*
X171864285Y-98931009D01*
X171864285Y-98931009D02*
X171911904Y-99026247D01*
X171911904Y-99026247D02*
X171911904Y-99264342D01*
X171911904Y-99264342D02*
X171864285Y-99359580D01*
X171864285Y-99359580D02*
X171816666Y-99407200D01*
X171816666Y-99407200D02*
X171721428Y-99454819D01*
X171721428Y-99454819D02*
X171435714Y-99454819D01*
X171435714Y-99454819D02*
X171340476Y-99407200D01*
X171340476Y-99407200D02*
X171292857Y-99359580D01*
X128533333Y-84174819D02*
X128200000Y-83698628D01*
X127961905Y-84174819D02*
X127961905Y-83174819D01*
X127961905Y-83174819D02*
X128342857Y-83174819D01*
X128342857Y-83174819D02*
X128438095Y-83222438D01*
X128438095Y-83222438D02*
X128485714Y-83270057D01*
X128485714Y-83270057D02*
X128533333Y-83365295D01*
X128533333Y-83365295D02*
X128533333Y-83508152D01*
X128533333Y-83508152D02*
X128485714Y-83603390D01*
X128485714Y-83603390D02*
X128438095Y-83651009D01*
X128438095Y-83651009D02*
X128342857Y-83698628D01*
X128342857Y-83698628D02*
X127961905Y-83698628D01*
X129485714Y-84174819D02*
X128914286Y-84174819D01*
X129200000Y-84174819D02*
X129200000Y-83174819D01*
X129200000Y-83174819D02*
X129104762Y-83317676D01*
X129104762Y-83317676D02*
X129009524Y-83412914D01*
X129009524Y-83412914D02*
X128914286Y-83460533D01*
X176816749Y-121536904D02*
X177626272Y-121536904D01*
X177626272Y-121536904D02*
X177721510Y-121489285D01*
X177721510Y-121489285D02*
X177769130Y-121441666D01*
X177769130Y-121441666D02*
X177816749Y-121346428D01*
X177816749Y-121346428D02*
X177816749Y-121155952D01*
X177816749Y-121155952D02*
X177769130Y-121060714D01*
X177769130Y-121060714D02*
X177721510Y-121013095D01*
X177721510Y-121013095D02*
X177626272Y-120965476D01*
X177626272Y-120965476D02*
X176816749Y-120965476D01*
X176816749Y-120584523D02*
X176816749Y-119917857D01*
X176816749Y-119917857D02*
X177816749Y-120346428D01*
X176766949Y-123624499D02*
X177005044Y-123624499D01*
X176909806Y-123862594D02*
X177005044Y-123624499D01*
X177005044Y-123624499D02*
X176909806Y-123386404D01*
X177195520Y-123767356D02*
X177005044Y-123624499D01*
X177005044Y-123624499D02*
X177195520Y-123481642D01*
X170007142Y-93454819D02*
X169673809Y-92978628D01*
X169435714Y-93454819D02*
X169435714Y-92454819D01*
X169435714Y-92454819D02*
X169816666Y-92454819D01*
X169816666Y-92454819D02*
X169911904Y-92502438D01*
X169911904Y-92502438D02*
X169959523Y-92550057D01*
X169959523Y-92550057D02*
X170007142Y-92645295D01*
X170007142Y-92645295D02*
X170007142Y-92788152D01*
X170007142Y-92788152D02*
X169959523Y-92883390D01*
X169959523Y-92883390D02*
X169911904Y-92931009D01*
X169911904Y-92931009D02*
X169816666Y-92978628D01*
X169816666Y-92978628D02*
X169435714Y-92978628D01*
X170388095Y-92550057D02*
X170435714Y-92502438D01*
X170435714Y-92502438D02*
X170530952Y-92454819D01*
X170530952Y-92454819D02*
X170769047Y-92454819D01*
X170769047Y-92454819D02*
X170864285Y-92502438D01*
X170864285Y-92502438D02*
X170911904Y-92550057D01*
X170911904Y-92550057D02*
X170959523Y-92645295D01*
X170959523Y-92645295D02*
X170959523Y-92740533D01*
X170959523Y-92740533D02*
X170911904Y-92883390D01*
X170911904Y-92883390D02*
X170340476Y-93454819D01*
X170340476Y-93454819D02*
X170959523Y-93454819D01*
X171292857Y-92454819D02*
X171959523Y-92454819D01*
X171959523Y-92454819D02*
X171530952Y-93454819D01*
X161764302Y-126017914D02*
X161716683Y-126065534D01*
X161716683Y-126065534D02*
X161573826Y-126113153D01*
X161573826Y-126113153D02*
X161478588Y-126113153D01*
X161478588Y-126113153D02*
X161335731Y-126065534D01*
X161335731Y-126065534D02*
X161240493Y-125970295D01*
X161240493Y-125970295D02*
X161192874Y-125875057D01*
X161192874Y-125875057D02*
X161145255Y-125684581D01*
X161145255Y-125684581D02*
X161145255Y-125541724D01*
X161145255Y-125541724D02*
X161192874Y-125351248D01*
X161192874Y-125351248D02*
X161240493Y-125256010D01*
X161240493Y-125256010D02*
X161335731Y-125160772D01*
X161335731Y-125160772D02*
X161478588Y-125113153D01*
X161478588Y-125113153D02*
X161573826Y-125113153D01*
X161573826Y-125113153D02*
X161716683Y-125160772D01*
X161716683Y-125160772D02*
X161764302Y-125208391D01*
X162669064Y-125113153D02*
X162192874Y-125113153D01*
X162192874Y-125113153D02*
X162145255Y-125589343D01*
X162145255Y-125589343D02*
X162192874Y-125541724D01*
X162192874Y-125541724D02*
X162288112Y-125494105D01*
X162288112Y-125494105D02*
X162526207Y-125494105D01*
X162526207Y-125494105D02*
X162621445Y-125541724D01*
X162621445Y-125541724D02*
X162669064Y-125589343D01*
X162669064Y-125589343D02*
X162716683Y-125684581D01*
X162716683Y-125684581D02*
X162716683Y-125922676D01*
X162716683Y-125922676D02*
X162669064Y-126017914D01*
X162669064Y-126017914D02*
X162621445Y-126065534D01*
X162621445Y-126065534D02*
X162526207Y-126113153D01*
X162526207Y-126113153D02*
X162288112Y-126113153D01*
X162288112Y-126113153D02*
X162192874Y-126065534D01*
X162192874Y-126065534D02*
X162145255Y-126017914D01*
X163573826Y-125446486D02*
X163573826Y-126113153D01*
X163335731Y-125065534D02*
X163097636Y-125779819D01*
X163097636Y-125779819D02*
X163716683Y-125779819D01*
X122209580Y-89792857D02*
X122257200Y-89840476D01*
X122257200Y-89840476D02*
X122304819Y-89983333D01*
X122304819Y-89983333D02*
X122304819Y-90078571D01*
X122304819Y-90078571D02*
X122257200Y-90221428D01*
X122257200Y-90221428D02*
X122161961Y-90316666D01*
X122161961Y-90316666D02*
X122066723Y-90364285D01*
X122066723Y-90364285D02*
X121876247Y-90411904D01*
X121876247Y-90411904D02*
X121733390Y-90411904D01*
X121733390Y-90411904D02*
X121542914Y-90364285D01*
X121542914Y-90364285D02*
X121447676Y-90316666D01*
X121447676Y-90316666D02*
X121352438Y-90221428D01*
X121352438Y-90221428D02*
X121304819Y-90078571D01*
X121304819Y-90078571D02*
X121304819Y-89983333D01*
X121304819Y-89983333D02*
X121352438Y-89840476D01*
X121352438Y-89840476D02*
X121400057Y-89792857D01*
X121638152Y-88935714D02*
X122304819Y-88935714D01*
X121257200Y-89173809D02*
X121971485Y-89411904D01*
X121971485Y-89411904D02*
X121971485Y-88792857D01*
X121304819Y-88507142D02*
X121304819Y-87840476D01*
X121304819Y-87840476D02*
X122304819Y-88269047D01*
X199282142Y-94909580D02*
X199234523Y-94957200D01*
X199234523Y-94957200D02*
X199091666Y-95004819D01*
X199091666Y-95004819D02*
X198996428Y-95004819D01*
X198996428Y-95004819D02*
X198853571Y-94957200D01*
X198853571Y-94957200D02*
X198758333Y-94861961D01*
X198758333Y-94861961D02*
X198710714Y-94766723D01*
X198710714Y-94766723D02*
X198663095Y-94576247D01*
X198663095Y-94576247D02*
X198663095Y-94433390D01*
X198663095Y-94433390D02*
X198710714Y-94242914D01*
X198710714Y-94242914D02*
X198758333Y-94147676D01*
X198758333Y-94147676D02*
X198853571Y-94052438D01*
X198853571Y-94052438D02*
X198996428Y-94004819D01*
X198996428Y-94004819D02*
X199091666Y-94004819D01*
X199091666Y-94004819D02*
X199234523Y-94052438D01*
X199234523Y-94052438D02*
X199282142Y-94100057D01*
X200139285Y-94338152D02*
X200139285Y-95004819D01*
X199901190Y-93957200D02*
X199663095Y-94671485D01*
X199663095Y-94671485D02*
X200282142Y-94671485D01*
X200567857Y-94004819D02*
X201186904Y-94004819D01*
X201186904Y-94004819D02*
X200853571Y-94385771D01*
X200853571Y-94385771D02*
X200996428Y-94385771D01*
X200996428Y-94385771D02*
X201091666Y-94433390D01*
X201091666Y-94433390D02*
X201139285Y-94481009D01*
X201139285Y-94481009D02*
X201186904Y-94576247D01*
X201186904Y-94576247D02*
X201186904Y-94814342D01*
X201186904Y-94814342D02*
X201139285Y-94909580D01*
X201139285Y-94909580D02*
X201091666Y-94957200D01*
X201091666Y-94957200D02*
X200996428Y-95004819D01*
X200996428Y-95004819D02*
X200710714Y-95004819D01*
X200710714Y-95004819D02*
X200615476Y-94957200D01*
X200615476Y-94957200D02*
X200567857Y-94909580D01*
X198234666Y-129918919D02*
X198234666Y-130633204D01*
X198234666Y-130633204D02*
X198187047Y-130776061D01*
X198187047Y-130776061D02*
X198091809Y-130871300D01*
X198091809Y-130871300D02*
X197948952Y-130918919D01*
X197948952Y-130918919D02*
X197853714Y-130918919D01*
X199139428Y-129918919D02*
X198948952Y-129918919D01*
X198948952Y-129918919D02*
X198853714Y-129966538D01*
X198853714Y-129966538D02*
X198806095Y-130014157D01*
X198806095Y-130014157D02*
X198710857Y-130157014D01*
X198710857Y-130157014D02*
X198663238Y-130347490D01*
X198663238Y-130347490D02*
X198663238Y-130728442D01*
X198663238Y-130728442D02*
X198710857Y-130823680D01*
X198710857Y-130823680D02*
X198758476Y-130871300D01*
X198758476Y-130871300D02*
X198853714Y-130918919D01*
X198853714Y-130918919D02*
X199044190Y-130918919D01*
X199044190Y-130918919D02*
X199139428Y-130871300D01*
X199139428Y-130871300D02*
X199187047Y-130823680D01*
X199187047Y-130823680D02*
X199234666Y-130728442D01*
X199234666Y-130728442D02*
X199234666Y-130490347D01*
X199234666Y-130490347D02*
X199187047Y-130395109D01*
X199187047Y-130395109D02*
X199139428Y-130347490D01*
X199139428Y-130347490D02*
X199044190Y-130299871D01*
X199044190Y-130299871D02*
X198853714Y-130299871D01*
X198853714Y-130299871D02*
X198758476Y-130347490D01*
X198758476Y-130347490D02*
X198710857Y-130395109D01*
X198710857Y-130395109D02*
X198663238Y-130490347D01*
X118457142Y-125617914D02*
X118409523Y-125665534D01*
X118409523Y-125665534D02*
X118266666Y-125713153D01*
X118266666Y-125713153D02*
X118171428Y-125713153D01*
X118171428Y-125713153D02*
X118028571Y-125665534D01*
X118028571Y-125665534D02*
X117933333Y-125570295D01*
X117933333Y-125570295D02*
X117885714Y-125475057D01*
X117885714Y-125475057D02*
X117838095Y-125284581D01*
X117838095Y-125284581D02*
X117838095Y-125141724D01*
X117838095Y-125141724D02*
X117885714Y-124951248D01*
X117885714Y-124951248D02*
X117933333Y-124856010D01*
X117933333Y-124856010D02*
X118028571Y-124760772D01*
X118028571Y-124760772D02*
X118171428Y-124713153D01*
X118171428Y-124713153D02*
X118266666Y-124713153D01*
X118266666Y-124713153D02*
X118409523Y-124760772D01*
X118409523Y-124760772D02*
X118457142Y-124808391D01*
X119314285Y-125046486D02*
X119314285Y-125713153D01*
X119076190Y-124665534D02*
X118838095Y-125379819D01*
X118838095Y-125379819D02*
X119457142Y-125379819D01*
X119980952Y-125141724D02*
X119885714Y-125094105D01*
X119885714Y-125094105D02*
X119838095Y-125046486D01*
X119838095Y-125046486D02*
X119790476Y-124951248D01*
X119790476Y-124951248D02*
X119790476Y-124903629D01*
X119790476Y-124903629D02*
X119838095Y-124808391D01*
X119838095Y-124808391D02*
X119885714Y-124760772D01*
X119885714Y-124760772D02*
X119980952Y-124713153D01*
X119980952Y-124713153D02*
X120171428Y-124713153D01*
X120171428Y-124713153D02*
X120266666Y-124760772D01*
X120266666Y-124760772D02*
X120314285Y-124808391D01*
X120314285Y-124808391D02*
X120361904Y-124903629D01*
X120361904Y-124903629D02*
X120361904Y-124951248D01*
X120361904Y-124951248D02*
X120314285Y-125046486D01*
X120314285Y-125046486D02*
X120266666Y-125094105D01*
X120266666Y-125094105D02*
X120171428Y-125141724D01*
X120171428Y-125141724D02*
X119980952Y-125141724D01*
X119980952Y-125141724D02*
X119885714Y-125189343D01*
X119885714Y-125189343D02*
X119838095Y-125236962D01*
X119838095Y-125236962D02*
X119790476Y-125332200D01*
X119790476Y-125332200D02*
X119790476Y-125522676D01*
X119790476Y-125522676D02*
X119838095Y-125617914D01*
X119838095Y-125617914D02*
X119885714Y-125665534D01*
X119885714Y-125665534D02*
X119980952Y-125713153D01*
X119980952Y-125713153D02*
X120171428Y-125713153D01*
X120171428Y-125713153D02*
X120266666Y-125665534D01*
X120266666Y-125665534D02*
X120314285Y-125617914D01*
X120314285Y-125617914D02*
X120361904Y-125522676D01*
X120361904Y-125522676D02*
X120361904Y-125332200D01*
X120361904Y-125332200D02*
X120314285Y-125236962D01*
X120314285Y-125236962D02*
X120266666Y-125189343D01*
X120266666Y-125189343D02*
X120171428Y-125141724D01*
X187511905Y-98599819D02*
X187511905Y-97599819D01*
X187511905Y-97599819D02*
X187750000Y-97599819D01*
X187750000Y-97599819D02*
X187892857Y-97647438D01*
X187892857Y-97647438D02*
X187988095Y-97742676D01*
X187988095Y-97742676D02*
X188035714Y-97837914D01*
X188035714Y-97837914D02*
X188083333Y-98028390D01*
X188083333Y-98028390D02*
X188083333Y-98171247D01*
X188083333Y-98171247D02*
X188035714Y-98361723D01*
X188035714Y-98361723D02*
X187988095Y-98456961D01*
X187988095Y-98456961D02*
X187892857Y-98552200D01*
X187892857Y-98552200D02*
X187750000Y-98599819D01*
X187750000Y-98599819D02*
X187511905Y-98599819D01*
X188464286Y-97695057D02*
X188511905Y-97647438D01*
X188511905Y-97647438D02*
X188607143Y-97599819D01*
X188607143Y-97599819D02*
X188845238Y-97599819D01*
X188845238Y-97599819D02*
X188940476Y-97647438D01*
X188940476Y-97647438D02*
X188988095Y-97695057D01*
X188988095Y-97695057D02*
X189035714Y-97790295D01*
X189035714Y-97790295D02*
X189035714Y-97885533D01*
X189035714Y-97885533D02*
X188988095Y-98028390D01*
X188988095Y-98028390D02*
X188416667Y-98599819D01*
X188416667Y-98599819D02*
X189035714Y-98599819D01*
X162157142Y-90754819D02*
X161823809Y-90278628D01*
X161585714Y-90754819D02*
X161585714Y-89754819D01*
X161585714Y-89754819D02*
X161966666Y-89754819D01*
X161966666Y-89754819D02*
X162061904Y-89802438D01*
X162061904Y-89802438D02*
X162109523Y-89850057D01*
X162109523Y-89850057D02*
X162157142Y-89945295D01*
X162157142Y-89945295D02*
X162157142Y-90088152D01*
X162157142Y-90088152D02*
X162109523Y-90183390D01*
X162109523Y-90183390D02*
X162061904Y-90231009D01*
X162061904Y-90231009D02*
X161966666Y-90278628D01*
X161966666Y-90278628D02*
X161585714Y-90278628D01*
X162538095Y-89850057D02*
X162585714Y-89802438D01*
X162585714Y-89802438D02*
X162680952Y-89754819D01*
X162680952Y-89754819D02*
X162919047Y-89754819D01*
X162919047Y-89754819D02*
X163014285Y-89802438D01*
X163014285Y-89802438D02*
X163061904Y-89850057D01*
X163061904Y-89850057D02*
X163109523Y-89945295D01*
X163109523Y-89945295D02*
X163109523Y-90040533D01*
X163109523Y-90040533D02*
X163061904Y-90183390D01*
X163061904Y-90183390D02*
X162490476Y-90754819D01*
X162490476Y-90754819D02*
X163109523Y-90754819D01*
X163728571Y-89754819D02*
X163823809Y-89754819D01*
X163823809Y-89754819D02*
X163919047Y-89802438D01*
X163919047Y-89802438D02*
X163966666Y-89850057D01*
X163966666Y-89850057D02*
X164014285Y-89945295D01*
X164014285Y-89945295D02*
X164061904Y-90135771D01*
X164061904Y-90135771D02*
X164061904Y-90373866D01*
X164061904Y-90373866D02*
X164014285Y-90564342D01*
X164014285Y-90564342D02*
X163966666Y-90659580D01*
X163966666Y-90659580D02*
X163919047Y-90707200D01*
X163919047Y-90707200D02*
X163823809Y-90754819D01*
X163823809Y-90754819D02*
X163728571Y-90754819D01*
X163728571Y-90754819D02*
X163633333Y-90707200D01*
X163633333Y-90707200D02*
X163585714Y-90659580D01*
X163585714Y-90659580D02*
X163538095Y-90564342D01*
X163538095Y-90564342D02*
X163490476Y-90373866D01*
X163490476Y-90373866D02*
X163490476Y-90135771D01*
X163490476Y-90135771D02*
X163538095Y-89945295D01*
X163538095Y-89945295D02*
X163585714Y-89850057D01*
X163585714Y-89850057D02*
X163633333Y-89802438D01*
X163633333Y-89802438D02*
X163728571Y-89754819D01*
X114874819Y-85026666D02*
X114398628Y-85359999D01*
X114874819Y-85598094D02*
X113874819Y-85598094D01*
X113874819Y-85598094D02*
X113874819Y-85217142D01*
X113874819Y-85217142D02*
X113922438Y-85121904D01*
X113922438Y-85121904D02*
X113970057Y-85074285D01*
X113970057Y-85074285D02*
X114065295Y-85026666D01*
X114065295Y-85026666D02*
X114208152Y-85026666D01*
X114208152Y-85026666D02*
X114303390Y-85074285D01*
X114303390Y-85074285D02*
X114351009Y-85121904D01*
X114351009Y-85121904D02*
X114398628Y-85217142D01*
X114398628Y-85217142D02*
X114398628Y-85598094D01*
X114303390Y-84455237D02*
X114255771Y-84550475D01*
X114255771Y-84550475D02*
X114208152Y-84598094D01*
X114208152Y-84598094D02*
X114112914Y-84645713D01*
X114112914Y-84645713D02*
X114065295Y-84645713D01*
X114065295Y-84645713D02*
X113970057Y-84598094D01*
X113970057Y-84598094D02*
X113922438Y-84550475D01*
X113922438Y-84550475D02*
X113874819Y-84455237D01*
X113874819Y-84455237D02*
X113874819Y-84264761D01*
X113874819Y-84264761D02*
X113922438Y-84169523D01*
X113922438Y-84169523D02*
X113970057Y-84121904D01*
X113970057Y-84121904D02*
X114065295Y-84074285D01*
X114065295Y-84074285D02*
X114112914Y-84074285D01*
X114112914Y-84074285D02*
X114208152Y-84121904D01*
X114208152Y-84121904D02*
X114255771Y-84169523D01*
X114255771Y-84169523D02*
X114303390Y-84264761D01*
X114303390Y-84264761D02*
X114303390Y-84455237D01*
X114303390Y-84455237D02*
X114351009Y-84550475D01*
X114351009Y-84550475D02*
X114398628Y-84598094D01*
X114398628Y-84598094D02*
X114493866Y-84645713D01*
X114493866Y-84645713D02*
X114684342Y-84645713D01*
X114684342Y-84645713D02*
X114779580Y-84598094D01*
X114779580Y-84598094D02*
X114827200Y-84550475D01*
X114827200Y-84550475D02*
X114874819Y-84455237D01*
X114874819Y-84455237D02*
X114874819Y-84264761D01*
X114874819Y-84264761D02*
X114827200Y-84169523D01*
X114827200Y-84169523D02*
X114779580Y-84121904D01*
X114779580Y-84121904D02*
X114684342Y-84074285D01*
X114684342Y-84074285D02*
X114493866Y-84074285D01*
X114493866Y-84074285D02*
X114398628Y-84121904D01*
X114398628Y-84121904D02*
X114351009Y-84169523D01*
X114351009Y-84169523D02*
X114303390Y-84264761D01*
X176919666Y-129918919D02*
X176919666Y-130633204D01*
X176919666Y-130633204D02*
X176872047Y-130776061D01*
X176872047Y-130776061D02*
X176776809Y-130871300D01*
X176776809Y-130871300D02*
X176633952Y-130918919D01*
X176633952Y-130918919D02*
X176538714Y-130918919D01*
X177872047Y-129918919D02*
X177395857Y-129918919D01*
X177395857Y-129918919D02*
X177348238Y-130395109D01*
X177348238Y-130395109D02*
X177395857Y-130347490D01*
X177395857Y-130347490D02*
X177491095Y-130299871D01*
X177491095Y-130299871D02*
X177729190Y-130299871D01*
X177729190Y-130299871D02*
X177824428Y-130347490D01*
X177824428Y-130347490D02*
X177872047Y-130395109D01*
X177872047Y-130395109D02*
X177919666Y-130490347D01*
X177919666Y-130490347D02*
X177919666Y-130728442D01*
X177919666Y-130728442D02*
X177872047Y-130823680D01*
X177872047Y-130823680D02*
X177824428Y-130871300D01*
X177824428Y-130871300D02*
X177729190Y-130918919D01*
X177729190Y-130918919D02*
X177491095Y-130918919D01*
X177491095Y-130918919D02*
X177395857Y-130871300D01*
X177395857Y-130871300D02*
X177348238Y-130823680D01*
X159707141Y-67052777D02*
X159659522Y-67100397D01*
X159659522Y-67100397D02*
X159516665Y-67148016D01*
X159516665Y-67148016D02*
X159421427Y-67148016D01*
X159421427Y-67148016D02*
X159278570Y-67100397D01*
X159278570Y-67100397D02*
X159183332Y-67005158D01*
X159183332Y-67005158D02*
X159135713Y-66909920D01*
X159135713Y-66909920D02*
X159088094Y-66719444D01*
X159088094Y-66719444D02*
X159088094Y-66576587D01*
X159088094Y-66576587D02*
X159135713Y-66386111D01*
X159135713Y-66386111D02*
X159183332Y-66290873D01*
X159183332Y-66290873D02*
X159278570Y-66195635D01*
X159278570Y-66195635D02*
X159421427Y-66148016D01*
X159421427Y-66148016D02*
X159516665Y-66148016D01*
X159516665Y-66148016D02*
X159659522Y-66195635D01*
X159659522Y-66195635D02*
X159707141Y-66243254D01*
X160659522Y-67148016D02*
X160088094Y-67148016D01*
X160373808Y-67148016D02*
X160373808Y-66148016D01*
X160373808Y-66148016D02*
X160278570Y-66290873D01*
X160278570Y-66290873D02*
X160183332Y-66386111D01*
X160183332Y-66386111D02*
X160088094Y-66433730D01*
X161564284Y-66148016D02*
X161088094Y-66148016D01*
X161088094Y-66148016D02*
X161040475Y-66624206D01*
X161040475Y-66624206D02*
X161088094Y-66576587D01*
X161088094Y-66576587D02*
X161183332Y-66528968D01*
X161183332Y-66528968D02*
X161421427Y-66528968D01*
X161421427Y-66528968D02*
X161516665Y-66576587D01*
X161516665Y-66576587D02*
X161564284Y-66624206D01*
X161564284Y-66624206D02*
X161611903Y-66719444D01*
X161611903Y-66719444D02*
X161611903Y-66957539D01*
X161611903Y-66957539D02*
X161564284Y-67052777D01*
X161564284Y-67052777D02*
X161516665Y-67100397D01*
X161516665Y-67100397D02*
X161421427Y-67148016D01*
X161421427Y-67148016D02*
X161183332Y-67148016D01*
X161183332Y-67148016D02*
X161088094Y-67100397D01*
X161088094Y-67100397D02*
X161040475Y-67052777D01*
X191717080Y-89017857D02*
X191764700Y-89065476D01*
X191764700Y-89065476D02*
X191812319Y-89208333D01*
X191812319Y-89208333D02*
X191812319Y-89303571D01*
X191812319Y-89303571D02*
X191764700Y-89446428D01*
X191764700Y-89446428D02*
X191669461Y-89541666D01*
X191669461Y-89541666D02*
X191574223Y-89589285D01*
X191574223Y-89589285D02*
X191383747Y-89636904D01*
X191383747Y-89636904D02*
X191240890Y-89636904D01*
X191240890Y-89636904D02*
X191050414Y-89589285D01*
X191050414Y-89589285D02*
X190955176Y-89541666D01*
X190955176Y-89541666D02*
X190859938Y-89446428D01*
X190859938Y-89446428D02*
X190812319Y-89303571D01*
X190812319Y-89303571D02*
X190812319Y-89208333D01*
X190812319Y-89208333D02*
X190859938Y-89065476D01*
X190859938Y-89065476D02*
X190907557Y-89017857D01*
X191145652Y-88160714D02*
X191812319Y-88160714D01*
X190764700Y-88398809D02*
X191478985Y-88636904D01*
X191478985Y-88636904D02*
X191478985Y-88017857D01*
X190812319Y-87160714D02*
X190812319Y-87636904D01*
X190812319Y-87636904D02*
X191288509Y-87684523D01*
X191288509Y-87684523D02*
X191240890Y-87636904D01*
X191240890Y-87636904D02*
X191193271Y-87541666D01*
X191193271Y-87541666D02*
X191193271Y-87303571D01*
X191193271Y-87303571D02*
X191240890Y-87208333D01*
X191240890Y-87208333D02*
X191288509Y-87160714D01*
X191288509Y-87160714D02*
X191383747Y-87113095D01*
X191383747Y-87113095D02*
X191621842Y-87113095D01*
X191621842Y-87113095D02*
X191717080Y-87160714D01*
X191717080Y-87160714D02*
X191764700Y-87208333D01*
X191764700Y-87208333D02*
X191812319Y-87303571D01*
X191812319Y-87303571D02*
X191812319Y-87541666D01*
X191812319Y-87541666D02*
X191764700Y-87636904D01*
X191764700Y-87636904D02*
X191717080Y-87684523D01*
X134289666Y-129918919D02*
X134289666Y-130633204D01*
X134289666Y-130633204D02*
X134242047Y-130776061D01*
X134242047Y-130776061D02*
X134146809Y-130871300D01*
X134146809Y-130871300D02*
X134003952Y-130918919D01*
X134003952Y-130918919D02*
X133908714Y-130918919D01*
X134670619Y-129918919D02*
X135337285Y-129918919D01*
X135337285Y-129918919D02*
X134908714Y-130918919D01*
X170007142Y-96454819D02*
X169673809Y-95978628D01*
X169435714Y-96454819D02*
X169435714Y-95454819D01*
X169435714Y-95454819D02*
X169816666Y-95454819D01*
X169816666Y-95454819D02*
X169911904Y-95502438D01*
X169911904Y-95502438D02*
X169959523Y-95550057D01*
X169959523Y-95550057D02*
X170007142Y-95645295D01*
X170007142Y-95645295D02*
X170007142Y-95788152D01*
X170007142Y-95788152D02*
X169959523Y-95883390D01*
X169959523Y-95883390D02*
X169911904Y-95931009D01*
X169911904Y-95931009D02*
X169816666Y-95978628D01*
X169816666Y-95978628D02*
X169435714Y-95978628D01*
X170388095Y-95550057D02*
X170435714Y-95502438D01*
X170435714Y-95502438D02*
X170530952Y-95454819D01*
X170530952Y-95454819D02*
X170769047Y-95454819D01*
X170769047Y-95454819D02*
X170864285Y-95502438D01*
X170864285Y-95502438D02*
X170911904Y-95550057D01*
X170911904Y-95550057D02*
X170959523Y-95645295D01*
X170959523Y-95645295D02*
X170959523Y-95740533D01*
X170959523Y-95740533D02*
X170911904Y-95883390D01*
X170911904Y-95883390D02*
X170340476Y-96454819D01*
X170340476Y-96454819D02*
X170959523Y-96454819D01*
X171864285Y-95454819D02*
X171388095Y-95454819D01*
X171388095Y-95454819D02*
X171340476Y-95931009D01*
X171340476Y-95931009D02*
X171388095Y-95883390D01*
X171388095Y-95883390D02*
X171483333Y-95835771D01*
X171483333Y-95835771D02*
X171721428Y-95835771D01*
X171721428Y-95835771D02*
X171816666Y-95883390D01*
X171816666Y-95883390D02*
X171864285Y-95931009D01*
X171864285Y-95931009D02*
X171911904Y-96026247D01*
X171911904Y-96026247D02*
X171911904Y-96264342D01*
X171911904Y-96264342D02*
X171864285Y-96359580D01*
X171864285Y-96359580D02*
X171816666Y-96407200D01*
X171816666Y-96407200D02*
X171721428Y-96454819D01*
X171721428Y-96454819D02*
X171483333Y-96454819D01*
X171483333Y-96454819D02*
X171388095Y-96407200D01*
X171388095Y-96407200D02*
X171340476Y-96359580D01*
X139786912Y-125767914D02*
X139739293Y-125815534D01*
X139739293Y-125815534D02*
X139596436Y-125863153D01*
X139596436Y-125863153D02*
X139501198Y-125863153D01*
X139501198Y-125863153D02*
X139358341Y-125815534D01*
X139358341Y-125815534D02*
X139263103Y-125720295D01*
X139263103Y-125720295D02*
X139215484Y-125625057D01*
X139215484Y-125625057D02*
X139167865Y-125434581D01*
X139167865Y-125434581D02*
X139167865Y-125291724D01*
X139167865Y-125291724D02*
X139215484Y-125101248D01*
X139215484Y-125101248D02*
X139263103Y-125006010D01*
X139263103Y-125006010D02*
X139358341Y-124910772D01*
X139358341Y-124910772D02*
X139501198Y-124863153D01*
X139501198Y-124863153D02*
X139596436Y-124863153D01*
X139596436Y-124863153D02*
X139739293Y-124910772D01*
X139739293Y-124910772D02*
X139786912Y-124958391D01*
X140691674Y-124863153D02*
X140215484Y-124863153D01*
X140215484Y-124863153D02*
X140167865Y-125339343D01*
X140167865Y-125339343D02*
X140215484Y-125291724D01*
X140215484Y-125291724D02*
X140310722Y-125244105D01*
X140310722Y-125244105D02*
X140548817Y-125244105D01*
X140548817Y-125244105D02*
X140644055Y-125291724D01*
X140644055Y-125291724D02*
X140691674Y-125339343D01*
X140691674Y-125339343D02*
X140739293Y-125434581D01*
X140739293Y-125434581D02*
X140739293Y-125672676D01*
X140739293Y-125672676D02*
X140691674Y-125767914D01*
X140691674Y-125767914D02*
X140644055Y-125815534D01*
X140644055Y-125815534D02*
X140548817Y-125863153D01*
X140548817Y-125863153D02*
X140310722Y-125863153D01*
X140310722Y-125863153D02*
X140215484Y-125815534D01*
X140215484Y-125815534D02*
X140167865Y-125767914D01*
X141691674Y-125863153D02*
X141120246Y-125863153D01*
X141405960Y-125863153D02*
X141405960Y-124863153D01*
X141405960Y-124863153D02*
X141310722Y-125006010D01*
X141310722Y-125006010D02*
X141215484Y-125101248D01*
X141215484Y-125101248D02*
X141120246Y-125148867D01*
X161011979Y-117801191D02*
X160535788Y-118134524D01*
X161011979Y-118372619D02*
X160011979Y-118372619D01*
X160011979Y-118372619D02*
X160011979Y-117991667D01*
X160011979Y-117991667D02*
X160059598Y-117896429D01*
X160059598Y-117896429D02*
X160107217Y-117848810D01*
X160107217Y-117848810D02*
X160202455Y-117801191D01*
X160202455Y-117801191D02*
X160345312Y-117801191D01*
X160345312Y-117801191D02*
X160440550Y-117848810D01*
X160440550Y-117848810D02*
X160488169Y-117896429D01*
X160488169Y-117896429D02*
X160535788Y-117991667D01*
X160535788Y-117991667D02*
X160535788Y-118372619D01*
X161011979Y-116848810D02*
X161011979Y-117420238D01*
X161011979Y-117134524D02*
X160011979Y-117134524D01*
X160011979Y-117134524D02*
X160154836Y-117229762D01*
X160154836Y-117229762D02*
X160250074Y-117325000D01*
X160250074Y-117325000D02*
X160297693Y-117420238D01*
X160011979Y-116515476D02*
X160011979Y-115896429D01*
X160011979Y-115896429D02*
X160392931Y-116229762D01*
X160392931Y-116229762D02*
X160392931Y-116086905D01*
X160392931Y-116086905D02*
X160440550Y-115991667D01*
X160440550Y-115991667D02*
X160488169Y-115944048D01*
X160488169Y-115944048D02*
X160583407Y-115896429D01*
X160583407Y-115896429D02*
X160821502Y-115896429D01*
X160821502Y-115896429D02*
X160916740Y-115944048D01*
X160916740Y-115944048D02*
X160964360Y-115991667D01*
X160964360Y-115991667D02*
X161011979Y-116086905D01*
X161011979Y-116086905D02*
X161011979Y-116372619D01*
X161011979Y-116372619D02*
X160964360Y-116467857D01*
X160964360Y-116467857D02*
X160916740Y-116515476D01*
X183466749Y-117567857D02*
X182990558Y-117901190D01*
X183466749Y-118139285D02*
X182466749Y-118139285D01*
X182466749Y-118139285D02*
X182466749Y-117758333D01*
X182466749Y-117758333D02*
X182514368Y-117663095D01*
X182514368Y-117663095D02*
X182561987Y-117615476D01*
X182561987Y-117615476D02*
X182657225Y-117567857D01*
X182657225Y-117567857D02*
X182800082Y-117567857D01*
X182800082Y-117567857D02*
X182895320Y-117615476D01*
X182895320Y-117615476D02*
X182942939Y-117663095D01*
X182942939Y-117663095D02*
X182990558Y-117758333D01*
X182990558Y-117758333D02*
X182990558Y-118139285D01*
X183466749Y-116615476D02*
X183466749Y-117186904D01*
X183466749Y-116901190D02*
X182466749Y-116901190D01*
X182466749Y-116901190D02*
X182609606Y-116996428D01*
X182609606Y-116996428D02*
X182704844Y-117091666D01*
X182704844Y-117091666D02*
X182752463Y-117186904D01*
X182800082Y-115758333D02*
X183466749Y-115758333D01*
X182419130Y-115996428D02*
X183133415Y-116234523D01*
X183133415Y-116234523D02*
X183133415Y-115615476D01*
X142538095Y-100504819D02*
X142538095Y-101314342D01*
X142538095Y-101314342D02*
X142585714Y-101409580D01*
X142585714Y-101409580D02*
X142633333Y-101457200D01*
X142633333Y-101457200D02*
X142728571Y-101504819D01*
X142728571Y-101504819D02*
X142919047Y-101504819D01*
X142919047Y-101504819D02*
X143014285Y-101457200D01*
X143014285Y-101457200D02*
X143061904Y-101409580D01*
X143061904Y-101409580D02*
X143109523Y-101314342D01*
X143109523Y-101314342D02*
X143109523Y-100504819D01*
X144109523Y-101504819D02*
X143538095Y-101504819D01*
X143823809Y-101504819D02*
X143823809Y-100504819D01*
X143823809Y-100504819D02*
X143728571Y-100647676D01*
X143728571Y-100647676D02*
X143633333Y-100742914D01*
X143633333Y-100742914D02*
X143538095Y-100790533D01*
X162157142Y-93204819D02*
X161823809Y-92728628D01*
X161585714Y-93204819D02*
X161585714Y-92204819D01*
X161585714Y-92204819D02*
X161966666Y-92204819D01*
X161966666Y-92204819D02*
X162061904Y-92252438D01*
X162061904Y-92252438D02*
X162109523Y-92300057D01*
X162109523Y-92300057D02*
X162157142Y-92395295D01*
X162157142Y-92395295D02*
X162157142Y-92538152D01*
X162157142Y-92538152D02*
X162109523Y-92633390D01*
X162109523Y-92633390D02*
X162061904Y-92681009D01*
X162061904Y-92681009D02*
X161966666Y-92728628D01*
X161966666Y-92728628D02*
X161585714Y-92728628D01*
X162538095Y-92300057D02*
X162585714Y-92252438D01*
X162585714Y-92252438D02*
X162680952Y-92204819D01*
X162680952Y-92204819D02*
X162919047Y-92204819D01*
X162919047Y-92204819D02*
X163014285Y-92252438D01*
X163014285Y-92252438D02*
X163061904Y-92300057D01*
X163061904Y-92300057D02*
X163109523Y-92395295D01*
X163109523Y-92395295D02*
X163109523Y-92490533D01*
X163109523Y-92490533D02*
X163061904Y-92633390D01*
X163061904Y-92633390D02*
X162490476Y-93204819D01*
X162490476Y-93204819D02*
X163109523Y-93204819D01*
X164061904Y-93204819D02*
X163490476Y-93204819D01*
X163776190Y-93204819D02*
X163776190Y-92204819D01*
X163776190Y-92204819D02*
X163680952Y-92347676D01*
X163680952Y-92347676D02*
X163585714Y-92442914D01*
X163585714Y-92442914D02*
X163490476Y-92490533D01*
X117538095Y-78404819D02*
X117538095Y-79214342D01*
X117538095Y-79214342D02*
X117585714Y-79309580D01*
X117585714Y-79309580D02*
X117633333Y-79357200D01*
X117633333Y-79357200D02*
X117728571Y-79404819D01*
X117728571Y-79404819D02*
X117919047Y-79404819D01*
X117919047Y-79404819D02*
X118014285Y-79357200D01*
X118014285Y-79357200D02*
X118061904Y-79309580D01*
X118061904Y-79309580D02*
X118109523Y-79214342D01*
X118109523Y-79214342D02*
X118109523Y-78404819D01*
X118490476Y-78404819D02*
X119109523Y-78404819D01*
X119109523Y-78404819D02*
X118776190Y-78785771D01*
X118776190Y-78785771D02*
X118919047Y-78785771D01*
X118919047Y-78785771D02*
X119014285Y-78833390D01*
X119014285Y-78833390D02*
X119061904Y-78881009D01*
X119061904Y-78881009D02*
X119109523Y-78976247D01*
X119109523Y-78976247D02*
X119109523Y-79214342D01*
X119109523Y-79214342D02*
X119061904Y-79309580D01*
X119061904Y-79309580D02*
X119014285Y-79357200D01*
X119014285Y-79357200D02*
X118919047Y-79404819D01*
X118919047Y-79404819D02*
X118633333Y-79404819D01*
X118633333Y-79404819D02*
X118538095Y-79357200D01*
X118538095Y-79357200D02*
X118490476Y-79309580D01*
X155604666Y-129918919D02*
X155604666Y-130633204D01*
X155604666Y-130633204D02*
X155557047Y-130776061D01*
X155557047Y-130776061D02*
X155461809Y-130871300D01*
X155461809Y-130871300D02*
X155318952Y-130918919D01*
X155318952Y-130918919D02*
X155223714Y-130918919D01*
X156509428Y-130252252D02*
X156509428Y-130918919D01*
X156271333Y-129871300D02*
X156033238Y-130585585D01*
X156033238Y-130585585D02*
X156652285Y-130585585D01*
X182169072Y-124974580D02*
X182121453Y-125022200D01*
X182121453Y-125022200D02*
X181978596Y-125069819D01*
X181978596Y-125069819D02*
X181883358Y-125069819D01*
X181883358Y-125069819D02*
X181740501Y-125022200D01*
X181740501Y-125022200D02*
X181645263Y-124926961D01*
X181645263Y-124926961D02*
X181597644Y-124831723D01*
X181597644Y-124831723D02*
X181550025Y-124641247D01*
X181550025Y-124641247D02*
X181550025Y-124498390D01*
X181550025Y-124498390D02*
X181597644Y-124307914D01*
X181597644Y-124307914D02*
X181645263Y-124212676D01*
X181645263Y-124212676D02*
X181740501Y-124117438D01*
X181740501Y-124117438D02*
X181883358Y-124069819D01*
X181883358Y-124069819D02*
X181978596Y-124069819D01*
X181978596Y-124069819D02*
X182121453Y-124117438D01*
X182121453Y-124117438D02*
X182169072Y-124165057D01*
X183073834Y-124069819D02*
X182597644Y-124069819D01*
X182597644Y-124069819D02*
X182550025Y-124546009D01*
X182550025Y-124546009D02*
X182597644Y-124498390D01*
X182597644Y-124498390D02*
X182692882Y-124450771D01*
X182692882Y-124450771D02*
X182930977Y-124450771D01*
X182930977Y-124450771D02*
X183026215Y-124498390D01*
X183026215Y-124498390D02*
X183073834Y-124546009D01*
X183073834Y-124546009D02*
X183121453Y-124641247D01*
X183121453Y-124641247D02*
X183121453Y-124879342D01*
X183121453Y-124879342D02*
X183073834Y-124974580D01*
X183073834Y-124974580D02*
X183026215Y-125022200D01*
X183026215Y-125022200D02*
X182930977Y-125069819D01*
X182930977Y-125069819D02*
X182692882Y-125069819D01*
X182692882Y-125069819D02*
X182597644Y-125022200D01*
X182597644Y-125022200D02*
X182550025Y-124974580D01*
X183454787Y-124069819D02*
X184121453Y-124069819D01*
X184121453Y-124069819D02*
X183692882Y-125069819D01*
X174468332Y-63678016D02*
X174134999Y-63201825D01*
X173896904Y-63678016D02*
X173896904Y-62678016D01*
X173896904Y-62678016D02*
X174277856Y-62678016D01*
X174277856Y-62678016D02*
X174373094Y-62725635D01*
X174373094Y-62725635D02*
X174420713Y-62773254D01*
X174420713Y-62773254D02*
X174468332Y-62868492D01*
X174468332Y-62868492D02*
X174468332Y-63011349D01*
X174468332Y-63011349D02*
X174420713Y-63106587D01*
X174420713Y-63106587D02*
X174373094Y-63154206D01*
X174373094Y-63154206D02*
X174277856Y-63201825D01*
X174277856Y-63201825D02*
X173896904Y-63201825D01*
X175373094Y-62678016D02*
X174896904Y-62678016D01*
X174896904Y-62678016D02*
X174849285Y-63154206D01*
X174849285Y-63154206D02*
X174896904Y-63106587D01*
X174896904Y-63106587D02*
X174992142Y-63058968D01*
X174992142Y-63058968D02*
X175230237Y-63058968D01*
X175230237Y-63058968D02*
X175325475Y-63106587D01*
X175325475Y-63106587D02*
X175373094Y-63154206D01*
X175373094Y-63154206D02*
X175420713Y-63249444D01*
X175420713Y-63249444D02*
X175420713Y-63487539D01*
X175420713Y-63487539D02*
X175373094Y-63582777D01*
X175373094Y-63582777D02*
X175325475Y-63630397D01*
X175325475Y-63630397D02*
X175230237Y-63678016D01*
X175230237Y-63678016D02*
X174992142Y-63678016D01*
X174992142Y-63678016D02*
X174896904Y-63630397D01*
X174896904Y-63630397D02*
X174849285Y-63582777D01*
X111404819Y-121520238D02*
X112214342Y-121520238D01*
X112214342Y-121520238D02*
X112309580Y-121472619D01*
X112309580Y-121472619D02*
X112357200Y-121425000D01*
X112357200Y-121425000D02*
X112404819Y-121329762D01*
X112404819Y-121329762D02*
X112404819Y-121139286D01*
X112404819Y-121139286D02*
X112357200Y-121044048D01*
X112357200Y-121044048D02*
X112309580Y-120996429D01*
X112309580Y-120996429D02*
X112214342Y-120948810D01*
X112214342Y-120948810D02*
X111404819Y-120948810D01*
X111738152Y-120044048D02*
X112404819Y-120044048D01*
X111357200Y-120282143D02*
X112071485Y-120520238D01*
X112071485Y-120520238D02*
X112071485Y-119901191D01*
X111355019Y-123607833D02*
X111593114Y-123607833D01*
X111497876Y-123845928D02*
X111593114Y-123607833D01*
X111593114Y-123607833D02*
X111497876Y-123369738D01*
X111783590Y-123750690D02*
X111593114Y-123607833D01*
X111593114Y-123607833D02*
X111783590Y-123464976D01*
X162157142Y-92004819D02*
X161823809Y-91528628D01*
X161585714Y-92004819D02*
X161585714Y-91004819D01*
X161585714Y-91004819D02*
X161966666Y-91004819D01*
X161966666Y-91004819D02*
X162061904Y-91052438D01*
X162061904Y-91052438D02*
X162109523Y-91100057D01*
X162109523Y-91100057D02*
X162157142Y-91195295D01*
X162157142Y-91195295D02*
X162157142Y-91338152D01*
X162157142Y-91338152D02*
X162109523Y-91433390D01*
X162109523Y-91433390D02*
X162061904Y-91481009D01*
X162061904Y-91481009D02*
X161966666Y-91528628D01*
X161966666Y-91528628D02*
X161585714Y-91528628D01*
X163109523Y-92004819D02*
X162538095Y-92004819D01*
X162823809Y-92004819D02*
X162823809Y-91004819D01*
X162823809Y-91004819D02*
X162728571Y-91147676D01*
X162728571Y-91147676D02*
X162633333Y-91242914D01*
X162633333Y-91242914D02*
X162538095Y-91290533D01*
X164014285Y-91004819D02*
X163538095Y-91004819D01*
X163538095Y-91004819D02*
X163490476Y-91481009D01*
X163490476Y-91481009D02*
X163538095Y-91433390D01*
X163538095Y-91433390D02*
X163633333Y-91385771D01*
X163633333Y-91385771D02*
X163871428Y-91385771D01*
X163871428Y-91385771D02*
X163966666Y-91433390D01*
X163966666Y-91433390D02*
X164014285Y-91481009D01*
X164014285Y-91481009D02*
X164061904Y-91576247D01*
X164061904Y-91576247D02*
X164061904Y-91814342D01*
X164061904Y-91814342D02*
X164014285Y-91909580D01*
X164014285Y-91909580D02*
X163966666Y-91957200D01*
X163966666Y-91957200D02*
X163871428Y-92004819D01*
X163871428Y-92004819D02*
X163633333Y-92004819D01*
X163633333Y-92004819D02*
X163538095Y-91957200D01*
X163538095Y-91957200D02*
X163490476Y-91909580D01*
X152584819Y-81016666D02*
X152108628Y-81349999D01*
X152584819Y-81588094D02*
X151584819Y-81588094D01*
X151584819Y-81588094D02*
X151584819Y-81207142D01*
X151584819Y-81207142D02*
X151632438Y-81111904D01*
X151632438Y-81111904D02*
X151680057Y-81064285D01*
X151680057Y-81064285D02*
X151775295Y-81016666D01*
X151775295Y-81016666D02*
X151918152Y-81016666D01*
X151918152Y-81016666D02*
X152013390Y-81064285D01*
X152013390Y-81064285D02*
X152061009Y-81111904D01*
X152061009Y-81111904D02*
X152108628Y-81207142D01*
X152108628Y-81207142D02*
X152108628Y-81588094D01*
X151918152Y-80159523D02*
X152584819Y-80159523D01*
X151537200Y-80397618D02*
X152251485Y-80635713D01*
X152251485Y-80635713D02*
X152251485Y-80016666D01*
X132984589Y-121520238D02*
X133794112Y-121520238D01*
X133794112Y-121520238D02*
X133889350Y-121472619D01*
X133889350Y-121472619D02*
X133936970Y-121425000D01*
X133936970Y-121425000D02*
X133984589Y-121329762D01*
X133984589Y-121329762D02*
X133984589Y-121139286D01*
X133984589Y-121139286D02*
X133936970Y-121044048D01*
X133936970Y-121044048D02*
X133889350Y-120996429D01*
X133889350Y-120996429D02*
X133794112Y-120948810D01*
X133794112Y-120948810D02*
X132984589Y-120948810D01*
X132984589Y-119996429D02*
X132984589Y-120472619D01*
X132984589Y-120472619D02*
X133460779Y-120520238D01*
X133460779Y-120520238D02*
X133413160Y-120472619D01*
X133413160Y-120472619D02*
X133365541Y-120377381D01*
X133365541Y-120377381D02*
X133365541Y-120139286D01*
X133365541Y-120139286D02*
X133413160Y-120044048D01*
X133413160Y-120044048D02*
X133460779Y-119996429D01*
X133460779Y-119996429D02*
X133556017Y-119948810D01*
X133556017Y-119948810D02*
X133794112Y-119948810D01*
X133794112Y-119948810D02*
X133889350Y-119996429D01*
X133889350Y-119996429D02*
X133936970Y-120044048D01*
X133936970Y-120044048D02*
X133984589Y-120139286D01*
X133984589Y-120139286D02*
X133984589Y-120377381D01*
X133984589Y-120377381D02*
X133936970Y-120472619D01*
X133936970Y-120472619D02*
X133889350Y-120520238D01*
X132934789Y-123607833D02*
X133172884Y-123607833D01*
X133077646Y-123845928D02*
X133172884Y-123607833D01*
X133172884Y-123607833D02*
X133077646Y-123369738D01*
X133363360Y-123750690D02*
X133172884Y-123607833D01*
X133172884Y-123607833D02*
X133363360Y-123464976D01*
X139414589Y-120351191D02*
X138938398Y-120684524D01*
X139414589Y-120922619D02*
X138414589Y-120922619D01*
X138414589Y-120922619D02*
X138414589Y-120541667D01*
X138414589Y-120541667D02*
X138462208Y-120446429D01*
X138462208Y-120446429D02*
X138509827Y-120398810D01*
X138509827Y-120398810D02*
X138605065Y-120351191D01*
X138605065Y-120351191D02*
X138747922Y-120351191D01*
X138747922Y-120351191D02*
X138843160Y-120398810D01*
X138843160Y-120398810D02*
X138890779Y-120446429D01*
X138890779Y-120446429D02*
X138938398Y-120541667D01*
X138938398Y-120541667D02*
X138938398Y-120922619D01*
X139414589Y-119398810D02*
X139414589Y-119970238D01*
X139414589Y-119684524D02*
X138414589Y-119684524D01*
X138414589Y-119684524D02*
X138557446Y-119779762D01*
X138557446Y-119779762D02*
X138652684Y-119875000D01*
X138652684Y-119875000D02*
X138700303Y-119970238D01*
X138509827Y-119017857D02*
X138462208Y-118970238D01*
X138462208Y-118970238D02*
X138414589Y-118875000D01*
X138414589Y-118875000D02*
X138414589Y-118636905D01*
X138414589Y-118636905D02*
X138462208Y-118541667D01*
X138462208Y-118541667D02*
X138509827Y-118494048D01*
X138509827Y-118494048D02*
X138605065Y-118446429D01*
X138605065Y-118446429D02*
X138700303Y-118446429D01*
X138700303Y-118446429D02*
X138843160Y-118494048D01*
X138843160Y-118494048D02*
X139414589Y-119065476D01*
X139414589Y-119065476D02*
X139414589Y-118446429D01*
X154611979Y-121520238D02*
X155421502Y-121520238D01*
X155421502Y-121520238D02*
X155516740Y-121472619D01*
X155516740Y-121472619D02*
X155564360Y-121425000D01*
X155564360Y-121425000D02*
X155611979Y-121329762D01*
X155611979Y-121329762D02*
X155611979Y-121139286D01*
X155611979Y-121139286D02*
X155564360Y-121044048D01*
X155564360Y-121044048D02*
X155516740Y-120996429D01*
X155516740Y-120996429D02*
X155421502Y-120948810D01*
X155421502Y-120948810D02*
X154611979Y-120948810D01*
X154611979Y-120044048D02*
X154611979Y-120234524D01*
X154611979Y-120234524D02*
X154659598Y-120329762D01*
X154659598Y-120329762D02*
X154707217Y-120377381D01*
X154707217Y-120377381D02*
X154850074Y-120472619D01*
X154850074Y-120472619D02*
X155040550Y-120520238D01*
X155040550Y-120520238D02*
X155421502Y-120520238D01*
X155421502Y-120520238D02*
X155516740Y-120472619D01*
X155516740Y-120472619D02*
X155564360Y-120425000D01*
X155564360Y-120425000D02*
X155611979Y-120329762D01*
X155611979Y-120329762D02*
X155611979Y-120139286D01*
X155611979Y-120139286D02*
X155564360Y-120044048D01*
X155564360Y-120044048D02*
X155516740Y-119996429D01*
X155516740Y-119996429D02*
X155421502Y-119948810D01*
X155421502Y-119948810D02*
X155183407Y-119948810D01*
X155183407Y-119948810D02*
X155088169Y-119996429D01*
X155088169Y-119996429D02*
X155040550Y-120044048D01*
X155040550Y-120044048D02*
X154992931Y-120139286D01*
X154992931Y-120139286D02*
X154992931Y-120329762D01*
X154992931Y-120329762D02*
X155040550Y-120425000D01*
X155040550Y-120425000D02*
X155088169Y-120472619D01*
X155088169Y-120472619D02*
X155183407Y-120520238D01*
X154562179Y-123607833D02*
X154800274Y-123607833D01*
X154705036Y-123845928D02*
X154800274Y-123607833D01*
X154800274Y-123607833D02*
X154705036Y-123369738D01*
X154990750Y-123750690D02*
X154800274Y-123607833D01*
X154800274Y-123607833D02*
X154990750Y-123464976D01*
X170007142Y-94954819D02*
X169673809Y-94478628D01*
X169435714Y-94954819D02*
X169435714Y-93954819D01*
X169435714Y-93954819D02*
X169816666Y-93954819D01*
X169816666Y-93954819D02*
X169911904Y-94002438D01*
X169911904Y-94002438D02*
X169959523Y-94050057D01*
X169959523Y-94050057D02*
X170007142Y-94145295D01*
X170007142Y-94145295D02*
X170007142Y-94288152D01*
X170007142Y-94288152D02*
X169959523Y-94383390D01*
X169959523Y-94383390D02*
X169911904Y-94431009D01*
X169911904Y-94431009D02*
X169816666Y-94478628D01*
X169816666Y-94478628D02*
X169435714Y-94478628D01*
X170388095Y-94050057D02*
X170435714Y-94002438D01*
X170435714Y-94002438D02*
X170530952Y-93954819D01*
X170530952Y-93954819D02*
X170769047Y-93954819D01*
X170769047Y-93954819D02*
X170864285Y-94002438D01*
X170864285Y-94002438D02*
X170911904Y-94050057D01*
X170911904Y-94050057D02*
X170959523Y-94145295D01*
X170959523Y-94145295D02*
X170959523Y-94240533D01*
X170959523Y-94240533D02*
X170911904Y-94383390D01*
X170911904Y-94383390D02*
X170340476Y-94954819D01*
X170340476Y-94954819D02*
X170959523Y-94954819D01*
X171816666Y-93954819D02*
X171626190Y-93954819D01*
X171626190Y-93954819D02*
X171530952Y-94002438D01*
X171530952Y-94002438D02*
X171483333Y-94050057D01*
X171483333Y-94050057D02*
X171388095Y-94192914D01*
X171388095Y-94192914D02*
X171340476Y-94383390D01*
X171340476Y-94383390D02*
X171340476Y-94764342D01*
X171340476Y-94764342D02*
X171388095Y-94859580D01*
X171388095Y-94859580D02*
X171435714Y-94907200D01*
X171435714Y-94907200D02*
X171530952Y-94954819D01*
X171530952Y-94954819D02*
X171721428Y-94954819D01*
X171721428Y-94954819D02*
X171816666Y-94907200D01*
X171816666Y-94907200D02*
X171864285Y-94859580D01*
X171864285Y-94859580D02*
X171911904Y-94764342D01*
X171911904Y-94764342D02*
X171911904Y-94526247D01*
X171911904Y-94526247D02*
X171864285Y-94431009D01*
X171864285Y-94431009D02*
X171816666Y-94383390D01*
X171816666Y-94383390D02*
X171721428Y-94335771D01*
X171721428Y-94335771D02*
X171530952Y-94335771D01*
X171530952Y-94335771D02*
X171435714Y-94383390D01*
X171435714Y-94383390D02*
X171388095Y-94431009D01*
X171388095Y-94431009D02*
X171340476Y-94526247D01*
X171249404Y-66278016D02*
X171249404Y-65278016D01*
X171249404Y-65278016D02*
X171487499Y-65278016D01*
X171487499Y-65278016D02*
X171630356Y-65325635D01*
X171630356Y-65325635D02*
X171725594Y-65420873D01*
X171725594Y-65420873D02*
X171773213Y-65516111D01*
X171773213Y-65516111D02*
X171820832Y-65706587D01*
X171820832Y-65706587D02*
X171820832Y-65849444D01*
X171820832Y-65849444D02*
X171773213Y-66039920D01*
X171773213Y-66039920D02*
X171725594Y-66135158D01*
X171725594Y-66135158D02*
X171630356Y-66230397D01*
X171630356Y-66230397D02*
X171487499Y-66278016D01*
X171487499Y-66278016D02*
X171249404Y-66278016D01*
X172773213Y-66278016D02*
X172201785Y-66278016D01*
X172487499Y-66278016D02*
X172487499Y-65278016D01*
X172487499Y-65278016D02*
X172392261Y-65420873D01*
X172392261Y-65420873D02*
X172297023Y-65516111D01*
X172297023Y-65516111D02*
X172201785Y-65563730D01*
X185033333Y-101199819D02*
X184700000Y-100723628D01*
X184461905Y-101199819D02*
X184461905Y-100199819D01*
X184461905Y-100199819D02*
X184842857Y-100199819D01*
X184842857Y-100199819D02*
X184938095Y-100247438D01*
X184938095Y-100247438D02*
X184985714Y-100295057D01*
X184985714Y-100295057D02*
X185033333Y-100390295D01*
X185033333Y-100390295D02*
X185033333Y-100533152D01*
X185033333Y-100533152D02*
X184985714Y-100628390D01*
X184985714Y-100628390D02*
X184938095Y-100676009D01*
X184938095Y-100676009D02*
X184842857Y-100723628D01*
X184842857Y-100723628D02*
X184461905Y-100723628D01*
X185366667Y-100199819D02*
X186033333Y-100199819D01*
X186033333Y-100199819D02*
X185604762Y-101199819D01*
X194617080Y-90167857D02*
X194664700Y-90215476D01*
X194664700Y-90215476D02*
X194712319Y-90358333D01*
X194712319Y-90358333D02*
X194712319Y-90453571D01*
X194712319Y-90453571D02*
X194664700Y-90596428D01*
X194664700Y-90596428D02*
X194569461Y-90691666D01*
X194569461Y-90691666D02*
X194474223Y-90739285D01*
X194474223Y-90739285D02*
X194283747Y-90786904D01*
X194283747Y-90786904D02*
X194140890Y-90786904D01*
X194140890Y-90786904D02*
X193950414Y-90739285D01*
X193950414Y-90739285D02*
X193855176Y-90691666D01*
X193855176Y-90691666D02*
X193759938Y-90596428D01*
X193759938Y-90596428D02*
X193712319Y-90453571D01*
X193712319Y-90453571D02*
X193712319Y-90358333D01*
X193712319Y-90358333D02*
X193759938Y-90215476D01*
X193759938Y-90215476D02*
X193807557Y-90167857D01*
X194045652Y-89310714D02*
X194712319Y-89310714D01*
X193664700Y-89548809D02*
X194378985Y-89786904D01*
X194378985Y-89786904D02*
X194378985Y-89167857D01*
X194045652Y-88358333D02*
X194712319Y-88358333D01*
X193664700Y-88596428D02*
X194378985Y-88834523D01*
X194378985Y-88834523D02*
X194378985Y-88215476D01*
X116157142Y-90004819D02*
X115823809Y-89528628D01*
X115585714Y-90004819D02*
X115585714Y-89004819D01*
X115585714Y-89004819D02*
X115966666Y-89004819D01*
X115966666Y-89004819D02*
X116061904Y-89052438D01*
X116061904Y-89052438D02*
X116109523Y-89100057D01*
X116109523Y-89100057D02*
X116157142Y-89195295D01*
X116157142Y-89195295D02*
X116157142Y-89338152D01*
X116157142Y-89338152D02*
X116109523Y-89433390D01*
X116109523Y-89433390D02*
X116061904Y-89481009D01*
X116061904Y-89481009D02*
X115966666Y-89528628D01*
X115966666Y-89528628D02*
X115585714Y-89528628D01*
X117109523Y-90004819D02*
X116538095Y-90004819D01*
X116823809Y-90004819D02*
X116823809Y-89004819D01*
X116823809Y-89004819D02*
X116728571Y-89147676D01*
X116728571Y-89147676D02*
X116633333Y-89242914D01*
X116633333Y-89242914D02*
X116538095Y-89290533D01*
X117728571Y-89004819D02*
X117823809Y-89004819D01*
X117823809Y-89004819D02*
X117919047Y-89052438D01*
X117919047Y-89052438D02*
X117966666Y-89100057D01*
X117966666Y-89100057D02*
X118014285Y-89195295D01*
X118014285Y-89195295D02*
X118061904Y-89385771D01*
X118061904Y-89385771D02*
X118061904Y-89623866D01*
X118061904Y-89623866D02*
X118014285Y-89814342D01*
X118014285Y-89814342D02*
X117966666Y-89909580D01*
X117966666Y-89909580D02*
X117919047Y-89957200D01*
X117919047Y-89957200D02*
X117823809Y-90004819D01*
X117823809Y-90004819D02*
X117728571Y-90004819D01*
X117728571Y-90004819D02*
X117633333Y-89957200D01*
X117633333Y-89957200D02*
X117585714Y-89909580D01*
X117585714Y-89909580D02*
X117538095Y-89814342D01*
X117538095Y-89814342D02*
X117490476Y-89623866D01*
X117490476Y-89623866D02*
X117490476Y-89385771D01*
X117490476Y-89385771D02*
X117538095Y-89195295D01*
X117538095Y-89195295D02*
X117585714Y-89100057D01*
X117585714Y-89100057D02*
X117633333Y-89052438D01*
X117633333Y-89052438D02*
X117728571Y-89004819D01*
X186502142Y-80184580D02*
X186454523Y-80232200D01*
X186454523Y-80232200D02*
X186311666Y-80279819D01*
X186311666Y-80279819D02*
X186216428Y-80279819D01*
X186216428Y-80279819D02*
X186073571Y-80232200D01*
X186073571Y-80232200D02*
X185978333Y-80136961D01*
X185978333Y-80136961D02*
X185930714Y-80041723D01*
X185930714Y-80041723D02*
X185883095Y-79851247D01*
X185883095Y-79851247D02*
X185883095Y-79708390D01*
X185883095Y-79708390D02*
X185930714Y-79517914D01*
X185930714Y-79517914D02*
X185978333Y-79422676D01*
X185978333Y-79422676D02*
X186073571Y-79327438D01*
X186073571Y-79327438D02*
X186216428Y-79279819D01*
X186216428Y-79279819D02*
X186311666Y-79279819D01*
X186311666Y-79279819D02*
X186454523Y-79327438D01*
X186454523Y-79327438D02*
X186502142Y-79375057D01*
X187359285Y-79613152D02*
X187359285Y-80279819D01*
X187121190Y-79232200D02*
X186883095Y-79946485D01*
X186883095Y-79946485D02*
X187502142Y-79946485D01*
X187835476Y-79375057D02*
X187883095Y-79327438D01*
X187883095Y-79327438D02*
X187978333Y-79279819D01*
X187978333Y-79279819D02*
X188216428Y-79279819D01*
X188216428Y-79279819D02*
X188311666Y-79327438D01*
X188311666Y-79327438D02*
X188359285Y-79375057D01*
X188359285Y-79375057D02*
X188406904Y-79470295D01*
X188406904Y-79470295D02*
X188406904Y-79565533D01*
X188406904Y-79565533D02*
X188359285Y-79708390D01*
X188359285Y-79708390D02*
X187787857Y-80279819D01*
X187787857Y-80279819D02*
X188406904Y-80279819D01*
X114254819Y-87966666D02*
X113778628Y-88299999D01*
X114254819Y-88538094D02*
X113254819Y-88538094D01*
X113254819Y-88538094D02*
X113254819Y-88157142D01*
X113254819Y-88157142D02*
X113302438Y-88061904D01*
X113302438Y-88061904D02*
X113350057Y-88014285D01*
X113350057Y-88014285D02*
X113445295Y-87966666D01*
X113445295Y-87966666D02*
X113588152Y-87966666D01*
X113588152Y-87966666D02*
X113683390Y-88014285D01*
X113683390Y-88014285D02*
X113731009Y-88061904D01*
X113731009Y-88061904D02*
X113778628Y-88157142D01*
X113778628Y-88157142D02*
X113778628Y-88538094D01*
X114254819Y-87490475D02*
X114254819Y-87299999D01*
X114254819Y-87299999D02*
X114207200Y-87204761D01*
X114207200Y-87204761D02*
X114159580Y-87157142D01*
X114159580Y-87157142D02*
X114016723Y-87061904D01*
X114016723Y-87061904D02*
X113826247Y-87014285D01*
X113826247Y-87014285D02*
X113445295Y-87014285D01*
X113445295Y-87014285D02*
X113350057Y-87061904D01*
X113350057Y-87061904D02*
X113302438Y-87109523D01*
X113302438Y-87109523D02*
X113254819Y-87204761D01*
X113254819Y-87204761D02*
X113254819Y-87395237D01*
X113254819Y-87395237D02*
X113302438Y-87490475D01*
X113302438Y-87490475D02*
X113350057Y-87538094D01*
X113350057Y-87538094D02*
X113445295Y-87585713D01*
X113445295Y-87585713D02*
X113683390Y-87585713D01*
X113683390Y-87585713D02*
X113778628Y-87538094D01*
X113778628Y-87538094D02*
X113826247Y-87490475D01*
X113826247Y-87490475D02*
X113873866Y-87395237D01*
X113873866Y-87395237D02*
X113873866Y-87204761D01*
X113873866Y-87204761D02*
X113826247Y-87109523D01*
X113826247Y-87109523D02*
X113778628Y-87061904D01*
X113778628Y-87061904D02*
X113683390Y-87014285D01*
X162157142Y-94404819D02*
X161823809Y-93928628D01*
X161585714Y-94404819D02*
X161585714Y-93404819D01*
X161585714Y-93404819D02*
X161966666Y-93404819D01*
X161966666Y-93404819D02*
X162061904Y-93452438D01*
X162061904Y-93452438D02*
X162109523Y-93500057D01*
X162109523Y-93500057D02*
X162157142Y-93595295D01*
X162157142Y-93595295D02*
X162157142Y-93738152D01*
X162157142Y-93738152D02*
X162109523Y-93833390D01*
X162109523Y-93833390D02*
X162061904Y-93881009D01*
X162061904Y-93881009D02*
X161966666Y-93928628D01*
X161966666Y-93928628D02*
X161585714Y-93928628D01*
X162538095Y-93500057D02*
X162585714Y-93452438D01*
X162585714Y-93452438D02*
X162680952Y-93404819D01*
X162680952Y-93404819D02*
X162919047Y-93404819D01*
X162919047Y-93404819D02*
X163014285Y-93452438D01*
X163014285Y-93452438D02*
X163061904Y-93500057D01*
X163061904Y-93500057D02*
X163109523Y-93595295D01*
X163109523Y-93595295D02*
X163109523Y-93690533D01*
X163109523Y-93690533D02*
X163061904Y-93833390D01*
X163061904Y-93833390D02*
X162490476Y-94404819D01*
X162490476Y-94404819D02*
X163109523Y-94404819D01*
X163490476Y-93500057D02*
X163538095Y-93452438D01*
X163538095Y-93452438D02*
X163633333Y-93404819D01*
X163633333Y-93404819D02*
X163871428Y-93404819D01*
X163871428Y-93404819D02*
X163966666Y-93452438D01*
X163966666Y-93452438D02*
X164014285Y-93500057D01*
X164014285Y-93500057D02*
X164061904Y-93595295D01*
X164061904Y-93595295D02*
X164061904Y-93690533D01*
X164061904Y-93690533D02*
X164014285Y-93833390D01*
X164014285Y-93833390D02*
X163442857Y-94404819D01*
X163442857Y-94404819D02*
X164061904Y-94404819D01*
X170007142Y-97954819D02*
X169673809Y-97478628D01*
X169435714Y-97954819D02*
X169435714Y-96954819D01*
X169435714Y-96954819D02*
X169816666Y-96954819D01*
X169816666Y-96954819D02*
X169911904Y-97002438D01*
X169911904Y-97002438D02*
X169959523Y-97050057D01*
X169959523Y-97050057D02*
X170007142Y-97145295D01*
X170007142Y-97145295D02*
X170007142Y-97288152D01*
X170007142Y-97288152D02*
X169959523Y-97383390D01*
X169959523Y-97383390D02*
X169911904Y-97431009D01*
X169911904Y-97431009D02*
X169816666Y-97478628D01*
X169816666Y-97478628D02*
X169435714Y-97478628D01*
X170388095Y-97050057D02*
X170435714Y-97002438D01*
X170435714Y-97002438D02*
X170530952Y-96954819D01*
X170530952Y-96954819D02*
X170769047Y-96954819D01*
X170769047Y-96954819D02*
X170864285Y-97002438D01*
X170864285Y-97002438D02*
X170911904Y-97050057D01*
X170911904Y-97050057D02*
X170959523Y-97145295D01*
X170959523Y-97145295D02*
X170959523Y-97240533D01*
X170959523Y-97240533D02*
X170911904Y-97383390D01*
X170911904Y-97383390D02*
X170340476Y-97954819D01*
X170340476Y-97954819D02*
X170959523Y-97954819D01*
X171816666Y-97288152D02*
X171816666Y-97954819D01*
X171578571Y-96907200D02*
X171340476Y-97621485D01*
X171340476Y-97621485D02*
X171959523Y-97621485D01*
X148966666Y-67054819D02*
X148966666Y-67769104D01*
X148966666Y-67769104D02*
X148919047Y-67911961D01*
X148919047Y-67911961D02*
X148823809Y-68007200D01*
X148823809Y-68007200D02*
X148680952Y-68054819D01*
X148680952Y-68054819D02*
X148585714Y-68054819D01*
X149966666Y-68054819D02*
X149395238Y-68054819D01*
X149680952Y-68054819D02*
X149680952Y-67054819D01*
X149680952Y-67054819D02*
X149585714Y-67197676D01*
X149585714Y-67197676D02*
X149490476Y-67292914D01*
X149490476Y-67292914D02*
X149395238Y-67340533D01*
D11*
%TO.C,U2*%
X193327500Y-100155000D02*
X193597500Y-100155000D01*
X193327500Y-106575000D02*
X193327500Y-100155000D01*
X200227500Y-100155000D02*
X199957500Y-100155000D01*
X200227500Y-106575000D02*
X200227500Y-100155000D01*
X200387500Y-98765000D02*
X199917500Y-98425000D01*
X200387500Y-98085000D01*
X200387500Y-98765000D01*
G36*
X200387500Y-98765000D02*
G01*
X199917500Y-98425000D01*
X200387500Y-98085000D01*
X200387500Y-98765000D01*
G37*
%TO.C,R11*%
X117620000Y-119648334D02*
X117620000Y-119648334D01*
X118380000Y-119648334D02*
X118380000Y-119648334D01*
%TO.C,C1*%
X151620000Y-88540000D02*
X151680000Y-88540000D01*
X151620000Y-89260000D02*
X151680000Y-89260000D01*
%TO.C,R3*%
X151850000Y-78920000D02*
X151850000Y-78920000D01*
X151850000Y-79680000D02*
X151850000Y-79680000D01*
D12*
%TO.C,J2*%
X193120000Y-67215000D02*
X193120000Y-59315000D01*
X193120000Y-74015000D02*
X193120000Y-72715000D01*
X195220000Y-74015000D02*
X193120000Y-74015000D01*
X202320000Y-59315000D02*
X193120000Y-59315000D01*
X202320000Y-74015000D02*
X200220000Y-74015000D01*
X202320000Y-74015000D02*
X202320000Y-59315000D01*
D11*
%TO.C,R23*%
X173390000Y-98620000D02*
X173390000Y-98620000D01*
X173390000Y-99380000D02*
X173390000Y-99380000D01*
%TO.C,R1*%
X128700000Y-82170000D02*
X128700000Y-82170000D01*
X128700000Y-82930000D02*
X128700000Y-82930000D01*
D13*
%TO.C,U7*%
X178312530Y-119725600D02*
X178312530Y-122824400D01*
X181411330Y-122824400D02*
X181411330Y-119725600D01*
X178312530Y-120970200D02*
G75*
G02*
X178584190Y-121136783I0J-304800D01*
G01*
X178584190Y-121413217D02*
G75*
G02*
X178312530Y-121579800I-271660J138217D01*
G01*
D11*
%TO.C,R27*%
X173390000Y-92620000D02*
X173390000Y-92620000D01*
X173390000Y-93380000D02*
X173390000Y-93380000D01*
%TO.C,C54*%
X159927160Y-125298334D02*
X159987160Y-125298334D01*
X159927160Y-126018334D02*
X159987160Y-126018334D01*
%TO.C,C47*%
X118940000Y-88463748D02*
X118940000Y-89886252D01*
X120760000Y-88463748D02*
X120760000Y-89886252D01*
%TO.C,C43*%
X197505000Y-94140000D02*
X197445000Y-94140000D01*
X197505000Y-94860000D02*
X197445000Y-94860000D01*
D12*
%TO.C,J6*%
X181145000Y-129900000D02*
X181145000Y-131700000D01*
X181145000Y-129900000D02*
X193845000Y-129900000D01*
X181145000Y-135700000D02*
X181145000Y-137000000D01*
X193845000Y-129900000D02*
X193845000Y-131700000D01*
X193845000Y-137000000D02*
X193845000Y-135700000D01*
D14*
X182495000Y-131120000D02*
G75*
G02*
X182095000Y-131120000I-200000J0D01*
G01*
X182095000Y-131120000D02*
G75*
G02*
X182495000Y-131120000I200000J0D01*
G01*
D11*
%TO.C,C48*%
X116670000Y-124898334D02*
X116730000Y-124898334D01*
X116670000Y-125618334D02*
X116730000Y-125618334D01*
%TO.C,D2*%
X186765000Y-98840000D02*
X186765000Y-100310000D01*
X186765000Y-100310000D02*
X189050000Y-100310000D01*
X189050000Y-98840000D02*
X186765000Y-98840000D01*
%TO.C,R20*%
X165550000Y-90220000D02*
X165550000Y-90220000D01*
X165550000Y-90980000D02*
X165550000Y-90980000D01*
%TO.C,R8*%
X112870000Y-84860000D02*
X112870000Y-84860000D01*
X113630000Y-84860000D02*
X113630000Y-84860000D01*
D12*
%TO.C,J5*%
X159830000Y-129900000D02*
X159830000Y-131700000D01*
X159830000Y-129900000D02*
X172530000Y-129900000D01*
X159830000Y-135700000D02*
X159830000Y-137000000D01*
X172530000Y-129900000D02*
X172530000Y-131700000D01*
X172530000Y-137000000D02*
X172530000Y-135700000D01*
D14*
X161180000Y-131120000D02*
G75*
G02*
X160780000Y-131120000I-200000J0D01*
G01*
X160780000Y-131120000D02*
G75*
G02*
X161180000Y-131120000I200000J0D01*
G01*
D11*
%TO.C,C15*%
X159638747Y-67633197D02*
X161061251Y-67633197D01*
X159638747Y-69453197D02*
X161061251Y-69453197D01*
%TO.C,C45*%
X190440000Y-93086252D02*
X190440000Y-91663748D01*
X192260000Y-93086252D02*
X192260000Y-91663748D01*
D12*
%TO.C,J7*%
X117200000Y-129900000D02*
X117200000Y-131700000D01*
X117200000Y-129900000D02*
X129900000Y-129900000D01*
X117200000Y-135700000D02*
X117200000Y-137000000D01*
X129900000Y-129900000D02*
X129900000Y-131700000D01*
X129900000Y-137000000D02*
X129900000Y-135700000D01*
D14*
X118550000Y-131120000D02*
G75*
G02*
X118150000Y-131120000I-200000J0D01*
G01*
X118150000Y-131120000D02*
G75*
G02*
X118550000Y-131120000I200000J0D01*
G01*
D11*
%TO.C,R25*%
X173390000Y-95620000D02*
X173390000Y-95620000D01*
X173390000Y-96380000D02*
X173390000Y-96380000D01*
%TO.C,C51*%
X137999770Y-125048334D02*
X138059770Y-125048334D01*
X137999770Y-125768334D02*
X138059770Y-125768334D01*
%TO.C,R13*%
X160177160Y-119668334D02*
X160177160Y-119668334D01*
X160937160Y-119668334D02*
X160937160Y-119668334D01*
%TO.C,R14*%
X182631930Y-119675000D02*
X182631930Y-119675000D01*
X183391930Y-119675000D02*
X183391930Y-119675000D01*
%TO.C,U1*%
X138125000Y-88425000D02*
X138125000Y-89475000D01*
X138125000Y-88425000D02*
X139175000Y-88425000D01*
X138125000Y-98775000D02*
X138125000Y-97725000D01*
X138125000Y-98775000D02*
X139175000Y-98775000D01*
X148475000Y-88425000D02*
X147425000Y-88425000D01*
X148475000Y-88425000D02*
X148475000Y-89475000D01*
X148475000Y-98775000D02*
X147425000Y-98775000D01*
X148475000Y-98775000D02*
X148475000Y-97825000D01*
X149410000Y-98240000D02*
X148730000Y-98240000D01*
X149070000Y-97770000D01*
X149410000Y-98240000D01*
G36*
X149410000Y-98240000D02*
G01*
X148730000Y-98240000D01*
X149070000Y-97770000D01*
X149410000Y-98240000D01*
G37*
%TO.C,R21*%
X165500000Y-92370000D02*
X165500000Y-92370000D01*
X165500000Y-93130000D02*
X165500000Y-93130000D01*
D15*
%TO.C,U3*%
X115800000Y-80550000D02*
X115800000Y-81260000D01*
X115800000Y-80550000D02*
X116510000Y-80550000D01*
X115800000Y-85550000D02*
X115800000Y-84840000D01*
X115800000Y-85550000D02*
X116510000Y-85550000D01*
X120800000Y-80550000D02*
X120090000Y-80550000D01*
X120800000Y-80550000D02*
X120800000Y-81260000D01*
X120800000Y-85550000D02*
X120090000Y-85550000D01*
X120800000Y-85550000D02*
X120800000Y-84840000D01*
D12*
X121885000Y-84350000D02*
G75*
G02*
X121685000Y-84350000I-100000J0D01*
G01*
X121685000Y-84350000D02*
G75*
G02*
X121885000Y-84350000I100000J0D01*
G01*
%TO.C,J4*%
X138515000Y-129900000D02*
X138515000Y-131700000D01*
X138515000Y-129900000D02*
X151215000Y-129900000D01*
X138515000Y-135700000D02*
X138515000Y-137000000D01*
X151215000Y-129900000D02*
X151215000Y-131700000D01*
X151215000Y-137000000D02*
X151215000Y-135700000D01*
D14*
X139865000Y-131120000D02*
G75*
G02*
X139465000Y-131120000I-200000J0D01*
G01*
X139465000Y-131120000D02*
G75*
G02*
X139865000Y-131120000I200000J0D01*
G01*
D11*
%TO.C,C57*%
X182781930Y-125415000D02*
X182841930Y-125415000D01*
X182781930Y-126135000D02*
X182841930Y-126135000D01*
%TO.C,R5*%
X174634999Y-64013197D02*
X174634999Y-64013197D01*
X174634999Y-64773197D02*
X174634999Y-64773197D01*
D13*
%TO.C,U4*%
X112900600Y-119708934D02*
X112900600Y-122807734D01*
X115999400Y-122807734D02*
X115999400Y-119708934D01*
X112900600Y-120953534D02*
G75*
G02*
X113172260Y-121120117I0J-304800D01*
G01*
X113172260Y-121396551D02*
G75*
G02*
X112900600Y-121563134I-271660J138217D01*
G01*
D11*
%TO.C,R15*%
X165500000Y-91370000D02*
X165500000Y-91370000D01*
X165500000Y-92130000D02*
X165500000Y-92130000D01*
%TO.C,R4*%
X152920000Y-80850000D02*
X152920000Y-80850000D01*
X153680000Y-80850000D02*
X153680000Y-80850000D01*
D13*
%TO.C,U5*%
X134480370Y-119708934D02*
X134480370Y-122807734D01*
X137579170Y-122807734D02*
X137579170Y-119708934D01*
X134480370Y-120953534D02*
G75*
G02*
X134752030Y-121120117I0J-304800D01*
G01*
X134752030Y-121396551D02*
G75*
G02*
X134480370Y-121563134I-271660J138217D01*
G01*
D11*
%TO.C,R12*%
X139749770Y-119708334D02*
X139749770Y-119708334D01*
X140509770Y-119708334D02*
X140509770Y-119708334D01*
D13*
%TO.C,U6*%
X156107760Y-119708934D02*
X156107760Y-122807734D01*
X159206560Y-122807734D02*
X159206560Y-119708934D01*
X156107760Y-120953534D02*
G75*
G02*
X156379420Y-121120117I0J-304800D01*
G01*
X156379420Y-121396551D02*
G75*
G02*
X156107760Y-121563134I-271660J138217D01*
G01*
D11*
%TO.C,R26*%
X173390000Y-94120000D02*
X173390000Y-94120000D01*
X173390000Y-94880000D02*
X173390000Y-94880000D01*
%TO.C,D1*%
X171187499Y-65128197D02*
X173472499Y-65128197D01*
X173472499Y-63658197D02*
X171187499Y-63658197D01*
X173472499Y-65128197D02*
X173472499Y-63658197D01*
%TO.C,R7*%
X185200000Y-99195000D02*
X185200000Y-99195000D01*
X185200000Y-99955000D02*
X185200000Y-99955000D01*
%TO.C,C44*%
X193515000Y-93186252D02*
X193515000Y-92663748D01*
X194985000Y-93186252D02*
X194985000Y-92663748D01*
%TO.C,R10*%
X116810000Y-86920000D02*
X116810000Y-86920000D01*
X116810000Y-87680000D02*
X116810000Y-87680000D01*
%TO.C,C42*%
X187856252Y-77065000D02*
X186433748Y-77065000D01*
X187856252Y-78885000D02*
X186433748Y-78885000D01*
%TO.C,R9*%
X114720000Y-87800000D02*
X114720000Y-87800000D01*
X115480000Y-87800000D02*
X115480000Y-87800000D01*
%TO.C,R22*%
X165500000Y-93370000D02*
X165500000Y-93370000D01*
X165500000Y-94130000D02*
X165500000Y-94130000D01*
%TO.C,R24*%
X173390000Y-97120000D02*
X173390000Y-97120000D01*
X173390000Y-97880000D02*
X173390000Y-97880000D01*
D12*
%TO.C,J1*%
X142824999Y-59443197D02*
X142824999Y-60743197D01*
X142824999Y-66543197D02*
X142824999Y-64743197D01*
X155524999Y-60743197D02*
X155524999Y-59443197D01*
X155524999Y-66543197D02*
X142824999Y-66543197D01*
X155524999Y-66543197D02*
X155524999Y-64743197D01*
D14*
X154574999Y-65323197D02*
G75*
G02*
X154174999Y-65323197I-200000J0D01*
G01*
X154174999Y-65323197D02*
G75*
G02*
X154574999Y-65323197I200000J0D01*
G01*
%TD*%
%LPC*%
D16*
%TO.C,U2*%
X199057500Y-98425000D03*
X196777500Y-98425000D03*
D17*
X196777500Y-104725000D03*
D16*
X194497500Y-98425000D03*
%TD*%
D18*
%TO.C,R11*%
X118000000Y-120158334D03*
X118000000Y-119138334D03*
%TD*%
D19*
%TO.C,C1*%
X151170000Y-88900000D03*
X152130000Y-88900000D03*
%TD*%
D20*
%TO.C,R3*%
X151340000Y-79300000D03*
X152360000Y-79300000D03*
%TD*%
D21*
%TO.C,J2*%
X197720000Y-73015000D03*
X197720000Y-67215000D03*
D22*
X192920000Y-70015000D03*
%TD*%
D20*
%TO.C,R23*%
X172880000Y-99000000D03*
X173900000Y-99000000D03*
%TD*%
D23*
%TO.C,R1*%
X129210000Y-82550000D03*
X128190000Y-82550000D03*
%TD*%
D24*
%TO.C,U7*%
X178886931Y-123370500D03*
X179536929Y-123370500D03*
X180186931Y-123370500D03*
X180836929Y-123370500D03*
X180836929Y-119179500D03*
X180186931Y-119179500D03*
X179536929Y-119179500D03*
X178886931Y-119179500D03*
D25*
X179861930Y-121275000D03*
%TD*%
D23*
%TO.C,R27*%
X173900000Y-93000000D03*
X172880000Y-93000000D03*
%TD*%
D19*
%TO.C,C54*%
X159477160Y-125658334D03*
X160437160Y-125658334D03*
%TD*%
D26*
%TO.C,C47*%
X119850000Y-87700000D03*
X119850000Y-90650000D03*
%TD*%
D27*
%TO.C,C43*%
X197955000Y-94500000D03*
X196995000Y-94500000D03*
%TD*%
D28*
%TO.C,J6*%
X183995000Y-131010000D03*
X186495000Y-131010000D03*
X188495000Y-131010000D03*
X190995000Y-131010000D03*
D29*
X180925000Y-133720000D03*
X194065000Y-133720000D03*
%TD*%
D19*
%TO.C,C48*%
X116220000Y-125258334D03*
X117180000Y-125258334D03*
%TD*%
D30*
%TO.C,D2*%
X187462500Y-99575000D03*
X189037500Y-99575000D03*
%TD*%
D20*
%TO.C,R20*%
X165040000Y-90600000D03*
X166060000Y-90600000D03*
%TD*%
D31*
%TO.C,R8*%
X113250000Y-84350000D03*
X113250000Y-85370000D03*
%TD*%
D28*
%TO.C,J5*%
X162680000Y-131010000D03*
X165180000Y-131010000D03*
X167180000Y-131010000D03*
X169680000Y-131010000D03*
D29*
X159610000Y-133720000D03*
X172750000Y-133720000D03*
%TD*%
D32*
%TO.C,C15*%
X158874999Y-68543197D03*
X161824999Y-68543197D03*
%TD*%
D33*
%TO.C,C45*%
X191350000Y-93850000D03*
X191350000Y-90900000D03*
%TD*%
D28*
%TO.C,J7*%
X120050000Y-131010000D03*
X122550000Y-131010000D03*
X124550000Y-131010000D03*
X127050000Y-131010000D03*
D29*
X116980000Y-133720000D03*
X130120000Y-133720000D03*
%TD*%
D20*
%TO.C,R25*%
X172880000Y-96000000D03*
X173900000Y-96000000D03*
%TD*%
D19*
%TO.C,C51*%
X137549770Y-125408334D03*
X138509770Y-125408334D03*
%TD*%
D18*
%TO.C,R13*%
X160557160Y-120178334D03*
X160557160Y-119158334D03*
%TD*%
%TO.C,R14*%
X183011930Y-120185000D03*
X183011930Y-119165000D03*
%TD*%
D34*
%TO.C,U1*%
X143300000Y-93600000D03*
D35*
X149000000Y-97350000D03*
X149000000Y-96850000D03*
X149000000Y-96350000D03*
X149000000Y-95850000D03*
X149000000Y-95350000D03*
X149000000Y-94850000D03*
X149000000Y-94350000D03*
X149000000Y-93850000D03*
X149000000Y-93350000D03*
X149000000Y-92850000D03*
X149000000Y-92350000D03*
X149000000Y-91850000D03*
X149000000Y-91350000D03*
X149000000Y-90850000D03*
X149000000Y-90350000D03*
X149000000Y-89850000D03*
D36*
X147050000Y-87900000D03*
X146550000Y-87900000D03*
X146050000Y-87900000D03*
X145550000Y-87900000D03*
X145050000Y-87900000D03*
X144550000Y-87900000D03*
X144050000Y-87900000D03*
X143550000Y-87900000D03*
X143050000Y-87900000D03*
X142550000Y-87900000D03*
X142050000Y-87900000D03*
X141550000Y-87900000D03*
X141050000Y-87900000D03*
X140550000Y-87900000D03*
X140050000Y-87900000D03*
X139550000Y-87900000D03*
D35*
X137600000Y-89850000D03*
X137600000Y-90350000D03*
X137600000Y-90850000D03*
X137600000Y-91350000D03*
X137600000Y-91850000D03*
X137600000Y-92350000D03*
X137600000Y-92850000D03*
X137600000Y-93350000D03*
X137600000Y-93850000D03*
X137600000Y-94350000D03*
X137600000Y-94850000D03*
X137600000Y-95350000D03*
X137600000Y-95850000D03*
X137600000Y-96350000D03*
X137600000Y-96850000D03*
X137600000Y-97350000D03*
D36*
X139550000Y-99300000D03*
X140050000Y-99300000D03*
X140550000Y-99300000D03*
X141050000Y-99300000D03*
X141550000Y-99300000D03*
X142050000Y-99300000D03*
X142550000Y-99300000D03*
X143050000Y-99300000D03*
X143550000Y-99300000D03*
X144050000Y-99300000D03*
X144550000Y-99300000D03*
X145050000Y-99300000D03*
X145550000Y-99300000D03*
X146050000Y-99300000D03*
X146550000Y-99300000D03*
X147050000Y-99300000D03*
%TD*%
D20*
%TO.C,R21*%
X164990000Y-92750000D03*
X166010000Y-92750000D03*
%TD*%
D37*
%TO.C,U3*%
X120660000Y-84350000D03*
X120660000Y-83700000D03*
X120660000Y-83050000D03*
X120660000Y-82400000D03*
X120660000Y-81750000D03*
D38*
X119600000Y-80690000D03*
X118950000Y-80690000D03*
X118300000Y-80690000D03*
X117650000Y-80690000D03*
X117000000Y-80690000D03*
D37*
X115940000Y-81750000D03*
X115940000Y-82400000D03*
X115940000Y-83050000D03*
X115940000Y-83700000D03*
X115940000Y-84350000D03*
D38*
X117000000Y-85410000D03*
X117650000Y-85410000D03*
X118300000Y-85410000D03*
X118950000Y-85410000D03*
X119600000Y-85410000D03*
D39*
X118300000Y-83050000D03*
%TD*%
D28*
%TO.C,J4*%
X141365000Y-131010000D03*
X143865000Y-131010000D03*
X145865000Y-131010000D03*
X148365000Y-131010000D03*
D29*
X138295000Y-133720000D03*
X151435000Y-133720000D03*
%TD*%
D19*
%TO.C,C57*%
X182331930Y-125775000D03*
X183291930Y-125775000D03*
%TD*%
D20*
%TO.C,R5*%
X174124999Y-64393197D03*
X175144999Y-64393197D03*
%TD*%
D24*
%TO.C,U4*%
X113475001Y-123353834D03*
X114124999Y-123353834D03*
X114775001Y-123353834D03*
X115424999Y-123353834D03*
X115424999Y-119162834D03*
X114775001Y-119162834D03*
X114124999Y-119162834D03*
X113475001Y-119162834D03*
D25*
X114450000Y-121258334D03*
%TD*%
D20*
%TO.C,R15*%
X164990000Y-91750000D03*
X166010000Y-91750000D03*
%TD*%
D18*
%TO.C,R4*%
X153300000Y-81360000D03*
X153300000Y-80340000D03*
%TD*%
D24*
%TO.C,U5*%
X135054771Y-123353834D03*
X135704769Y-123353834D03*
X136354771Y-123353834D03*
X137004769Y-123353834D03*
X137004769Y-119162834D03*
X136354771Y-119162834D03*
X135704769Y-119162834D03*
X135054771Y-119162834D03*
D25*
X136029770Y-121258334D03*
%TD*%
D18*
%TO.C,R12*%
X140129770Y-120218334D03*
X140129770Y-119198334D03*
%TD*%
D24*
%TO.C,U6*%
X156682161Y-123353834D03*
X157332159Y-123353834D03*
X157982161Y-123353834D03*
X158632159Y-123353834D03*
X158632159Y-119162834D03*
X157982161Y-119162834D03*
X157332159Y-119162834D03*
X156682161Y-119162834D03*
D25*
X157657160Y-121258334D03*
%TD*%
D20*
%TO.C,R26*%
X172880000Y-94500000D03*
X173900000Y-94500000D03*
%TD*%
D40*
%TO.C,D1*%
X172774999Y-64393197D03*
X171199999Y-64393197D03*
%TD*%
D23*
%TO.C,R7*%
X185710000Y-99575000D03*
X184690000Y-99575000D03*
%TD*%
D41*
%TO.C,C44*%
X194250000Y-93875000D03*
X194250000Y-91975000D03*
%TD*%
D23*
%TO.C,R10*%
X117320000Y-87300000D03*
X116300000Y-87300000D03*
%TD*%
D42*
%TO.C,C42*%
X188620000Y-77975000D03*
X185670000Y-77975000D03*
%TD*%
D31*
%TO.C,R9*%
X115100000Y-87290000D03*
X115100000Y-88310000D03*
%TD*%
D20*
%TO.C,R22*%
X164990000Y-93750000D03*
X166010000Y-93750000D03*
%TD*%
%TO.C,R24*%
X172880000Y-97500000D03*
X173900000Y-97500000D03*
%TD*%
D28*
%TO.C,J1*%
X152674999Y-65433197D03*
X150174999Y-65433197D03*
X148174999Y-65433197D03*
X145674999Y-65433197D03*
D29*
X155744999Y-62723197D03*
X142604999Y-62723197D03*
%TD*%
%LPD*%
M02*
