%TF.GenerationSoftware,KiCad,Pcbnew,9.0.1*%
%TF.CreationDate,2025-04-09T10:03:17-07:00*%
%TF.ProjectId,DeskHub,4465736b-4875-4622-9e6b-696361645f70,rev?*%
%TF.SameCoordinates,Original*%
%TF.FileFunction,Legend,Bot*%
%TF.FilePolarity,Positive*%
%FSLAX46Y46*%
G04 Gerber Fmt 4.6, Leading zero omitted, Abs format (unit mm)*
G04 Created by KiCad (PCBNEW 9.0.1) date 2025-04-09 10:03:17*
%MOMM*%
%LPD*%
G01*
G04 APERTURE LIST*
G04 Aperture macros list*
%AMRoundRect*
0 Rectangle with rounded corners*
0 $1 Rounding radius*
0 $2 $3 $4 $5 $6 $7 $8 $9 X,Y pos of 4 corners*
0 Add a 4 corners polygon primitive as box body*
4,1,4,$2,$3,$4,$5,$6,$7,$8,$9,$2,$3,0*
0 Add four circle primitives for the rounded corners*
1,1,$1+$1,$2,$3*
1,1,$1+$1,$4,$5*
1,1,$1+$1,$6,$7*
1,1,$1+$1,$8,$9*
0 Add four rect primitives between the rounded corners*
20,1,$1+$1,$2,$3,$4,$5,0*
20,1,$1+$1,$4,$5,$6,$7,0*
20,1,$1+$1,$6,$7,$8,$9,0*
20,1,$1+$1,$8,$9,$2,$3,0*%
G04 Aperture macros list end*
%ADD10C,0.150000*%
%ADD11C,0.163000*%
%ADD12C,0.120000*%
%ADD13C,0.127000*%
%ADD14C,0.200000*%
%ADD15O,4.904000X2.204000*%
%ADD16O,2.204000X4.904000*%
%ADD17C,1.632000*%
%ADD18C,3.520000*%
%ADD19RoundRect,0.140000X-0.170000X0.140000X-0.170000X-0.140000X0.170000X-0.140000X0.170000X0.140000X0*%
%ADD20RoundRect,0.102000X0.485000X-0.500000X0.485000X0.500000X-0.485000X0.500000X-0.485000X-0.500000X0*%
%ADD21RoundRect,0.100000X0.130000X0.100000X-0.130000X0.100000X-0.130000X-0.100000X0.130000X-0.100000X0*%
%ADD22RoundRect,0.100000X0.100000X-0.130000X0.100000X0.130000X-0.100000X0.130000X-0.100000X-0.130000X0*%
%ADD23RoundRect,0.100000X-0.100000X0.130000X-0.100000X-0.130000X0.100000X-0.130000X0.100000X0.130000X0*%
%ADD24RoundRect,0.135000X0.185000X-0.135000X0.185000X0.135000X-0.185000X0.135000X-0.185000X-0.135000X0*%
%ADD25RoundRect,0.102000X0.800000X0.625000X-0.800000X0.625000X-0.800000X-0.625000X0.800000X-0.625000X0*%
%ADD26RoundRect,0.140000X0.170000X-0.140000X0.170000X0.140000X-0.170000X0.140000X-0.170000X-0.140000X0*%
%ADD27RoundRect,0.100000X-0.130000X-0.100000X0.130000X-0.100000X0.130000X0.100000X-0.130000X0.100000X0*%
%ADD28RoundRect,0.102000X1.400000X-1.200000X1.400000X1.200000X-1.400000X1.200000X-1.400000X-1.200000X0*%
%ADD29RoundRect,0.140000X-0.140000X-0.170000X0.140000X-0.170000X0.140000X0.170000X-0.140000X0.170000X0*%
%ADD30RoundRect,0.250000X-0.650000X0.325000X-0.650000X-0.325000X0.650000X-0.325000X0.650000X0.325000X0*%
%ADD31RoundRect,0.135000X-0.185000X0.135000X-0.185000X-0.135000X0.185000X-0.135000X0.185000X0.135000X0*%
%ADD32RoundRect,0.135000X0.135000X0.185000X-0.135000X0.185000X-0.135000X-0.185000X0.135000X-0.185000X0*%
%ADD33RoundRect,0.140000X0.140000X0.170000X-0.140000X0.170000X-0.140000X-0.170000X0.140000X-0.170000X0*%
%ADD34RoundRect,0.250000X0.650000X-0.325000X0.650000X0.325000X-0.650000X0.325000X-0.650000X-0.325000X0*%
%ADD35RoundRect,0.102000X0.500000X0.485000X-0.500000X0.485000X-0.500000X-0.485000X0.500000X-0.485000X0*%
%ADD36RoundRect,0.102000X-0.500000X-0.485000X0.500000X-0.485000X0.500000X0.485000X-0.500000X0.485000X0*%
G04 APERTURE END LIST*
D10*
X146700000Y-83300000D02*
X143250000Y-86700000D01*
X131600000Y-99400000D02*
X134050000Y-98000000D01*
X149650000Y-81750000D02*
X148050000Y-84100000D01*
X150650000Y-87800000D02*
X147600000Y-87500000D01*
X126850000Y-94950000D02*
X135750000Y-95550000D01*
X146100000Y-78300000D02*
X146700000Y-83300000D01*
X152100000Y-96950000D02*
X150250000Y-97000000D01*
X131850000Y-91800000D02*
X135700000Y-92000000D01*
X144900000Y-100950000D02*
X144350000Y-103150000D01*
X141450000Y-100950000D02*
X140100000Y-105300000D01*
X148250000Y-105000000D02*
X147250000Y-101600000D01*
X136050000Y-88750000D02*
X138350000Y-87350000D01*
X136509580Y-66457142D02*
X136557200Y-66409523D01*
X136557200Y-66409523D02*
X136604819Y-66266666D01*
X136604819Y-66266666D02*
X136604819Y-66171428D01*
X136604819Y-66171428D02*
X136557200Y-66028571D01*
X136557200Y-66028571D02*
X136461961Y-65933333D01*
X136461961Y-65933333D02*
X136366723Y-65885714D01*
X136366723Y-65885714D02*
X136176247Y-65838095D01*
X136176247Y-65838095D02*
X136033390Y-65838095D01*
X136033390Y-65838095D02*
X135842914Y-65885714D01*
X135842914Y-65885714D02*
X135747676Y-65933333D01*
X135747676Y-65933333D02*
X135652438Y-66028571D01*
X135652438Y-66028571D02*
X135604819Y-66171428D01*
X135604819Y-66171428D02*
X135604819Y-66266666D01*
X135604819Y-66266666D02*
X135652438Y-66409523D01*
X135652438Y-66409523D02*
X135700057Y-66457142D01*
X136604819Y-67409523D02*
X136604819Y-66838095D01*
X136604819Y-67123809D02*
X135604819Y-67123809D01*
X135604819Y-67123809D02*
X135747676Y-67028571D01*
X135747676Y-67028571D02*
X135842914Y-66933333D01*
X135842914Y-66933333D02*
X135890533Y-66838095D01*
X135604819Y-68266666D02*
X135604819Y-68076190D01*
X135604819Y-68076190D02*
X135652438Y-67980952D01*
X135652438Y-67980952D02*
X135700057Y-67933333D01*
X135700057Y-67933333D02*
X135842914Y-67838095D01*
X135842914Y-67838095D02*
X136033390Y-67790476D01*
X136033390Y-67790476D02*
X136414342Y-67790476D01*
X136414342Y-67790476D02*
X136509580Y-67838095D01*
X136509580Y-67838095D02*
X136557200Y-67885714D01*
X136557200Y-67885714D02*
X136604819Y-67980952D01*
X136604819Y-67980952D02*
X136604819Y-68171428D01*
X136604819Y-68171428D02*
X136557200Y-68266666D01*
X136557200Y-68266666D02*
X136509580Y-68314285D01*
X136509580Y-68314285D02*
X136414342Y-68361904D01*
X136414342Y-68361904D02*
X136176247Y-68361904D01*
X136176247Y-68361904D02*
X136081009Y-68314285D01*
X136081009Y-68314285D02*
X136033390Y-68266666D01*
X136033390Y-68266666D02*
X135985771Y-68171428D01*
X135985771Y-68171428D02*
X135985771Y-67980952D01*
X135985771Y-67980952D02*
X136033390Y-67885714D01*
X136033390Y-67885714D02*
X136081009Y-67838095D01*
X136081009Y-67838095D02*
X136176247Y-67790476D01*
D11*
X225580333Y-156466666D02*
X225580333Y-156133333D01*
X226104143Y-156133333D02*
X225104143Y-156133333D01*
X225104143Y-156133333D02*
X225104143Y-156609523D01*
X225580333Y-157323809D02*
X225627952Y-157466666D01*
X225627952Y-157466666D02*
X225675571Y-157514285D01*
X225675571Y-157514285D02*
X225770809Y-157561904D01*
X225770809Y-157561904D02*
X225913666Y-157561904D01*
X225913666Y-157561904D02*
X226008904Y-157514285D01*
X226008904Y-157514285D02*
X226056524Y-157466666D01*
X226056524Y-157466666D02*
X226104143Y-157371428D01*
X226104143Y-157371428D02*
X226104143Y-156990476D01*
X226104143Y-156990476D02*
X225104143Y-156990476D01*
X225104143Y-156990476D02*
X225104143Y-157323809D01*
X225104143Y-157323809D02*
X225151762Y-157419047D01*
X225151762Y-157419047D02*
X225199381Y-157466666D01*
X225199381Y-157466666D02*
X225294619Y-157514285D01*
X225294619Y-157514285D02*
X225389857Y-157514285D01*
X225389857Y-157514285D02*
X225485095Y-157466666D01*
X225485095Y-157466666D02*
X225532714Y-157419047D01*
X225532714Y-157419047D02*
X225580333Y-157323809D01*
X225580333Y-157323809D02*
X225580333Y-156990476D01*
X225437476Y-158419047D02*
X226104143Y-158419047D01*
X225056524Y-158180952D02*
X225770809Y-157942857D01*
X225770809Y-157942857D02*
X225770809Y-158561904D01*
D10*
X154655447Y-96319630D02*
X154703066Y-96367250D01*
X154703066Y-96367250D02*
X154845923Y-96414869D01*
X154845923Y-96414869D02*
X154941161Y-96414869D01*
X154941161Y-96414869D02*
X155084018Y-96367250D01*
X155084018Y-96367250D02*
X155179256Y-96272011D01*
X155179256Y-96272011D02*
X155226875Y-96176773D01*
X155226875Y-96176773D02*
X155274494Y-95986297D01*
X155274494Y-95986297D02*
X155274494Y-95843440D01*
X155274494Y-95843440D02*
X155226875Y-95652964D01*
X155226875Y-95652964D02*
X155179256Y-95557726D01*
X155179256Y-95557726D02*
X155084018Y-95462488D01*
X155084018Y-95462488D02*
X154941161Y-95414869D01*
X154941161Y-95414869D02*
X154845923Y-95414869D01*
X154845923Y-95414869D02*
X154703066Y-95462488D01*
X154703066Y-95462488D02*
X154655447Y-95510107D01*
X154274494Y-95510107D02*
X154226875Y-95462488D01*
X154226875Y-95462488D02*
X154131637Y-95414869D01*
X154131637Y-95414869D02*
X153893542Y-95414869D01*
X153893542Y-95414869D02*
X153798304Y-95462488D01*
X153798304Y-95462488D02*
X153750685Y-95510107D01*
X153750685Y-95510107D02*
X153703066Y-95605345D01*
X153703066Y-95605345D02*
X153703066Y-95700583D01*
X153703066Y-95700583D02*
X153750685Y-95843440D01*
X153750685Y-95843440D02*
X154322113Y-96414869D01*
X154322113Y-96414869D02*
X153703066Y-96414869D01*
X152845923Y-95414869D02*
X153036399Y-95414869D01*
X153036399Y-95414869D02*
X153131637Y-95462488D01*
X153131637Y-95462488D02*
X153179256Y-95510107D01*
X153179256Y-95510107D02*
X153274494Y-95652964D01*
X153274494Y-95652964D02*
X153322113Y-95843440D01*
X153322113Y-95843440D02*
X153322113Y-96224392D01*
X153322113Y-96224392D02*
X153274494Y-96319630D01*
X153274494Y-96319630D02*
X153226875Y-96367250D01*
X153226875Y-96367250D02*
X153131637Y-96414869D01*
X153131637Y-96414869D02*
X152941161Y-96414869D01*
X152941161Y-96414869D02*
X152845923Y-96367250D01*
X152845923Y-96367250D02*
X152798304Y-96319630D01*
X152798304Y-96319630D02*
X152750685Y-96224392D01*
X152750685Y-96224392D02*
X152750685Y-95986297D01*
X152750685Y-95986297D02*
X152798304Y-95891059D01*
X152798304Y-95891059D02*
X152845923Y-95843440D01*
X152845923Y-95843440D02*
X152941161Y-95795821D01*
X152941161Y-95795821D02*
X153131637Y-95795821D01*
X153131637Y-95795821D02*
X153226875Y-95843440D01*
X153226875Y-95843440D02*
X153274494Y-95891059D01*
X153274494Y-95891059D02*
X153322113Y-95986297D01*
D11*
X120360333Y-156021666D02*
X120360333Y-155688333D01*
X120884143Y-155688333D02*
X119884143Y-155688333D01*
X119884143Y-155688333D02*
X119884143Y-156164523D01*
X120360333Y-156878809D02*
X120407952Y-157021666D01*
X120407952Y-157021666D02*
X120455571Y-157069285D01*
X120455571Y-157069285D02*
X120550809Y-157116904D01*
X120550809Y-157116904D02*
X120693666Y-157116904D01*
X120693666Y-157116904D02*
X120788904Y-157069285D01*
X120788904Y-157069285D02*
X120836524Y-157021666D01*
X120836524Y-157021666D02*
X120884143Y-156926428D01*
X120884143Y-156926428D02*
X120884143Y-156545476D01*
X120884143Y-156545476D02*
X119884143Y-156545476D01*
X119884143Y-156545476D02*
X119884143Y-156878809D01*
X119884143Y-156878809D02*
X119931762Y-156974047D01*
X119931762Y-156974047D02*
X119979381Y-157021666D01*
X119979381Y-157021666D02*
X120074619Y-157069285D01*
X120074619Y-157069285D02*
X120169857Y-157069285D01*
X120169857Y-157069285D02*
X120265095Y-157021666D01*
X120265095Y-157021666D02*
X120312714Y-156974047D01*
X120312714Y-156974047D02*
X120360333Y-156878809D01*
X120360333Y-156878809D02*
X120360333Y-156545476D01*
X119979381Y-157497857D02*
X119931762Y-157545476D01*
X119931762Y-157545476D02*
X119884143Y-157640714D01*
X119884143Y-157640714D02*
X119884143Y-157878809D01*
X119884143Y-157878809D02*
X119931762Y-157974047D01*
X119931762Y-157974047D02*
X119979381Y-158021666D01*
X119979381Y-158021666D02*
X120074619Y-158069285D01*
X120074619Y-158069285D02*
X120169857Y-158069285D01*
X120169857Y-158069285D02*
X120312714Y-158021666D01*
X120312714Y-158021666D02*
X120884143Y-157450238D01*
X120884143Y-157450238D02*
X120884143Y-158069285D01*
D10*
X149859580Y-107057142D02*
X149907200Y-107009523D01*
X149907200Y-107009523D02*
X149954819Y-106866666D01*
X149954819Y-106866666D02*
X149954819Y-106771428D01*
X149954819Y-106771428D02*
X149907200Y-106628571D01*
X149907200Y-106628571D02*
X149811961Y-106533333D01*
X149811961Y-106533333D02*
X149716723Y-106485714D01*
X149716723Y-106485714D02*
X149526247Y-106438095D01*
X149526247Y-106438095D02*
X149383390Y-106438095D01*
X149383390Y-106438095D02*
X149192914Y-106485714D01*
X149192914Y-106485714D02*
X149097676Y-106533333D01*
X149097676Y-106533333D02*
X149002438Y-106628571D01*
X149002438Y-106628571D02*
X148954819Y-106771428D01*
X148954819Y-106771428D02*
X148954819Y-106866666D01*
X148954819Y-106866666D02*
X149002438Y-107009523D01*
X149002438Y-107009523D02*
X149050057Y-107057142D01*
X148954819Y-107390476D02*
X148954819Y-108009523D01*
X148954819Y-108009523D02*
X149335771Y-107676190D01*
X149335771Y-107676190D02*
X149335771Y-107819047D01*
X149335771Y-107819047D02*
X149383390Y-107914285D01*
X149383390Y-107914285D02*
X149431009Y-107961904D01*
X149431009Y-107961904D02*
X149526247Y-108009523D01*
X149526247Y-108009523D02*
X149764342Y-108009523D01*
X149764342Y-108009523D02*
X149859580Y-107961904D01*
X149859580Y-107961904D02*
X149907200Y-107914285D01*
X149907200Y-107914285D02*
X149954819Y-107819047D01*
X149954819Y-107819047D02*
X149954819Y-107533333D01*
X149954819Y-107533333D02*
X149907200Y-107438095D01*
X149907200Y-107438095D02*
X149859580Y-107390476D01*
X149288152Y-108866666D02*
X149954819Y-108866666D01*
X148907200Y-108628571D02*
X149621485Y-108390476D01*
X149621485Y-108390476D02*
X149621485Y-109009523D01*
X146759580Y-76333333D02*
X146807200Y-76285714D01*
X146807200Y-76285714D02*
X146854819Y-76142857D01*
X146854819Y-76142857D02*
X146854819Y-76047619D01*
X146854819Y-76047619D02*
X146807200Y-75904762D01*
X146807200Y-75904762D02*
X146711961Y-75809524D01*
X146711961Y-75809524D02*
X146616723Y-75761905D01*
X146616723Y-75761905D02*
X146426247Y-75714286D01*
X146426247Y-75714286D02*
X146283390Y-75714286D01*
X146283390Y-75714286D02*
X146092914Y-75761905D01*
X146092914Y-75761905D02*
X145997676Y-75809524D01*
X145997676Y-75809524D02*
X145902438Y-75904762D01*
X145902438Y-75904762D02*
X145854819Y-76047619D01*
X145854819Y-76047619D02*
X145854819Y-76142857D01*
X145854819Y-76142857D02*
X145902438Y-76285714D01*
X145902438Y-76285714D02*
X145950057Y-76333333D01*
X145854819Y-76666667D02*
X145854819Y-77333333D01*
X145854819Y-77333333D02*
X146854819Y-76904762D01*
X129666666Y-99509580D02*
X129714285Y-99557200D01*
X129714285Y-99557200D02*
X129857142Y-99604819D01*
X129857142Y-99604819D02*
X129952380Y-99604819D01*
X129952380Y-99604819D02*
X130095237Y-99557200D01*
X130095237Y-99557200D02*
X130190475Y-99461961D01*
X130190475Y-99461961D02*
X130238094Y-99366723D01*
X130238094Y-99366723D02*
X130285713Y-99176247D01*
X130285713Y-99176247D02*
X130285713Y-99033390D01*
X130285713Y-99033390D02*
X130238094Y-98842914D01*
X130238094Y-98842914D02*
X130190475Y-98747676D01*
X130190475Y-98747676D02*
X130095237Y-98652438D01*
X130095237Y-98652438D02*
X129952380Y-98604819D01*
X129952380Y-98604819D02*
X129857142Y-98604819D01*
X129857142Y-98604819D02*
X129714285Y-98652438D01*
X129714285Y-98652438D02*
X129666666Y-98700057D01*
X128809523Y-98938152D02*
X128809523Y-99604819D01*
X129047618Y-98557200D02*
X129285713Y-99271485D01*
X129285713Y-99271485D02*
X128666666Y-99271485D01*
X140254819Y-155757142D02*
X139778628Y-155423809D01*
X140254819Y-155185714D02*
X139254819Y-155185714D01*
X139254819Y-155185714D02*
X139254819Y-155566666D01*
X139254819Y-155566666D02*
X139302438Y-155661904D01*
X139302438Y-155661904D02*
X139350057Y-155709523D01*
X139350057Y-155709523D02*
X139445295Y-155757142D01*
X139445295Y-155757142D02*
X139588152Y-155757142D01*
X139588152Y-155757142D02*
X139683390Y-155709523D01*
X139683390Y-155709523D02*
X139731009Y-155661904D01*
X139731009Y-155661904D02*
X139778628Y-155566666D01*
X139778628Y-155566666D02*
X139778628Y-155185714D01*
X140254819Y-156709523D02*
X140254819Y-156138095D01*
X140254819Y-156423809D02*
X139254819Y-156423809D01*
X139254819Y-156423809D02*
X139397676Y-156328571D01*
X139397676Y-156328571D02*
X139492914Y-156233333D01*
X139492914Y-156233333D02*
X139540533Y-156138095D01*
X139254819Y-157566666D02*
X139254819Y-157376190D01*
X139254819Y-157376190D02*
X139302438Y-157280952D01*
X139302438Y-157280952D02*
X139350057Y-157233333D01*
X139350057Y-157233333D02*
X139492914Y-157138095D01*
X139492914Y-157138095D02*
X139683390Y-157090476D01*
X139683390Y-157090476D02*
X140064342Y-157090476D01*
X140064342Y-157090476D02*
X140159580Y-157138095D01*
X140159580Y-157138095D02*
X140207200Y-157185714D01*
X140207200Y-157185714D02*
X140254819Y-157280952D01*
X140254819Y-157280952D02*
X140254819Y-157471428D01*
X140254819Y-157471428D02*
X140207200Y-157566666D01*
X140207200Y-157566666D02*
X140159580Y-157614285D01*
X140159580Y-157614285D02*
X140064342Y-157661904D01*
X140064342Y-157661904D02*
X139826247Y-157661904D01*
X139826247Y-157661904D02*
X139731009Y-157614285D01*
X139731009Y-157614285D02*
X139683390Y-157566666D01*
X139683390Y-157566666D02*
X139635771Y-157471428D01*
X139635771Y-157471428D02*
X139635771Y-157280952D01*
X139635771Y-157280952D02*
X139683390Y-157185714D01*
X139683390Y-157185714D02*
X139731009Y-157138095D01*
X139731009Y-157138095D02*
X139826247Y-157090476D01*
X131062096Y-100711662D02*
X131109715Y-100759282D01*
X131109715Y-100759282D02*
X131252572Y-100806901D01*
X131252572Y-100806901D02*
X131347810Y-100806901D01*
X131347810Y-100806901D02*
X131490667Y-100759282D01*
X131490667Y-100759282D02*
X131585905Y-100664043D01*
X131585905Y-100664043D02*
X131633524Y-100568805D01*
X131633524Y-100568805D02*
X131681143Y-100378329D01*
X131681143Y-100378329D02*
X131681143Y-100235472D01*
X131681143Y-100235472D02*
X131633524Y-100044996D01*
X131633524Y-100044996D02*
X131585905Y-99949758D01*
X131585905Y-99949758D02*
X131490667Y-99854520D01*
X131490667Y-99854520D02*
X131347810Y-99806901D01*
X131347810Y-99806901D02*
X131252572Y-99806901D01*
X131252572Y-99806901D02*
X131109715Y-99854520D01*
X131109715Y-99854520D02*
X131062096Y-99902139D01*
X130681143Y-99902139D02*
X130633524Y-99854520D01*
X130633524Y-99854520D02*
X130538286Y-99806901D01*
X130538286Y-99806901D02*
X130300191Y-99806901D01*
X130300191Y-99806901D02*
X130204953Y-99854520D01*
X130204953Y-99854520D02*
X130157334Y-99902139D01*
X130157334Y-99902139D02*
X130109715Y-99997377D01*
X130109715Y-99997377D02*
X130109715Y-100092615D01*
X130109715Y-100092615D02*
X130157334Y-100235472D01*
X130157334Y-100235472D02*
X130728762Y-100806901D01*
X130728762Y-100806901D02*
X130109715Y-100806901D01*
X129204953Y-99806901D02*
X129681143Y-99806901D01*
X129681143Y-99806901D02*
X129728762Y-100283091D01*
X129728762Y-100283091D02*
X129681143Y-100235472D01*
X129681143Y-100235472D02*
X129585905Y-100187853D01*
X129585905Y-100187853D02*
X129347810Y-100187853D01*
X129347810Y-100187853D02*
X129252572Y-100235472D01*
X129252572Y-100235472D02*
X129204953Y-100283091D01*
X129204953Y-100283091D02*
X129157334Y-100378329D01*
X129157334Y-100378329D02*
X129157334Y-100616424D01*
X129157334Y-100616424D02*
X129204953Y-100711662D01*
X129204953Y-100711662D02*
X129252572Y-100759282D01*
X129252572Y-100759282D02*
X129347810Y-100806901D01*
X129347810Y-100806901D02*
X129585905Y-100806901D01*
X129585905Y-100806901D02*
X129681143Y-100759282D01*
X129681143Y-100759282D02*
X129728762Y-100711662D01*
X135016666Y-89109580D02*
X135064285Y-89157200D01*
X135064285Y-89157200D02*
X135207142Y-89204819D01*
X135207142Y-89204819D02*
X135302380Y-89204819D01*
X135302380Y-89204819D02*
X135445237Y-89157200D01*
X135445237Y-89157200D02*
X135540475Y-89061961D01*
X135540475Y-89061961D02*
X135588094Y-88966723D01*
X135588094Y-88966723D02*
X135635713Y-88776247D01*
X135635713Y-88776247D02*
X135635713Y-88633390D01*
X135635713Y-88633390D02*
X135588094Y-88442914D01*
X135588094Y-88442914D02*
X135540475Y-88347676D01*
X135540475Y-88347676D02*
X135445237Y-88252438D01*
X135445237Y-88252438D02*
X135302380Y-88204819D01*
X135302380Y-88204819D02*
X135207142Y-88204819D01*
X135207142Y-88204819D02*
X135064285Y-88252438D01*
X135064285Y-88252438D02*
X135016666Y-88300057D01*
X134683332Y-88204819D02*
X134064285Y-88204819D01*
X134064285Y-88204819D02*
X134397618Y-88585771D01*
X134397618Y-88585771D02*
X134254761Y-88585771D01*
X134254761Y-88585771D02*
X134159523Y-88633390D01*
X134159523Y-88633390D02*
X134111904Y-88681009D01*
X134111904Y-88681009D02*
X134064285Y-88776247D01*
X134064285Y-88776247D02*
X134064285Y-89014342D01*
X134064285Y-89014342D02*
X134111904Y-89109580D01*
X134111904Y-89109580D02*
X134159523Y-89157200D01*
X134159523Y-89157200D02*
X134254761Y-89204819D01*
X134254761Y-89204819D02*
X134540475Y-89204819D01*
X134540475Y-89204819D02*
X134635713Y-89157200D01*
X134635713Y-89157200D02*
X134683332Y-89109580D01*
X141376190Y-77278628D02*
X141376190Y-77754819D01*
X141709523Y-76754819D02*
X141376190Y-77278628D01*
X141376190Y-77278628D02*
X141042857Y-76754819D01*
X140185714Y-77754819D02*
X140757142Y-77754819D01*
X140471428Y-77754819D02*
X140471428Y-76754819D01*
X140471428Y-76754819D02*
X140566666Y-76897676D01*
X140566666Y-76897676D02*
X140661904Y-76992914D01*
X140661904Y-76992914D02*
X140757142Y-77040533D01*
X255909580Y-155907142D02*
X255957200Y-155859523D01*
X255957200Y-155859523D02*
X256004819Y-155716666D01*
X256004819Y-155716666D02*
X256004819Y-155621428D01*
X256004819Y-155621428D02*
X255957200Y-155478571D01*
X255957200Y-155478571D02*
X255861961Y-155383333D01*
X255861961Y-155383333D02*
X255766723Y-155335714D01*
X255766723Y-155335714D02*
X255576247Y-155288095D01*
X255576247Y-155288095D02*
X255433390Y-155288095D01*
X255433390Y-155288095D02*
X255242914Y-155335714D01*
X255242914Y-155335714D02*
X255147676Y-155383333D01*
X255147676Y-155383333D02*
X255052438Y-155478571D01*
X255052438Y-155478571D02*
X255004819Y-155621428D01*
X255004819Y-155621428D02*
X255004819Y-155716666D01*
X255004819Y-155716666D02*
X255052438Y-155859523D01*
X255052438Y-155859523D02*
X255100057Y-155907142D01*
X255004819Y-156764285D02*
X255004819Y-156573809D01*
X255004819Y-156573809D02*
X255052438Y-156478571D01*
X255052438Y-156478571D02*
X255100057Y-156430952D01*
X255100057Y-156430952D02*
X255242914Y-156335714D01*
X255242914Y-156335714D02*
X255433390Y-156288095D01*
X255433390Y-156288095D02*
X255814342Y-156288095D01*
X255814342Y-156288095D02*
X255909580Y-156335714D01*
X255909580Y-156335714D02*
X255957200Y-156383333D01*
X255957200Y-156383333D02*
X256004819Y-156478571D01*
X256004819Y-156478571D02*
X256004819Y-156669047D01*
X256004819Y-156669047D02*
X255957200Y-156764285D01*
X255957200Y-156764285D02*
X255909580Y-156811904D01*
X255909580Y-156811904D02*
X255814342Y-156859523D01*
X255814342Y-156859523D02*
X255576247Y-156859523D01*
X255576247Y-156859523D02*
X255481009Y-156811904D01*
X255481009Y-156811904D02*
X255433390Y-156764285D01*
X255433390Y-156764285D02*
X255385771Y-156669047D01*
X255385771Y-156669047D02*
X255385771Y-156478571D01*
X255385771Y-156478571D02*
X255433390Y-156383333D01*
X255433390Y-156383333D02*
X255481009Y-156335714D01*
X255481009Y-156335714D02*
X255576247Y-156288095D01*
X256004819Y-157335714D02*
X256004819Y-157526190D01*
X256004819Y-157526190D02*
X255957200Y-157621428D01*
X255957200Y-157621428D02*
X255909580Y-157669047D01*
X255909580Y-157669047D02*
X255766723Y-157764285D01*
X255766723Y-157764285D02*
X255576247Y-157811904D01*
X255576247Y-157811904D02*
X255195295Y-157811904D01*
X255195295Y-157811904D02*
X255100057Y-157764285D01*
X255100057Y-157764285D02*
X255052438Y-157716666D01*
X255052438Y-157716666D02*
X255004819Y-157621428D01*
X255004819Y-157621428D02*
X255004819Y-157430952D01*
X255004819Y-157430952D02*
X255052438Y-157335714D01*
X255052438Y-157335714D02*
X255100057Y-157288095D01*
X255100057Y-157288095D02*
X255195295Y-157240476D01*
X255195295Y-157240476D02*
X255433390Y-157240476D01*
X255433390Y-157240476D02*
X255528628Y-157288095D01*
X255528628Y-157288095D02*
X255576247Y-157335714D01*
X255576247Y-157335714D02*
X255623866Y-157430952D01*
X255623866Y-157430952D02*
X255623866Y-157621428D01*
X255623866Y-157621428D02*
X255576247Y-157716666D01*
X255576247Y-157716666D02*
X255528628Y-157764285D01*
X255528628Y-157764285D02*
X255433390Y-157811904D01*
X129116666Y-93509580D02*
X129164285Y-93557200D01*
X129164285Y-93557200D02*
X129307142Y-93604819D01*
X129307142Y-93604819D02*
X129402380Y-93604819D01*
X129402380Y-93604819D02*
X129545237Y-93557200D01*
X129545237Y-93557200D02*
X129640475Y-93461961D01*
X129640475Y-93461961D02*
X129688094Y-93366723D01*
X129688094Y-93366723D02*
X129735713Y-93176247D01*
X129735713Y-93176247D02*
X129735713Y-93033390D01*
X129735713Y-93033390D02*
X129688094Y-92842914D01*
X129688094Y-92842914D02*
X129640475Y-92747676D01*
X129640475Y-92747676D02*
X129545237Y-92652438D01*
X129545237Y-92652438D02*
X129402380Y-92604819D01*
X129402380Y-92604819D02*
X129307142Y-92604819D01*
X129307142Y-92604819D02*
X129164285Y-92652438D01*
X129164285Y-92652438D02*
X129116666Y-92700057D01*
X128640475Y-93604819D02*
X128449999Y-93604819D01*
X128449999Y-93604819D02*
X128354761Y-93557200D01*
X128354761Y-93557200D02*
X128307142Y-93509580D01*
X128307142Y-93509580D02*
X128211904Y-93366723D01*
X128211904Y-93366723D02*
X128164285Y-93176247D01*
X128164285Y-93176247D02*
X128164285Y-92795295D01*
X128164285Y-92795295D02*
X128211904Y-92700057D01*
X128211904Y-92700057D02*
X128259523Y-92652438D01*
X128259523Y-92652438D02*
X128354761Y-92604819D01*
X128354761Y-92604819D02*
X128545237Y-92604819D01*
X128545237Y-92604819D02*
X128640475Y-92652438D01*
X128640475Y-92652438D02*
X128688094Y-92700057D01*
X128688094Y-92700057D02*
X128735713Y-92795295D01*
X128735713Y-92795295D02*
X128735713Y-93033390D01*
X128735713Y-93033390D02*
X128688094Y-93128628D01*
X128688094Y-93128628D02*
X128640475Y-93176247D01*
X128640475Y-93176247D02*
X128545237Y-93223866D01*
X128545237Y-93223866D02*
X128354761Y-93223866D01*
X128354761Y-93223866D02*
X128259523Y-93176247D01*
X128259523Y-93176247D02*
X128211904Y-93128628D01*
X128211904Y-93128628D02*
X128164285Y-93033390D01*
X123119580Y-156057142D02*
X123167200Y-156009523D01*
X123167200Y-156009523D02*
X123214819Y-155866666D01*
X123214819Y-155866666D02*
X123214819Y-155771428D01*
X123214819Y-155771428D02*
X123167200Y-155628571D01*
X123167200Y-155628571D02*
X123071961Y-155533333D01*
X123071961Y-155533333D02*
X122976723Y-155485714D01*
X122976723Y-155485714D02*
X122786247Y-155438095D01*
X122786247Y-155438095D02*
X122643390Y-155438095D01*
X122643390Y-155438095D02*
X122452914Y-155485714D01*
X122452914Y-155485714D02*
X122357676Y-155533333D01*
X122357676Y-155533333D02*
X122262438Y-155628571D01*
X122262438Y-155628571D02*
X122214819Y-155771428D01*
X122214819Y-155771428D02*
X122214819Y-155866666D01*
X122214819Y-155866666D02*
X122262438Y-156009523D01*
X122262438Y-156009523D02*
X122310057Y-156057142D01*
X122214819Y-156914285D02*
X122214819Y-156723809D01*
X122214819Y-156723809D02*
X122262438Y-156628571D01*
X122262438Y-156628571D02*
X122310057Y-156580952D01*
X122310057Y-156580952D02*
X122452914Y-156485714D01*
X122452914Y-156485714D02*
X122643390Y-156438095D01*
X122643390Y-156438095D02*
X123024342Y-156438095D01*
X123024342Y-156438095D02*
X123119580Y-156485714D01*
X123119580Y-156485714D02*
X123167200Y-156533333D01*
X123167200Y-156533333D02*
X123214819Y-156628571D01*
X123214819Y-156628571D02*
X123214819Y-156819047D01*
X123214819Y-156819047D02*
X123167200Y-156914285D01*
X123167200Y-156914285D02*
X123119580Y-156961904D01*
X123119580Y-156961904D02*
X123024342Y-157009523D01*
X123024342Y-157009523D02*
X122786247Y-157009523D01*
X122786247Y-157009523D02*
X122691009Y-156961904D01*
X122691009Y-156961904D02*
X122643390Y-156914285D01*
X122643390Y-156914285D02*
X122595771Y-156819047D01*
X122595771Y-156819047D02*
X122595771Y-156628571D01*
X122595771Y-156628571D02*
X122643390Y-156533333D01*
X122643390Y-156533333D02*
X122691009Y-156485714D01*
X122691009Y-156485714D02*
X122786247Y-156438095D01*
X122214819Y-157914285D02*
X122214819Y-157438095D01*
X122214819Y-157438095D02*
X122691009Y-157390476D01*
X122691009Y-157390476D02*
X122643390Y-157438095D01*
X122643390Y-157438095D02*
X122595771Y-157533333D01*
X122595771Y-157533333D02*
X122595771Y-157771428D01*
X122595771Y-157771428D02*
X122643390Y-157866666D01*
X122643390Y-157866666D02*
X122691009Y-157914285D01*
X122691009Y-157914285D02*
X122786247Y-157961904D01*
X122786247Y-157961904D02*
X123024342Y-157961904D01*
X123024342Y-157961904D02*
X123119580Y-157914285D01*
X123119580Y-157914285D02*
X123167200Y-157866666D01*
X123167200Y-157866666D02*
X123214819Y-157771428D01*
X123214819Y-157771428D02*
X123214819Y-157533333D01*
X123214819Y-157533333D02*
X123167200Y-157438095D01*
X123167200Y-157438095D02*
X123119580Y-157390476D01*
X145759580Y-104857142D02*
X145807200Y-104809523D01*
X145807200Y-104809523D02*
X145854819Y-104666666D01*
X145854819Y-104666666D02*
X145854819Y-104571428D01*
X145854819Y-104571428D02*
X145807200Y-104428571D01*
X145807200Y-104428571D02*
X145711961Y-104333333D01*
X145711961Y-104333333D02*
X145616723Y-104285714D01*
X145616723Y-104285714D02*
X145426247Y-104238095D01*
X145426247Y-104238095D02*
X145283390Y-104238095D01*
X145283390Y-104238095D02*
X145092914Y-104285714D01*
X145092914Y-104285714D02*
X144997676Y-104333333D01*
X144997676Y-104333333D02*
X144902438Y-104428571D01*
X144902438Y-104428571D02*
X144854819Y-104571428D01*
X144854819Y-104571428D02*
X144854819Y-104666666D01*
X144854819Y-104666666D02*
X144902438Y-104809523D01*
X144902438Y-104809523D02*
X144950057Y-104857142D01*
X144854819Y-105190476D02*
X144854819Y-105809523D01*
X144854819Y-105809523D02*
X145235771Y-105476190D01*
X145235771Y-105476190D02*
X145235771Y-105619047D01*
X145235771Y-105619047D02*
X145283390Y-105714285D01*
X145283390Y-105714285D02*
X145331009Y-105761904D01*
X145331009Y-105761904D02*
X145426247Y-105809523D01*
X145426247Y-105809523D02*
X145664342Y-105809523D01*
X145664342Y-105809523D02*
X145759580Y-105761904D01*
X145759580Y-105761904D02*
X145807200Y-105714285D01*
X145807200Y-105714285D02*
X145854819Y-105619047D01*
X145854819Y-105619047D02*
X145854819Y-105333333D01*
X145854819Y-105333333D02*
X145807200Y-105238095D01*
X145807200Y-105238095D02*
X145759580Y-105190476D01*
X144854819Y-106142857D02*
X144854819Y-106761904D01*
X144854819Y-106761904D02*
X145235771Y-106428571D01*
X145235771Y-106428571D02*
X145235771Y-106571428D01*
X145235771Y-106571428D02*
X145283390Y-106666666D01*
X145283390Y-106666666D02*
X145331009Y-106714285D01*
X145331009Y-106714285D02*
X145426247Y-106761904D01*
X145426247Y-106761904D02*
X145664342Y-106761904D01*
X145664342Y-106761904D02*
X145759580Y-106714285D01*
X145759580Y-106714285D02*
X145807200Y-106666666D01*
X145807200Y-106666666D02*
X145854819Y-106571428D01*
X145854819Y-106571428D02*
X145854819Y-106285714D01*
X145854819Y-106285714D02*
X145807200Y-106190476D01*
X145807200Y-106190476D02*
X145759580Y-106142857D01*
X253504819Y-155907142D02*
X253028628Y-155573809D01*
X253504819Y-155335714D02*
X252504819Y-155335714D01*
X252504819Y-155335714D02*
X252504819Y-155716666D01*
X252504819Y-155716666D02*
X252552438Y-155811904D01*
X252552438Y-155811904D02*
X252600057Y-155859523D01*
X252600057Y-155859523D02*
X252695295Y-155907142D01*
X252695295Y-155907142D02*
X252838152Y-155907142D01*
X252838152Y-155907142D02*
X252933390Y-155859523D01*
X252933390Y-155859523D02*
X252981009Y-155811904D01*
X252981009Y-155811904D02*
X253028628Y-155716666D01*
X253028628Y-155716666D02*
X253028628Y-155335714D01*
X253504819Y-156859523D02*
X253504819Y-156288095D01*
X253504819Y-156573809D02*
X252504819Y-156573809D01*
X252504819Y-156573809D02*
X252647676Y-156478571D01*
X252647676Y-156478571D02*
X252742914Y-156383333D01*
X252742914Y-156383333D02*
X252790533Y-156288095D01*
X252933390Y-157430952D02*
X252885771Y-157335714D01*
X252885771Y-157335714D02*
X252838152Y-157288095D01*
X252838152Y-157288095D02*
X252742914Y-157240476D01*
X252742914Y-157240476D02*
X252695295Y-157240476D01*
X252695295Y-157240476D02*
X252600057Y-157288095D01*
X252600057Y-157288095D02*
X252552438Y-157335714D01*
X252552438Y-157335714D02*
X252504819Y-157430952D01*
X252504819Y-157430952D02*
X252504819Y-157621428D01*
X252504819Y-157621428D02*
X252552438Y-157716666D01*
X252552438Y-157716666D02*
X252600057Y-157764285D01*
X252600057Y-157764285D02*
X252695295Y-157811904D01*
X252695295Y-157811904D02*
X252742914Y-157811904D01*
X252742914Y-157811904D02*
X252838152Y-157764285D01*
X252838152Y-157764285D02*
X252885771Y-157716666D01*
X252885771Y-157716666D02*
X252933390Y-157621428D01*
X252933390Y-157621428D02*
X252933390Y-157430952D01*
X252933390Y-157430952D02*
X252981009Y-157335714D01*
X252981009Y-157335714D02*
X253028628Y-157288095D01*
X253028628Y-157288095D02*
X253123866Y-157240476D01*
X253123866Y-157240476D02*
X253314342Y-157240476D01*
X253314342Y-157240476D02*
X253409580Y-157288095D01*
X253409580Y-157288095D02*
X253457200Y-157335714D01*
X253457200Y-157335714D02*
X253504819Y-157430952D01*
X253504819Y-157430952D02*
X253504819Y-157621428D01*
X253504819Y-157621428D02*
X253457200Y-157716666D01*
X253457200Y-157716666D02*
X253409580Y-157764285D01*
X253409580Y-157764285D02*
X253314342Y-157811904D01*
X253314342Y-157811904D02*
X253123866Y-157811904D01*
X253123866Y-157811904D02*
X253028628Y-157764285D01*
X253028628Y-157764285D02*
X252981009Y-157716666D01*
X252981009Y-157716666D02*
X252933390Y-157621428D01*
X70619580Y-136547142D02*
X70667200Y-136499523D01*
X70667200Y-136499523D02*
X70714819Y-136356666D01*
X70714819Y-136356666D02*
X70714819Y-136261428D01*
X70714819Y-136261428D02*
X70667200Y-136118571D01*
X70667200Y-136118571D02*
X70571961Y-136023333D01*
X70571961Y-136023333D02*
X70476723Y-135975714D01*
X70476723Y-135975714D02*
X70286247Y-135928095D01*
X70286247Y-135928095D02*
X70143390Y-135928095D01*
X70143390Y-135928095D02*
X69952914Y-135975714D01*
X69952914Y-135975714D02*
X69857676Y-136023333D01*
X69857676Y-136023333D02*
X69762438Y-136118571D01*
X69762438Y-136118571D02*
X69714819Y-136261428D01*
X69714819Y-136261428D02*
X69714819Y-136356666D01*
X69714819Y-136356666D02*
X69762438Y-136499523D01*
X69762438Y-136499523D02*
X69810057Y-136547142D01*
X69714819Y-137451904D02*
X69714819Y-136975714D01*
X69714819Y-136975714D02*
X70191009Y-136928095D01*
X70191009Y-136928095D02*
X70143390Y-136975714D01*
X70143390Y-136975714D02*
X70095771Y-137070952D01*
X70095771Y-137070952D02*
X70095771Y-137309047D01*
X70095771Y-137309047D02*
X70143390Y-137404285D01*
X70143390Y-137404285D02*
X70191009Y-137451904D01*
X70191009Y-137451904D02*
X70286247Y-137499523D01*
X70286247Y-137499523D02*
X70524342Y-137499523D01*
X70524342Y-137499523D02*
X70619580Y-137451904D01*
X70619580Y-137451904D02*
X70667200Y-137404285D01*
X70667200Y-137404285D02*
X70714819Y-137309047D01*
X70714819Y-137309047D02*
X70714819Y-137070952D01*
X70714819Y-137070952D02*
X70667200Y-136975714D01*
X70667200Y-136975714D02*
X70619580Y-136928095D01*
X69714819Y-138118571D02*
X69714819Y-138213809D01*
X69714819Y-138213809D02*
X69762438Y-138309047D01*
X69762438Y-138309047D02*
X69810057Y-138356666D01*
X69810057Y-138356666D02*
X69905295Y-138404285D01*
X69905295Y-138404285D02*
X70095771Y-138451904D01*
X70095771Y-138451904D02*
X70333866Y-138451904D01*
X70333866Y-138451904D02*
X70524342Y-138404285D01*
X70524342Y-138404285D02*
X70619580Y-138356666D01*
X70619580Y-138356666D02*
X70667200Y-138309047D01*
X70667200Y-138309047D02*
X70714819Y-138213809D01*
X70714819Y-138213809D02*
X70714819Y-138118571D01*
X70714819Y-138118571D02*
X70667200Y-138023333D01*
X70667200Y-138023333D02*
X70619580Y-137975714D01*
X70619580Y-137975714D02*
X70524342Y-137928095D01*
X70524342Y-137928095D02*
X70333866Y-137880476D01*
X70333866Y-137880476D02*
X70095771Y-137880476D01*
X70095771Y-137880476D02*
X69905295Y-137928095D01*
X69905295Y-137928095D02*
X69810057Y-137975714D01*
X69810057Y-137975714D02*
X69762438Y-138023333D01*
X69762438Y-138023333D02*
X69714819Y-138118571D01*
X130792857Y-92209580D02*
X130840476Y-92257200D01*
X130840476Y-92257200D02*
X130983333Y-92304819D01*
X130983333Y-92304819D02*
X131078571Y-92304819D01*
X131078571Y-92304819D02*
X131221428Y-92257200D01*
X131221428Y-92257200D02*
X131316666Y-92161961D01*
X131316666Y-92161961D02*
X131364285Y-92066723D01*
X131364285Y-92066723D02*
X131411904Y-91876247D01*
X131411904Y-91876247D02*
X131411904Y-91733390D01*
X131411904Y-91733390D02*
X131364285Y-91542914D01*
X131364285Y-91542914D02*
X131316666Y-91447676D01*
X131316666Y-91447676D02*
X131221428Y-91352438D01*
X131221428Y-91352438D02*
X131078571Y-91304819D01*
X131078571Y-91304819D02*
X130983333Y-91304819D01*
X130983333Y-91304819D02*
X130840476Y-91352438D01*
X130840476Y-91352438D02*
X130792857Y-91400057D01*
X130459523Y-91304819D02*
X129840476Y-91304819D01*
X129840476Y-91304819D02*
X130173809Y-91685771D01*
X130173809Y-91685771D02*
X130030952Y-91685771D01*
X130030952Y-91685771D02*
X129935714Y-91733390D01*
X129935714Y-91733390D02*
X129888095Y-91781009D01*
X129888095Y-91781009D02*
X129840476Y-91876247D01*
X129840476Y-91876247D02*
X129840476Y-92114342D01*
X129840476Y-92114342D02*
X129888095Y-92209580D01*
X129888095Y-92209580D02*
X129935714Y-92257200D01*
X129935714Y-92257200D02*
X130030952Y-92304819D01*
X130030952Y-92304819D02*
X130316666Y-92304819D01*
X130316666Y-92304819D02*
X130411904Y-92257200D01*
X130411904Y-92257200D02*
X130459523Y-92209580D01*
X128888095Y-92304819D02*
X129459523Y-92304819D01*
X129173809Y-92304819D02*
X129173809Y-91304819D01*
X129173809Y-91304819D02*
X129269047Y-91447676D01*
X129269047Y-91447676D02*
X129364285Y-91542914D01*
X129364285Y-91542914D02*
X129459523Y-91590533D01*
X137784580Y-66457142D02*
X137832200Y-66409523D01*
X137832200Y-66409523D02*
X137879819Y-66266666D01*
X137879819Y-66266666D02*
X137879819Y-66171428D01*
X137879819Y-66171428D02*
X137832200Y-66028571D01*
X137832200Y-66028571D02*
X137736961Y-65933333D01*
X137736961Y-65933333D02*
X137641723Y-65885714D01*
X137641723Y-65885714D02*
X137451247Y-65838095D01*
X137451247Y-65838095D02*
X137308390Y-65838095D01*
X137308390Y-65838095D02*
X137117914Y-65885714D01*
X137117914Y-65885714D02*
X137022676Y-65933333D01*
X137022676Y-65933333D02*
X136927438Y-66028571D01*
X136927438Y-66028571D02*
X136879819Y-66171428D01*
X136879819Y-66171428D02*
X136879819Y-66266666D01*
X136879819Y-66266666D02*
X136927438Y-66409523D01*
X136927438Y-66409523D02*
X136975057Y-66457142D01*
X137879819Y-67409523D02*
X137879819Y-66838095D01*
X137879819Y-67123809D02*
X136879819Y-67123809D01*
X136879819Y-67123809D02*
X137022676Y-67028571D01*
X137022676Y-67028571D02*
X137117914Y-66933333D01*
X137117914Y-66933333D02*
X137165533Y-66838095D01*
X136879819Y-67742857D02*
X136879819Y-68409523D01*
X136879819Y-68409523D02*
X137879819Y-67980952D01*
X134432197Y-90311663D02*
X134479816Y-90359283D01*
X134479816Y-90359283D02*
X134622673Y-90406902D01*
X134622673Y-90406902D02*
X134717911Y-90406902D01*
X134717911Y-90406902D02*
X134860768Y-90359283D01*
X134860768Y-90359283D02*
X134956006Y-90264044D01*
X134956006Y-90264044D02*
X135003625Y-90168806D01*
X135003625Y-90168806D02*
X135051244Y-89978330D01*
X135051244Y-89978330D02*
X135051244Y-89835473D01*
X135051244Y-89835473D02*
X135003625Y-89644997D01*
X135003625Y-89644997D02*
X134956006Y-89549759D01*
X134956006Y-89549759D02*
X134860768Y-89454521D01*
X134860768Y-89454521D02*
X134717911Y-89406902D01*
X134717911Y-89406902D02*
X134622673Y-89406902D01*
X134622673Y-89406902D02*
X134479816Y-89454521D01*
X134479816Y-89454521D02*
X134432197Y-89502140D01*
X133479816Y-90406902D02*
X134051244Y-90406902D01*
X133765530Y-90406902D02*
X133765530Y-89406902D01*
X133765530Y-89406902D02*
X133860768Y-89549759D01*
X133860768Y-89549759D02*
X133956006Y-89644997D01*
X133956006Y-89644997D02*
X134051244Y-89692616D01*
X133003625Y-90406902D02*
X132813149Y-90406902D01*
X132813149Y-90406902D02*
X132717911Y-90359283D01*
X132717911Y-90359283D02*
X132670292Y-90311663D01*
X132670292Y-90311663D02*
X132575054Y-90168806D01*
X132575054Y-90168806D02*
X132527435Y-89978330D01*
X132527435Y-89978330D02*
X132527435Y-89597378D01*
X132527435Y-89597378D02*
X132575054Y-89502140D01*
X132575054Y-89502140D02*
X132622673Y-89454521D01*
X132622673Y-89454521D02*
X132717911Y-89406902D01*
X132717911Y-89406902D02*
X132908387Y-89406902D01*
X132908387Y-89406902D02*
X133003625Y-89454521D01*
X133003625Y-89454521D02*
X133051244Y-89502140D01*
X133051244Y-89502140D02*
X133098863Y-89597378D01*
X133098863Y-89597378D02*
X133098863Y-89835473D01*
X133098863Y-89835473D02*
X133051244Y-89930711D01*
X133051244Y-89930711D02*
X133003625Y-89978330D01*
X133003625Y-89978330D02*
X132908387Y-90025949D01*
X132908387Y-90025949D02*
X132717911Y-90025949D01*
X132717911Y-90025949D02*
X132622673Y-89978330D01*
X132622673Y-89978330D02*
X132575054Y-89930711D01*
X132575054Y-89930711D02*
X132527435Y-89835473D01*
X151509580Y-79957142D02*
X151557200Y-79909523D01*
X151557200Y-79909523D02*
X151604819Y-79766666D01*
X151604819Y-79766666D02*
X151604819Y-79671428D01*
X151604819Y-79671428D02*
X151557200Y-79528571D01*
X151557200Y-79528571D02*
X151461961Y-79433333D01*
X151461961Y-79433333D02*
X151366723Y-79385714D01*
X151366723Y-79385714D02*
X151176247Y-79338095D01*
X151176247Y-79338095D02*
X151033390Y-79338095D01*
X151033390Y-79338095D02*
X150842914Y-79385714D01*
X150842914Y-79385714D02*
X150747676Y-79433333D01*
X150747676Y-79433333D02*
X150652438Y-79528571D01*
X150652438Y-79528571D02*
X150604819Y-79671428D01*
X150604819Y-79671428D02*
X150604819Y-79766666D01*
X150604819Y-79766666D02*
X150652438Y-79909523D01*
X150652438Y-79909523D02*
X150700057Y-79957142D01*
X150700057Y-80338095D02*
X150652438Y-80385714D01*
X150652438Y-80385714D02*
X150604819Y-80480952D01*
X150604819Y-80480952D02*
X150604819Y-80719047D01*
X150604819Y-80719047D02*
X150652438Y-80814285D01*
X150652438Y-80814285D02*
X150700057Y-80861904D01*
X150700057Y-80861904D02*
X150795295Y-80909523D01*
X150795295Y-80909523D02*
X150890533Y-80909523D01*
X150890533Y-80909523D02*
X151033390Y-80861904D01*
X151033390Y-80861904D02*
X151604819Y-80290476D01*
X151604819Y-80290476D02*
X151604819Y-80909523D01*
X150604819Y-81242857D02*
X150604819Y-81861904D01*
X150604819Y-81861904D02*
X150985771Y-81528571D01*
X150985771Y-81528571D02*
X150985771Y-81671428D01*
X150985771Y-81671428D02*
X151033390Y-81766666D01*
X151033390Y-81766666D02*
X151081009Y-81814285D01*
X151081009Y-81814285D02*
X151176247Y-81861904D01*
X151176247Y-81861904D02*
X151414342Y-81861904D01*
X151414342Y-81861904D02*
X151509580Y-81814285D01*
X151509580Y-81814285D02*
X151557200Y-81766666D01*
X151557200Y-81766666D02*
X151604819Y-81671428D01*
X151604819Y-81671428D02*
X151604819Y-81385714D01*
X151604819Y-81385714D02*
X151557200Y-81290476D01*
X151557200Y-81290476D02*
X151509580Y-81242857D01*
X174292857Y-144319580D02*
X174340476Y-144367200D01*
X174340476Y-144367200D02*
X174483333Y-144414819D01*
X174483333Y-144414819D02*
X174578571Y-144414819D01*
X174578571Y-144414819D02*
X174721428Y-144367200D01*
X174721428Y-144367200D02*
X174816666Y-144271961D01*
X174816666Y-144271961D02*
X174864285Y-144176723D01*
X174864285Y-144176723D02*
X174911904Y-143986247D01*
X174911904Y-143986247D02*
X174911904Y-143843390D01*
X174911904Y-143843390D02*
X174864285Y-143652914D01*
X174864285Y-143652914D02*
X174816666Y-143557676D01*
X174816666Y-143557676D02*
X174721428Y-143462438D01*
X174721428Y-143462438D02*
X174578571Y-143414819D01*
X174578571Y-143414819D02*
X174483333Y-143414819D01*
X174483333Y-143414819D02*
X174340476Y-143462438D01*
X174340476Y-143462438D02*
X174292857Y-143510057D01*
X173388095Y-143414819D02*
X173864285Y-143414819D01*
X173864285Y-143414819D02*
X173911904Y-143891009D01*
X173911904Y-143891009D02*
X173864285Y-143843390D01*
X173864285Y-143843390D02*
X173769047Y-143795771D01*
X173769047Y-143795771D02*
X173530952Y-143795771D01*
X173530952Y-143795771D02*
X173435714Y-143843390D01*
X173435714Y-143843390D02*
X173388095Y-143891009D01*
X173388095Y-143891009D02*
X173340476Y-143986247D01*
X173340476Y-143986247D02*
X173340476Y-144224342D01*
X173340476Y-144224342D02*
X173388095Y-144319580D01*
X173388095Y-144319580D02*
X173435714Y-144367200D01*
X173435714Y-144367200D02*
X173530952Y-144414819D01*
X173530952Y-144414819D02*
X173769047Y-144414819D01*
X173769047Y-144414819D02*
X173864285Y-144367200D01*
X173864285Y-144367200D02*
X173911904Y-144319580D01*
X172435714Y-143414819D02*
X172911904Y-143414819D01*
X172911904Y-143414819D02*
X172959523Y-143891009D01*
X172959523Y-143891009D02*
X172911904Y-143843390D01*
X172911904Y-143843390D02*
X172816666Y-143795771D01*
X172816666Y-143795771D02*
X172578571Y-143795771D01*
X172578571Y-143795771D02*
X172483333Y-143843390D01*
X172483333Y-143843390D02*
X172435714Y-143891009D01*
X172435714Y-143891009D02*
X172388095Y-143986247D01*
X172388095Y-143986247D02*
X172388095Y-144224342D01*
X172388095Y-144224342D02*
X172435714Y-144319580D01*
X172435714Y-144319580D02*
X172483333Y-144367200D01*
X172483333Y-144367200D02*
X172578571Y-144414819D01*
X172578571Y-144414819D02*
X172816666Y-144414819D01*
X172816666Y-144414819D02*
X172911904Y-144367200D01*
X172911904Y-144367200D02*
X172959523Y-144319580D01*
X152966666Y-86909580D02*
X153014285Y-86957200D01*
X153014285Y-86957200D02*
X153157142Y-87004819D01*
X153157142Y-87004819D02*
X153252380Y-87004819D01*
X153252380Y-87004819D02*
X153395237Y-86957200D01*
X153395237Y-86957200D02*
X153490475Y-86861961D01*
X153490475Y-86861961D02*
X153538094Y-86766723D01*
X153538094Y-86766723D02*
X153585713Y-86576247D01*
X153585713Y-86576247D02*
X153585713Y-86433390D01*
X153585713Y-86433390D02*
X153538094Y-86242914D01*
X153538094Y-86242914D02*
X153490475Y-86147676D01*
X153490475Y-86147676D02*
X153395237Y-86052438D01*
X153395237Y-86052438D02*
X153252380Y-86004819D01*
X153252380Y-86004819D02*
X153157142Y-86004819D01*
X153157142Y-86004819D02*
X153014285Y-86052438D01*
X153014285Y-86052438D02*
X152966666Y-86100057D01*
X152109523Y-86004819D02*
X152299999Y-86004819D01*
X152299999Y-86004819D02*
X152395237Y-86052438D01*
X152395237Y-86052438D02*
X152442856Y-86100057D01*
X152442856Y-86100057D02*
X152538094Y-86242914D01*
X152538094Y-86242914D02*
X152585713Y-86433390D01*
X152585713Y-86433390D02*
X152585713Y-86814342D01*
X152585713Y-86814342D02*
X152538094Y-86909580D01*
X152538094Y-86909580D02*
X152490475Y-86957200D01*
X152490475Y-86957200D02*
X152395237Y-87004819D01*
X152395237Y-87004819D02*
X152204761Y-87004819D01*
X152204761Y-87004819D02*
X152109523Y-86957200D01*
X152109523Y-86957200D02*
X152061904Y-86909580D01*
X152061904Y-86909580D02*
X152014285Y-86814342D01*
X152014285Y-86814342D02*
X152014285Y-86576247D01*
X152014285Y-86576247D02*
X152061904Y-86481009D01*
X152061904Y-86481009D02*
X152109523Y-86433390D01*
X152109523Y-86433390D02*
X152204761Y-86385771D01*
X152204761Y-86385771D02*
X152395237Y-86385771D01*
X152395237Y-86385771D02*
X152490475Y-86433390D01*
X152490475Y-86433390D02*
X152538094Y-86481009D01*
X152538094Y-86481009D02*
X152585713Y-86576247D01*
X254659580Y-155907142D02*
X254707200Y-155859523D01*
X254707200Y-155859523D02*
X254754819Y-155716666D01*
X254754819Y-155716666D02*
X254754819Y-155621428D01*
X254754819Y-155621428D02*
X254707200Y-155478571D01*
X254707200Y-155478571D02*
X254611961Y-155383333D01*
X254611961Y-155383333D02*
X254516723Y-155335714D01*
X254516723Y-155335714D02*
X254326247Y-155288095D01*
X254326247Y-155288095D02*
X254183390Y-155288095D01*
X254183390Y-155288095D02*
X253992914Y-155335714D01*
X253992914Y-155335714D02*
X253897676Y-155383333D01*
X253897676Y-155383333D02*
X253802438Y-155478571D01*
X253802438Y-155478571D02*
X253754819Y-155621428D01*
X253754819Y-155621428D02*
X253754819Y-155716666D01*
X253754819Y-155716666D02*
X253802438Y-155859523D01*
X253802438Y-155859523D02*
X253850057Y-155907142D01*
X253754819Y-156240476D02*
X253754819Y-156907142D01*
X253754819Y-156907142D02*
X254754819Y-156478571D01*
X253754819Y-157478571D02*
X253754819Y-157573809D01*
X253754819Y-157573809D02*
X253802438Y-157669047D01*
X253802438Y-157669047D02*
X253850057Y-157716666D01*
X253850057Y-157716666D02*
X253945295Y-157764285D01*
X253945295Y-157764285D02*
X254135771Y-157811904D01*
X254135771Y-157811904D02*
X254373866Y-157811904D01*
X254373866Y-157811904D02*
X254564342Y-157764285D01*
X254564342Y-157764285D02*
X254659580Y-157716666D01*
X254659580Y-157716666D02*
X254707200Y-157669047D01*
X254707200Y-157669047D02*
X254754819Y-157573809D01*
X254754819Y-157573809D02*
X254754819Y-157478571D01*
X254754819Y-157478571D02*
X254707200Y-157383333D01*
X254707200Y-157383333D02*
X254659580Y-157335714D01*
X254659580Y-157335714D02*
X254564342Y-157288095D01*
X254564342Y-157288095D02*
X254373866Y-157240476D01*
X254373866Y-157240476D02*
X254135771Y-157240476D01*
X254135771Y-157240476D02*
X253945295Y-157288095D01*
X253945295Y-157288095D02*
X253850057Y-157335714D01*
X253850057Y-157335714D02*
X253802438Y-157383333D01*
X253802438Y-157383333D02*
X253754819Y-157478571D01*
X228642857Y-144519580D02*
X228690476Y-144567200D01*
X228690476Y-144567200D02*
X228833333Y-144614819D01*
X228833333Y-144614819D02*
X228928571Y-144614819D01*
X228928571Y-144614819D02*
X229071428Y-144567200D01*
X229071428Y-144567200D02*
X229166666Y-144471961D01*
X229166666Y-144471961D02*
X229214285Y-144376723D01*
X229214285Y-144376723D02*
X229261904Y-144186247D01*
X229261904Y-144186247D02*
X229261904Y-144043390D01*
X229261904Y-144043390D02*
X229214285Y-143852914D01*
X229214285Y-143852914D02*
X229166666Y-143757676D01*
X229166666Y-143757676D02*
X229071428Y-143662438D01*
X229071428Y-143662438D02*
X228928571Y-143614819D01*
X228928571Y-143614819D02*
X228833333Y-143614819D01*
X228833333Y-143614819D02*
X228690476Y-143662438D01*
X228690476Y-143662438D02*
X228642857Y-143710057D01*
X227738095Y-143614819D02*
X228214285Y-143614819D01*
X228214285Y-143614819D02*
X228261904Y-144091009D01*
X228261904Y-144091009D02*
X228214285Y-144043390D01*
X228214285Y-144043390D02*
X228119047Y-143995771D01*
X228119047Y-143995771D02*
X227880952Y-143995771D01*
X227880952Y-143995771D02*
X227785714Y-144043390D01*
X227785714Y-144043390D02*
X227738095Y-144091009D01*
X227738095Y-144091009D02*
X227690476Y-144186247D01*
X227690476Y-144186247D02*
X227690476Y-144424342D01*
X227690476Y-144424342D02*
X227738095Y-144519580D01*
X227738095Y-144519580D02*
X227785714Y-144567200D01*
X227785714Y-144567200D02*
X227880952Y-144614819D01*
X227880952Y-144614819D02*
X228119047Y-144614819D01*
X228119047Y-144614819D02*
X228214285Y-144567200D01*
X228214285Y-144567200D02*
X228261904Y-144519580D01*
X227119047Y-144043390D02*
X227214285Y-143995771D01*
X227214285Y-143995771D02*
X227261904Y-143948152D01*
X227261904Y-143948152D02*
X227309523Y-143852914D01*
X227309523Y-143852914D02*
X227309523Y-143805295D01*
X227309523Y-143805295D02*
X227261904Y-143710057D01*
X227261904Y-143710057D02*
X227214285Y-143662438D01*
X227214285Y-143662438D02*
X227119047Y-143614819D01*
X227119047Y-143614819D02*
X226928571Y-143614819D01*
X226928571Y-143614819D02*
X226833333Y-143662438D01*
X226833333Y-143662438D02*
X226785714Y-143710057D01*
X226785714Y-143710057D02*
X226738095Y-143805295D01*
X226738095Y-143805295D02*
X226738095Y-143852914D01*
X226738095Y-143852914D02*
X226785714Y-143948152D01*
X226785714Y-143948152D02*
X226833333Y-143995771D01*
X226833333Y-143995771D02*
X226928571Y-144043390D01*
X226928571Y-144043390D02*
X227119047Y-144043390D01*
X227119047Y-144043390D02*
X227214285Y-144091009D01*
X227214285Y-144091009D02*
X227261904Y-144138628D01*
X227261904Y-144138628D02*
X227309523Y-144233866D01*
X227309523Y-144233866D02*
X227309523Y-144424342D01*
X227309523Y-144424342D02*
X227261904Y-144519580D01*
X227261904Y-144519580D02*
X227214285Y-144567200D01*
X227214285Y-144567200D02*
X227119047Y-144614819D01*
X227119047Y-144614819D02*
X226928571Y-144614819D01*
X226928571Y-144614819D02*
X226833333Y-144567200D01*
X226833333Y-144567200D02*
X226785714Y-144519580D01*
X226785714Y-144519580D02*
X226738095Y-144424342D01*
X226738095Y-144424342D02*
X226738095Y-144233866D01*
X226738095Y-144233866D02*
X226785714Y-144138628D01*
X226785714Y-144138628D02*
X226833333Y-144091009D01*
X226833333Y-144091009D02*
X226928571Y-144043390D01*
X196854819Y-155657142D02*
X196378628Y-155323809D01*
X196854819Y-155085714D02*
X195854819Y-155085714D01*
X195854819Y-155085714D02*
X195854819Y-155466666D01*
X195854819Y-155466666D02*
X195902438Y-155561904D01*
X195902438Y-155561904D02*
X195950057Y-155609523D01*
X195950057Y-155609523D02*
X196045295Y-155657142D01*
X196045295Y-155657142D02*
X196188152Y-155657142D01*
X196188152Y-155657142D02*
X196283390Y-155609523D01*
X196283390Y-155609523D02*
X196331009Y-155561904D01*
X196331009Y-155561904D02*
X196378628Y-155466666D01*
X196378628Y-155466666D02*
X196378628Y-155085714D01*
X196854819Y-156609523D02*
X196854819Y-156038095D01*
X196854819Y-156323809D02*
X195854819Y-156323809D01*
X195854819Y-156323809D02*
X195997676Y-156228571D01*
X195997676Y-156228571D02*
X196092914Y-156133333D01*
X196092914Y-156133333D02*
X196140533Y-156038095D01*
X195854819Y-156942857D02*
X195854819Y-157609523D01*
X195854819Y-157609523D02*
X196854819Y-157180952D01*
X140359580Y-106257142D02*
X140407200Y-106209523D01*
X140407200Y-106209523D02*
X140454819Y-106066666D01*
X140454819Y-106066666D02*
X140454819Y-105971428D01*
X140454819Y-105971428D02*
X140407200Y-105828571D01*
X140407200Y-105828571D02*
X140311961Y-105733333D01*
X140311961Y-105733333D02*
X140216723Y-105685714D01*
X140216723Y-105685714D02*
X140026247Y-105638095D01*
X140026247Y-105638095D02*
X139883390Y-105638095D01*
X139883390Y-105638095D02*
X139692914Y-105685714D01*
X139692914Y-105685714D02*
X139597676Y-105733333D01*
X139597676Y-105733333D02*
X139502438Y-105828571D01*
X139502438Y-105828571D02*
X139454819Y-105971428D01*
X139454819Y-105971428D02*
X139454819Y-106066666D01*
X139454819Y-106066666D02*
X139502438Y-106209523D01*
X139502438Y-106209523D02*
X139550057Y-106257142D01*
X140454819Y-107209523D02*
X140454819Y-106638095D01*
X140454819Y-106923809D02*
X139454819Y-106923809D01*
X139454819Y-106923809D02*
X139597676Y-106828571D01*
X139597676Y-106828571D02*
X139692914Y-106733333D01*
X139692914Y-106733333D02*
X139740533Y-106638095D01*
X139454819Y-107828571D02*
X139454819Y-107923809D01*
X139454819Y-107923809D02*
X139502438Y-108019047D01*
X139502438Y-108019047D02*
X139550057Y-108066666D01*
X139550057Y-108066666D02*
X139645295Y-108114285D01*
X139645295Y-108114285D02*
X139835771Y-108161904D01*
X139835771Y-108161904D02*
X140073866Y-108161904D01*
X140073866Y-108161904D02*
X140264342Y-108114285D01*
X140264342Y-108114285D02*
X140359580Y-108066666D01*
X140359580Y-108066666D02*
X140407200Y-108019047D01*
X140407200Y-108019047D02*
X140454819Y-107923809D01*
X140454819Y-107923809D02*
X140454819Y-107828571D01*
X140454819Y-107828571D02*
X140407200Y-107733333D01*
X140407200Y-107733333D02*
X140359580Y-107685714D01*
X140359580Y-107685714D02*
X140264342Y-107638095D01*
X140264342Y-107638095D02*
X140073866Y-107590476D01*
X140073866Y-107590476D02*
X139835771Y-107590476D01*
X139835771Y-107590476D02*
X139645295Y-107638095D01*
X139645295Y-107638095D02*
X139550057Y-107685714D01*
X139550057Y-107685714D02*
X139502438Y-107733333D01*
X139502438Y-107733333D02*
X139454819Y-107828571D01*
X86259580Y-155807142D02*
X86307200Y-155759523D01*
X86307200Y-155759523D02*
X86354819Y-155616666D01*
X86354819Y-155616666D02*
X86354819Y-155521428D01*
X86354819Y-155521428D02*
X86307200Y-155378571D01*
X86307200Y-155378571D02*
X86211961Y-155283333D01*
X86211961Y-155283333D02*
X86116723Y-155235714D01*
X86116723Y-155235714D02*
X85926247Y-155188095D01*
X85926247Y-155188095D02*
X85783390Y-155188095D01*
X85783390Y-155188095D02*
X85592914Y-155235714D01*
X85592914Y-155235714D02*
X85497676Y-155283333D01*
X85497676Y-155283333D02*
X85402438Y-155378571D01*
X85402438Y-155378571D02*
X85354819Y-155521428D01*
X85354819Y-155521428D02*
X85354819Y-155616666D01*
X85354819Y-155616666D02*
X85402438Y-155759523D01*
X85402438Y-155759523D02*
X85450057Y-155807142D01*
X85354819Y-156140476D02*
X85354819Y-156807142D01*
X85354819Y-156807142D02*
X86354819Y-156378571D01*
X85450057Y-157140476D02*
X85402438Y-157188095D01*
X85402438Y-157188095D02*
X85354819Y-157283333D01*
X85354819Y-157283333D02*
X85354819Y-157521428D01*
X85354819Y-157521428D02*
X85402438Y-157616666D01*
X85402438Y-157616666D02*
X85450057Y-157664285D01*
X85450057Y-157664285D02*
X85545295Y-157711904D01*
X85545295Y-157711904D02*
X85640533Y-157711904D01*
X85640533Y-157711904D02*
X85783390Y-157664285D01*
X85783390Y-157664285D02*
X86354819Y-157092857D01*
X86354819Y-157092857D02*
X86354819Y-157711904D01*
X198084580Y-155657142D02*
X198132200Y-155609523D01*
X198132200Y-155609523D02*
X198179819Y-155466666D01*
X198179819Y-155466666D02*
X198179819Y-155371428D01*
X198179819Y-155371428D02*
X198132200Y-155228571D01*
X198132200Y-155228571D02*
X198036961Y-155133333D01*
X198036961Y-155133333D02*
X197941723Y-155085714D01*
X197941723Y-155085714D02*
X197751247Y-155038095D01*
X197751247Y-155038095D02*
X197608390Y-155038095D01*
X197608390Y-155038095D02*
X197417914Y-155085714D01*
X197417914Y-155085714D02*
X197322676Y-155133333D01*
X197322676Y-155133333D02*
X197227438Y-155228571D01*
X197227438Y-155228571D02*
X197179819Y-155371428D01*
X197179819Y-155371428D02*
X197179819Y-155466666D01*
X197179819Y-155466666D02*
X197227438Y-155609523D01*
X197227438Y-155609523D02*
X197275057Y-155657142D01*
X197179819Y-156514285D02*
X197179819Y-156323809D01*
X197179819Y-156323809D02*
X197227438Y-156228571D01*
X197227438Y-156228571D02*
X197275057Y-156180952D01*
X197275057Y-156180952D02*
X197417914Y-156085714D01*
X197417914Y-156085714D02*
X197608390Y-156038095D01*
X197608390Y-156038095D02*
X197989342Y-156038095D01*
X197989342Y-156038095D02*
X198084580Y-156085714D01*
X198084580Y-156085714D02*
X198132200Y-156133333D01*
X198132200Y-156133333D02*
X198179819Y-156228571D01*
X198179819Y-156228571D02*
X198179819Y-156419047D01*
X198179819Y-156419047D02*
X198132200Y-156514285D01*
X198132200Y-156514285D02*
X198084580Y-156561904D01*
X198084580Y-156561904D02*
X197989342Y-156609523D01*
X197989342Y-156609523D02*
X197751247Y-156609523D01*
X197751247Y-156609523D02*
X197656009Y-156561904D01*
X197656009Y-156561904D02*
X197608390Y-156514285D01*
X197608390Y-156514285D02*
X197560771Y-156419047D01*
X197560771Y-156419047D02*
X197560771Y-156228571D01*
X197560771Y-156228571D02*
X197608390Y-156133333D01*
X197608390Y-156133333D02*
X197656009Y-156085714D01*
X197656009Y-156085714D02*
X197751247Y-156038095D01*
X197179819Y-156942857D02*
X197179819Y-157609523D01*
X197179819Y-157609523D02*
X198179819Y-157180952D01*
X130849964Y-98236789D02*
X130897583Y-98284409D01*
X130897583Y-98284409D02*
X131040440Y-98332028D01*
X131040440Y-98332028D02*
X131135678Y-98332028D01*
X131135678Y-98332028D02*
X131278535Y-98284409D01*
X131278535Y-98284409D02*
X131373773Y-98189170D01*
X131373773Y-98189170D02*
X131421392Y-98093932D01*
X131421392Y-98093932D02*
X131469011Y-97903456D01*
X131469011Y-97903456D02*
X131469011Y-97760599D01*
X131469011Y-97760599D02*
X131421392Y-97570123D01*
X131421392Y-97570123D02*
X131373773Y-97474885D01*
X131373773Y-97474885D02*
X131278535Y-97379647D01*
X131278535Y-97379647D02*
X131135678Y-97332028D01*
X131135678Y-97332028D02*
X131040440Y-97332028D01*
X131040440Y-97332028D02*
X130897583Y-97379647D01*
X130897583Y-97379647D02*
X130849964Y-97427266D01*
X130469011Y-97427266D02*
X130421392Y-97379647D01*
X130421392Y-97379647D02*
X130326154Y-97332028D01*
X130326154Y-97332028D02*
X130088059Y-97332028D01*
X130088059Y-97332028D02*
X129992821Y-97379647D01*
X129992821Y-97379647D02*
X129945202Y-97427266D01*
X129945202Y-97427266D02*
X129897583Y-97522504D01*
X129897583Y-97522504D02*
X129897583Y-97617742D01*
X129897583Y-97617742D02*
X129945202Y-97760599D01*
X129945202Y-97760599D02*
X130516630Y-98332028D01*
X130516630Y-98332028D02*
X129897583Y-98332028D01*
X129278535Y-97332028D02*
X129183297Y-97332028D01*
X129183297Y-97332028D02*
X129088059Y-97379647D01*
X129088059Y-97379647D02*
X129040440Y-97427266D01*
X129040440Y-97427266D02*
X128992821Y-97522504D01*
X128992821Y-97522504D02*
X128945202Y-97712980D01*
X128945202Y-97712980D02*
X128945202Y-97951075D01*
X128945202Y-97951075D02*
X128992821Y-98141551D01*
X128992821Y-98141551D02*
X129040440Y-98236789D01*
X129040440Y-98236789D02*
X129088059Y-98284409D01*
X129088059Y-98284409D02*
X129183297Y-98332028D01*
X129183297Y-98332028D02*
X129278535Y-98332028D01*
X129278535Y-98332028D02*
X129373773Y-98284409D01*
X129373773Y-98284409D02*
X129421392Y-98236789D01*
X129421392Y-98236789D02*
X129469011Y-98141551D01*
X129469011Y-98141551D02*
X129516630Y-97951075D01*
X129516630Y-97951075D02*
X129516630Y-97712980D01*
X129516630Y-97712980D02*
X129469011Y-97522504D01*
X129469011Y-97522504D02*
X129421392Y-97427266D01*
X129421392Y-97427266D02*
X129373773Y-97379647D01*
X129373773Y-97379647D02*
X129278535Y-97332028D01*
X141559580Y-106857142D02*
X141607200Y-106809523D01*
X141607200Y-106809523D02*
X141654819Y-106666666D01*
X141654819Y-106666666D02*
X141654819Y-106571428D01*
X141654819Y-106571428D02*
X141607200Y-106428571D01*
X141607200Y-106428571D02*
X141511961Y-106333333D01*
X141511961Y-106333333D02*
X141416723Y-106285714D01*
X141416723Y-106285714D02*
X141226247Y-106238095D01*
X141226247Y-106238095D02*
X141083390Y-106238095D01*
X141083390Y-106238095D02*
X140892914Y-106285714D01*
X140892914Y-106285714D02*
X140797676Y-106333333D01*
X140797676Y-106333333D02*
X140702438Y-106428571D01*
X140702438Y-106428571D02*
X140654819Y-106571428D01*
X140654819Y-106571428D02*
X140654819Y-106666666D01*
X140654819Y-106666666D02*
X140702438Y-106809523D01*
X140702438Y-106809523D02*
X140750057Y-106857142D01*
X140654819Y-107190476D02*
X140654819Y-107809523D01*
X140654819Y-107809523D02*
X141035771Y-107476190D01*
X141035771Y-107476190D02*
X141035771Y-107619047D01*
X141035771Y-107619047D02*
X141083390Y-107714285D01*
X141083390Y-107714285D02*
X141131009Y-107761904D01*
X141131009Y-107761904D02*
X141226247Y-107809523D01*
X141226247Y-107809523D02*
X141464342Y-107809523D01*
X141464342Y-107809523D02*
X141559580Y-107761904D01*
X141559580Y-107761904D02*
X141607200Y-107714285D01*
X141607200Y-107714285D02*
X141654819Y-107619047D01*
X141654819Y-107619047D02*
X141654819Y-107333333D01*
X141654819Y-107333333D02*
X141607200Y-107238095D01*
X141607200Y-107238095D02*
X141559580Y-107190476D01*
X140750057Y-108190476D02*
X140702438Y-108238095D01*
X140702438Y-108238095D02*
X140654819Y-108333333D01*
X140654819Y-108333333D02*
X140654819Y-108571428D01*
X140654819Y-108571428D02*
X140702438Y-108666666D01*
X140702438Y-108666666D02*
X140750057Y-108714285D01*
X140750057Y-108714285D02*
X140845295Y-108761904D01*
X140845295Y-108761904D02*
X140940533Y-108761904D01*
X140940533Y-108761904D02*
X141083390Y-108714285D01*
X141083390Y-108714285D02*
X141654819Y-108142857D01*
X141654819Y-108142857D02*
X141654819Y-108761904D01*
X141549580Y-155757142D02*
X141597200Y-155709523D01*
X141597200Y-155709523D02*
X141644819Y-155566666D01*
X141644819Y-155566666D02*
X141644819Y-155471428D01*
X141644819Y-155471428D02*
X141597200Y-155328571D01*
X141597200Y-155328571D02*
X141501961Y-155233333D01*
X141501961Y-155233333D02*
X141406723Y-155185714D01*
X141406723Y-155185714D02*
X141216247Y-155138095D01*
X141216247Y-155138095D02*
X141073390Y-155138095D01*
X141073390Y-155138095D02*
X140882914Y-155185714D01*
X140882914Y-155185714D02*
X140787676Y-155233333D01*
X140787676Y-155233333D02*
X140692438Y-155328571D01*
X140692438Y-155328571D02*
X140644819Y-155471428D01*
X140644819Y-155471428D02*
X140644819Y-155566666D01*
X140644819Y-155566666D02*
X140692438Y-155709523D01*
X140692438Y-155709523D02*
X140740057Y-155757142D01*
X140644819Y-156614285D02*
X140644819Y-156423809D01*
X140644819Y-156423809D02*
X140692438Y-156328571D01*
X140692438Y-156328571D02*
X140740057Y-156280952D01*
X140740057Y-156280952D02*
X140882914Y-156185714D01*
X140882914Y-156185714D02*
X141073390Y-156138095D01*
X141073390Y-156138095D02*
X141454342Y-156138095D01*
X141454342Y-156138095D02*
X141549580Y-156185714D01*
X141549580Y-156185714D02*
X141597200Y-156233333D01*
X141597200Y-156233333D02*
X141644819Y-156328571D01*
X141644819Y-156328571D02*
X141644819Y-156519047D01*
X141644819Y-156519047D02*
X141597200Y-156614285D01*
X141597200Y-156614285D02*
X141549580Y-156661904D01*
X141549580Y-156661904D02*
X141454342Y-156709523D01*
X141454342Y-156709523D02*
X141216247Y-156709523D01*
X141216247Y-156709523D02*
X141121009Y-156661904D01*
X141121009Y-156661904D02*
X141073390Y-156614285D01*
X141073390Y-156614285D02*
X141025771Y-156519047D01*
X141025771Y-156519047D02*
X141025771Y-156328571D01*
X141025771Y-156328571D02*
X141073390Y-156233333D01*
X141073390Y-156233333D02*
X141121009Y-156185714D01*
X141121009Y-156185714D02*
X141216247Y-156138095D01*
X140978152Y-157566666D02*
X141644819Y-157566666D01*
X140597200Y-157328571D02*
X141311485Y-157090476D01*
X141311485Y-157090476D02*
X141311485Y-157709523D01*
X148659580Y-106157142D02*
X148707200Y-106109523D01*
X148707200Y-106109523D02*
X148754819Y-105966666D01*
X148754819Y-105966666D02*
X148754819Y-105871428D01*
X148754819Y-105871428D02*
X148707200Y-105728571D01*
X148707200Y-105728571D02*
X148611961Y-105633333D01*
X148611961Y-105633333D02*
X148516723Y-105585714D01*
X148516723Y-105585714D02*
X148326247Y-105538095D01*
X148326247Y-105538095D02*
X148183390Y-105538095D01*
X148183390Y-105538095D02*
X147992914Y-105585714D01*
X147992914Y-105585714D02*
X147897676Y-105633333D01*
X147897676Y-105633333D02*
X147802438Y-105728571D01*
X147802438Y-105728571D02*
X147754819Y-105871428D01*
X147754819Y-105871428D02*
X147754819Y-105966666D01*
X147754819Y-105966666D02*
X147802438Y-106109523D01*
X147802438Y-106109523D02*
X147850057Y-106157142D01*
X148754819Y-107109523D02*
X148754819Y-106538095D01*
X148754819Y-106823809D02*
X147754819Y-106823809D01*
X147754819Y-106823809D02*
X147897676Y-106728571D01*
X147897676Y-106728571D02*
X147992914Y-106633333D01*
X147992914Y-106633333D02*
X148040533Y-106538095D01*
X147850057Y-107490476D02*
X147802438Y-107538095D01*
X147802438Y-107538095D02*
X147754819Y-107633333D01*
X147754819Y-107633333D02*
X147754819Y-107871428D01*
X147754819Y-107871428D02*
X147802438Y-107966666D01*
X147802438Y-107966666D02*
X147850057Y-108014285D01*
X147850057Y-108014285D02*
X147945295Y-108061904D01*
X147945295Y-108061904D02*
X148040533Y-108061904D01*
X148040533Y-108061904D02*
X148183390Y-108014285D01*
X148183390Y-108014285D02*
X148754819Y-107442857D01*
X148754819Y-107442857D02*
X148754819Y-108061904D01*
X150209580Y-79333333D02*
X150257200Y-79285714D01*
X150257200Y-79285714D02*
X150304819Y-79142857D01*
X150304819Y-79142857D02*
X150304819Y-79047619D01*
X150304819Y-79047619D02*
X150257200Y-78904762D01*
X150257200Y-78904762D02*
X150161961Y-78809524D01*
X150161961Y-78809524D02*
X150066723Y-78761905D01*
X150066723Y-78761905D02*
X149876247Y-78714286D01*
X149876247Y-78714286D02*
X149733390Y-78714286D01*
X149733390Y-78714286D02*
X149542914Y-78761905D01*
X149542914Y-78761905D02*
X149447676Y-78809524D01*
X149447676Y-78809524D02*
X149352438Y-78904762D01*
X149352438Y-78904762D02*
X149304819Y-79047619D01*
X149304819Y-79047619D02*
X149304819Y-79142857D01*
X149304819Y-79142857D02*
X149352438Y-79285714D01*
X149352438Y-79285714D02*
X149400057Y-79333333D01*
X149400057Y-79714286D02*
X149352438Y-79761905D01*
X149352438Y-79761905D02*
X149304819Y-79857143D01*
X149304819Y-79857143D02*
X149304819Y-80095238D01*
X149304819Y-80095238D02*
X149352438Y-80190476D01*
X149352438Y-80190476D02*
X149400057Y-80238095D01*
X149400057Y-80238095D02*
X149495295Y-80285714D01*
X149495295Y-80285714D02*
X149590533Y-80285714D01*
X149590533Y-80285714D02*
X149733390Y-80238095D01*
X149733390Y-80238095D02*
X150304819Y-79666667D01*
X150304819Y-79666667D02*
X150304819Y-80285714D01*
X166809580Y-86857142D02*
X166857200Y-86809523D01*
X166857200Y-86809523D02*
X166904819Y-86666666D01*
X166904819Y-86666666D02*
X166904819Y-86571428D01*
X166904819Y-86571428D02*
X166857200Y-86428571D01*
X166857200Y-86428571D02*
X166761961Y-86333333D01*
X166761961Y-86333333D02*
X166666723Y-86285714D01*
X166666723Y-86285714D02*
X166476247Y-86238095D01*
X166476247Y-86238095D02*
X166333390Y-86238095D01*
X166333390Y-86238095D02*
X166142914Y-86285714D01*
X166142914Y-86285714D02*
X166047676Y-86333333D01*
X166047676Y-86333333D02*
X165952438Y-86428571D01*
X165952438Y-86428571D02*
X165904819Y-86571428D01*
X165904819Y-86571428D02*
X165904819Y-86666666D01*
X165904819Y-86666666D02*
X165952438Y-86809523D01*
X165952438Y-86809523D02*
X166000057Y-86857142D01*
X166000057Y-87238095D02*
X165952438Y-87285714D01*
X165952438Y-87285714D02*
X165904819Y-87380952D01*
X165904819Y-87380952D02*
X165904819Y-87619047D01*
X165904819Y-87619047D02*
X165952438Y-87714285D01*
X165952438Y-87714285D02*
X166000057Y-87761904D01*
X166000057Y-87761904D02*
X166095295Y-87809523D01*
X166095295Y-87809523D02*
X166190533Y-87809523D01*
X166190533Y-87809523D02*
X166333390Y-87761904D01*
X166333390Y-87761904D02*
X166904819Y-87190476D01*
X166904819Y-87190476D02*
X166904819Y-87809523D01*
X165904819Y-88142857D02*
X165904819Y-88809523D01*
X165904819Y-88809523D02*
X166904819Y-88380952D01*
X125392857Y-94109580D02*
X125440476Y-94157200D01*
X125440476Y-94157200D02*
X125583333Y-94204819D01*
X125583333Y-94204819D02*
X125678571Y-94204819D01*
X125678571Y-94204819D02*
X125821428Y-94157200D01*
X125821428Y-94157200D02*
X125916666Y-94061961D01*
X125916666Y-94061961D02*
X125964285Y-93966723D01*
X125964285Y-93966723D02*
X126011904Y-93776247D01*
X126011904Y-93776247D02*
X126011904Y-93633390D01*
X126011904Y-93633390D02*
X125964285Y-93442914D01*
X125964285Y-93442914D02*
X125916666Y-93347676D01*
X125916666Y-93347676D02*
X125821428Y-93252438D01*
X125821428Y-93252438D02*
X125678571Y-93204819D01*
X125678571Y-93204819D02*
X125583333Y-93204819D01*
X125583333Y-93204819D02*
X125440476Y-93252438D01*
X125440476Y-93252438D02*
X125392857Y-93300057D01*
X125059523Y-93204819D02*
X124440476Y-93204819D01*
X124440476Y-93204819D02*
X124773809Y-93585771D01*
X124773809Y-93585771D02*
X124630952Y-93585771D01*
X124630952Y-93585771D02*
X124535714Y-93633390D01*
X124535714Y-93633390D02*
X124488095Y-93681009D01*
X124488095Y-93681009D02*
X124440476Y-93776247D01*
X124440476Y-93776247D02*
X124440476Y-94014342D01*
X124440476Y-94014342D02*
X124488095Y-94109580D01*
X124488095Y-94109580D02*
X124535714Y-94157200D01*
X124535714Y-94157200D02*
X124630952Y-94204819D01*
X124630952Y-94204819D02*
X124916666Y-94204819D01*
X124916666Y-94204819D02*
X125011904Y-94157200D01*
X125011904Y-94157200D02*
X125059523Y-94109580D01*
X124107142Y-93204819D02*
X123440476Y-93204819D01*
X123440476Y-93204819D02*
X123869047Y-94204819D01*
X229269580Y-136547142D02*
X229317200Y-136499523D01*
X229317200Y-136499523D02*
X229364819Y-136356666D01*
X229364819Y-136356666D02*
X229364819Y-136261428D01*
X229364819Y-136261428D02*
X229317200Y-136118571D01*
X229317200Y-136118571D02*
X229221961Y-136023333D01*
X229221961Y-136023333D02*
X229126723Y-135975714D01*
X229126723Y-135975714D02*
X228936247Y-135928095D01*
X228936247Y-135928095D02*
X228793390Y-135928095D01*
X228793390Y-135928095D02*
X228602914Y-135975714D01*
X228602914Y-135975714D02*
X228507676Y-136023333D01*
X228507676Y-136023333D02*
X228412438Y-136118571D01*
X228412438Y-136118571D02*
X228364819Y-136261428D01*
X228364819Y-136261428D02*
X228364819Y-136356666D01*
X228364819Y-136356666D02*
X228412438Y-136499523D01*
X228412438Y-136499523D02*
X228460057Y-136547142D01*
X228364819Y-137451904D02*
X228364819Y-136975714D01*
X228364819Y-136975714D02*
X228841009Y-136928095D01*
X228841009Y-136928095D02*
X228793390Y-136975714D01*
X228793390Y-136975714D02*
X228745771Y-137070952D01*
X228745771Y-137070952D02*
X228745771Y-137309047D01*
X228745771Y-137309047D02*
X228793390Y-137404285D01*
X228793390Y-137404285D02*
X228841009Y-137451904D01*
X228841009Y-137451904D02*
X228936247Y-137499523D01*
X228936247Y-137499523D02*
X229174342Y-137499523D01*
X229174342Y-137499523D02*
X229269580Y-137451904D01*
X229269580Y-137451904D02*
X229317200Y-137404285D01*
X229317200Y-137404285D02*
X229364819Y-137309047D01*
X229364819Y-137309047D02*
X229364819Y-137070952D01*
X229364819Y-137070952D02*
X229317200Y-136975714D01*
X229317200Y-136975714D02*
X229269580Y-136928095D01*
X229364819Y-137975714D02*
X229364819Y-138166190D01*
X229364819Y-138166190D02*
X229317200Y-138261428D01*
X229317200Y-138261428D02*
X229269580Y-138309047D01*
X229269580Y-138309047D02*
X229126723Y-138404285D01*
X229126723Y-138404285D02*
X228936247Y-138451904D01*
X228936247Y-138451904D02*
X228555295Y-138451904D01*
X228555295Y-138451904D02*
X228460057Y-138404285D01*
X228460057Y-138404285D02*
X228412438Y-138356666D01*
X228412438Y-138356666D02*
X228364819Y-138261428D01*
X228364819Y-138261428D02*
X228364819Y-138070952D01*
X228364819Y-138070952D02*
X228412438Y-137975714D01*
X228412438Y-137975714D02*
X228460057Y-137928095D01*
X228460057Y-137928095D02*
X228555295Y-137880476D01*
X228555295Y-137880476D02*
X228793390Y-137880476D01*
X228793390Y-137880476D02*
X228888628Y-137928095D01*
X228888628Y-137928095D02*
X228936247Y-137975714D01*
X228936247Y-137975714D02*
X228983866Y-138070952D01*
X228983866Y-138070952D02*
X228983866Y-138261428D01*
X228983866Y-138261428D02*
X228936247Y-138356666D01*
X228936247Y-138356666D02*
X228888628Y-138404285D01*
X228888628Y-138404285D02*
X228793390Y-138451904D01*
X139154819Y-66457143D02*
X138678628Y-66123810D01*
X139154819Y-65885715D02*
X138154819Y-65885715D01*
X138154819Y-65885715D02*
X138154819Y-66266667D01*
X138154819Y-66266667D02*
X138202438Y-66361905D01*
X138202438Y-66361905D02*
X138250057Y-66409524D01*
X138250057Y-66409524D02*
X138345295Y-66457143D01*
X138345295Y-66457143D02*
X138488152Y-66457143D01*
X138488152Y-66457143D02*
X138583390Y-66409524D01*
X138583390Y-66409524D02*
X138631009Y-66361905D01*
X138631009Y-66361905D02*
X138678628Y-66266667D01*
X138678628Y-66266667D02*
X138678628Y-65885715D01*
X138154819Y-67314286D02*
X138154819Y-67123810D01*
X138154819Y-67123810D02*
X138202438Y-67028572D01*
X138202438Y-67028572D02*
X138250057Y-66980953D01*
X138250057Y-66980953D02*
X138392914Y-66885715D01*
X138392914Y-66885715D02*
X138583390Y-66838096D01*
X138583390Y-66838096D02*
X138964342Y-66838096D01*
X138964342Y-66838096D02*
X139059580Y-66885715D01*
X139059580Y-66885715D02*
X139107200Y-66933334D01*
X139107200Y-66933334D02*
X139154819Y-67028572D01*
X139154819Y-67028572D02*
X139154819Y-67219048D01*
X139154819Y-67219048D02*
X139107200Y-67314286D01*
X139107200Y-67314286D02*
X139059580Y-67361905D01*
X139059580Y-67361905D02*
X138964342Y-67409524D01*
X138964342Y-67409524D02*
X138726247Y-67409524D01*
X138726247Y-67409524D02*
X138631009Y-67361905D01*
X138631009Y-67361905D02*
X138583390Y-67314286D01*
X138583390Y-67314286D02*
X138535771Y-67219048D01*
X138535771Y-67219048D02*
X138535771Y-67028572D01*
X138535771Y-67028572D02*
X138583390Y-66933334D01*
X138583390Y-66933334D02*
X138631009Y-66885715D01*
X138631009Y-66885715D02*
X138726247Y-66838096D01*
X141166666Y-85554819D02*
X141499999Y-85078628D01*
X141738094Y-85554819D02*
X141738094Y-84554819D01*
X141738094Y-84554819D02*
X141357142Y-84554819D01*
X141357142Y-84554819D02*
X141261904Y-84602438D01*
X141261904Y-84602438D02*
X141214285Y-84650057D01*
X141214285Y-84650057D02*
X141166666Y-84745295D01*
X141166666Y-84745295D02*
X141166666Y-84888152D01*
X141166666Y-84888152D02*
X141214285Y-84983390D01*
X141214285Y-84983390D02*
X141261904Y-85031009D01*
X141261904Y-85031009D02*
X141357142Y-85078628D01*
X141357142Y-85078628D02*
X141738094Y-85078628D01*
X140785713Y-84650057D02*
X140738094Y-84602438D01*
X140738094Y-84602438D02*
X140642856Y-84554819D01*
X140642856Y-84554819D02*
X140404761Y-84554819D01*
X140404761Y-84554819D02*
X140309523Y-84602438D01*
X140309523Y-84602438D02*
X140261904Y-84650057D01*
X140261904Y-84650057D02*
X140214285Y-84745295D01*
X140214285Y-84745295D02*
X140214285Y-84840533D01*
X140214285Y-84840533D02*
X140261904Y-84983390D01*
X140261904Y-84983390D02*
X140833332Y-85554819D01*
X140833332Y-85554819D02*
X140214285Y-85554819D01*
X138042857Y-83359580D02*
X138090476Y-83407200D01*
X138090476Y-83407200D02*
X138233333Y-83454819D01*
X138233333Y-83454819D02*
X138328571Y-83454819D01*
X138328571Y-83454819D02*
X138471428Y-83407200D01*
X138471428Y-83407200D02*
X138566666Y-83311961D01*
X138566666Y-83311961D02*
X138614285Y-83216723D01*
X138614285Y-83216723D02*
X138661904Y-83026247D01*
X138661904Y-83026247D02*
X138661904Y-82883390D01*
X138661904Y-82883390D02*
X138614285Y-82692914D01*
X138614285Y-82692914D02*
X138566666Y-82597676D01*
X138566666Y-82597676D02*
X138471428Y-82502438D01*
X138471428Y-82502438D02*
X138328571Y-82454819D01*
X138328571Y-82454819D02*
X138233333Y-82454819D01*
X138233333Y-82454819D02*
X138090476Y-82502438D01*
X138090476Y-82502438D02*
X138042857Y-82550057D01*
X137090476Y-83454819D02*
X137661904Y-83454819D01*
X137376190Y-83454819D02*
X137376190Y-82454819D01*
X137376190Y-82454819D02*
X137471428Y-82597676D01*
X137471428Y-82597676D02*
X137566666Y-82692914D01*
X137566666Y-82692914D02*
X137661904Y-82740533D01*
X136233333Y-82788152D02*
X136233333Y-83454819D01*
X136471428Y-82407200D02*
X136709523Y-83121485D01*
X136709523Y-83121485D02*
X136090476Y-83121485D01*
X145042857Y-83359580D02*
X145090476Y-83407200D01*
X145090476Y-83407200D02*
X145233333Y-83454819D01*
X145233333Y-83454819D02*
X145328571Y-83454819D01*
X145328571Y-83454819D02*
X145471428Y-83407200D01*
X145471428Y-83407200D02*
X145566666Y-83311961D01*
X145566666Y-83311961D02*
X145614285Y-83216723D01*
X145614285Y-83216723D02*
X145661904Y-83026247D01*
X145661904Y-83026247D02*
X145661904Y-82883390D01*
X145661904Y-82883390D02*
X145614285Y-82692914D01*
X145614285Y-82692914D02*
X145566666Y-82597676D01*
X145566666Y-82597676D02*
X145471428Y-82502438D01*
X145471428Y-82502438D02*
X145328571Y-82454819D01*
X145328571Y-82454819D02*
X145233333Y-82454819D01*
X145233333Y-82454819D02*
X145090476Y-82502438D01*
X145090476Y-82502438D02*
X145042857Y-82550057D01*
X144090476Y-83454819D02*
X144661904Y-83454819D01*
X144376190Y-83454819D02*
X144376190Y-82454819D01*
X144376190Y-82454819D02*
X144471428Y-82597676D01*
X144471428Y-82597676D02*
X144566666Y-82692914D01*
X144566666Y-82692914D02*
X144661904Y-82740533D01*
X143757142Y-82454819D02*
X143138095Y-82454819D01*
X143138095Y-82454819D02*
X143471428Y-82835771D01*
X143471428Y-82835771D02*
X143328571Y-82835771D01*
X143328571Y-82835771D02*
X143233333Y-82883390D01*
X143233333Y-82883390D02*
X143185714Y-82931009D01*
X143185714Y-82931009D02*
X143138095Y-83026247D01*
X143138095Y-83026247D02*
X143138095Y-83264342D01*
X143138095Y-83264342D02*
X143185714Y-83359580D01*
X143185714Y-83359580D02*
X143233333Y-83407200D01*
X143233333Y-83407200D02*
X143328571Y-83454819D01*
X143328571Y-83454819D02*
X143614285Y-83454819D01*
X143614285Y-83454819D02*
X143709523Y-83407200D01*
X143709523Y-83407200D02*
X143757142Y-83359580D01*
X125392857Y-96509580D02*
X125440476Y-96557200D01*
X125440476Y-96557200D02*
X125583333Y-96604819D01*
X125583333Y-96604819D02*
X125678571Y-96604819D01*
X125678571Y-96604819D02*
X125821428Y-96557200D01*
X125821428Y-96557200D02*
X125916666Y-96461961D01*
X125916666Y-96461961D02*
X125964285Y-96366723D01*
X125964285Y-96366723D02*
X126011904Y-96176247D01*
X126011904Y-96176247D02*
X126011904Y-96033390D01*
X126011904Y-96033390D02*
X125964285Y-95842914D01*
X125964285Y-95842914D02*
X125916666Y-95747676D01*
X125916666Y-95747676D02*
X125821428Y-95652438D01*
X125821428Y-95652438D02*
X125678571Y-95604819D01*
X125678571Y-95604819D02*
X125583333Y-95604819D01*
X125583333Y-95604819D02*
X125440476Y-95652438D01*
X125440476Y-95652438D02*
X125392857Y-95700057D01*
X125059523Y-95604819D02*
X124440476Y-95604819D01*
X124440476Y-95604819D02*
X124773809Y-95985771D01*
X124773809Y-95985771D02*
X124630952Y-95985771D01*
X124630952Y-95985771D02*
X124535714Y-96033390D01*
X124535714Y-96033390D02*
X124488095Y-96081009D01*
X124488095Y-96081009D02*
X124440476Y-96176247D01*
X124440476Y-96176247D02*
X124440476Y-96414342D01*
X124440476Y-96414342D02*
X124488095Y-96509580D01*
X124488095Y-96509580D02*
X124535714Y-96557200D01*
X124535714Y-96557200D02*
X124630952Y-96604819D01*
X124630952Y-96604819D02*
X124916666Y-96604819D01*
X124916666Y-96604819D02*
X125011904Y-96557200D01*
X125011904Y-96557200D02*
X125059523Y-96509580D01*
X123821428Y-95604819D02*
X123726190Y-95604819D01*
X123726190Y-95604819D02*
X123630952Y-95652438D01*
X123630952Y-95652438D02*
X123583333Y-95700057D01*
X123583333Y-95700057D02*
X123535714Y-95795295D01*
X123535714Y-95795295D02*
X123488095Y-95985771D01*
X123488095Y-95985771D02*
X123488095Y-96223866D01*
X123488095Y-96223866D02*
X123535714Y-96414342D01*
X123535714Y-96414342D02*
X123583333Y-96509580D01*
X123583333Y-96509580D02*
X123630952Y-96557200D01*
X123630952Y-96557200D02*
X123726190Y-96604819D01*
X123726190Y-96604819D02*
X123821428Y-96604819D01*
X123821428Y-96604819D02*
X123916666Y-96557200D01*
X123916666Y-96557200D02*
X123964285Y-96509580D01*
X123964285Y-96509580D02*
X124011904Y-96414342D01*
X124011904Y-96414342D02*
X124059523Y-96223866D01*
X124059523Y-96223866D02*
X124059523Y-95985771D01*
X124059523Y-95985771D02*
X124011904Y-95795295D01*
X124011904Y-95795295D02*
X123964285Y-95700057D01*
X123964285Y-95700057D02*
X123916666Y-95652438D01*
X123916666Y-95652438D02*
X123821428Y-95604819D01*
X142859580Y-155757142D02*
X142907200Y-155709523D01*
X142907200Y-155709523D02*
X142954819Y-155566666D01*
X142954819Y-155566666D02*
X142954819Y-155471428D01*
X142954819Y-155471428D02*
X142907200Y-155328571D01*
X142907200Y-155328571D02*
X142811961Y-155233333D01*
X142811961Y-155233333D02*
X142716723Y-155185714D01*
X142716723Y-155185714D02*
X142526247Y-155138095D01*
X142526247Y-155138095D02*
X142383390Y-155138095D01*
X142383390Y-155138095D02*
X142192914Y-155185714D01*
X142192914Y-155185714D02*
X142097676Y-155233333D01*
X142097676Y-155233333D02*
X142002438Y-155328571D01*
X142002438Y-155328571D02*
X141954819Y-155471428D01*
X141954819Y-155471428D02*
X141954819Y-155566666D01*
X141954819Y-155566666D02*
X142002438Y-155709523D01*
X142002438Y-155709523D02*
X142050057Y-155757142D01*
X141954819Y-156614285D02*
X141954819Y-156423809D01*
X141954819Y-156423809D02*
X142002438Y-156328571D01*
X142002438Y-156328571D02*
X142050057Y-156280952D01*
X142050057Y-156280952D02*
X142192914Y-156185714D01*
X142192914Y-156185714D02*
X142383390Y-156138095D01*
X142383390Y-156138095D02*
X142764342Y-156138095D01*
X142764342Y-156138095D02*
X142859580Y-156185714D01*
X142859580Y-156185714D02*
X142907200Y-156233333D01*
X142907200Y-156233333D02*
X142954819Y-156328571D01*
X142954819Y-156328571D02*
X142954819Y-156519047D01*
X142954819Y-156519047D02*
X142907200Y-156614285D01*
X142907200Y-156614285D02*
X142859580Y-156661904D01*
X142859580Y-156661904D02*
X142764342Y-156709523D01*
X142764342Y-156709523D02*
X142526247Y-156709523D01*
X142526247Y-156709523D02*
X142431009Y-156661904D01*
X142431009Y-156661904D02*
X142383390Y-156614285D01*
X142383390Y-156614285D02*
X142335771Y-156519047D01*
X142335771Y-156519047D02*
X142335771Y-156328571D01*
X142335771Y-156328571D02*
X142383390Y-156233333D01*
X142383390Y-156233333D02*
X142431009Y-156185714D01*
X142431009Y-156185714D02*
X142526247Y-156138095D01*
X141954819Y-157042857D02*
X141954819Y-157661904D01*
X141954819Y-157661904D02*
X142335771Y-157328571D01*
X142335771Y-157328571D02*
X142335771Y-157471428D01*
X142335771Y-157471428D02*
X142383390Y-157566666D01*
X142383390Y-157566666D02*
X142431009Y-157614285D01*
X142431009Y-157614285D02*
X142526247Y-157661904D01*
X142526247Y-157661904D02*
X142764342Y-157661904D01*
X142764342Y-157661904D02*
X142859580Y-157614285D01*
X142859580Y-157614285D02*
X142907200Y-157566666D01*
X142907200Y-157566666D02*
X142954819Y-157471428D01*
X142954819Y-157471428D02*
X142954819Y-157185714D01*
X142954819Y-157185714D02*
X142907200Y-157090476D01*
X142907200Y-157090476D02*
X142859580Y-157042857D01*
D11*
X171080333Y-156516666D02*
X171080333Y-156183333D01*
X171604143Y-156183333D02*
X170604143Y-156183333D01*
X170604143Y-156183333D02*
X170604143Y-156659523D01*
X171080333Y-157373809D02*
X171127952Y-157516666D01*
X171127952Y-157516666D02*
X171175571Y-157564285D01*
X171175571Y-157564285D02*
X171270809Y-157611904D01*
X171270809Y-157611904D02*
X171413666Y-157611904D01*
X171413666Y-157611904D02*
X171508904Y-157564285D01*
X171508904Y-157564285D02*
X171556524Y-157516666D01*
X171556524Y-157516666D02*
X171604143Y-157421428D01*
X171604143Y-157421428D02*
X171604143Y-157040476D01*
X171604143Y-157040476D02*
X170604143Y-157040476D01*
X170604143Y-157040476D02*
X170604143Y-157373809D01*
X170604143Y-157373809D02*
X170651762Y-157469047D01*
X170651762Y-157469047D02*
X170699381Y-157516666D01*
X170699381Y-157516666D02*
X170794619Y-157564285D01*
X170794619Y-157564285D02*
X170889857Y-157564285D01*
X170889857Y-157564285D02*
X170985095Y-157516666D01*
X170985095Y-157516666D02*
X171032714Y-157469047D01*
X171032714Y-157469047D02*
X171080333Y-157373809D01*
X171080333Y-157373809D02*
X171080333Y-157040476D01*
X170604143Y-157945238D02*
X170604143Y-158564285D01*
X170604143Y-158564285D02*
X170985095Y-158230952D01*
X170985095Y-158230952D02*
X170985095Y-158373809D01*
X170985095Y-158373809D02*
X171032714Y-158469047D01*
X171032714Y-158469047D02*
X171080333Y-158516666D01*
X171080333Y-158516666D02*
X171175571Y-158564285D01*
X171175571Y-158564285D02*
X171413666Y-158564285D01*
X171413666Y-158564285D02*
X171508904Y-158516666D01*
X171508904Y-158516666D02*
X171556524Y-158469047D01*
X171556524Y-158469047D02*
X171604143Y-158373809D01*
X171604143Y-158373809D02*
X171604143Y-158088095D01*
X171604143Y-158088095D02*
X171556524Y-157992857D01*
X171556524Y-157992857D02*
X171508904Y-157945238D01*
D10*
X152942857Y-88109580D02*
X152990476Y-88157200D01*
X152990476Y-88157200D02*
X153133333Y-88204819D01*
X153133333Y-88204819D02*
X153228571Y-88204819D01*
X153228571Y-88204819D02*
X153371428Y-88157200D01*
X153371428Y-88157200D02*
X153466666Y-88061961D01*
X153466666Y-88061961D02*
X153514285Y-87966723D01*
X153514285Y-87966723D02*
X153561904Y-87776247D01*
X153561904Y-87776247D02*
X153561904Y-87633390D01*
X153561904Y-87633390D02*
X153514285Y-87442914D01*
X153514285Y-87442914D02*
X153466666Y-87347676D01*
X153466666Y-87347676D02*
X153371428Y-87252438D01*
X153371428Y-87252438D02*
X153228571Y-87204819D01*
X153228571Y-87204819D02*
X153133333Y-87204819D01*
X153133333Y-87204819D02*
X152990476Y-87252438D01*
X152990476Y-87252438D02*
X152942857Y-87300057D01*
X152561904Y-87300057D02*
X152514285Y-87252438D01*
X152514285Y-87252438D02*
X152419047Y-87204819D01*
X152419047Y-87204819D02*
X152180952Y-87204819D01*
X152180952Y-87204819D02*
X152085714Y-87252438D01*
X152085714Y-87252438D02*
X152038095Y-87300057D01*
X152038095Y-87300057D02*
X151990476Y-87395295D01*
X151990476Y-87395295D02*
X151990476Y-87490533D01*
X151990476Y-87490533D02*
X152038095Y-87633390D01*
X152038095Y-87633390D02*
X152609523Y-88204819D01*
X152609523Y-88204819D02*
X151990476Y-88204819D01*
X151419047Y-87633390D02*
X151514285Y-87585771D01*
X151514285Y-87585771D02*
X151561904Y-87538152D01*
X151561904Y-87538152D02*
X151609523Y-87442914D01*
X151609523Y-87442914D02*
X151609523Y-87395295D01*
X151609523Y-87395295D02*
X151561904Y-87300057D01*
X151561904Y-87300057D02*
X151514285Y-87252438D01*
X151514285Y-87252438D02*
X151419047Y-87204819D01*
X151419047Y-87204819D02*
X151228571Y-87204819D01*
X151228571Y-87204819D02*
X151133333Y-87252438D01*
X151133333Y-87252438D02*
X151085714Y-87300057D01*
X151085714Y-87300057D02*
X151038095Y-87395295D01*
X151038095Y-87395295D02*
X151038095Y-87442914D01*
X151038095Y-87442914D02*
X151085714Y-87538152D01*
X151085714Y-87538152D02*
X151133333Y-87585771D01*
X151133333Y-87585771D02*
X151228571Y-87633390D01*
X151228571Y-87633390D02*
X151419047Y-87633390D01*
X151419047Y-87633390D02*
X151514285Y-87681009D01*
X151514285Y-87681009D02*
X151561904Y-87728628D01*
X151561904Y-87728628D02*
X151609523Y-87823866D01*
X151609523Y-87823866D02*
X151609523Y-88014342D01*
X151609523Y-88014342D02*
X151561904Y-88109580D01*
X151561904Y-88109580D02*
X151514285Y-88157200D01*
X151514285Y-88157200D02*
X151419047Y-88204819D01*
X151419047Y-88204819D02*
X151228571Y-88204819D01*
X151228571Y-88204819D02*
X151133333Y-88157200D01*
X151133333Y-88157200D02*
X151085714Y-88109580D01*
X151085714Y-88109580D02*
X151038095Y-88014342D01*
X151038095Y-88014342D02*
X151038095Y-87823866D01*
X151038095Y-87823866D02*
X151085714Y-87728628D01*
X151085714Y-87728628D02*
X151133333Y-87681009D01*
X151133333Y-87681009D02*
X151228571Y-87633390D01*
X136409580Y-78907142D02*
X136457200Y-78859523D01*
X136457200Y-78859523D02*
X136504819Y-78716666D01*
X136504819Y-78716666D02*
X136504819Y-78621428D01*
X136504819Y-78621428D02*
X136457200Y-78478571D01*
X136457200Y-78478571D02*
X136361961Y-78383333D01*
X136361961Y-78383333D02*
X136266723Y-78335714D01*
X136266723Y-78335714D02*
X136076247Y-78288095D01*
X136076247Y-78288095D02*
X135933390Y-78288095D01*
X135933390Y-78288095D02*
X135742914Y-78335714D01*
X135742914Y-78335714D02*
X135647676Y-78383333D01*
X135647676Y-78383333D02*
X135552438Y-78478571D01*
X135552438Y-78478571D02*
X135504819Y-78621428D01*
X135504819Y-78621428D02*
X135504819Y-78716666D01*
X135504819Y-78716666D02*
X135552438Y-78859523D01*
X135552438Y-78859523D02*
X135600057Y-78907142D01*
X135600057Y-79288095D02*
X135552438Y-79335714D01*
X135552438Y-79335714D02*
X135504819Y-79430952D01*
X135504819Y-79430952D02*
X135504819Y-79669047D01*
X135504819Y-79669047D02*
X135552438Y-79764285D01*
X135552438Y-79764285D02*
X135600057Y-79811904D01*
X135600057Y-79811904D02*
X135695295Y-79859523D01*
X135695295Y-79859523D02*
X135790533Y-79859523D01*
X135790533Y-79859523D02*
X135933390Y-79811904D01*
X135933390Y-79811904D02*
X136504819Y-79240476D01*
X136504819Y-79240476D02*
X136504819Y-79859523D01*
X135600057Y-80240476D02*
X135552438Y-80288095D01*
X135552438Y-80288095D02*
X135504819Y-80383333D01*
X135504819Y-80383333D02*
X135504819Y-80621428D01*
X135504819Y-80621428D02*
X135552438Y-80716666D01*
X135552438Y-80716666D02*
X135600057Y-80764285D01*
X135600057Y-80764285D02*
X135695295Y-80811904D01*
X135695295Y-80811904D02*
X135790533Y-80811904D01*
X135790533Y-80811904D02*
X135933390Y-80764285D01*
X135933390Y-80764285D02*
X136504819Y-80192857D01*
X136504819Y-80192857D02*
X136504819Y-80811904D01*
X125616666Y-95309580D02*
X125664285Y-95357200D01*
X125664285Y-95357200D02*
X125807142Y-95404819D01*
X125807142Y-95404819D02*
X125902380Y-95404819D01*
X125902380Y-95404819D02*
X126045237Y-95357200D01*
X126045237Y-95357200D02*
X126140475Y-95261961D01*
X126140475Y-95261961D02*
X126188094Y-95166723D01*
X126188094Y-95166723D02*
X126235713Y-94976247D01*
X126235713Y-94976247D02*
X126235713Y-94833390D01*
X126235713Y-94833390D02*
X126188094Y-94642914D01*
X126188094Y-94642914D02*
X126140475Y-94547676D01*
X126140475Y-94547676D02*
X126045237Y-94452438D01*
X126045237Y-94452438D02*
X125902380Y-94404819D01*
X125902380Y-94404819D02*
X125807142Y-94404819D01*
X125807142Y-94404819D02*
X125664285Y-94452438D01*
X125664285Y-94452438D02*
X125616666Y-94500057D01*
X125045237Y-94833390D02*
X125140475Y-94785771D01*
X125140475Y-94785771D02*
X125188094Y-94738152D01*
X125188094Y-94738152D02*
X125235713Y-94642914D01*
X125235713Y-94642914D02*
X125235713Y-94595295D01*
X125235713Y-94595295D02*
X125188094Y-94500057D01*
X125188094Y-94500057D02*
X125140475Y-94452438D01*
X125140475Y-94452438D02*
X125045237Y-94404819D01*
X125045237Y-94404819D02*
X124854761Y-94404819D01*
X124854761Y-94404819D02*
X124759523Y-94452438D01*
X124759523Y-94452438D02*
X124711904Y-94500057D01*
X124711904Y-94500057D02*
X124664285Y-94595295D01*
X124664285Y-94595295D02*
X124664285Y-94642914D01*
X124664285Y-94642914D02*
X124711904Y-94738152D01*
X124711904Y-94738152D02*
X124759523Y-94785771D01*
X124759523Y-94785771D02*
X124854761Y-94833390D01*
X124854761Y-94833390D02*
X125045237Y-94833390D01*
X125045237Y-94833390D02*
X125140475Y-94881009D01*
X125140475Y-94881009D02*
X125188094Y-94928628D01*
X125188094Y-94928628D02*
X125235713Y-95023866D01*
X125235713Y-95023866D02*
X125235713Y-95214342D01*
X125235713Y-95214342D02*
X125188094Y-95309580D01*
X125188094Y-95309580D02*
X125140475Y-95357200D01*
X125140475Y-95357200D02*
X125045237Y-95404819D01*
X125045237Y-95404819D02*
X124854761Y-95404819D01*
X124854761Y-95404819D02*
X124759523Y-95357200D01*
X124759523Y-95357200D02*
X124711904Y-95309580D01*
X124711904Y-95309580D02*
X124664285Y-95214342D01*
X124664285Y-95214342D02*
X124664285Y-95023866D01*
X124664285Y-95023866D02*
X124711904Y-94928628D01*
X124711904Y-94928628D02*
X124759523Y-94881009D01*
X124759523Y-94881009D02*
X124854761Y-94833390D01*
X134785751Y-87836788D02*
X134833370Y-87884408D01*
X134833370Y-87884408D02*
X134976227Y-87932027D01*
X134976227Y-87932027D02*
X135071465Y-87932027D01*
X135071465Y-87932027D02*
X135214322Y-87884408D01*
X135214322Y-87884408D02*
X135309560Y-87789169D01*
X135309560Y-87789169D02*
X135357179Y-87693931D01*
X135357179Y-87693931D02*
X135404798Y-87503455D01*
X135404798Y-87503455D02*
X135404798Y-87360598D01*
X135404798Y-87360598D02*
X135357179Y-87170122D01*
X135357179Y-87170122D02*
X135309560Y-87074884D01*
X135309560Y-87074884D02*
X135214322Y-86979646D01*
X135214322Y-86979646D02*
X135071465Y-86932027D01*
X135071465Y-86932027D02*
X134976227Y-86932027D01*
X134976227Y-86932027D02*
X134833370Y-86979646D01*
X134833370Y-86979646D02*
X134785751Y-87027265D01*
X134404798Y-87027265D02*
X134357179Y-86979646D01*
X134357179Y-86979646D02*
X134261941Y-86932027D01*
X134261941Y-86932027D02*
X134023846Y-86932027D01*
X134023846Y-86932027D02*
X133928608Y-86979646D01*
X133928608Y-86979646D02*
X133880989Y-87027265D01*
X133880989Y-87027265D02*
X133833370Y-87122503D01*
X133833370Y-87122503D02*
X133833370Y-87217741D01*
X133833370Y-87217741D02*
X133880989Y-87360598D01*
X133880989Y-87360598D02*
X134452417Y-87932027D01*
X134452417Y-87932027D02*
X133833370Y-87932027D01*
X132976227Y-87265360D02*
X132976227Y-87932027D01*
X133214322Y-86884408D02*
X133452417Y-87598693D01*
X133452417Y-87598693D02*
X132833370Y-87598693D01*
X147359580Y-106957142D02*
X147407200Y-106909523D01*
X147407200Y-106909523D02*
X147454819Y-106766666D01*
X147454819Y-106766666D02*
X147454819Y-106671428D01*
X147454819Y-106671428D02*
X147407200Y-106528571D01*
X147407200Y-106528571D02*
X147311961Y-106433333D01*
X147311961Y-106433333D02*
X147216723Y-106385714D01*
X147216723Y-106385714D02*
X147026247Y-106338095D01*
X147026247Y-106338095D02*
X146883390Y-106338095D01*
X146883390Y-106338095D02*
X146692914Y-106385714D01*
X146692914Y-106385714D02*
X146597676Y-106433333D01*
X146597676Y-106433333D02*
X146502438Y-106528571D01*
X146502438Y-106528571D02*
X146454819Y-106671428D01*
X146454819Y-106671428D02*
X146454819Y-106766666D01*
X146454819Y-106766666D02*
X146502438Y-106909523D01*
X146502438Y-106909523D02*
X146550057Y-106957142D01*
X146788152Y-107814285D02*
X147454819Y-107814285D01*
X146407200Y-107576190D02*
X147121485Y-107338095D01*
X147121485Y-107338095D02*
X147121485Y-107957142D01*
X147454819Y-108861904D02*
X147454819Y-108290476D01*
X147454819Y-108576190D02*
X146454819Y-108576190D01*
X146454819Y-108576190D02*
X146597676Y-108480952D01*
X146597676Y-108480952D02*
X146692914Y-108385714D01*
X146692914Y-108385714D02*
X146740533Y-108290476D01*
X71292857Y-154759580D02*
X71340476Y-154807200D01*
X71340476Y-154807200D02*
X71483333Y-154854819D01*
X71483333Y-154854819D02*
X71578571Y-154854819D01*
X71578571Y-154854819D02*
X71721428Y-154807200D01*
X71721428Y-154807200D02*
X71816666Y-154711961D01*
X71816666Y-154711961D02*
X71864285Y-154616723D01*
X71864285Y-154616723D02*
X71911904Y-154426247D01*
X71911904Y-154426247D02*
X71911904Y-154283390D01*
X71911904Y-154283390D02*
X71864285Y-154092914D01*
X71864285Y-154092914D02*
X71816666Y-153997676D01*
X71816666Y-153997676D02*
X71721428Y-153902438D01*
X71721428Y-153902438D02*
X71578571Y-153854819D01*
X71578571Y-153854819D02*
X71483333Y-153854819D01*
X71483333Y-153854819D02*
X71340476Y-153902438D01*
X71340476Y-153902438D02*
X71292857Y-153950057D01*
X70959523Y-153854819D02*
X70292857Y-153854819D01*
X70292857Y-153854819D02*
X70721428Y-154854819D01*
X69483333Y-154188152D02*
X69483333Y-154854819D01*
X69721428Y-153807200D02*
X69959523Y-154521485D01*
X69959523Y-154521485D02*
X69340476Y-154521485D01*
X120942857Y-144219580D02*
X120990476Y-144267200D01*
X120990476Y-144267200D02*
X121133333Y-144314819D01*
X121133333Y-144314819D02*
X121228571Y-144314819D01*
X121228571Y-144314819D02*
X121371428Y-144267200D01*
X121371428Y-144267200D02*
X121466666Y-144171961D01*
X121466666Y-144171961D02*
X121514285Y-144076723D01*
X121514285Y-144076723D02*
X121561904Y-143886247D01*
X121561904Y-143886247D02*
X121561904Y-143743390D01*
X121561904Y-143743390D02*
X121514285Y-143552914D01*
X121514285Y-143552914D02*
X121466666Y-143457676D01*
X121466666Y-143457676D02*
X121371428Y-143362438D01*
X121371428Y-143362438D02*
X121228571Y-143314819D01*
X121228571Y-143314819D02*
X121133333Y-143314819D01*
X121133333Y-143314819D02*
X120990476Y-143362438D01*
X120990476Y-143362438D02*
X120942857Y-143410057D01*
X120038095Y-143314819D02*
X120514285Y-143314819D01*
X120514285Y-143314819D02*
X120561904Y-143791009D01*
X120561904Y-143791009D02*
X120514285Y-143743390D01*
X120514285Y-143743390D02*
X120419047Y-143695771D01*
X120419047Y-143695771D02*
X120180952Y-143695771D01*
X120180952Y-143695771D02*
X120085714Y-143743390D01*
X120085714Y-143743390D02*
X120038095Y-143791009D01*
X120038095Y-143791009D02*
X119990476Y-143886247D01*
X119990476Y-143886247D02*
X119990476Y-144124342D01*
X119990476Y-144124342D02*
X120038095Y-144219580D01*
X120038095Y-144219580D02*
X120085714Y-144267200D01*
X120085714Y-144267200D02*
X120180952Y-144314819D01*
X120180952Y-144314819D02*
X120419047Y-144314819D01*
X120419047Y-144314819D02*
X120514285Y-144267200D01*
X120514285Y-144267200D02*
X120561904Y-144219580D01*
X119609523Y-143410057D02*
X119561904Y-143362438D01*
X119561904Y-143362438D02*
X119466666Y-143314819D01*
X119466666Y-143314819D02*
X119228571Y-143314819D01*
X119228571Y-143314819D02*
X119133333Y-143362438D01*
X119133333Y-143362438D02*
X119085714Y-143410057D01*
X119085714Y-143410057D02*
X119038095Y-143505295D01*
X119038095Y-143505295D02*
X119038095Y-143600533D01*
X119038095Y-143600533D02*
X119085714Y-143743390D01*
X119085714Y-143743390D02*
X119657142Y-144314819D01*
X119657142Y-144314819D02*
X119038095Y-144314819D01*
X231019580Y-156507142D02*
X231067200Y-156459523D01*
X231067200Y-156459523D02*
X231114819Y-156316666D01*
X231114819Y-156316666D02*
X231114819Y-156221428D01*
X231114819Y-156221428D02*
X231067200Y-156078571D01*
X231067200Y-156078571D02*
X230971961Y-155983333D01*
X230971961Y-155983333D02*
X230876723Y-155935714D01*
X230876723Y-155935714D02*
X230686247Y-155888095D01*
X230686247Y-155888095D02*
X230543390Y-155888095D01*
X230543390Y-155888095D02*
X230352914Y-155935714D01*
X230352914Y-155935714D02*
X230257676Y-155983333D01*
X230257676Y-155983333D02*
X230162438Y-156078571D01*
X230162438Y-156078571D02*
X230114819Y-156221428D01*
X230114819Y-156221428D02*
X230114819Y-156316666D01*
X230114819Y-156316666D02*
X230162438Y-156459523D01*
X230162438Y-156459523D02*
X230210057Y-156507142D01*
X230114819Y-156840476D02*
X230114819Y-157507142D01*
X230114819Y-157507142D02*
X231114819Y-157078571D01*
X231114819Y-158411904D02*
X231114819Y-157840476D01*
X231114819Y-158126190D02*
X230114819Y-158126190D01*
X230114819Y-158126190D02*
X230257676Y-158030952D01*
X230257676Y-158030952D02*
X230352914Y-157935714D01*
X230352914Y-157935714D02*
X230400533Y-157840476D01*
X199409580Y-155657142D02*
X199457200Y-155609523D01*
X199457200Y-155609523D02*
X199504819Y-155466666D01*
X199504819Y-155466666D02*
X199504819Y-155371428D01*
X199504819Y-155371428D02*
X199457200Y-155228571D01*
X199457200Y-155228571D02*
X199361961Y-155133333D01*
X199361961Y-155133333D02*
X199266723Y-155085714D01*
X199266723Y-155085714D02*
X199076247Y-155038095D01*
X199076247Y-155038095D02*
X198933390Y-155038095D01*
X198933390Y-155038095D02*
X198742914Y-155085714D01*
X198742914Y-155085714D02*
X198647676Y-155133333D01*
X198647676Y-155133333D02*
X198552438Y-155228571D01*
X198552438Y-155228571D02*
X198504819Y-155371428D01*
X198504819Y-155371428D02*
X198504819Y-155466666D01*
X198504819Y-155466666D02*
X198552438Y-155609523D01*
X198552438Y-155609523D02*
X198600057Y-155657142D01*
X198504819Y-156514285D02*
X198504819Y-156323809D01*
X198504819Y-156323809D02*
X198552438Y-156228571D01*
X198552438Y-156228571D02*
X198600057Y-156180952D01*
X198600057Y-156180952D02*
X198742914Y-156085714D01*
X198742914Y-156085714D02*
X198933390Y-156038095D01*
X198933390Y-156038095D02*
X199314342Y-156038095D01*
X199314342Y-156038095D02*
X199409580Y-156085714D01*
X199409580Y-156085714D02*
X199457200Y-156133333D01*
X199457200Y-156133333D02*
X199504819Y-156228571D01*
X199504819Y-156228571D02*
X199504819Y-156419047D01*
X199504819Y-156419047D02*
X199457200Y-156514285D01*
X199457200Y-156514285D02*
X199409580Y-156561904D01*
X199409580Y-156561904D02*
X199314342Y-156609523D01*
X199314342Y-156609523D02*
X199076247Y-156609523D01*
X199076247Y-156609523D02*
X198981009Y-156561904D01*
X198981009Y-156561904D02*
X198933390Y-156514285D01*
X198933390Y-156514285D02*
X198885771Y-156419047D01*
X198885771Y-156419047D02*
X198885771Y-156228571D01*
X198885771Y-156228571D02*
X198933390Y-156133333D01*
X198933390Y-156133333D02*
X198981009Y-156085714D01*
X198981009Y-156085714D02*
X199076247Y-156038095D01*
X198504819Y-157466666D02*
X198504819Y-157276190D01*
X198504819Y-157276190D02*
X198552438Y-157180952D01*
X198552438Y-157180952D02*
X198600057Y-157133333D01*
X198600057Y-157133333D02*
X198742914Y-157038095D01*
X198742914Y-157038095D02*
X198933390Y-156990476D01*
X198933390Y-156990476D02*
X199314342Y-156990476D01*
X199314342Y-156990476D02*
X199409580Y-157038095D01*
X199409580Y-157038095D02*
X199457200Y-157085714D01*
X199457200Y-157085714D02*
X199504819Y-157180952D01*
X199504819Y-157180952D02*
X199504819Y-157371428D01*
X199504819Y-157371428D02*
X199457200Y-157466666D01*
X199457200Y-157466666D02*
X199409580Y-157514285D01*
X199409580Y-157514285D02*
X199314342Y-157561904D01*
X199314342Y-157561904D02*
X199076247Y-157561904D01*
X199076247Y-157561904D02*
X198981009Y-157514285D01*
X198981009Y-157514285D02*
X198933390Y-157466666D01*
X198933390Y-157466666D02*
X198885771Y-157371428D01*
X198885771Y-157371428D02*
X198885771Y-157180952D01*
X198885771Y-157180952D02*
X198933390Y-157085714D01*
X198933390Y-157085714D02*
X198981009Y-157038095D01*
X198981009Y-157038095D02*
X199076247Y-156990476D01*
X176069580Y-156357142D02*
X176117200Y-156309523D01*
X176117200Y-156309523D02*
X176164819Y-156166666D01*
X176164819Y-156166666D02*
X176164819Y-156071428D01*
X176164819Y-156071428D02*
X176117200Y-155928571D01*
X176117200Y-155928571D02*
X176021961Y-155833333D01*
X176021961Y-155833333D02*
X175926723Y-155785714D01*
X175926723Y-155785714D02*
X175736247Y-155738095D01*
X175736247Y-155738095D02*
X175593390Y-155738095D01*
X175593390Y-155738095D02*
X175402914Y-155785714D01*
X175402914Y-155785714D02*
X175307676Y-155833333D01*
X175307676Y-155833333D02*
X175212438Y-155928571D01*
X175212438Y-155928571D02*
X175164819Y-156071428D01*
X175164819Y-156071428D02*
X175164819Y-156166666D01*
X175164819Y-156166666D02*
X175212438Y-156309523D01*
X175212438Y-156309523D02*
X175260057Y-156357142D01*
X175164819Y-157214285D02*
X175164819Y-157023809D01*
X175164819Y-157023809D02*
X175212438Y-156928571D01*
X175212438Y-156928571D02*
X175260057Y-156880952D01*
X175260057Y-156880952D02*
X175402914Y-156785714D01*
X175402914Y-156785714D02*
X175593390Y-156738095D01*
X175593390Y-156738095D02*
X175974342Y-156738095D01*
X175974342Y-156738095D02*
X176069580Y-156785714D01*
X176069580Y-156785714D02*
X176117200Y-156833333D01*
X176117200Y-156833333D02*
X176164819Y-156928571D01*
X176164819Y-156928571D02*
X176164819Y-157119047D01*
X176164819Y-157119047D02*
X176117200Y-157214285D01*
X176117200Y-157214285D02*
X176069580Y-157261904D01*
X176069580Y-157261904D02*
X175974342Y-157309523D01*
X175974342Y-157309523D02*
X175736247Y-157309523D01*
X175736247Y-157309523D02*
X175641009Y-157261904D01*
X175641009Y-157261904D02*
X175593390Y-157214285D01*
X175593390Y-157214285D02*
X175545771Y-157119047D01*
X175545771Y-157119047D02*
X175545771Y-156928571D01*
X175545771Y-156928571D02*
X175593390Y-156833333D01*
X175593390Y-156833333D02*
X175641009Y-156785714D01*
X175641009Y-156785714D02*
X175736247Y-156738095D01*
X175593390Y-157880952D02*
X175545771Y-157785714D01*
X175545771Y-157785714D02*
X175498152Y-157738095D01*
X175498152Y-157738095D02*
X175402914Y-157690476D01*
X175402914Y-157690476D02*
X175355295Y-157690476D01*
X175355295Y-157690476D02*
X175260057Y-157738095D01*
X175260057Y-157738095D02*
X175212438Y-157785714D01*
X175212438Y-157785714D02*
X175164819Y-157880952D01*
X175164819Y-157880952D02*
X175164819Y-158071428D01*
X175164819Y-158071428D02*
X175212438Y-158166666D01*
X175212438Y-158166666D02*
X175260057Y-158214285D01*
X175260057Y-158214285D02*
X175355295Y-158261904D01*
X175355295Y-158261904D02*
X175402914Y-158261904D01*
X175402914Y-158261904D02*
X175498152Y-158214285D01*
X175498152Y-158214285D02*
X175545771Y-158166666D01*
X175545771Y-158166666D02*
X175593390Y-158071428D01*
X175593390Y-158071428D02*
X175593390Y-157880952D01*
X175593390Y-157880952D02*
X175641009Y-157785714D01*
X175641009Y-157785714D02*
X175688628Y-157738095D01*
X175688628Y-157738095D02*
X175783866Y-157690476D01*
X175783866Y-157690476D02*
X175974342Y-157690476D01*
X175974342Y-157690476D02*
X176069580Y-157738095D01*
X176069580Y-157738095D02*
X176117200Y-157785714D01*
X176117200Y-157785714D02*
X176164819Y-157880952D01*
X176164819Y-157880952D02*
X176164819Y-158071428D01*
X176164819Y-158071428D02*
X176117200Y-158166666D01*
X176117200Y-158166666D02*
X176069580Y-158214285D01*
X176069580Y-158214285D02*
X175974342Y-158261904D01*
X175974342Y-158261904D02*
X175783866Y-158261904D01*
X175783866Y-158261904D02*
X175688628Y-158214285D01*
X175688628Y-158214285D02*
X175641009Y-158166666D01*
X175641009Y-158166666D02*
X175593390Y-158071428D01*
X121769580Y-136547142D02*
X121817200Y-136499523D01*
X121817200Y-136499523D02*
X121864819Y-136356666D01*
X121864819Y-136356666D02*
X121864819Y-136261428D01*
X121864819Y-136261428D02*
X121817200Y-136118571D01*
X121817200Y-136118571D02*
X121721961Y-136023333D01*
X121721961Y-136023333D02*
X121626723Y-135975714D01*
X121626723Y-135975714D02*
X121436247Y-135928095D01*
X121436247Y-135928095D02*
X121293390Y-135928095D01*
X121293390Y-135928095D02*
X121102914Y-135975714D01*
X121102914Y-135975714D02*
X121007676Y-136023333D01*
X121007676Y-136023333D02*
X120912438Y-136118571D01*
X120912438Y-136118571D02*
X120864819Y-136261428D01*
X120864819Y-136261428D02*
X120864819Y-136356666D01*
X120864819Y-136356666D02*
X120912438Y-136499523D01*
X120912438Y-136499523D02*
X120960057Y-136547142D01*
X120864819Y-137451904D02*
X120864819Y-136975714D01*
X120864819Y-136975714D02*
X121341009Y-136928095D01*
X121341009Y-136928095D02*
X121293390Y-136975714D01*
X121293390Y-136975714D02*
X121245771Y-137070952D01*
X121245771Y-137070952D02*
X121245771Y-137309047D01*
X121245771Y-137309047D02*
X121293390Y-137404285D01*
X121293390Y-137404285D02*
X121341009Y-137451904D01*
X121341009Y-137451904D02*
X121436247Y-137499523D01*
X121436247Y-137499523D02*
X121674342Y-137499523D01*
X121674342Y-137499523D02*
X121769580Y-137451904D01*
X121769580Y-137451904D02*
X121817200Y-137404285D01*
X121817200Y-137404285D02*
X121864819Y-137309047D01*
X121864819Y-137309047D02*
X121864819Y-137070952D01*
X121864819Y-137070952D02*
X121817200Y-136975714D01*
X121817200Y-136975714D02*
X121769580Y-136928095D01*
X120864819Y-137832857D02*
X120864819Y-138451904D01*
X120864819Y-138451904D02*
X121245771Y-138118571D01*
X121245771Y-138118571D02*
X121245771Y-138261428D01*
X121245771Y-138261428D02*
X121293390Y-138356666D01*
X121293390Y-138356666D02*
X121341009Y-138404285D01*
X121341009Y-138404285D02*
X121436247Y-138451904D01*
X121436247Y-138451904D02*
X121674342Y-138451904D01*
X121674342Y-138451904D02*
X121769580Y-138404285D01*
X121769580Y-138404285D02*
X121817200Y-138356666D01*
X121817200Y-138356666D02*
X121864819Y-138261428D01*
X121864819Y-138261428D02*
X121864819Y-137975714D01*
X121864819Y-137975714D02*
X121817200Y-137880476D01*
X121817200Y-137880476D02*
X121769580Y-137832857D01*
D11*
X133188333Y-84250333D02*
X133521666Y-84250333D01*
X133521666Y-84774143D02*
X133521666Y-83774143D01*
X133521666Y-83774143D02*
X133045476Y-83774143D01*
X132331190Y-84250333D02*
X132188333Y-84297952D01*
X132188333Y-84297952D02*
X132140714Y-84345571D01*
X132140714Y-84345571D02*
X132093095Y-84440809D01*
X132093095Y-84440809D02*
X132093095Y-84583666D01*
X132093095Y-84583666D02*
X132140714Y-84678904D01*
X132140714Y-84678904D02*
X132188333Y-84726524D01*
X132188333Y-84726524D02*
X132283571Y-84774143D01*
X132283571Y-84774143D02*
X132664523Y-84774143D01*
X132664523Y-84774143D02*
X132664523Y-83774143D01*
X132664523Y-83774143D02*
X132331190Y-83774143D01*
X132331190Y-83774143D02*
X132235952Y-83821762D01*
X132235952Y-83821762D02*
X132188333Y-83869381D01*
X132188333Y-83869381D02*
X132140714Y-83964619D01*
X132140714Y-83964619D02*
X132140714Y-84059857D01*
X132140714Y-84059857D02*
X132188333Y-84155095D01*
X132188333Y-84155095D02*
X132235952Y-84202714D01*
X132235952Y-84202714D02*
X132331190Y-84250333D01*
X132331190Y-84250333D02*
X132664523Y-84250333D01*
X131188333Y-83774143D02*
X131664523Y-83774143D01*
X131664523Y-83774143D02*
X131712142Y-84250333D01*
X131712142Y-84250333D02*
X131664523Y-84202714D01*
X131664523Y-84202714D02*
X131569285Y-84155095D01*
X131569285Y-84155095D02*
X131331190Y-84155095D01*
X131331190Y-84155095D02*
X131235952Y-84202714D01*
X131235952Y-84202714D02*
X131188333Y-84250333D01*
X131188333Y-84250333D02*
X131140714Y-84345571D01*
X131140714Y-84345571D02*
X131140714Y-84583666D01*
X131140714Y-84583666D02*
X131188333Y-84678904D01*
X131188333Y-84678904D02*
X131235952Y-84726524D01*
X131235952Y-84726524D02*
X131331190Y-84774143D01*
X131331190Y-84774143D02*
X131569285Y-84774143D01*
X131569285Y-84774143D02*
X131664523Y-84726524D01*
X131664523Y-84726524D02*
X131712142Y-84678904D01*
D10*
X153542857Y-89409580D02*
X153590476Y-89457200D01*
X153590476Y-89457200D02*
X153733333Y-89504819D01*
X153733333Y-89504819D02*
X153828571Y-89504819D01*
X153828571Y-89504819D02*
X153971428Y-89457200D01*
X153971428Y-89457200D02*
X154066666Y-89361961D01*
X154066666Y-89361961D02*
X154114285Y-89266723D01*
X154114285Y-89266723D02*
X154161904Y-89076247D01*
X154161904Y-89076247D02*
X154161904Y-88933390D01*
X154161904Y-88933390D02*
X154114285Y-88742914D01*
X154114285Y-88742914D02*
X154066666Y-88647676D01*
X154066666Y-88647676D02*
X153971428Y-88552438D01*
X153971428Y-88552438D02*
X153828571Y-88504819D01*
X153828571Y-88504819D02*
X153733333Y-88504819D01*
X153733333Y-88504819D02*
X153590476Y-88552438D01*
X153590476Y-88552438D02*
X153542857Y-88600057D01*
X153209523Y-88504819D02*
X152590476Y-88504819D01*
X152590476Y-88504819D02*
X152923809Y-88885771D01*
X152923809Y-88885771D02*
X152780952Y-88885771D01*
X152780952Y-88885771D02*
X152685714Y-88933390D01*
X152685714Y-88933390D02*
X152638095Y-88981009D01*
X152638095Y-88981009D02*
X152590476Y-89076247D01*
X152590476Y-89076247D02*
X152590476Y-89314342D01*
X152590476Y-89314342D02*
X152638095Y-89409580D01*
X152638095Y-89409580D02*
X152685714Y-89457200D01*
X152685714Y-89457200D02*
X152780952Y-89504819D01*
X152780952Y-89504819D02*
X153066666Y-89504819D01*
X153066666Y-89504819D02*
X153161904Y-89457200D01*
X153161904Y-89457200D02*
X153209523Y-89409580D01*
X151685714Y-88504819D02*
X152161904Y-88504819D01*
X152161904Y-88504819D02*
X152209523Y-88981009D01*
X152209523Y-88981009D02*
X152161904Y-88933390D01*
X152161904Y-88933390D02*
X152066666Y-88885771D01*
X152066666Y-88885771D02*
X151828571Y-88885771D01*
X151828571Y-88885771D02*
X151733333Y-88933390D01*
X151733333Y-88933390D02*
X151685714Y-88981009D01*
X151685714Y-88981009D02*
X151638095Y-89076247D01*
X151638095Y-89076247D02*
X151638095Y-89314342D01*
X151638095Y-89314342D02*
X151685714Y-89409580D01*
X151685714Y-89409580D02*
X151733333Y-89457200D01*
X151733333Y-89457200D02*
X151828571Y-89504819D01*
X151828571Y-89504819D02*
X152066666Y-89504819D01*
X152066666Y-89504819D02*
X152161904Y-89457200D01*
X152161904Y-89457200D02*
X152209523Y-89409580D01*
X149059580Y-79907142D02*
X149107200Y-79859523D01*
X149107200Y-79859523D02*
X149154819Y-79716666D01*
X149154819Y-79716666D02*
X149154819Y-79621428D01*
X149154819Y-79621428D02*
X149107200Y-79478571D01*
X149107200Y-79478571D02*
X149011961Y-79383333D01*
X149011961Y-79383333D02*
X148916723Y-79335714D01*
X148916723Y-79335714D02*
X148726247Y-79288095D01*
X148726247Y-79288095D02*
X148583390Y-79288095D01*
X148583390Y-79288095D02*
X148392914Y-79335714D01*
X148392914Y-79335714D02*
X148297676Y-79383333D01*
X148297676Y-79383333D02*
X148202438Y-79478571D01*
X148202438Y-79478571D02*
X148154819Y-79621428D01*
X148154819Y-79621428D02*
X148154819Y-79716666D01*
X148154819Y-79716666D02*
X148202438Y-79859523D01*
X148202438Y-79859523D02*
X148250057Y-79907142D01*
X149154819Y-80859523D02*
X149154819Y-80288095D01*
X149154819Y-80573809D02*
X148154819Y-80573809D01*
X148154819Y-80573809D02*
X148297676Y-80478571D01*
X148297676Y-80478571D02*
X148392914Y-80383333D01*
X148392914Y-80383333D02*
X148440533Y-80288095D01*
X148583390Y-81430952D02*
X148535771Y-81335714D01*
X148535771Y-81335714D02*
X148488152Y-81288095D01*
X148488152Y-81288095D02*
X148392914Y-81240476D01*
X148392914Y-81240476D02*
X148345295Y-81240476D01*
X148345295Y-81240476D02*
X148250057Y-81288095D01*
X148250057Y-81288095D02*
X148202438Y-81335714D01*
X148202438Y-81335714D02*
X148154819Y-81430952D01*
X148154819Y-81430952D02*
X148154819Y-81621428D01*
X148154819Y-81621428D02*
X148202438Y-81716666D01*
X148202438Y-81716666D02*
X148250057Y-81764285D01*
X148250057Y-81764285D02*
X148345295Y-81811904D01*
X148345295Y-81811904D02*
X148392914Y-81811904D01*
X148392914Y-81811904D02*
X148488152Y-81764285D01*
X148488152Y-81764285D02*
X148535771Y-81716666D01*
X148535771Y-81716666D02*
X148583390Y-81621428D01*
X148583390Y-81621428D02*
X148583390Y-81430952D01*
X148583390Y-81430952D02*
X148631009Y-81335714D01*
X148631009Y-81335714D02*
X148678628Y-81288095D01*
X148678628Y-81288095D02*
X148773866Y-81240476D01*
X148773866Y-81240476D02*
X148964342Y-81240476D01*
X148964342Y-81240476D02*
X149059580Y-81288095D01*
X149059580Y-81288095D02*
X149107200Y-81335714D01*
X149107200Y-81335714D02*
X149154819Y-81430952D01*
X149154819Y-81430952D02*
X149154819Y-81621428D01*
X149154819Y-81621428D02*
X149107200Y-81716666D01*
X149107200Y-81716666D02*
X149059580Y-81764285D01*
X149059580Y-81764285D02*
X148964342Y-81811904D01*
X148964342Y-81811904D02*
X148773866Y-81811904D01*
X148773866Y-81811904D02*
X148678628Y-81764285D01*
X148678628Y-81764285D02*
X148631009Y-81716666D01*
X148631009Y-81716666D02*
X148583390Y-81621428D01*
X154655447Y-98723794D02*
X154703066Y-98771414D01*
X154703066Y-98771414D02*
X154845923Y-98819033D01*
X154845923Y-98819033D02*
X154941161Y-98819033D01*
X154941161Y-98819033D02*
X155084018Y-98771414D01*
X155084018Y-98771414D02*
X155179256Y-98676175D01*
X155179256Y-98676175D02*
X155226875Y-98580937D01*
X155226875Y-98580937D02*
X155274494Y-98390461D01*
X155274494Y-98390461D02*
X155274494Y-98247604D01*
X155274494Y-98247604D02*
X155226875Y-98057128D01*
X155226875Y-98057128D02*
X155179256Y-97961890D01*
X155179256Y-97961890D02*
X155084018Y-97866652D01*
X155084018Y-97866652D02*
X154941161Y-97819033D01*
X154941161Y-97819033D02*
X154845923Y-97819033D01*
X154845923Y-97819033D02*
X154703066Y-97866652D01*
X154703066Y-97866652D02*
X154655447Y-97914271D01*
X154274494Y-97914271D02*
X154226875Y-97866652D01*
X154226875Y-97866652D02*
X154131637Y-97819033D01*
X154131637Y-97819033D02*
X153893542Y-97819033D01*
X153893542Y-97819033D02*
X153798304Y-97866652D01*
X153798304Y-97866652D02*
X153750685Y-97914271D01*
X153750685Y-97914271D02*
X153703066Y-98009509D01*
X153703066Y-98009509D02*
X153703066Y-98104747D01*
X153703066Y-98104747D02*
X153750685Y-98247604D01*
X153750685Y-98247604D02*
X154322113Y-98819033D01*
X154322113Y-98819033D02*
X153703066Y-98819033D01*
X152750685Y-98819033D02*
X153322113Y-98819033D01*
X153036399Y-98819033D02*
X153036399Y-97819033D01*
X153036399Y-97819033D02*
X153131637Y-97961890D01*
X153131637Y-97961890D02*
X153226875Y-98057128D01*
X153226875Y-98057128D02*
X153322113Y-98104747D01*
D11*
X64880333Y-152791666D02*
X64880333Y-152458333D01*
X65404143Y-152458333D02*
X64404143Y-152458333D01*
X64404143Y-152458333D02*
X64404143Y-152934523D01*
X64880333Y-153648809D02*
X64927952Y-153791666D01*
X64927952Y-153791666D02*
X64975571Y-153839285D01*
X64975571Y-153839285D02*
X65070809Y-153886904D01*
X65070809Y-153886904D02*
X65213666Y-153886904D01*
X65213666Y-153886904D02*
X65308904Y-153839285D01*
X65308904Y-153839285D02*
X65356524Y-153791666D01*
X65356524Y-153791666D02*
X65404143Y-153696428D01*
X65404143Y-153696428D02*
X65404143Y-153315476D01*
X65404143Y-153315476D02*
X64404143Y-153315476D01*
X64404143Y-153315476D02*
X64404143Y-153648809D01*
X64404143Y-153648809D02*
X64451762Y-153744047D01*
X64451762Y-153744047D02*
X64499381Y-153791666D01*
X64499381Y-153791666D02*
X64594619Y-153839285D01*
X64594619Y-153839285D02*
X64689857Y-153839285D01*
X64689857Y-153839285D02*
X64785095Y-153791666D01*
X64785095Y-153791666D02*
X64832714Y-153744047D01*
X64832714Y-153744047D02*
X64880333Y-153648809D01*
X64880333Y-153648809D02*
X64880333Y-153315476D01*
X64404143Y-154220238D02*
X64404143Y-154886904D01*
X64404143Y-154886904D02*
X65404143Y-154458333D01*
X170608333Y-84560333D02*
X170941666Y-84560333D01*
X170941666Y-85084143D02*
X170941666Y-84084143D01*
X170941666Y-84084143D02*
X170465476Y-84084143D01*
X169751190Y-84560333D02*
X169608333Y-84607952D01*
X169608333Y-84607952D02*
X169560714Y-84655571D01*
X169560714Y-84655571D02*
X169513095Y-84750809D01*
X169513095Y-84750809D02*
X169513095Y-84893666D01*
X169513095Y-84893666D02*
X169560714Y-84988904D01*
X169560714Y-84988904D02*
X169608333Y-85036524D01*
X169608333Y-85036524D02*
X169703571Y-85084143D01*
X169703571Y-85084143D02*
X170084523Y-85084143D01*
X170084523Y-85084143D02*
X170084523Y-84084143D01*
X170084523Y-84084143D02*
X169751190Y-84084143D01*
X169751190Y-84084143D02*
X169655952Y-84131762D01*
X169655952Y-84131762D02*
X169608333Y-84179381D01*
X169608333Y-84179381D02*
X169560714Y-84274619D01*
X169560714Y-84274619D02*
X169560714Y-84369857D01*
X169560714Y-84369857D02*
X169608333Y-84465095D01*
X169608333Y-84465095D02*
X169655952Y-84512714D01*
X169655952Y-84512714D02*
X169751190Y-84560333D01*
X169751190Y-84560333D02*
X170084523Y-84560333D01*
X168655952Y-84084143D02*
X168846428Y-84084143D01*
X168846428Y-84084143D02*
X168941666Y-84131762D01*
X168941666Y-84131762D02*
X168989285Y-84179381D01*
X168989285Y-84179381D02*
X169084523Y-84322238D01*
X169084523Y-84322238D02*
X169132142Y-84512714D01*
X169132142Y-84512714D02*
X169132142Y-84893666D01*
X169132142Y-84893666D02*
X169084523Y-84988904D01*
X169084523Y-84988904D02*
X169036904Y-85036524D01*
X169036904Y-85036524D02*
X168941666Y-85084143D01*
X168941666Y-85084143D02*
X168751190Y-85084143D01*
X168751190Y-85084143D02*
X168655952Y-85036524D01*
X168655952Y-85036524D02*
X168608333Y-84988904D01*
X168608333Y-84988904D02*
X168560714Y-84893666D01*
X168560714Y-84893666D02*
X168560714Y-84655571D01*
X168560714Y-84655571D02*
X168608333Y-84560333D01*
X168608333Y-84560333D02*
X168655952Y-84512714D01*
X168655952Y-84512714D02*
X168751190Y-84465095D01*
X168751190Y-84465095D02*
X168941666Y-84465095D01*
X168941666Y-84465095D02*
X169036904Y-84512714D01*
X169036904Y-84512714D02*
X169084523Y-84560333D01*
X169084523Y-84560333D02*
X169132142Y-84655571D01*
D10*
X147909580Y-76807142D02*
X147957200Y-76759523D01*
X147957200Y-76759523D02*
X148004819Y-76616666D01*
X148004819Y-76616666D02*
X148004819Y-76521428D01*
X148004819Y-76521428D02*
X147957200Y-76378571D01*
X147957200Y-76378571D02*
X147861961Y-76283333D01*
X147861961Y-76283333D02*
X147766723Y-76235714D01*
X147766723Y-76235714D02*
X147576247Y-76188095D01*
X147576247Y-76188095D02*
X147433390Y-76188095D01*
X147433390Y-76188095D02*
X147242914Y-76235714D01*
X147242914Y-76235714D02*
X147147676Y-76283333D01*
X147147676Y-76283333D02*
X147052438Y-76378571D01*
X147052438Y-76378571D02*
X147004819Y-76521428D01*
X147004819Y-76521428D02*
X147004819Y-76616666D01*
X147004819Y-76616666D02*
X147052438Y-76759523D01*
X147052438Y-76759523D02*
X147100057Y-76807142D01*
X147100057Y-77188095D02*
X147052438Y-77235714D01*
X147052438Y-77235714D02*
X147004819Y-77330952D01*
X147004819Y-77330952D02*
X147004819Y-77569047D01*
X147004819Y-77569047D02*
X147052438Y-77664285D01*
X147052438Y-77664285D02*
X147100057Y-77711904D01*
X147100057Y-77711904D02*
X147195295Y-77759523D01*
X147195295Y-77759523D02*
X147290533Y-77759523D01*
X147290533Y-77759523D02*
X147433390Y-77711904D01*
X147433390Y-77711904D02*
X148004819Y-77140476D01*
X148004819Y-77140476D02*
X148004819Y-77759523D01*
X148004819Y-78235714D02*
X148004819Y-78426190D01*
X148004819Y-78426190D02*
X147957200Y-78521428D01*
X147957200Y-78521428D02*
X147909580Y-78569047D01*
X147909580Y-78569047D02*
X147766723Y-78664285D01*
X147766723Y-78664285D02*
X147576247Y-78711904D01*
X147576247Y-78711904D02*
X147195295Y-78711904D01*
X147195295Y-78711904D02*
X147100057Y-78664285D01*
X147100057Y-78664285D02*
X147052438Y-78616666D01*
X147052438Y-78616666D02*
X147004819Y-78521428D01*
X147004819Y-78521428D02*
X147004819Y-78330952D01*
X147004819Y-78330952D02*
X147052438Y-78235714D01*
X147052438Y-78235714D02*
X147100057Y-78188095D01*
X147100057Y-78188095D02*
X147195295Y-78140476D01*
X147195295Y-78140476D02*
X147433390Y-78140476D01*
X147433390Y-78140476D02*
X147528628Y-78188095D01*
X147528628Y-78188095D02*
X147576247Y-78235714D01*
X147576247Y-78235714D02*
X147623866Y-78330952D01*
X147623866Y-78330952D02*
X147623866Y-78521428D01*
X147623866Y-78521428D02*
X147576247Y-78616666D01*
X147576247Y-78616666D02*
X147528628Y-78664285D01*
X147528628Y-78664285D02*
X147433390Y-78711904D01*
X139159580Y-106757142D02*
X139207200Y-106709523D01*
X139207200Y-106709523D02*
X139254819Y-106566666D01*
X139254819Y-106566666D02*
X139254819Y-106471428D01*
X139254819Y-106471428D02*
X139207200Y-106328571D01*
X139207200Y-106328571D02*
X139111961Y-106233333D01*
X139111961Y-106233333D02*
X139016723Y-106185714D01*
X139016723Y-106185714D02*
X138826247Y-106138095D01*
X138826247Y-106138095D02*
X138683390Y-106138095D01*
X138683390Y-106138095D02*
X138492914Y-106185714D01*
X138492914Y-106185714D02*
X138397676Y-106233333D01*
X138397676Y-106233333D02*
X138302438Y-106328571D01*
X138302438Y-106328571D02*
X138254819Y-106471428D01*
X138254819Y-106471428D02*
X138254819Y-106566666D01*
X138254819Y-106566666D02*
X138302438Y-106709523D01*
X138302438Y-106709523D02*
X138350057Y-106757142D01*
X138254819Y-107090476D02*
X138254819Y-107709523D01*
X138254819Y-107709523D02*
X138635771Y-107376190D01*
X138635771Y-107376190D02*
X138635771Y-107519047D01*
X138635771Y-107519047D02*
X138683390Y-107614285D01*
X138683390Y-107614285D02*
X138731009Y-107661904D01*
X138731009Y-107661904D02*
X138826247Y-107709523D01*
X138826247Y-107709523D02*
X139064342Y-107709523D01*
X139064342Y-107709523D02*
X139159580Y-107661904D01*
X139159580Y-107661904D02*
X139207200Y-107614285D01*
X139207200Y-107614285D02*
X139254819Y-107519047D01*
X139254819Y-107519047D02*
X139254819Y-107233333D01*
X139254819Y-107233333D02*
X139207200Y-107138095D01*
X139207200Y-107138095D02*
X139159580Y-107090476D01*
X139254819Y-108185714D02*
X139254819Y-108376190D01*
X139254819Y-108376190D02*
X139207200Y-108471428D01*
X139207200Y-108471428D02*
X139159580Y-108519047D01*
X139159580Y-108519047D02*
X139016723Y-108614285D01*
X139016723Y-108614285D02*
X138826247Y-108661904D01*
X138826247Y-108661904D02*
X138445295Y-108661904D01*
X138445295Y-108661904D02*
X138350057Y-108614285D01*
X138350057Y-108614285D02*
X138302438Y-108566666D01*
X138302438Y-108566666D02*
X138254819Y-108471428D01*
X138254819Y-108471428D02*
X138254819Y-108280952D01*
X138254819Y-108280952D02*
X138302438Y-108185714D01*
X138302438Y-108185714D02*
X138350057Y-108138095D01*
X138350057Y-108138095D02*
X138445295Y-108090476D01*
X138445295Y-108090476D02*
X138683390Y-108090476D01*
X138683390Y-108090476D02*
X138778628Y-108138095D01*
X138778628Y-108138095D02*
X138826247Y-108185714D01*
X138826247Y-108185714D02*
X138873866Y-108280952D01*
X138873866Y-108280952D02*
X138873866Y-108471428D01*
X138873866Y-108471428D02*
X138826247Y-108566666D01*
X138826247Y-108566666D02*
X138778628Y-108614285D01*
X138778628Y-108614285D02*
X138683390Y-108661904D01*
X153260017Y-97521712D02*
X153307636Y-97569332D01*
X153307636Y-97569332D02*
X153450493Y-97616951D01*
X153450493Y-97616951D02*
X153545731Y-97616951D01*
X153545731Y-97616951D02*
X153688588Y-97569332D01*
X153688588Y-97569332D02*
X153783826Y-97474093D01*
X153783826Y-97474093D02*
X153831445Y-97378855D01*
X153831445Y-97378855D02*
X153879064Y-97188379D01*
X153879064Y-97188379D02*
X153879064Y-97045522D01*
X153879064Y-97045522D02*
X153831445Y-96855046D01*
X153831445Y-96855046D02*
X153783826Y-96759808D01*
X153783826Y-96759808D02*
X153688588Y-96664570D01*
X153688588Y-96664570D02*
X153545731Y-96616951D01*
X153545731Y-96616951D02*
X153450493Y-96616951D01*
X153450493Y-96616951D02*
X153307636Y-96664570D01*
X153307636Y-96664570D02*
X153260017Y-96712189D01*
X152355255Y-96616951D02*
X152831445Y-96616951D01*
X152831445Y-96616951D02*
X152879064Y-97093141D01*
X152879064Y-97093141D02*
X152831445Y-97045522D01*
X152831445Y-97045522D02*
X152736207Y-96997903D01*
X152736207Y-96997903D02*
X152498112Y-96997903D01*
X152498112Y-96997903D02*
X152402874Y-97045522D01*
X152402874Y-97045522D02*
X152355255Y-97093141D01*
X152355255Y-97093141D02*
X152307636Y-97188379D01*
X152307636Y-97188379D02*
X152307636Y-97426474D01*
X152307636Y-97426474D02*
X152355255Y-97521712D01*
X152355255Y-97521712D02*
X152402874Y-97569332D01*
X152402874Y-97569332D02*
X152498112Y-97616951D01*
X152498112Y-97616951D02*
X152736207Y-97616951D01*
X152736207Y-97616951D02*
X152831445Y-97569332D01*
X152831445Y-97569332D02*
X152879064Y-97521712D01*
X69692857Y-144369580D02*
X69740476Y-144417200D01*
X69740476Y-144417200D02*
X69883333Y-144464819D01*
X69883333Y-144464819D02*
X69978571Y-144464819D01*
X69978571Y-144464819D02*
X70121428Y-144417200D01*
X70121428Y-144417200D02*
X70216666Y-144321961D01*
X70216666Y-144321961D02*
X70264285Y-144226723D01*
X70264285Y-144226723D02*
X70311904Y-144036247D01*
X70311904Y-144036247D02*
X70311904Y-143893390D01*
X70311904Y-143893390D02*
X70264285Y-143702914D01*
X70264285Y-143702914D02*
X70216666Y-143607676D01*
X70216666Y-143607676D02*
X70121428Y-143512438D01*
X70121428Y-143512438D02*
X69978571Y-143464819D01*
X69978571Y-143464819D02*
X69883333Y-143464819D01*
X69883333Y-143464819D02*
X69740476Y-143512438D01*
X69740476Y-143512438D02*
X69692857Y-143560057D01*
X68835714Y-143798152D02*
X68835714Y-144464819D01*
X69073809Y-143417200D02*
X69311904Y-144131485D01*
X69311904Y-144131485D02*
X68692857Y-144131485D01*
X68264285Y-144464819D02*
X68073809Y-144464819D01*
X68073809Y-144464819D02*
X67978571Y-144417200D01*
X67978571Y-144417200D02*
X67930952Y-144369580D01*
X67930952Y-144369580D02*
X67835714Y-144226723D01*
X67835714Y-144226723D02*
X67788095Y-144036247D01*
X67788095Y-144036247D02*
X67788095Y-143655295D01*
X67788095Y-143655295D02*
X67835714Y-143560057D01*
X67835714Y-143560057D02*
X67883333Y-143512438D01*
X67883333Y-143512438D02*
X67978571Y-143464819D01*
X67978571Y-143464819D02*
X68169047Y-143464819D01*
X68169047Y-143464819D02*
X68264285Y-143512438D01*
X68264285Y-143512438D02*
X68311904Y-143560057D01*
X68311904Y-143560057D02*
X68359523Y-143655295D01*
X68359523Y-143655295D02*
X68359523Y-143893390D01*
X68359523Y-143893390D02*
X68311904Y-143988628D01*
X68311904Y-143988628D02*
X68264285Y-144036247D01*
X68264285Y-144036247D02*
X68169047Y-144083866D01*
X68169047Y-144083866D02*
X67978571Y-144083866D01*
X67978571Y-144083866D02*
X67883333Y-144036247D01*
X67883333Y-144036247D02*
X67835714Y-143988628D01*
X67835714Y-143988628D02*
X67788095Y-143893390D01*
X175119580Y-136547142D02*
X175167200Y-136499523D01*
X175167200Y-136499523D02*
X175214819Y-136356666D01*
X175214819Y-136356666D02*
X175214819Y-136261428D01*
X175214819Y-136261428D02*
X175167200Y-136118571D01*
X175167200Y-136118571D02*
X175071961Y-136023333D01*
X175071961Y-136023333D02*
X174976723Y-135975714D01*
X174976723Y-135975714D02*
X174786247Y-135928095D01*
X174786247Y-135928095D02*
X174643390Y-135928095D01*
X174643390Y-135928095D02*
X174452914Y-135975714D01*
X174452914Y-135975714D02*
X174357676Y-136023333D01*
X174357676Y-136023333D02*
X174262438Y-136118571D01*
X174262438Y-136118571D02*
X174214819Y-136261428D01*
X174214819Y-136261428D02*
X174214819Y-136356666D01*
X174214819Y-136356666D02*
X174262438Y-136499523D01*
X174262438Y-136499523D02*
X174310057Y-136547142D01*
X174214819Y-137451904D02*
X174214819Y-136975714D01*
X174214819Y-136975714D02*
X174691009Y-136928095D01*
X174691009Y-136928095D02*
X174643390Y-136975714D01*
X174643390Y-136975714D02*
X174595771Y-137070952D01*
X174595771Y-137070952D02*
X174595771Y-137309047D01*
X174595771Y-137309047D02*
X174643390Y-137404285D01*
X174643390Y-137404285D02*
X174691009Y-137451904D01*
X174691009Y-137451904D02*
X174786247Y-137499523D01*
X174786247Y-137499523D02*
X175024342Y-137499523D01*
X175024342Y-137499523D02*
X175119580Y-137451904D01*
X175119580Y-137451904D02*
X175167200Y-137404285D01*
X175167200Y-137404285D02*
X175214819Y-137309047D01*
X175214819Y-137309047D02*
X175214819Y-137070952D01*
X175214819Y-137070952D02*
X175167200Y-136975714D01*
X175167200Y-136975714D02*
X175119580Y-136928095D01*
X174214819Y-138356666D02*
X174214819Y-138166190D01*
X174214819Y-138166190D02*
X174262438Y-138070952D01*
X174262438Y-138070952D02*
X174310057Y-138023333D01*
X174310057Y-138023333D02*
X174452914Y-137928095D01*
X174452914Y-137928095D02*
X174643390Y-137880476D01*
X174643390Y-137880476D02*
X175024342Y-137880476D01*
X175024342Y-137880476D02*
X175119580Y-137928095D01*
X175119580Y-137928095D02*
X175167200Y-137975714D01*
X175167200Y-137975714D02*
X175214819Y-138070952D01*
X175214819Y-138070952D02*
X175214819Y-138261428D01*
X175214819Y-138261428D02*
X175167200Y-138356666D01*
X175167200Y-138356666D02*
X175119580Y-138404285D01*
X175119580Y-138404285D02*
X175024342Y-138451904D01*
X175024342Y-138451904D02*
X174786247Y-138451904D01*
X174786247Y-138451904D02*
X174691009Y-138404285D01*
X174691009Y-138404285D02*
X174643390Y-138356666D01*
X174643390Y-138356666D02*
X174595771Y-138261428D01*
X174595771Y-138261428D02*
X174595771Y-138070952D01*
X174595771Y-138070952D02*
X174643390Y-137975714D01*
X174643390Y-137975714D02*
X174691009Y-137928095D01*
X174691009Y-137928095D02*
X174786247Y-137880476D01*
X130092857Y-90909580D02*
X130140476Y-90957200D01*
X130140476Y-90957200D02*
X130283333Y-91004819D01*
X130283333Y-91004819D02*
X130378571Y-91004819D01*
X130378571Y-91004819D02*
X130521428Y-90957200D01*
X130521428Y-90957200D02*
X130616666Y-90861961D01*
X130616666Y-90861961D02*
X130664285Y-90766723D01*
X130664285Y-90766723D02*
X130711904Y-90576247D01*
X130711904Y-90576247D02*
X130711904Y-90433390D01*
X130711904Y-90433390D02*
X130664285Y-90242914D01*
X130664285Y-90242914D02*
X130616666Y-90147676D01*
X130616666Y-90147676D02*
X130521428Y-90052438D01*
X130521428Y-90052438D02*
X130378571Y-90004819D01*
X130378571Y-90004819D02*
X130283333Y-90004819D01*
X130283333Y-90004819D02*
X130140476Y-90052438D01*
X130140476Y-90052438D02*
X130092857Y-90100057D01*
X129759523Y-90004819D02*
X129140476Y-90004819D01*
X129140476Y-90004819D02*
X129473809Y-90385771D01*
X129473809Y-90385771D02*
X129330952Y-90385771D01*
X129330952Y-90385771D02*
X129235714Y-90433390D01*
X129235714Y-90433390D02*
X129188095Y-90481009D01*
X129188095Y-90481009D02*
X129140476Y-90576247D01*
X129140476Y-90576247D02*
X129140476Y-90814342D01*
X129140476Y-90814342D02*
X129188095Y-90909580D01*
X129188095Y-90909580D02*
X129235714Y-90957200D01*
X129235714Y-90957200D02*
X129330952Y-91004819D01*
X129330952Y-91004819D02*
X129616666Y-91004819D01*
X129616666Y-91004819D02*
X129711904Y-90957200D01*
X129711904Y-90957200D02*
X129759523Y-90909580D01*
X128569047Y-90433390D02*
X128664285Y-90385771D01*
X128664285Y-90385771D02*
X128711904Y-90338152D01*
X128711904Y-90338152D02*
X128759523Y-90242914D01*
X128759523Y-90242914D02*
X128759523Y-90195295D01*
X128759523Y-90195295D02*
X128711904Y-90100057D01*
X128711904Y-90100057D02*
X128664285Y-90052438D01*
X128664285Y-90052438D02*
X128569047Y-90004819D01*
X128569047Y-90004819D02*
X128378571Y-90004819D01*
X128378571Y-90004819D02*
X128283333Y-90052438D01*
X128283333Y-90052438D02*
X128235714Y-90100057D01*
X128235714Y-90100057D02*
X128188095Y-90195295D01*
X128188095Y-90195295D02*
X128188095Y-90242914D01*
X128188095Y-90242914D02*
X128235714Y-90338152D01*
X128235714Y-90338152D02*
X128283333Y-90385771D01*
X128283333Y-90385771D02*
X128378571Y-90433390D01*
X128378571Y-90433390D02*
X128569047Y-90433390D01*
X128569047Y-90433390D02*
X128664285Y-90481009D01*
X128664285Y-90481009D02*
X128711904Y-90528628D01*
X128711904Y-90528628D02*
X128759523Y-90623866D01*
X128759523Y-90623866D02*
X128759523Y-90814342D01*
X128759523Y-90814342D02*
X128711904Y-90909580D01*
X128711904Y-90909580D02*
X128664285Y-90957200D01*
X128664285Y-90957200D02*
X128569047Y-91004819D01*
X128569047Y-91004819D02*
X128378571Y-91004819D01*
X128378571Y-91004819D02*
X128283333Y-90957200D01*
X128283333Y-90957200D02*
X128235714Y-90909580D01*
X128235714Y-90909580D02*
X128188095Y-90814342D01*
X128188095Y-90814342D02*
X128188095Y-90623866D01*
X128188095Y-90623866D02*
X128235714Y-90528628D01*
X128235714Y-90528628D02*
X128283333Y-90481009D01*
X128283333Y-90481009D02*
X128378571Y-90433390D01*
X144559580Y-104057142D02*
X144607200Y-104009523D01*
X144607200Y-104009523D02*
X144654819Y-103866666D01*
X144654819Y-103866666D02*
X144654819Y-103771428D01*
X144654819Y-103771428D02*
X144607200Y-103628571D01*
X144607200Y-103628571D02*
X144511961Y-103533333D01*
X144511961Y-103533333D02*
X144416723Y-103485714D01*
X144416723Y-103485714D02*
X144226247Y-103438095D01*
X144226247Y-103438095D02*
X144083390Y-103438095D01*
X144083390Y-103438095D02*
X143892914Y-103485714D01*
X143892914Y-103485714D02*
X143797676Y-103533333D01*
X143797676Y-103533333D02*
X143702438Y-103628571D01*
X143702438Y-103628571D02*
X143654819Y-103771428D01*
X143654819Y-103771428D02*
X143654819Y-103866666D01*
X143654819Y-103866666D02*
X143702438Y-104009523D01*
X143702438Y-104009523D02*
X143750057Y-104057142D01*
X144654819Y-105009523D02*
X144654819Y-104438095D01*
X144654819Y-104723809D02*
X143654819Y-104723809D01*
X143654819Y-104723809D02*
X143797676Y-104628571D01*
X143797676Y-104628571D02*
X143892914Y-104533333D01*
X143892914Y-104533333D02*
X143940533Y-104438095D01*
X144654819Y-105961904D02*
X144654819Y-105390476D01*
X144654819Y-105676190D02*
X143654819Y-105676190D01*
X143654819Y-105676190D02*
X143797676Y-105580952D01*
X143797676Y-105580952D02*
X143892914Y-105485714D01*
X143892914Y-105485714D02*
X143940533Y-105390476D01*
X83704819Y-155857142D02*
X83228628Y-155523809D01*
X83704819Y-155285714D02*
X82704819Y-155285714D01*
X82704819Y-155285714D02*
X82704819Y-155666666D01*
X82704819Y-155666666D02*
X82752438Y-155761904D01*
X82752438Y-155761904D02*
X82800057Y-155809523D01*
X82800057Y-155809523D02*
X82895295Y-155857142D01*
X82895295Y-155857142D02*
X83038152Y-155857142D01*
X83038152Y-155857142D02*
X83133390Y-155809523D01*
X83133390Y-155809523D02*
X83181009Y-155761904D01*
X83181009Y-155761904D02*
X83228628Y-155666666D01*
X83228628Y-155666666D02*
X83228628Y-155285714D01*
X83704819Y-156809523D02*
X83704819Y-156238095D01*
X83704819Y-156523809D02*
X82704819Y-156523809D01*
X82704819Y-156523809D02*
X82847676Y-156428571D01*
X82847676Y-156428571D02*
X82942914Y-156333333D01*
X82942914Y-156333333D02*
X82990533Y-156238095D01*
X83704819Y-157285714D02*
X83704819Y-157476190D01*
X83704819Y-157476190D02*
X83657200Y-157571428D01*
X83657200Y-157571428D02*
X83609580Y-157619047D01*
X83609580Y-157619047D02*
X83466723Y-157714285D01*
X83466723Y-157714285D02*
X83276247Y-157761904D01*
X83276247Y-157761904D02*
X82895295Y-157761904D01*
X82895295Y-157761904D02*
X82800057Y-157714285D01*
X82800057Y-157714285D02*
X82752438Y-157666666D01*
X82752438Y-157666666D02*
X82704819Y-157571428D01*
X82704819Y-157571428D02*
X82704819Y-157380952D01*
X82704819Y-157380952D02*
X82752438Y-157285714D01*
X82752438Y-157285714D02*
X82800057Y-157238095D01*
X82800057Y-157238095D02*
X82895295Y-157190476D01*
X82895295Y-157190476D02*
X83133390Y-157190476D01*
X83133390Y-157190476D02*
X83228628Y-157238095D01*
X83228628Y-157238095D02*
X83276247Y-157285714D01*
X83276247Y-157285714D02*
X83323866Y-157380952D01*
X83323866Y-157380952D02*
X83323866Y-157571428D01*
X83323866Y-157571428D02*
X83276247Y-157666666D01*
X83276247Y-157666666D02*
X83228628Y-157714285D01*
X83228628Y-157714285D02*
X83133390Y-157761904D01*
X84934580Y-155807142D02*
X84982200Y-155759523D01*
X84982200Y-155759523D02*
X85029819Y-155616666D01*
X85029819Y-155616666D02*
X85029819Y-155521428D01*
X85029819Y-155521428D02*
X84982200Y-155378571D01*
X84982200Y-155378571D02*
X84886961Y-155283333D01*
X84886961Y-155283333D02*
X84791723Y-155235714D01*
X84791723Y-155235714D02*
X84601247Y-155188095D01*
X84601247Y-155188095D02*
X84458390Y-155188095D01*
X84458390Y-155188095D02*
X84267914Y-155235714D01*
X84267914Y-155235714D02*
X84172676Y-155283333D01*
X84172676Y-155283333D02*
X84077438Y-155378571D01*
X84077438Y-155378571D02*
X84029819Y-155521428D01*
X84029819Y-155521428D02*
X84029819Y-155616666D01*
X84029819Y-155616666D02*
X84077438Y-155759523D01*
X84077438Y-155759523D02*
X84125057Y-155807142D01*
X84029819Y-156140476D02*
X84029819Y-156807142D01*
X84029819Y-156807142D02*
X85029819Y-156378571D01*
X84029819Y-157092857D02*
X84029819Y-157711904D01*
X84029819Y-157711904D02*
X84410771Y-157378571D01*
X84410771Y-157378571D02*
X84410771Y-157521428D01*
X84410771Y-157521428D02*
X84458390Y-157616666D01*
X84458390Y-157616666D02*
X84506009Y-157664285D01*
X84506009Y-157664285D02*
X84601247Y-157711904D01*
X84601247Y-157711904D02*
X84839342Y-157711904D01*
X84839342Y-157711904D02*
X84934580Y-157664285D01*
X84934580Y-157664285D02*
X84982200Y-157616666D01*
X84982200Y-157616666D02*
X85029819Y-157521428D01*
X85029819Y-157521428D02*
X85029819Y-157235714D01*
X85029819Y-157235714D02*
X84982200Y-157140476D01*
X84982200Y-157140476D02*
X84934580Y-157092857D01*
X143359580Y-104757142D02*
X143407200Y-104709523D01*
X143407200Y-104709523D02*
X143454819Y-104566666D01*
X143454819Y-104566666D02*
X143454819Y-104471428D01*
X143454819Y-104471428D02*
X143407200Y-104328571D01*
X143407200Y-104328571D02*
X143311961Y-104233333D01*
X143311961Y-104233333D02*
X143216723Y-104185714D01*
X143216723Y-104185714D02*
X143026247Y-104138095D01*
X143026247Y-104138095D02*
X142883390Y-104138095D01*
X142883390Y-104138095D02*
X142692914Y-104185714D01*
X142692914Y-104185714D02*
X142597676Y-104233333D01*
X142597676Y-104233333D02*
X142502438Y-104328571D01*
X142502438Y-104328571D02*
X142454819Y-104471428D01*
X142454819Y-104471428D02*
X142454819Y-104566666D01*
X142454819Y-104566666D02*
X142502438Y-104709523D01*
X142502438Y-104709523D02*
X142550057Y-104757142D01*
X142788152Y-105614285D02*
X143454819Y-105614285D01*
X142407200Y-105376190D02*
X143121485Y-105138095D01*
X143121485Y-105138095D02*
X143121485Y-105757142D01*
X142454819Y-106328571D02*
X142454819Y-106423809D01*
X142454819Y-106423809D02*
X142502438Y-106519047D01*
X142502438Y-106519047D02*
X142550057Y-106566666D01*
X142550057Y-106566666D02*
X142645295Y-106614285D01*
X142645295Y-106614285D02*
X142835771Y-106661904D01*
X142835771Y-106661904D02*
X143073866Y-106661904D01*
X143073866Y-106661904D02*
X143264342Y-106614285D01*
X143264342Y-106614285D02*
X143359580Y-106566666D01*
X143359580Y-106566666D02*
X143407200Y-106519047D01*
X143407200Y-106519047D02*
X143454819Y-106423809D01*
X143454819Y-106423809D02*
X143454819Y-106328571D01*
X143454819Y-106328571D02*
X143407200Y-106233333D01*
X143407200Y-106233333D02*
X143359580Y-106185714D01*
X143359580Y-106185714D02*
X143264342Y-106138095D01*
X143264342Y-106138095D02*
X143073866Y-106090476D01*
X143073866Y-106090476D02*
X142835771Y-106090476D01*
X142835771Y-106090476D02*
X142645295Y-106138095D01*
X142645295Y-106138095D02*
X142550057Y-106185714D01*
X142550057Y-106185714D02*
X142502438Y-106233333D01*
X142502438Y-106233333D02*
X142454819Y-106328571D01*
X118609580Y-76682142D02*
X118657200Y-76634523D01*
X118657200Y-76634523D02*
X118704819Y-76491666D01*
X118704819Y-76491666D02*
X118704819Y-76396428D01*
X118704819Y-76396428D02*
X118657200Y-76253571D01*
X118657200Y-76253571D02*
X118561961Y-76158333D01*
X118561961Y-76158333D02*
X118466723Y-76110714D01*
X118466723Y-76110714D02*
X118276247Y-76063095D01*
X118276247Y-76063095D02*
X118133390Y-76063095D01*
X118133390Y-76063095D02*
X117942914Y-76110714D01*
X117942914Y-76110714D02*
X117847676Y-76158333D01*
X117847676Y-76158333D02*
X117752438Y-76253571D01*
X117752438Y-76253571D02*
X117704819Y-76396428D01*
X117704819Y-76396428D02*
X117704819Y-76491666D01*
X117704819Y-76491666D02*
X117752438Y-76634523D01*
X117752438Y-76634523D02*
X117800057Y-76682142D01*
X118038152Y-77539285D02*
X118704819Y-77539285D01*
X117657200Y-77301190D02*
X118371485Y-77063095D01*
X118371485Y-77063095D02*
X118371485Y-77682142D01*
X117704819Y-78491666D02*
X117704819Y-78301190D01*
X117704819Y-78301190D02*
X117752438Y-78205952D01*
X117752438Y-78205952D02*
X117800057Y-78158333D01*
X117800057Y-78158333D02*
X117942914Y-78063095D01*
X117942914Y-78063095D02*
X118133390Y-78015476D01*
X118133390Y-78015476D02*
X118514342Y-78015476D01*
X118514342Y-78015476D02*
X118609580Y-78063095D01*
X118609580Y-78063095D02*
X118657200Y-78110714D01*
X118657200Y-78110714D02*
X118704819Y-78205952D01*
X118704819Y-78205952D02*
X118704819Y-78396428D01*
X118704819Y-78396428D02*
X118657200Y-78491666D01*
X118657200Y-78491666D02*
X118609580Y-78539285D01*
X118609580Y-78539285D02*
X118514342Y-78586904D01*
X118514342Y-78586904D02*
X118276247Y-78586904D01*
X118276247Y-78586904D02*
X118181009Y-78539285D01*
X118181009Y-78539285D02*
X118133390Y-78491666D01*
X118133390Y-78491666D02*
X118085771Y-78396428D01*
X118085771Y-78396428D02*
X118085771Y-78205952D01*
X118085771Y-78205952D02*
X118133390Y-78110714D01*
X118133390Y-78110714D02*
X118181009Y-78063095D01*
X118181009Y-78063095D02*
X118276247Y-78015476D01*
X145459580Y-76707142D02*
X145507200Y-76659523D01*
X145507200Y-76659523D02*
X145554819Y-76516666D01*
X145554819Y-76516666D02*
X145554819Y-76421428D01*
X145554819Y-76421428D02*
X145507200Y-76278571D01*
X145507200Y-76278571D02*
X145411961Y-76183333D01*
X145411961Y-76183333D02*
X145316723Y-76135714D01*
X145316723Y-76135714D02*
X145126247Y-76088095D01*
X145126247Y-76088095D02*
X144983390Y-76088095D01*
X144983390Y-76088095D02*
X144792914Y-76135714D01*
X144792914Y-76135714D02*
X144697676Y-76183333D01*
X144697676Y-76183333D02*
X144602438Y-76278571D01*
X144602438Y-76278571D02*
X144554819Y-76421428D01*
X144554819Y-76421428D02*
X144554819Y-76516666D01*
X144554819Y-76516666D02*
X144602438Y-76659523D01*
X144602438Y-76659523D02*
X144650057Y-76707142D01*
X144554819Y-77040476D02*
X144554819Y-77659523D01*
X144554819Y-77659523D02*
X144935771Y-77326190D01*
X144935771Y-77326190D02*
X144935771Y-77469047D01*
X144935771Y-77469047D02*
X144983390Y-77564285D01*
X144983390Y-77564285D02*
X145031009Y-77611904D01*
X145031009Y-77611904D02*
X145126247Y-77659523D01*
X145126247Y-77659523D02*
X145364342Y-77659523D01*
X145364342Y-77659523D02*
X145459580Y-77611904D01*
X145459580Y-77611904D02*
X145507200Y-77564285D01*
X145507200Y-77564285D02*
X145554819Y-77469047D01*
X145554819Y-77469047D02*
X145554819Y-77183333D01*
X145554819Y-77183333D02*
X145507200Y-77088095D01*
X145507200Y-77088095D02*
X145459580Y-77040476D01*
X144554819Y-78516666D02*
X144554819Y-78326190D01*
X144554819Y-78326190D02*
X144602438Y-78230952D01*
X144602438Y-78230952D02*
X144650057Y-78183333D01*
X144650057Y-78183333D02*
X144792914Y-78088095D01*
X144792914Y-78088095D02*
X144983390Y-78040476D01*
X144983390Y-78040476D02*
X145364342Y-78040476D01*
X145364342Y-78040476D02*
X145459580Y-78088095D01*
X145459580Y-78088095D02*
X145507200Y-78135714D01*
X145507200Y-78135714D02*
X145554819Y-78230952D01*
X145554819Y-78230952D02*
X145554819Y-78421428D01*
X145554819Y-78421428D02*
X145507200Y-78516666D01*
X145507200Y-78516666D02*
X145459580Y-78564285D01*
X145459580Y-78564285D02*
X145364342Y-78611904D01*
X145364342Y-78611904D02*
X145126247Y-78611904D01*
X145126247Y-78611904D02*
X145031009Y-78564285D01*
X145031009Y-78564285D02*
X144983390Y-78516666D01*
X144983390Y-78516666D02*
X144935771Y-78421428D01*
X144935771Y-78421428D02*
X144935771Y-78230952D01*
X144935771Y-78230952D02*
X144983390Y-78135714D01*
X144983390Y-78135714D02*
X145031009Y-78088095D01*
X145031009Y-78088095D02*
X145126247Y-78040476D01*
D12*
%TO.C,C16*%
X135990000Y-64650000D02*
X135990000Y-64710000D01*
X136710000Y-64650000D02*
X136710000Y-64710000D01*
%TO.C,R16*%
X139670000Y-159200000D02*
X139670000Y-159200000D01*
X140430000Y-159200000D02*
X140430000Y-159200000D01*
D13*
%TO.C,Y1*%
X138400000Y-80400000D02*
X138400000Y-80000000D01*
X140200000Y-78600000D02*
X141600000Y-78600000D01*
X141600000Y-81800000D02*
X140200000Y-81800000D01*
X143400000Y-80400000D02*
X143400000Y-80000000D01*
D14*
X144210000Y-81320000D02*
G75*
G02*
X144010000Y-81320000I-100000J0D01*
G01*
X144010000Y-81320000D02*
G75*
G02*
X144210000Y-81320000I100000J0D01*
G01*
D12*
%TO.C,C69*%
X254890000Y-159180000D02*
X254890000Y-159120000D01*
X255610000Y-159180000D02*
X255610000Y-159120000D01*
%TO.C,C65*%
X121240000Y-156730000D02*
X121240000Y-156670000D01*
X121960000Y-156730000D02*
X121960000Y-156670000D01*
%TO.C,R18*%
X252970000Y-159150000D02*
X252970000Y-159150000D01*
X253730000Y-159150000D02*
X253730000Y-159150000D01*
D13*
%TO.C,C50*%
X65100000Y-140850000D02*
X65100000Y-133550000D01*
X69400000Y-140850000D02*
X69400000Y-133550000D01*
D14*
X67350000Y-142100000D02*
G75*
G02*
X67150000Y-142100000I-100000J0D01*
G01*
X67150000Y-142100000D02*
G75*
G02*
X67350000Y-142100000I100000J0D01*
G01*
D12*
%TO.C,C17*%
X137040000Y-64650000D02*
X137040000Y-64710000D01*
X137760000Y-64650000D02*
X137760000Y-64710000D01*
%TO.C,C55*%
X173620000Y-142440000D02*
X173680000Y-142440000D01*
X173620000Y-143160000D02*
X173680000Y-143160000D01*
%TO.C,C70*%
X253940000Y-159180000D02*
X253940000Y-159120000D01*
X254660000Y-159180000D02*
X254660000Y-159120000D01*
%TO.C,C58*%
X227970000Y-142640000D02*
X228030000Y-142640000D01*
X227970000Y-143360000D02*
X228030000Y-143360000D01*
%TO.C,R17*%
X196370000Y-159150000D02*
X196370000Y-159150000D01*
X197130000Y-159150000D02*
X197130000Y-159150000D01*
%TO.C,C72*%
X85140000Y-159230000D02*
X85140000Y-159170000D01*
X85860000Y-159230000D02*
X85860000Y-159170000D01*
%TO.C,C67*%
X197390000Y-159180000D02*
X197390000Y-159120000D01*
X198110000Y-159180000D02*
X198110000Y-159120000D01*
%TO.C,C64*%
X140840000Y-159230000D02*
X140840000Y-159170000D01*
X141560000Y-159230000D02*
X141560000Y-159170000D01*
%TO.C,C27*%
X167390000Y-86788748D02*
X167390000Y-88211252D01*
X169210000Y-86788748D02*
X169210000Y-88211252D01*
D13*
%TO.C,C59*%
X223750000Y-140850000D02*
X223750000Y-133550000D01*
X228050000Y-140850000D02*
X228050000Y-133550000D01*
D14*
X226000000Y-142100000D02*
G75*
G02*
X225800000Y-142100000I-100000J0D01*
G01*
X225800000Y-142100000D02*
G75*
G02*
X226000000Y-142100000I100000J0D01*
G01*
D12*
%TO.C,R6*%
X138070000Y-64680000D02*
X138070000Y-64680000D01*
X138830000Y-64680000D02*
X138830000Y-64680000D01*
%TO.C,R2*%
X141050000Y-83320000D02*
X141050000Y-83320000D01*
X141050000Y-84080000D02*
X141050000Y-84080000D01*
%TO.C,C14*%
X140062500Y-82340000D02*
X140122500Y-82340000D01*
X140062500Y-83060000D02*
X140122500Y-83060000D01*
%TO.C,C13*%
X142022500Y-82340000D02*
X141962500Y-82340000D01*
X142022500Y-83060000D02*
X141962500Y-83060000D01*
%TO.C,C63*%
X141940000Y-159230000D02*
X141940000Y-159170000D01*
X142660000Y-159230000D02*
X142660000Y-159170000D01*
%TO.C,C22*%
X133040000Y-80336252D02*
X133040000Y-78913748D01*
X134860000Y-80336252D02*
X134860000Y-78913748D01*
%TO.C,C74*%
X70620000Y-155190000D02*
X70680000Y-155190000D01*
X70620000Y-155910000D02*
X70680000Y-155910000D01*
%TO.C,C52*%
X120270000Y-142340000D02*
X120330000Y-142340000D01*
X120270000Y-143060000D02*
X120330000Y-143060000D01*
%TO.C,C71*%
X229140000Y-157180000D02*
X229140000Y-157120000D01*
X229860000Y-157180000D02*
X229860000Y-157120000D01*
%TO.C,C66*%
X198390000Y-159180000D02*
X198390000Y-159120000D01*
X199110000Y-159180000D02*
X199110000Y-159120000D01*
%TO.C,C68*%
X174190000Y-157030000D02*
X174190000Y-156970000D01*
X174910000Y-157030000D02*
X174910000Y-156970000D01*
D13*
%TO.C,C53*%
X116250000Y-140850000D02*
X116250000Y-133550000D01*
X120550000Y-140850000D02*
X120550000Y-133550000D01*
D14*
X118500000Y-142100000D02*
G75*
G02*
X118300000Y-142100000I-100000J0D01*
G01*
X118300000Y-142100000D02*
G75*
G02*
X118500000Y-142100000I100000J0D01*
G01*
D12*
%TO.C,C49*%
X69020000Y-142490000D02*
X69080000Y-142490000D01*
X69020000Y-143210000D02*
X69080000Y-143210000D01*
D13*
%TO.C,C56*%
X169600000Y-140850000D02*
X169600000Y-133550000D01*
X173900000Y-140850000D02*
X173900000Y-133550000D01*
D14*
X171850000Y-142100000D02*
G75*
G02*
X171650000Y-142100000I-100000J0D01*
G01*
X171650000Y-142100000D02*
G75*
G02*
X171850000Y-142100000I100000J0D01*
G01*
D12*
%TO.C,R19*%
X83170000Y-159200000D02*
X83170000Y-159200000D01*
X83930000Y-159200000D02*
X83930000Y-159200000D01*
%TO.C,C73*%
X84190000Y-159230000D02*
X84190000Y-159170000D01*
X84910000Y-159230000D02*
X84910000Y-159170000D01*
%TO.C,C46*%
X115490000Y-78036252D02*
X115490000Y-76613748D01*
X117310000Y-78036252D02*
X117310000Y-76613748D01*
%TD*%
%LPC*%
D15*
%TO.C,J2*%
X251492500Y-74915000D03*
X251492500Y-69115000D03*
D16*
X246692500Y-71915000D03*
%TD*%
D17*
%TO.C,J6*%
X239800000Y-157660000D03*
X242300000Y-157660000D03*
X244300000Y-157660000D03*
X246800000Y-157660000D03*
D18*
X236730000Y-160370000D03*
X249870000Y-160370000D03*
%TD*%
D17*
%TO.C,J5*%
X183340000Y-157660000D03*
X185840000Y-157660000D03*
X187840000Y-157660000D03*
X190340000Y-157660000D03*
D18*
X180270000Y-160370000D03*
X193410000Y-160370000D03*
%TD*%
D17*
%TO.C,J7*%
X70420000Y-157660000D03*
X72920000Y-157660000D03*
X74920000Y-157660000D03*
X77420000Y-157660000D03*
D18*
X67350000Y-160370000D03*
X80490000Y-160370000D03*
%TD*%
D17*
%TO.C,J4*%
X126880000Y-157660000D03*
X129380000Y-157660000D03*
X131380000Y-157660000D03*
X133880000Y-157660000D03*
D18*
X123810000Y-160370000D03*
X136950000Y-160370000D03*
%TD*%
D17*
%TO.C,J1*%
X152674999Y-65433197D03*
X150174999Y-65433197D03*
X148174999Y-65433197D03*
X145674999Y-65433197D03*
D18*
X155744999Y-62723197D03*
X142604999Y-62723197D03*
%TD*%
D19*
%TO.C,C16*%
X136350000Y-64200000D03*
X136350000Y-65160000D03*
%TD*%
D20*
%TO.C,FB4*%
X227050000Y-158035000D03*
X227050000Y-156565000D03*
%TD*%
D21*
%TO.C,C26*%
X149524264Y-96242893D03*
X148884264Y-96242893D03*
%TD*%
D20*
%TO.C,FB2*%
X119100000Y-157600000D03*
X119100000Y-156130000D03*
%TD*%
D22*
%TO.C,C34*%
X147700000Y-100320000D03*
X147700000Y-99680000D03*
%TD*%
D23*
%TO.C,C7*%
X143200000Y-87280000D03*
X143200000Y-87920000D03*
%TD*%
D21*
%TO.C,C4*%
X134770000Y-97292893D03*
X134130000Y-97292893D03*
%TD*%
D24*
%TO.C,R16*%
X140050000Y-159710000D03*
X140050000Y-158690000D03*
%TD*%
D21*
%TO.C,C25*%
X135194264Y-98000000D03*
X134554264Y-98000000D03*
%TD*%
D23*
%TO.C,C3*%
X139650000Y-87080000D03*
X139650000Y-87720000D03*
%TD*%
D25*
%TO.C,Y1*%
X142750000Y-81300000D03*
X139050000Y-81300000D03*
X139050000Y-79100000D03*
X142750000Y-79100000D03*
%TD*%
D26*
%TO.C,C69*%
X255250000Y-159630000D03*
X255250000Y-158670000D03*
%TD*%
D27*
%TO.C,C9*%
X136280000Y-92700000D03*
X136920000Y-92700000D03*
%TD*%
D26*
%TO.C,C65*%
X121600000Y-157180000D03*
X121600000Y-156220000D03*
%TD*%
D22*
%TO.C,C33*%
X145600000Y-100340000D03*
X145600000Y-99700000D03*
%TD*%
D24*
%TO.C,R18*%
X253350000Y-159660000D03*
X253350000Y-158640000D03*
%TD*%
D28*
%TO.C,C50*%
X67250000Y-140400000D03*
X67250000Y-134000000D03*
%TD*%
D27*
%TO.C,C31*%
X136880000Y-92000000D03*
X137520000Y-92000000D03*
%TD*%
D19*
%TO.C,C17*%
X137400000Y-64200000D03*
X137400000Y-65160000D03*
%TD*%
D23*
%TO.C,C19*%
X138942893Y-86655736D03*
X138942893Y-87295736D03*
%TD*%
D22*
%TO.C,C23*%
X148207107Y-85774264D03*
X148207107Y-85134264D03*
%TD*%
D29*
%TO.C,C55*%
X173170000Y-142800000D03*
X174130000Y-142800000D03*
%TD*%
D23*
%TO.C,C6*%
X145500000Y-86880000D03*
X145500000Y-87520000D03*
%TD*%
D26*
%TO.C,C70*%
X254300000Y-159630000D03*
X254300000Y-158670000D03*
%TD*%
D29*
%TO.C,C58*%
X227520000Y-143000000D03*
X228480000Y-143000000D03*
%TD*%
D24*
%TO.C,R17*%
X196750000Y-159660000D03*
X196750000Y-158640000D03*
%TD*%
D22*
%TO.C,C10*%
X141700000Y-99975000D03*
X141700000Y-99335000D03*
%TD*%
D26*
%TO.C,C72*%
X85500000Y-159680000D03*
X85500000Y-158720000D03*
%TD*%
%TO.C,C67*%
X197750000Y-159630000D03*
X197750000Y-158670000D03*
%TD*%
D21*
%TO.C,C20*%
X135194264Y-96585787D03*
X134554264Y-96585787D03*
%TD*%
D22*
%TO.C,C32*%
X142400000Y-100400000D03*
X142400000Y-99760000D03*
%TD*%
D26*
%TO.C,C64*%
X141200000Y-159680000D03*
X141200000Y-158720000D03*
%TD*%
D22*
%TO.C,C12*%
X147000000Y-99900000D03*
X147000000Y-99260000D03*
%TD*%
%TO.C,C2*%
X147500000Y-85350000D03*
X147500000Y-84710000D03*
%TD*%
D30*
%TO.C,C27*%
X168300000Y-86025000D03*
X168300000Y-88975000D03*
%TD*%
D27*
%TO.C,C37*%
X136280000Y-95000000D03*
X136920000Y-95000000D03*
%TD*%
D28*
%TO.C,C59*%
X225900000Y-140400000D03*
X225900000Y-134000000D03*
%TD*%
D31*
%TO.C,R6*%
X138450000Y-64170000D03*
X138450000Y-65190000D03*
%TD*%
D32*
%TO.C,R2*%
X141560000Y-83700000D03*
X140540000Y-83700000D03*
%TD*%
D29*
%TO.C,C14*%
X139612500Y-82700000D03*
X140572500Y-82700000D03*
%TD*%
D33*
%TO.C,C13*%
X142472500Y-82700000D03*
X141512500Y-82700000D03*
%TD*%
D27*
%TO.C,C30*%
X136280000Y-96400000D03*
X136920000Y-96400000D03*
%TD*%
D26*
%TO.C,C63*%
X142300000Y-159680000D03*
X142300000Y-158720000D03*
%TD*%
D20*
%TO.C,FB3*%
X172500000Y-158085000D03*
X172500000Y-156615000D03*
%TD*%
D23*
%TO.C,C28*%
X146200000Y-87280000D03*
X146200000Y-87920000D03*
%TD*%
D34*
%TO.C,C22*%
X133950000Y-81100000D03*
X133950000Y-78150000D03*
%TD*%
D27*
%TO.C,C8*%
X136880000Y-95700000D03*
X137520000Y-95700000D03*
%TD*%
D23*
%TO.C,C24*%
X140427818Y-86726447D03*
X140427818Y-87366447D03*
%TD*%
D22*
%TO.C,C41*%
X146300000Y-100340000D03*
X146300000Y-99700000D03*
%TD*%
D29*
%TO.C,C74*%
X70170000Y-155550000D03*
X71130000Y-155550000D03*
%TD*%
%TO.C,C52*%
X119820000Y-142700000D03*
X120780000Y-142700000D03*
%TD*%
D26*
%TO.C,C71*%
X229500000Y-157630000D03*
X229500000Y-156670000D03*
%TD*%
%TO.C,C66*%
X198750000Y-159630000D03*
X198750000Y-158670000D03*
%TD*%
%TO.C,C68*%
X174550000Y-157480000D03*
X174550000Y-156520000D03*
%TD*%
D28*
%TO.C,C53*%
X118400000Y-140400000D03*
X118400000Y-134000000D03*
%TD*%
D35*
%TO.C,FB5*%
X133100000Y-85650000D03*
X131630000Y-85650000D03*
%TD*%
D23*
%TO.C,C35*%
X146900000Y-86880000D03*
X146900000Y-87520000D03*
%TD*%
D22*
%TO.C,C18*%
X146792893Y-85915686D03*
X146792893Y-85275686D03*
%TD*%
D21*
%TO.C,C21*%
X149524264Y-97657107D03*
X148884264Y-97657107D03*
%TD*%
D20*
%TO.C,FB7*%
X66750000Y-154370000D03*
X66750000Y-152900000D03*
%TD*%
D36*
%TO.C,FB6*%
X169030000Y-83300000D03*
X170500000Y-83300000D03*
%TD*%
D23*
%TO.C,C29*%
X143900000Y-87000000D03*
X143900000Y-87640000D03*
%TD*%
D22*
%TO.C,C39*%
X141000000Y-100420000D03*
X141000000Y-99780000D03*
%TD*%
D21*
%TO.C,C5*%
X149100000Y-96950000D03*
X148460000Y-96950000D03*
%TD*%
D29*
%TO.C,C49*%
X68570000Y-142850000D03*
X69530000Y-142850000D03*
%TD*%
D28*
%TO.C,C56*%
X171750000Y-140400000D03*
X171750000Y-134000000D03*
%TD*%
D27*
%TO.C,C38*%
X136280000Y-91300000D03*
X136920000Y-91300000D03*
%TD*%
D22*
%TO.C,C11*%
X144900000Y-99975000D03*
X144900000Y-99335000D03*
%TD*%
D24*
%TO.C,R19*%
X83550000Y-159710000D03*
X83550000Y-158690000D03*
%TD*%
D26*
%TO.C,C73*%
X84550000Y-159680000D03*
X84550000Y-158720000D03*
%TD*%
D22*
%TO.C,C40*%
X144200000Y-100340000D03*
X144200000Y-99700000D03*
%TD*%
D34*
%TO.C,C46*%
X116400000Y-78800000D03*
X116400000Y-75850000D03*
%TD*%
D23*
%TO.C,C36*%
X142480000Y-87000000D03*
X142480000Y-87640000D03*
%TD*%
%LPD*%
M02*
