%TF.GenerationSoftware,KiCad,Pcbnew,9.0.1*%
%TF.CreationDate,2025-04-09T09:38:03-07:00*%
%TF.ProjectId,DeskHub,4465736b-4875-4622-9e6b-696361645f70,rev?*%
%TF.SameCoordinates,Original*%
%TF.FileFunction,Soldermask,Bot*%
%TF.FilePolarity,Negative*%
%FSLAX46Y46*%
G04 Gerber Fmt 4.6, Leading zero omitted, Abs format (unit mm)*
G04 Created by KiCad (PCBNEW 9.0.1) date 2025-04-09 09:38:03*
%MOMM*%
%LPD*%
G01*
G04 APERTURE LIST*
G04 Aperture macros list*
%AMRoundRect*
0 Rectangle with rounded corners*
0 $1 Rounding radius*
0 $2 $3 $4 $5 $6 $7 $8 $9 X,Y pos of 4 corners*
0 Add a 4 corners polygon primitive as box body*
4,1,4,$2,$3,$4,$5,$6,$7,$8,$9,$2,$3,0*
0 Add four circle primitives for the rounded corners*
1,1,$1+$1,$2,$3*
1,1,$1+$1,$4,$5*
1,1,$1+$1,$6,$7*
1,1,$1+$1,$8,$9*
0 Add four rect primitives between the rounded corners*
20,1,$1+$1,$2,$3,$4,$5,0*
20,1,$1+$1,$4,$5,$6,$7,0*
20,1,$1+$1,$6,$7,$8,$9,0*
20,1,$1+$1,$8,$9,$2,$3,0*%
G04 Aperture macros list end*
%ADD10O,4.904000X2.204000*%
%ADD11O,2.204000X4.904000*%
%ADD12C,1.632000*%
%ADD13C,3.520000*%
%ADD14RoundRect,0.140000X-0.170000X0.140000X-0.170000X-0.140000X0.170000X-0.140000X0.170000X0.140000X0*%
%ADD15RoundRect,0.102000X0.485000X-0.500000X0.485000X0.500000X-0.485000X0.500000X-0.485000X-0.500000X0*%
%ADD16RoundRect,0.100000X0.130000X0.100000X-0.130000X0.100000X-0.130000X-0.100000X0.130000X-0.100000X0*%
%ADD17RoundRect,0.100000X0.100000X-0.130000X0.100000X0.130000X-0.100000X0.130000X-0.100000X-0.130000X0*%
%ADD18RoundRect,0.100000X-0.100000X0.130000X-0.100000X-0.130000X0.100000X-0.130000X0.100000X0.130000X0*%
%ADD19RoundRect,0.135000X0.185000X-0.135000X0.185000X0.135000X-0.185000X0.135000X-0.185000X-0.135000X0*%
%ADD20RoundRect,0.102000X0.800000X0.625000X-0.800000X0.625000X-0.800000X-0.625000X0.800000X-0.625000X0*%
%ADD21RoundRect,0.140000X0.170000X-0.140000X0.170000X0.140000X-0.170000X0.140000X-0.170000X-0.140000X0*%
%ADD22RoundRect,0.100000X-0.130000X-0.100000X0.130000X-0.100000X0.130000X0.100000X-0.130000X0.100000X0*%
%ADD23RoundRect,0.102000X1.400000X-1.200000X1.400000X1.200000X-1.400000X1.200000X-1.400000X-1.200000X0*%
%ADD24RoundRect,0.140000X-0.140000X-0.170000X0.140000X-0.170000X0.140000X0.170000X-0.140000X0.170000X0*%
%ADD25RoundRect,0.250000X-0.650000X0.325000X-0.650000X-0.325000X0.650000X-0.325000X0.650000X0.325000X0*%
%ADD26RoundRect,0.135000X-0.185000X0.135000X-0.185000X-0.135000X0.185000X-0.135000X0.185000X0.135000X0*%
%ADD27RoundRect,0.135000X0.135000X0.185000X-0.135000X0.185000X-0.135000X-0.185000X0.135000X-0.185000X0*%
%ADD28RoundRect,0.140000X0.140000X0.170000X-0.140000X0.170000X-0.140000X-0.170000X0.140000X-0.170000X0*%
%ADD29RoundRect,0.250000X0.650000X-0.325000X0.650000X0.325000X-0.650000X0.325000X-0.650000X-0.325000X0*%
%ADD30RoundRect,0.102000X0.500000X0.485000X-0.500000X0.485000X-0.500000X-0.485000X0.500000X-0.485000X0*%
%ADD31RoundRect,0.102000X-0.500000X-0.485000X0.500000X-0.485000X0.500000X0.485000X-0.500000X0.485000X0*%
G04 APERTURE END LIST*
D10*
%TO.C,J2*%
X251492500Y-74915000D03*
X251492500Y-69115000D03*
D11*
X246692500Y-71915000D03*
%TD*%
D12*
%TO.C,J6*%
X239800000Y-157660000D03*
X242300000Y-157660000D03*
X244300000Y-157660000D03*
X246800000Y-157660000D03*
D13*
X236730000Y-160370000D03*
X249870000Y-160370000D03*
%TD*%
D12*
%TO.C,J5*%
X183340000Y-157660000D03*
X185840000Y-157660000D03*
X187840000Y-157660000D03*
X190340000Y-157660000D03*
D13*
X180270000Y-160370000D03*
X193410000Y-160370000D03*
%TD*%
D12*
%TO.C,J7*%
X70420000Y-157660000D03*
X72920000Y-157660000D03*
X74920000Y-157660000D03*
X77420000Y-157660000D03*
D13*
X67350000Y-160370000D03*
X80490000Y-160370000D03*
%TD*%
D12*
%TO.C,J4*%
X126880000Y-157660000D03*
X129380000Y-157660000D03*
X131380000Y-157660000D03*
X133880000Y-157660000D03*
D13*
X123810000Y-160370000D03*
X136950000Y-160370000D03*
%TD*%
D12*
%TO.C,J1*%
X152674999Y-65433197D03*
X150174999Y-65433197D03*
X148174999Y-65433197D03*
X145674999Y-65433197D03*
D13*
X155744999Y-62723197D03*
X142604999Y-62723197D03*
%TD*%
D14*
%TO.C,C16*%
X136350000Y-64200000D03*
X136350000Y-65160000D03*
%TD*%
D15*
%TO.C,FB4*%
X227050000Y-158035000D03*
X227050000Y-156565000D03*
%TD*%
D16*
%TO.C,C26*%
X149524264Y-96242893D03*
X148884264Y-96242893D03*
%TD*%
D15*
%TO.C,FB2*%
X119100000Y-157600000D03*
X119100000Y-156130000D03*
%TD*%
D17*
%TO.C,C34*%
X147700000Y-100320000D03*
X147700000Y-99680000D03*
%TD*%
D18*
%TO.C,C7*%
X143200000Y-87280000D03*
X143200000Y-87920000D03*
%TD*%
D16*
%TO.C,C4*%
X134770000Y-97292893D03*
X134130000Y-97292893D03*
%TD*%
D19*
%TO.C,R16*%
X140050000Y-159710000D03*
X140050000Y-158690000D03*
%TD*%
D16*
%TO.C,C25*%
X135194264Y-98000000D03*
X134554264Y-98000000D03*
%TD*%
D18*
%TO.C,C3*%
X139650000Y-87080000D03*
X139650000Y-87720000D03*
%TD*%
D20*
%TO.C,Y1*%
X142750000Y-81300000D03*
X139050000Y-81300000D03*
X139050000Y-79100000D03*
X142750000Y-79100000D03*
%TD*%
D21*
%TO.C,C69*%
X255250000Y-159630000D03*
X255250000Y-158670000D03*
%TD*%
D22*
%TO.C,C9*%
X136280000Y-92700000D03*
X136920000Y-92700000D03*
%TD*%
D21*
%TO.C,C65*%
X121600000Y-157180000D03*
X121600000Y-156220000D03*
%TD*%
D17*
%TO.C,C33*%
X145600000Y-100340000D03*
X145600000Y-99700000D03*
%TD*%
D19*
%TO.C,R18*%
X253350000Y-159660000D03*
X253350000Y-158640000D03*
%TD*%
D23*
%TO.C,C50*%
X67250000Y-140400000D03*
X67250000Y-134000000D03*
%TD*%
D22*
%TO.C,C31*%
X136880000Y-92000000D03*
X137520000Y-92000000D03*
%TD*%
D14*
%TO.C,C17*%
X137400000Y-64200000D03*
X137400000Y-65160000D03*
%TD*%
D18*
%TO.C,C19*%
X138942893Y-86655736D03*
X138942893Y-87295736D03*
%TD*%
D17*
%TO.C,C23*%
X148207107Y-85774264D03*
X148207107Y-85134264D03*
%TD*%
D24*
%TO.C,C55*%
X173170000Y-142800000D03*
X174130000Y-142800000D03*
%TD*%
D18*
%TO.C,C6*%
X145500000Y-86880000D03*
X145500000Y-87520000D03*
%TD*%
D21*
%TO.C,C70*%
X254300000Y-159630000D03*
X254300000Y-158670000D03*
%TD*%
D24*
%TO.C,C58*%
X227520000Y-143000000D03*
X228480000Y-143000000D03*
%TD*%
D19*
%TO.C,R17*%
X196750000Y-159660000D03*
X196750000Y-158640000D03*
%TD*%
D17*
%TO.C,C10*%
X141700000Y-99975000D03*
X141700000Y-99335000D03*
%TD*%
D21*
%TO.C,C72*%
X85500000Y-159680000D03*
X85500000Y-158720000D03*
%TD*%
%TO.C,C67*%
X197750000Y-159630000D03*
X197750000Y-158670000D03*
%TD*%
D16*
%TO.C,C20*%
X135194264Y-96585787D03*
X134554264Y-96585787D03*
%TD*%
D17*
%TO.C,C32*%
X142400000Y-100400000D03*
X142400000Y-99760000D03*
%TD*%
D21*
%TO.C,C64*%
X141200000Y-159680000D03*
X141200000Y-158720000D03*
%TD*%
D17*
%TO.C,C12*%
X147000000Y-99900000D03*
X147000000Y-99260000D03*
%TD*%
%TO.C,C2*%
X147500000Y-85350000D03*
X147500000Y-84710000D03*
%TD*%
D25*
%TO.C,C27*%
X168300000Y-86025000D03*
X168300000Y-88975000D03*
%TD*%
D22*
%TO.C,C37*%
X136280000Y-95000000D03*
X136920000Y-95000000D03*
%TD*%
D23*
%TO.C,C59*%
X225900000Y-140400000D03*
X225900000Y-134000000D03*
%TD*%
D26*
%TO.C,R6*%
X138450000Y-64170000D03*
X138450000Y-65190000D03*
%TD*%
D27*
%TO.C,R2*%
X141560000Y-83700000D03*
X140540000Y-83700000D03*
%TD*%
D24*
%TO.C,C14*%
X139612500Y-82700000D03*
X140572500Y-82700000D03*
%TD*%
D28*
%TO.C,C13*%
X142472500Y-82700000D03*
X141512500Y-82700000D03*
%TD*%
D22*
%TO.C,C30*%
X136280000Y-96400000D03*
X136920000Y-96400000D03*
%TD*%
D21*
%TO.C,C63*%
X142300000Y-159680000D03*
X142300000Y-158720000D03*
%TD*%
D15*
%TO.C,FB3*%
X172500000Y-158085000D03*
X172500000Y-156615000D03*
%TD*%
D18*
%TO.C,C28*%
X146200000Y-87280000D03*
X146200000Y-87920000D03*
%TD*%
D29*
%TO.C,C22*%
X133950000Y-81100000D03*
X133950000Y-78150000D03*
%TD*%
D22*
%TO.C,C8*%
X136880000Y-95700000D03*
X137520000Y-95700000D03*
%TD*%
D18*
%TO.C,C24*%
X140427818Y-86726447D03*
X140427818Y-87366447D03*
%TD*%
D17*
%TO.C,C41*%
X146300000Y-100340000D03*
X146300000Y-99700000D03*
%TD*%
D24*
%TO.C,C74*%
X70170000Y-155550000D03*
X71130000Y-155550000D03*
%TD*%
%TO.C,C52*%
X119820000Y-142700000D03*
X120780000Y-142700000D03*
%TD*%
D21*
%TO.C,C71*%
X229500000Y-157630000D03*
X229500000Y-156670000D03*
%TD*%
%TO.C,C66*%
X198750000Y-159630000D03*
X198750000Y-158670000D03*
%TD*%
%TO.C,C68*%
X174550000Y-157480000D03*
X174550000Y-156520000D03*
%TD*%
D23*
%TO.C,C53*%
X118400000Y-140400000D03*
X118400000Y-134000000D03*
%TD*%
D30*
%TO.C,FB5*%
X133100000Y-85650000D03*
X131630000Y-85650000D03*
%TD*%
D18*
%TO.C,C35*%
X146900000Y-86880000D03*
X146900000Y-87520000D03*
%TD*%
D17*
%TO.C,C18*%
X146792893Y-85915686D03*
X146792893Y-85275686D03*
%TD*%
D16*
%TO.C,C21*%
X149524264Y-97657107D03*
X148884264Y-97657107D03*
%TD*%
D15*
%TO.C,FB7*%
X66750000Y-154370000D03*
X66750000Y-152900000D03*
%TD*%
D31*
%TO.C,FB6*%
X169030000Y-83300000D03*
X170500000Y-83300000D03*
%TD*%
D18*
%TO.C,C29*%
X143900000Y-87000000D03*
X143900000Y-87640000D03*
%TD*%
D17*
%TO.C,C39*%
X141000000Y-100420000D03*
X141000000Y-99780000D03*
%TD*%
D16*
%TO.C,C5*%
X149100000Y-96950000D03*
X148460000Y-96950000D03*
%TD*%
D24*
%TO.C,C49*%
X68570000Y-142850000D03*
X69530000Y-142850000D03*
%TD*%
D23*
%TO.C,C56*%
X171750000Y-140400000D03*
X171750000Y-134000000D03*
%TD*%
D22*
%TO.C,C38*%
X136280000Y-91300000D03*
X136920000Y-91300000D03*
%TD*%
D17*
%TO.C,C11*%
X144900000Y-99975000D03*
X144900000Y-99335000D03*
%TD*%
D19*
%TO.C,R19*%
X83550000Y-159710000D03*
X83550000Y-158690000D03*
%TD*%
D21*
%TO.C,C73*%
X84550000Y-159680000D03*
X84550000Y-158720000D03*
%TD*%
D17*
%TO.C,C40*%
X144200000Y-100340000D03*
X144200000Y-99700000D03*
%TD*%
D29*
%TO.C,C46*%
X116400000Y-78800000D03*
X116400000Y-75850000D03*
%TD*%
D18*
%TO.C,C36*%
X142480000Y-87000000D03*
X142480000Y-87640000D03*
%TD*%
M02*
