%TF.GenerationSoftware,KiCad,Pcbnew,9.0.1*%
%TF.CreationDate,2025-04-16T23:17:08-05:00*%
%TF.ProjectId,DeskHub,4465736b-4875-4622-9e6b-696361645f70,rev?*%
%TF.SameCoordinates,Original*%
%TF.FileFunction,Soldermask,Bot*%
%TF.FilePolarity,Negative*%
%FSLAX46Y46*%
G04 Gerber Fmt 4.6, Leading zero omitted, Abs format (unit mm)*
G04 Created by KiCad (PCBNEW 9.0.1) date 2025-04-16 23:17:08*
%MOMM*%
%LPD*%
G01*
G04 APERTURE LIST*
G04 Aperture macros list*
%AMRoundRect*
0 Rectangle with rounded corners*
0 $1 Rounding radius*
0 $2 $3 $4 $5 $6 $7 $8 $9 X,Y pos of 4 corners*
0 Add a 4 corners polygon primitive as box body*
4,1,4,$2,$3,$4,$5,$6,$7,$8,$9,$2,$3,0*
0 Add four circle primitives for the rounded corners*
1,1,$1+$1,$2,$3*
1,1,$1+$1,$4,$5*
1,1,$1+$1,$6,$7*
1,1,$1+$1,$8,$9*
0 Add four rect primitives between the rounded corners*
20,1,$1+$1,$2,$3,$4,$5,0*
20,1,$1+$1,$4,$5,$6,$7,0*
20,1,$1+$1,$6,$7,$8,$9,0*
20,1,$1+$1,$8,$9,$2,$3,0*%
G04 Aperture macros list end*
%ADD10O,4.904000X2.204000*%
%ADD11O,2.204000X4.904000*%
%ADD12C,1.632000*%
%ADD13C,3.520000*%
%ADD14RoundRect,0.140000X-0.170000X0.140000X-0.170000X-0.140000X0.170000X-0.140000X0.170000X0.140000X0*%
%ADD15RoundRect,0.102000X0.485000X-0.500000X0.485000X0.500000X-0.485000X0.500000X-0.485000X-0.500000X0*%
%ADD16RoundRect,0.100000X0.130000X0.100000X-0.130000X0.100000X-0.130000X-0.100000X0.130000X-0.100000X0*%
%ADD17RoundRect,0.100000X0.100000X-0.130000X0.100000X0.130000X-0.100000X0.130000X-0.100000X-0.130000X0*%
%ADD18RoundRect,0.100000X-0.100000X0.130000X-0.100000X-0.130000X0.100000X-0.130000X0.100000X0.130000X0*%
%ADD19RoundRect,0.135000X0.185000X-0.135000X0.185000X0.135000X-0.185000X0.135000X-0.185000X-0.135000X0*%
%ADD20RoundRect,0.102000X0.800000X0.625000X-0.800000X0.625000X-0.800000X-0.625000X0.800000X-0.625000X0*%
%ADD21RoundRect,0.140000X0.170000X-0.140000X0.170000X0.140000X-0.170000X0.140000X-0.170000X-0.140000X0*%
%ADD22RoundRect,0.100000X-0.130000X-0.100000X0.130000X-0.100000X0.130000X0.100000X-0.130000X0.100000X0*%
%ADD23RoundRect,0.102000X1.400000X-1.200000X1.400000X1.200000X-1.400000X1.200000X-1.400000X-1.200000X0*%
%ADD24RoundRect,0.140000X-0.140000X-0.170000X0.140000X-0.170000X0.140000X0.170000X-0.140000X0.170000X0*%
%ADD25RoundRect,0.250000X-0.650000X0.325000X-0.650000X-0.325000X0.650000X-0.325000X0.650000X0.325000X0*%
%ADD26RoundRect,0.135000X-0.185000X0.135000X-0.185000X-0.135000X0.185000X-0.135000X0.185000X0.135000X0*%
%ADD27RoundRect,0.135000X0.135000X0.185000X-0.135000X0.185000X-0.135000X-0.185000X0.135000X-0.185000X0*%
%ADD28RoundRect,0.140000X0.140000X0.170000X-0.140000X0.170000X-0.140000X-0.170000X0.140000X-0.170000X0*%
%ADD29RoundRect,0.250000X0.650000X-0.325000X0.650000X0.325000X-0.650000X0.325000X-0.650000X-0.325000X0*%
%ADD30RoundRect,0.102000X0.500000X0.485000X-0.500000X0.485000X-0.500000X-0.485000X0.500000X-0.485000X0*%
%ADD31RoundRect,0.102000X-0.500000X-0.485000X0.500000X-0.485000X0.500000X0.485000X-0.500000X0.485000X0*%
G04 APERTURE END LIST*
D10*
%TO.C,J2*%
X197720000Y-73015000D03*
X197720000Y-67215000D03*
D11*
X192920000Y-70015000D03*
%TD*%
D12*
%TO.C,J6*%
X183995000Y-131010000D03*
X186495000Y-131010000D03*
X188495000Y-131010000D03*
X190995000Y-131010000D03*
D13*
X180925000Y-133720000D03*
X194065000Y-133720000D03*
%TD*%
D12*
%TO.C,J5*%
X162680000Y-131010000D03*
X165180000Y-131010000D03*
X167180000Y-131010000D03*
X169680000Y-131010000D03*
D13*
X159610000Y-133720000D03*
X172750000Y-133720000D03*
%TD*%
D12*
%TO.C,J7*%
X120050000Y-131010000D03*
X122550000Y-131010000D03*
X124550000Y-131010000D03*
X127050000Y-131010000D03*
D13*
X116980000Y-133720000D03*
X130120000Y-133720000D03*
%TD*%
D12*
%TO.C,J4*%
X141365000Y-131010000D03*
X143865000Y-131010000D03*
X145865000Y-131010000D03*
X148365000Y-131010000D03*
D13*
X138295000Y-133720000D03*
X151435000Y-133720000D03*
%TD*%
D12*
%TO.C,J1*%
X152674999Y-65433197D03*
X150174999Y-65433197D03*
X148174999Y-65433197D03*
X145674999Y-65433197D03*
D13*
X155744999Y-62723197D03*
X142604999Y-62723197D03*
%TD*%
D14*
%TO.C,C16*%
X136350000Y-64200000D03*
X136350000Y-65160000D03*
%TD*%
D15*
%TO.C,FB4*%
X182075000Y-128485000D03*
X182075000Y-127015000D03*
%TD*%
D16*
%TO.C,C26*%
X149524264Y-96242893D03*
X148884264Y-96242893D03*
%TD*%
D15*
%TO.C,FB2*%
X137100000Y-128410000D03*
X137100000Y-126940000D03*
%TD*%
D17*
%TO.C,C34*%
X147700000Y-100320000D03*
X147700000Y-99680000D03*
%TD*%
D18*
%TO.C,C7*%
X143200000Y-87280000D03*
X143200000Y-87920000D03*
%TD*%
D16*
%TO.C,C4*%
X134770000Y-97292893D03*
X134130000Y-97292893D03*
%TD*%
D19*
%TO.C,R16*%
X133600000Y-133410000D03*
X133600000Y-132390000D03*
%TD*%
D16*
%TO.C,C25*%
X135194264Y-98000000D03*
X134554264Y-98000000D03*
%TD*%
D18*
%TO.C,C3*%
X139650000Y-87080000D03*
X139650000Y-87720000D03*
%TD*%
D20*
%TO.C,Y1*%
X142750000Y-81300000D03*
X139050000Y-81300000D03*
X139050000Y-79100000D03*
X142750000Y-79100000D03*
%TD*%
D21*
%TO.C,C69*%
X199350000Y-133305000D03*
X199350000Y-132345000D03*
%TD*%
D22*
%TO.C,C9*%
X136280000Y-92700000D03*
X136920000Y-92700000D03*
%TD*%
D21*
%TO.C,C65*%
X139600000Y-127990000D03*
X139600000Y-127030000D03*
%TD*%
D17*
%TO.C,C33*%
X145600000Y-100340000D03*
X145600000Y-99700000D03*
%TD*%
D19*
%TO.C,R18*%
X197450000Y-133335000D03*
X197450000Y-132315000D03*
%TD*%
D23*
%TO.C,C50*%
X113325000Y-115262500D03*
X113325000Y-108862500D03*
%TD*%
D22*
%TO.C,C31*%
X136880000Y-92000000D03*
X137520000Y-92000000D03*
%TD*%
D14*
%TO.C,C17*%
X137400000Y-64200000D03*
X137400000Y-65160000D03*
%TD*%
D18*
%TO.C,C19*%
X138942893Y-86655736D03*
X138942893Y-87295736D03*
%TD*%
D17*
%TO.C,C23*%
X148207107Y-85774264D03*
X148207107Y-85134264D03*
%TD*%
D24*
%TO.C,C55*%
X160395000Y-117200000D03*
X161355000Y-117200000D03*
%TD*%
D18*
%TO.C,C6*%
X145500000Y-86880000D03*
X145500000Y-87520000D03*
%TD*%
D21*
%TO.C,C70*%
X198400000Y-133305000D03*
X198400000Y-132345000D03*
%TD*%
D24*
%TO.C,C58*%
X182370000Y-117100000D03*
X183330000Y-117100000D03*
%TD*%
D19*
%TO.C,R17*%
X176100000Y-133460000D03*
X176100000Y-132440000D03*
%TD*%
D17*
%TO.C,C10*%
X141700000Y-99975000D03*
X141700000Y-99335000D03*
%TD*%
D21*
%TO.C,C72*%
X114425000Y-133405000D03*
X114425000Y-132445000D03*
%TD*%
%TO.C,C67*%
X177100000Y-133430000D03*
X177100000Y-132470000D03*
%TD*%
D16*
%TO.C,C20*%
X135194264Y-96585787D03*
X134554264Y-96585787D03*
%TD*%
D17*
%TO.C,C32*%
X142400000Y-100400000D03*
X142400000Y-99760000D03*
%TD*%
D21*
%TO.C,C64*%
X134750000Y-133380000D03*
X134750000Y-132420000D03*
%TD*%
D17*
%TO.C,C12*%
X147000000Y-99900000D03*
X147000000Y-99260000D03*
%TD*%
%TO.C,C2*%
X147500000Y-85350000D03*
X147500000Y-84710000D03*
%TD*%
D25*
%TO.C,C27*%
X168300000Y-86025000D03*
X168300000Y-88975000D03*
%TD*%
D22*
%TO.C,C37*%
X136280000Y-95000000D03*
X136920000Y-95000000D03*
%TD*%
D23*
%TO.C,C59*%
X179525000Y-115262500D03*
X179525000Y-108862500D03*
%TD*%
D26*
%TO.C,R6*%
X138450000Y-64170000D03*
X138450000Y-65190000D03*
%TD*%
D27*
%TO.C,R2*%
X141560000Y-83700000D03*
X140540000Y-83700000D03*
%TD*%
D24*
%TO.C,C14*%
X139612500Y-82700000D03*
X140572500Y-82700000D03*
%TD*%
D28*
%TO.C,C13*%
X142472500Y-82700000D03*
X141512500Y-82700000D03*
%TD*%
D22*
%TO.C,C30*%
X136280000Y-96400000D03*
X136920000Y-96400000D03*
%TD*%
D21*
%TO.C,C63*%
X135850000Y-133380000D03*
X135850000Y-132420000D03*
%TD*%
D15*
%TO.C,FB3*%
X159625000Y-128560000D03*
X159625000Y-127090000D03*
%TD*%
D18*
%TO.C,C28*%
X146200000Y-87280000D03*
X146200000Y-87920000D03*
%TD*%
D29*
%TO.C,C22*%
X133950000Y-81100000D03*
X133950000Y-78150000D03*
%TD*%
D22*
%TO.C,C8*%
X136880000Y-95700000D03*
X137520000Y-95700000D03*
%TD*%
D18*
%TO.C,C24*%
X140427818Y-86726447D03*
X140427818Y-87366447D03*
%TD*%
D17*
%TO.C,C41*%
X146300000Y-100340000D03*
X146300000Y-99700000D03*
%TD*%
D21*
%TO.C,C74*%
X118125000Y-128555000D03*
X118125000Y-127595000D03*
%TD*%
D24*
%TO.C,C52*%
X138570000Y-117450000D03*
X139530000Y-117450000D03*
%TD*%
D21*
%TO.C,C71*%
X184025000Y-128555000D03*
X184025000Y-127595000D03*
%TD*%
%TO.C,C66*%
X178100000Y-133430000D03*
X178100000Y-132470000D03*
%TD*%
%TO.C,C68*%
X161550000Y-128530000D03*
X161550000Y-127570000D03*
%TD*%
D23*
%TO.C,C53*%
X135391667Y-115262500D03*
X135391667Y-108862500D03*
%TD*%
D30*
%TO.C,FB5*%
X133100000Y-85650000D03*
X131630000Y-85650000D03*
%TD*%
D18*
%TO.C,C35*%
X146900000Y-86880000D03*
X146900000Y-87520000D03*
%TD*%
D17*
%TO.C,C18*%
X146792893Y-85915686D03*
X146792893Y-85275686D03*
%TD*%
D16*
%TO.C,C21*%
X149524264Y-97657107D03*
X148884264Y-97657107D03*
%TD*%
D15*
%TO.C,FB7*%
X115350000Y-128454466D03*
X115350000Y-126984466D03*
%TD*%
D31*
%TO.C,FB6*%
X169030000Y-83300000D03*
X170500000Y-83300000D03*
%TD*%
D18*
%TO.C,C29*%
X143900000Y-87000000D03*
X143900000Y-87640000D03*
%TD*%
D17*
%TO.C,C39*%
X141000000Y-100420000D03*
X141000000Y-99780000D03*
%TD*%
D16*
%TO.C,C5*%
X149100000Y-96950000D03*
X148460000Y-96950000D03*
%TD*%
D24*
%TO.C,C49*%
X116545000Y-117150000D03*
X117505000Y-117150000D03*
%TD*%
D23*
%TO.C,C56*%
X157458333Y-115262500D03*
X157458333Y-108862500D03*
%TD*%
D22*
%TO.C,C38*%
X136280000Y-91300000D03*
X136920000Y-91300000D03*
%TD*%
D17*
%TO.C,C11*%
X144900000Y-99975000D03*
X144900000Y-99335000D03*
%TD*%
D19*
%TO.C,R19*%
X112475000Y-133435000D03*
X112475000Y-132415000D03*
%TD*%
D21*
%TO.C,C73*%
X113475000Y-133405000D03*
X113475000Y-132445000D03*
%TD*%
D17*
%TO.C,C40*%
X144200000Y-100340000D03*
X144200000Y-99700000D03*
%TD*%
D29*
%TO.C,C46*%
X116400000Y-78800000D03*
X116400000Y-75850000D03*
%TD*%
D18*
%TO.C,C36*%
X142480000Y-87000000D03*
X142480000Y-87640000D03*
%TD*%
M02*
