%TF.GenerationSoftware,KiCad,Pcbnew,9.0.1*%
%TF.CreationDate,2025-04-09T09:38:03-07:00*%
%TF.ProjectId,DeskHub,4465736b-4875-4622-9e6b-696361645f70,rev?*%
%TF.SameCoordinates,Original*%
%TF.FileFunction,Soldermask,Top*%
%TF.FilePolarity,Negative*%
%FSLAX46Y46*%
G04 Gerber Fmt 4.6, Leading zero omitted, Abs format (unit mm)*
G04 Created by KiCad (PCBNEW 9.0.1) date 2025-04-09 09:38:03*
%MOMM*%
%LPD*%
G01*
G04 APERTURE LIST*
G04 Aperture macros list*
%AMRoundRect*
0 Rectangle with rounded corners*
0 $1 Rounding radius*
0 $2 $3 $4 $5 $6 $7 $8 $9 X,Y pos of 4 corners*
0 Add a 4 corners polygon primitive as box body*
4,1,4,$2,$3,$4,$5,$6,$7,$8,$9,$2,$3,0*
0 Add four circle primitives for the rounded corners*
1,1,$1+$1,$2,$3*
1,1,$1+$1,$4,$5*
1,1,$1+$1,$6,$7*
1,1,$1+$1,$8,$9*
0 Add four rect primitives between the rounded corners*
20,1,$1+$1,$2,$3,$4,$5,0*
20,1,$1+$1,$4,$5,$6,$7,0*
20,1,$1+$1,$6,$7,$8,$9,0*
20,1,$1+$1,$8,$9,$2,$3,0*%
G04 Aperture macros list end*
%ADD10RoundRect,0.250000X-0.350000X0.850000X-0.350000X-0.850000X0.350000X-0.850000X0.350000X0.850000X0*%
%ADD11RoundRect,0.249997X-2.650003X2.950003X-2.650003X-2.950003X2.650003X-2.950003X2.650003X2.950003X0*%
%ADD12RoundRect,0.135000X0.185000X-0.135000X0.185000X0.135000X-0.185000X0.135000X-0.185000X-0.135000X0*%
%ADD13RoundRect,0.140000X-0.140000X-0.170000X0.140000X-0.170000X0.140000X0.170000X-0.140000X0.170000X0*%
%ADD14RoundRect,0.135000X-0.135000X-0.185000X0.135000X-0.185000X0.135000X0.185000X-0.135000X0.185000X0*%
%ADD15O,4.904000X2.204000*%
%ADD16O,2.204000X4.904000*%
%ADD17RoundRect,0.135000X0.135000X0.185000X-0.135000X0.185000X-0.135000X-0.185000X0.135000X-0.185000X0*%
%ADD18R,0.431800X1.574800*%
%ADD19R,1.890000X1.570000*%
%ADD20RoundRect,0.250000X-0.650000X0.325000X-0.650000X-0.325000X0.650000X-0.325000X0.650000X0.325000X0*%
%ADD21RoundRect,0.140000X0.170000X-0.140000X0.170000X0.140000X-0.170000X0.140000X-0.170000X-0.140000X0*%
%ADD22C,1.632000*%
%ADD23C,3.520000*%
%ADD24RoundRect,0.218750X-0.218750X-0.256250X0.218750X-0.256250X0.218750X0.256250X-0.218750X0.256250X0*%
%ADD25RoundRect,0.135000X-0.185000X0.135000X-0.185000X-0.135000X0.185000X-0.135000X0.185000X0.135000X0*%
%ADD26RoundRect,0.250000X-0.325000X-0.650000X0.325000X-0.650000X0.325000X0.650000X-0.325000X0.650000X0*%
%ADD27RoundRect,0.250000X0.650000X-0.325000X0.650000X0.325000X-0.650000X0.325000X-0.650000X-0.325000X0*%
%ADD28R,4.400000X4.400000*%
%ADD29R,1.500000X0.300000*%
%ADD30R,0.300000X1.500000*%
%ADD31RoundRect,0.068000X0.559000X0.204000X-0.559000X0.204000X-0.559000X-0.204000X0.559000X-0.204000X0*%
%ADD32RoundRect,0.068000X0.204000X0.559000X-0.204000X0.559000X-0.204000X-0.559000X0.204000X-0.559000X0*%
%ADD33RoundRect,0.102000X1.575000X1.575000X-1.575000X1.575000X-1.575000X-1.575000X1.575000X-1.575000X0*%
%ADD34RoundRect,0.218750X0.218750X0.256250X-0.218750X0.256250X-0.218750X-0.256250X0.218750X-0.256250X0*%
%ADD35RoundRect,0.250000X0.475000X-0.250000X0.475000X0.250000X-0.475000X0.250000X-0.475000X-0.250000X0*%
%ADD36RoundRect,0.250000X0.325000X0.650000X-0.325000X0.650000X-0.325000X-0.650000X0.325000X-0.650000X0*%
G04 APERTURE END LIST*
D10*
%TO.C,U2*%
X242450000Y-88200000D03*
X240170000Y-88200000D03*
D11*
X240170000Y-94500000D03*
D10*
X237890000Y-88200000D03*
%TD*%
D12*
%TO.C,R11*%
X70250000Y-145750000D03*
X70250000Y-144730000D03*
%TD*%
D13*
%TO.C,C1*%
X151170000Y-88900000D03*
X152130000Y-88900000D03*
%TD*%
D14*
%TO.C,R3*%
X151340000Y-79300000D03*
X152360000Y-79300000D03*
%TD*%
D15*
%TO.C,J2*%
X251492500Y-74915000D03*
X251492500Y-69115000D03*
D16*
X246692500Y-71915000D03*
%TD*%
D14*
%TO.C,R23*%
X172880000Y-99000000D03*
X173900000Y-99000000D03*
%TD*%
D17*
%TO.C,R1*%
X129210000Y-82550000D03*
X128190000Y-82550000D03*
%TD*%
D18*
%TO.C,U7*%
X224925001Y-148945500D03*
X225574999Y-148945500D03*
X226225001Y-148945500D03*
X226874999Y-148945500D03*
X226874999Y-144754500D03*
X226225001Y-144754500D03*
X225574999Y-144754500D03*
X224925001Y-144754500D03*
D19*
X225900000Y-146850000D03*
%TD*%
D17*
%TO.C,R27*%
X173900000Y-93000000D03*
X172880000Y-93000000D03*
%TD*%
D13*
%TO.C,C54*%
X174270000Y-151250000D03*
X175230000Y-151250000D03*
%TD*%
D20*
%TO.C,C47*%
X119850000Y-87700000D03*
X119850000Y-90650000D03*
%TD*%
D21*
%TO.C,C43*%
X241742500Y-82380000D03*
X241742500Y-81420000D03*
%TD*%
D22*
%TO.C,J6*%
X239800000Y-157660000D03*
X242300000Y-157660000D03*
X244300000Y-157660000D03*
X246800000Y-157660000D03*
D23*
X236730000Y-160370000D03*
X249870000Y-160370000D03*
%TD*%
D13*
%TO.C,C48*%
X68470000Y-150850000D03*
X69430000Y-150850000D03*
%TD*%
D24*
%TO.C,D2*%
X230855000Y-89350000D03*
X232430000Y-89350000D03*
%TD*%
D14*
%TO.C,R20*%
X165040000Y-90600000D03*
X166060000Y-90600000D03*
%TD*%
D25*
%TO.C,R8*%
X113250000Y-84350000D03*
X113250000Y-85370000D03*
%TD*%
D22*
%TO.C,J5*%
X183340000Y-157660000D03*
X185840000Y-157660000D03*
X187840000Y-157660000D03*
X190340000Y-157660000D03*
D23*
X180270000Y-160370000D03*
X193410000Y-160370000D03*
%TD*%
D26*
%TO.C,C15*%
X158874999Y-68543197D03*
X161824999Y-68543197D03*
%TD*%
D27*
%TO.C,C45*%
X234742500Y-83625000D03*
X234742500Y-80675000D03*
%TD*%
D22*
%TO.C,J7*%
X70420000Y-157660000D03*
X72920000Y-157660000D03*
X74920000Y-157660000D03*
X77420000Y-157660000D03*
D23*
X67350000Y-160370000D03*
X80490000Y-160370000D03*
%TD*%
D14*
%TO.C,R25*%
X172880000Y-96000000D03*
X173900000Y-96000000D03*
%TD*%
D13*
%TO.C,C51*%
X120720000Y-151000000D03*
X121680000Y-151000000D03*
%TD*%
D12*
%TO.C,R13*%
X175350000Y-145770000D03*
X175350000Y-144750000D03*
%TD*%
%TO.C,R14*%
X229050000Y-145760000D03*
X229050000Y-144740000D03*
%TD*%
D28*
%TO.C,U1*%
X143300000Y-93600000D03*
D29*
X149000000Y-97350000D03*
X149000000Y-96850000D03*
X149000000Y-96350000D03*
X149000000Y-95850000D03*
X149000000Y-95350000D03*
X149000000Y-94850000D03*
X149000000Y-94350000D03*
X149000000Y-93850000D03*
X149000000Y-93350000D03*
X149000000Y-92850000D03*
X149000000Y-92350000D03*
X149000000Y-91850000D03*
X149000000Y-91350000D03*
X149000000Y-90850000D03*
X149000000Y-90350000D03*
X149000000Y-89850000D03*
D30*
X147050000Y-87900000D03*
X146550000Y-87900000D03*
X146050000Y-87900000D03*
X145550000Y-87900000D03*
X145050000Y-87900000D03*
X144550000Y-87900000D03*
X144050000Y-87900000D03*
X143550000Y-87900000D03*
X143050000Y-87900000D03*
X142550000Y-87900000D03*
X142050000Y-87900000D03*
X141550000Y-87900000D03*
X141050000Y-87900000D03*
X140550000Y-87900000D03*
X140050000Y-87900000D03*
X139550000Y-87900000D03*
D29*
X137600000Y-89850000D03*
X137600000Y-90350000D03*
X137600000Y-90850000D03*
X137600000Y-91350000D03*
X137600000Y-91850000D03*
X137600000Y-92350000D03*
X137600000Y-92850000D03*
X137600000Y-93350000D03*
X137600000Y-93850000D03*
X137600000Y-94350000D03*
X137600000Y-94850000D03*
X137600000Y-95350000D03*
X137600000Y-95850000D03*
X137600000Y-96350000D03*
X137600000Y-96850000D03*
X137600000Y-97350000D03*
D30*
X139550000Y-99300000D03*
X140050000Y-99300000D03*
X140550000Y-99300000D03*
X141050000Y-99300000D03*
X141550000Y-99300000D03*
X142050000Y-99300000D03*
X142550000Y-99300000D03*
X143050000Y-99300000D03*
X143550000Y-99300000D03*
X144050000Y-99300000D03*
X144550000Y-99300000D03*
X145050000Y-99300000D03*
X145550000Y-99300000D03*
X146050000Y-99300000D03*
X146550000Y-99300000D03*
X147050000Y-99300000D03*
%TD*%
D14*
%TO.C,R21*%
X164990000Y-92750000D03*
X166010000Y-92750000D03*
%TD*%
D31*
%TO.C,U3*%
X120660000Y-84350000D03*
X120660000Y-83700000D03*
X120660000Y-83050000D03*
X120660000Y-82400000D03*
X120660000Y-81750000D03*
D32*
X119600000Y-80690000D03*
X118950000Y-80690000D03*
X118300000Y-80690000D03*
X117650000Y-80690000D03*
X117000000Y-80690000D03*
D31*
X115940000Y-81750000D03*
X115940000Y-82400000D03*
X115940000Y-83050000D03*
X115940000Y-83700000D03*
X115940000Y-84350000D03*
D32*
X117000000Y-85410000D03*
X117650000Y-85410000D03*
X118300000Y-85410000D03*
X118950000Y-85410000D03*
X119600000Y-85410000D03*
D33*
X118300000Y-83050000D03*
%TD*%
D22*
%TO.C,J4*%
X126880000Y-157660000D03*
X129380000Y-157660000D03*
X131380000Y-157660000D03*
X133880000Y-157660000D03*
D23*
X123810000Y-160370000D03*
X136950000Y-160370000D03*
%TD*%
D13*
%TO.C,C57*%
X228370000Y-151350000D03*
X229330000Y-151350000D03*
%TD*%
D14*
%TO.C,R5*%
X174124999Y-64393197D03*
X175144999Y-64393197D03*
%TD*%
D18*
%TO.C,U4*%
X65725001Y-148945500D03*
X66374999Y-148945500D03*
X67025001Y-148945500D03*
X67674999Y-148945500D03*
X67674999Y-144754500D03*
X67025001Y-144754500D03*
X66374999Y-144754500D03*
X65725001Y-144754500D03*
D19*
X66700000Y-146850000D03*
%TD*%
D14*
%TO.C,R15*%
X164990000Y-91750000D03*
X166010000Y-91750000D03*
%TD*%
D12*
%TO.C,R4*%
X153300000Y-81360000D03*
X153300000Y-80340000D03*
%TD*%
D18*
%TO.C,U5*%
X118225001Y-148945500D03*
X118874999Y-148945500D03*
X119525001Y-148945500D03*
X120174999Y-148945500D03*
X120174999Y-144754500D03*
X119525001Y-144754500D03*
X118874999Y-144754500D03*
X118225001Y-144754500D03*
D19*
X119200000Y-146850000D03*
%TD*%
D12*
%TO.C,R12*%
X123300000Y-145810000D03*
X123300000Y-144790000D03*
%TD*%
D18*
%TO.C,U6*%
X171475001Y-148945500D03*
X172124999Y-148945500D03*
X172775001Y-148945500D03*
X173424999Y-148945500D03*
X173424999Y-144754500D03*
X172775001Y-144754500D03*
X172124999Y-144754500D03*
X171475001Y-144754500D03*
D19*
X172450000Y-146850000D03*
%TD*%
D14*
%TO.C,R26*%
X172880000Y-94500000D03*
X173900000Y-94500000D03*
%TD*%
D34*
%TO.C,D1*%
X172774999Y-64393197D03*
X171199999Y-64393197D03*
%TD*%
D17*
%TO.C,R7*%
X229102500Y-89350000D03*
X228082500Y-89350000D03*
%TD*%
D35*
%TO.C,C44*%
X237642500Y-83650000D03*
X237642500Y-81750000D03*
%TD*%
D17*
%TO.C,R10*%
X117320000Y-87300000D03*
X116300000Y-87300000D03*
%TD*%
D36*
%TO.C,C42*%
X247267500Y-79800000D03*
X244317500Y-79800000D03*
%TD*%
D25*
%TO.C,R9*%
X115100000Y-87290000D03*
X115100000Y-88310000D03*
%TD*%
D14*
%TO.C,R22*%
X164990000Y-93750000D03*
X166010000Y-93750000D03*
%TD*%
%TO.C,R24*%
X172880000Y-97500000D03*
X173900000Y-97500000D03*
%TD*%
D22*
%TO.C,J1*%
X152674999Y-65433197D03*
X150174999Y-65433197D03*
X148174999Y-65433197D03*
X145674999Y-65433197D03*
D23*
X155744999Y-62723197D03*
X142604999Y-62723197D03*
%TD*%
M02*
